<svg width="228" height="22" viewBox="0 0 228 22" fill="none" xmlns="http://www.w3.org/2000/svg">
<path d="M15.234 15.846C15.234 15.978 15.124 16.044 14.904 16.044C14.7573 16.044 14.6253 16.0367 14.508 16.022L11.714 15.978L8.92 16.022C8.81733 16.0367 8.70733 16.044 8.59 16.044C8.29667 16.044 8.15 15.9707 8.15 15.824C8.15 15.6627 8.348 15.582 8.744 15.582C10.0347 15.5673 10.68 15.4353 10.68 15.186C10.68 15.1713 10.6653 15.1127 10.636 15.01L10.46 14.416L10.35 14.108C10.218 13.6533 9.89533 12.6487 9.382 11.094H4.674C3.794 13.4407 3.354 14.79 3.354 15.142C3.354 15.3473 3.442 15.472 3.618 15.516C3.662 15.5307 4.02867 15.56 4.718 15.604C5.14333 15.6187 5.356 15.692 5.356 15.824C5.356 15.9707 5.16533 16.044 4.784 16.044C4.10933 16.044 3.32467 16.0147 2.43 15.956C2.21 15.9413 1.98267 15.934 1.748 15.934C1.51333 15.934 1.286 15.9487 1.066 15.978C0.948667 15.9927 0.853333 16 0.78 16C0.574667 16 0.472 15.934 0.472 15.802C0.472 15.67 0.699333 15.5967 1.154 15.582C1.62333 15.5673 1.96067 15.5013 2.166 15.384C2.37133 15.252 2.53267 15.01 2.65 14.658C4.542 9.26067 6.082 4.92667 7.27 1.656C7.29933 1.48 7.358 1.282 7.446 1.062L7.556 0.665999C7.6 0.504666 7.65867 0.424 7.732 0.424C7.776 0.424 7.81267 0.468 7.842 0.556C8.03267 1.128 8.46533 2.32333 9.14 4.142C9.668 5.56467 10.9807 9.136 13.078 14.856C13.1953 15.1787 13.342 15.384 13.518 15.472C13.7087 15.56 14.09 15.6113 14.662 15.626C15.0433 15.6407 15.234 15.714 15.234 15.846ZM9.25 10.588C9.01533 9.928 8.62667 8.83533 8.084 7.31L7.028 4.296C6.412 5.90933 5.67133 8.00667 4.806 10.588H9.25ZM25.0584 7.442C25.0584 8.11667 24.7577 8.454 24.1564 8.454C23.951 8.454 23.7604 8.388 23.5844 8.256C23.423 8.10933 23.3424 7.948 23.3424 7.772C23.3424 7.71333 23.3644 7.62533 23.4084 7.508C23.4524 7.376 23.4744 7.27333 23.4744 7.2C23.4744 7.00933 23.3717 6.914 23.1664 6.914C22.9904 6.914 22.8217 7.00933 22.6604 7.2C22.499 7.376 22.4184 7.55933 22.4184 7.75C22.4184 7.794 22.455 8.04333 22.5284 8.498C22.6017 8.95267 22.6384 9.29733 22.6384 9.532C22.6384 10.5293 22.2937 11.3653 21.6044 12.04C20.915 12.7147 20.057 13.052 19.0304 13.052C18.7664 13.052 18.2824 12.942 17.5784 12.722C17.3877 12.6633 17.263 12.634 17.2044 12.634C16.8964 12.634 16.6177 12.7587 16.3684 13.008C16.119 13.2573 15.9944 13.5287 15.9944 13.822C15.9944 14.5847 16.4564 14.966 17.3804 14.966C17.7324 14.966 18.297 14.9 19.0744 14.768C19.6757 14.6653 20.2257 14.614 20.7244 14.614C21.619 14.614 22.3157 14.8487 22.8144 15.318C23.3277 15.7873 23.5844 16.44 23.5844 17.276C23.5844 18.5373 23.0417 19.586 21.9564 20.422C20.8857 21.258 19.529 21.676 17.8864 21.676C16.669 21.676 15.7084 21.4267 15.0044 20.928C14.315 20.444 13.9704 19.7693 13.9704 18.904C13.9704 18.068 14.293 17.4373 14.9384 17.012C15.261 16.8067 15.7744 16.6233 16.4784 16.462C15.437 16.0513 14.9164 15.4207 14.9164 14.57C14.9164 13.514 15.591 12.7807 16.9404 12.37C16.0604 11.6807 15.6204 10.7713 15.6204 9.642C15.6204 8.586 15.9577 7.74267 16.6324 7.112C17.307 6.46667 18.1944 6.144 19.2944 6.144C19.8957 6.144 20.3797 6.22467 20.7464 6.386C21.1277 6.54733 21.5677 6.87 22.0664 7.354C22.5357 6.66467 23.115 6.32 23.8044 6.32C24.6404 6.32 25.0584 6.694 25.0584 7.442ZM20.9664 9.62C20.9664 7.49333 20.3797 6.43 19.2064 6.43C18.0624 6.43 17.4904 7.42 17.4904 9.4C17.4904 11.6293 18.099 12.744 19.3164 12.744C20.4164 12.744 20.9664 11.7027 20.9664 9.62ZM22.6604 18.046C22.6604 16.8287 21.9417 16.22 20.5044 16.22C20.0937 16.22 19.485 16.286 18.6784 16.418C17.8864 16.55 17.2924 16.616 16.8964 16.616C16.1484 17.012 15.7744 17.7087 15.7744 18.706C15.7744 19.454 16.0384 20.0553 16.5664 20.51C17.109 20.9647 17.8204 21.192 18.7004 21.192C19.815 21.192 20.7537 20.884 21.5164 20.268C22.279 19.6667 22.6604 18.926 22.6604 18.046ZM33.3919 13.602C33.3919 13.7487 33.2746 14.0127 33.0399 14.394C32.8199 14.7607 32.5926 15.0613 32.3579 15.296C31.7272 15.9413 30.8839 16.264 29.8279 16.264C28.5079 16.264 27.4006 15.7873 26.5059 14.834C25.6259 13.8807 25.1859 12.7 25.1859 11.292C25.1859 9.82533 25.6039 8.60067 26.4399 7.618C27.2906 6.63533 28.3466 6.144 29.6079 6.144C30.6492 6.144 31.5219 6.452 32.2259 7.068C32.9299 7.66933 33.3039 8.44667 33.3479 9.4C32.8786 9.47333 32.2552 9.50267 31.4779 9.488L29.9379 9.466C29.8352 9.466 28.9552 9.488 27.2979 9.532C27.2246 10.016 27.1879 10.478 27.1879 10.918C27.1879 12.3993 27.4666 13.5433 28.0239 14.35C28.5959 15.142 29.3952 15.538 30.4219 15.538C31.0086 15.538 31.4779 15.406 31.8299 15.142C32.1819 14.878 32.5632 14.372 32.9739 13.624C33.0326 13.5067 33.1132 13.448 33.2159 13.448C33.3332 13.448 33.3919 13.4993 33.3919 13.602ZM31.4779 9.114C31.4192 7.354 30.7886 6.474 29.5859 6.474C28.3979 6.474 27.6572 7.354 27.3639 9.114H31.4779ZM44.627 15.868C44.627 15.9853 44.517 16.044 44.297 16.044H44.033C43.769 16.0147 43.4097 16 42.955 16C41.5177 16 40.667 16.0147 40.403 16.044H40.249C40.0584 16.044 39.963 15.9927 39.963 15.89C39.963 15.8167 39.9997 15.7727 40.073 15.758C40.161 15.7433 40.447 15.7287 40.931 15.714C41.2097 15.6993 41.371 15.6627 41.415 15.604C41.459 15.5307 41.481 15.2887 41.481 14.878V10.654C41.481 9.05533 41.4224 8.102 41.305 7.794C41.0557 7.134 40.557 6.804 39.809 6.804C39.0757 6.804 38.4597 7.12667 37.961 7.772C37.8144 7.96267 37.741 8.22667 37.741 8.564L37.763 15.428C37.763 15.604 37.917 15.6993 38.225 15.714L38.885 15.736C39.0317 15.736 39.105 15.7873 39.105 15.89C39.105 15.9927 39.017 16.044 38.841 16.044H38.489C38.1664 16.0147 37.653 16 36.949 16C36.7877 16 36.4357 16.0073 35.893 16.022C35.365 16.0367 35.057 16.044 34.969 16.044H34.837C34.617 16.044 34.507 15.9927 34.507 15.89C34.507 15.7873 34.639 15.7213 34.903 15.692C35.0937 15.692 35.277 15.692 35.453 15.692C35.673 15.692 35.805 15.6407 35.849 15.538L35.915 15.208V10.412C35.915 8.74 35.9004 7.816 35.871 7.64C35.8417 7.464 35.6584 7.376 35.321 7.376C35.2184 7.376 35.0424 7.39067 34.793 7.42H34.683C34.3897 7.42 34.243 7.36867 34.243 7.266C34.243 7.134 34.397 7.068 34.705 7.068C35.145 7.05333 35.6217 6.97267 36.135 6.826C36.6484 6.67933 37.0077 6.51067 37.213 6.32C37.345 6.20267 37.4477 6.144 37.521 6.144C37.6237 6.144 37.675 6.28333 37.675 6.562V7.618C38.4377 6.63533 39.4204 6.144 40.623 6.144C41.679 6.144 42.4417 6.53267 42.911 7.31C43.175 7.75 43.307 8.586 43.307 9.818V14.834C43.307 15.3033 43.329 15.56 43.373 15.604C43.461 15.692 43.6737 15.736 44.011 15.736C44.055 15.736 44.1357 15.7287 44.253 15.714H44.407C44.5537 15.714 44.627 15.7653 44.627 15.868ZM55.2367 15.56C55.2367 15.6627 55.134 15.714 54.9287 15.714H54.8187C54.7014 15.714 54.5767 15.7067 54.4447 15.692C54.3274 15.692 54.2687 15.692 54.2687 15.692C53.55 15.692 52.9414 15.8387 52.4427 16.132C52.2374 16.2493 52.1127 16.308 52.0687 16.308C51.9367 16.308 51.8707 16.22 51.8707 16.044L51.8927 15.362C51.262 15.9633 50.514 16.264 49.6487 16.264C48.4167 16.264 47.3974 15.7947 46.5907 14.856C45.7987 13.9027 45.4027 12.6927 45.4027 11.226C45.4027 9.71533 45.7987 8.49067 46.5907 7.552C47.3974 6.61333 48.446 6.144 49.7367 6.144C50.734 6.144 51.482 6.50333 51.9807 7.222V3.79C51.9807 2.67533 51.9294 1.986 51.8267 1.722C51.7387 1.502 51.6067 1.39933 51.4307 1.414C51.0054 1.458 50.7487 1.48 50.6607 1.48C50.47 1.48 50.3747 1.414 50.3747 1.282C50.3747 1.15 50.4554 1.084 50.6167 1.084L51.4087 1.106C51.8487 1.12067 52.5234 0.915332 53.4327 0.489999C53.4914 0.460666 53.5427 0.446 53.5867 0.446C53.7334 0.446 53.8067 0.622 53.8067 0.973999C53.8067 1.062 53.8067 1.216 53.8067 1.436C53.792 1.67067 53.7847 1.876 53.7847 2.052V9.642C53.7847 13.118 53.8214 14.9807 53.8947 15.23C53.924 15.3327 54.2687 15.384 54.9287 15.384C55.134 15.384 55.2367 15.4427 55.2367 15.56ZM51.9807 10.038C51.9807 8.63 51.8267 7.728 51.5187 7.332C51.1227 6.83333 50.6167 6.584 50.0007 6.584C49.2087 6.584 48.578 6.99467 48.1087 7.816C47.6394 8.63733 47.4047 9.73733 47.4047 11.116C47.4047 12.436 47.61 13.5653 48.0207 14.504C48.1967 14.9 48.4534 15.23 48.7907 15.494C49.1427 15.7433 49.502 15.868 49.8687 15.868C50.3234 15.868 50.734 15.736 51.1007 15.472C51.4674 15.1933 51.702 14.8633 51.8047 14.482C51.922 14.1007 51.9807 12.6193 51.9807 10.038ZM64.6216 15.01C64.6216 15.2593 64.3576 15.5233 63.8296 15.802C63.3163 16.066 62.8176 16.198 62.3336 16.198C61.3216 16.198 60.7936 15.6773 60.7496 14.636C60.1923 15.7213 59.3269 16.264 58.1536 16.264C57.5229 16.264 57.0023 16.0807 56.5916 15.714C56.1809 15.3327 55.9756 14.8487 55.9756 14.262C55.9756 13.0593 56.7016 12.106 58.1536 11.402C58.6523 11.1673 59.5176 10.9327 60.7496 10.698V10.148C60.7496 8.85733 60.6836 8.00667 60.5516 7.596C60.3169 6.848 59.7889 6.474 58.9676 6.474C58.4543 6.474 58.0216 6.61333 57.6696 6.892C57.3323 7.17067 57.1636 7.52267 57.1636 7.948C57.1636 8.06533 57.2516 8.124 57.4276 8.124C57.6183 8.124 57.7869 8.212 57.9336 8.388C58.0803 8.564 58.1536 8.762 58.1536 8.982C58.1536 9.62733 57.8309 9.95 57.1856 9.95C56.8483 9.95 56.5696 9.84 56.3496 9.62C56.1296 9.38533 56.0196 9.092 56.0196 8.74C56.0196 8.05067 56.2909 7.45667 56.8336 6.958C57.4349 6.41533 58.2709 6.144 59.3416 6.144C60.9549 6.144 61.9449 6.584 62.3116 7.464C62.4436 7.80133 62.5096 8.46867 62.5096 9.466V13.58C62.5096 14.2547 62.5169 14.6507 62.5316 14.768C62.6049 15.296 62.8176 15.56 63.1696 15.56C63.5803 15.56 63.9176 15.4133 64.1816 15.12C64.3283 14.9587 64.4383 14.878 64.5116 14.878C64.5849 14.878 64.6216 14.922 64.6216 15.01ZM60.7496 12.678V11.072C59.6496 11.3213 58.8576 11.6513 58.3736 12.062C57.9043 12.458 57.6696 12.9933 57.6696 13.668C57.6696 14.1373 57.8016 14.526 58.0656 14.834C58.3443 15.1273 58.6889 15.274 59.0996 15.274C59.7303 15.274 60.2363 14.922 60.6176 14.218C60.7056 14.0567 60.7496 13.5433 60.7496 12.678ZM74.5977 15.868C74.5977 15.9853 74.4877 16.044 74.2677 16.044H74.0037C73.7397 16.0147 73.3804 16 72.9257 16C71.4884 16 70.6377 16.0147 70.3737 16.044H70.2197C70.0291 16.044 69.9337 15.9927 69.9337 15.89C69.9337 15.8167 69.9704 15.7727 70.0437 15.758C70.1317 15.7433 70.4177 15.7287 70.9017 15.714C71.1804 15.6993 71.3417 15.6627 71.3857 15.604C71.4297 15.5307 71.4517 15.2887 71.4517 14.878V10.654C71.4517 9.05533 71.3931 8.102 71.2757 7.794C71.0264 7.134 70.5277 6.804 69.7797 6.804C69.0464 6.804 68.4304 7.12667 67.9317 7.772C67.7851 7.96267 67.7117 8.22667 67.7117 8.564L67.7337 15.428C67.7337 15.604 67.8877 15.6993 68.1957 15.714L68.8557 15.736C69.0024 15.736 69.0757 15.7873 69.0757 15.89C69.0757 15.9927 68.9877 16.044 68.8117 16.044H68.4597C68.1371 16.0147 67.6237 16 66.9197 16C66.7584 16 66.4064 16.0073 65.8637 16.022C65.3357 16.0367 65.0277 16.044 64.9397 16.044H64.8077C64.5877 16.044 64.4777 15.9927 64.4777 15.89C64.4777 15.7873 64.6097 15.7213 64.8737 15.692C65.0644 15.692 65.2477 15.692 65.4237 15.692C65.6437 15.692 65.7757 15.6407 65.8197 15.538L65.8857 15.208V10.412C65.8857 8.74 65.8711 7.816 65.8417 7.64C65.8124 7.464 65.6291 7.376 65.2917 7.376C65.1891 7.376 65.0131 7.39067 64.7637 7.42H64.6537C64.3604 7.42 64.2137 7.36867 64.2137 7.266C64.2137 7.134 64.3677 7.068 64.6757 7.068C65.1157 7.05333 65.5924 6.97267 66.1057 6.826C66.6191 6.67933 66.9784 6.51067 67.1837 6.32C67.3157 6.20267 67.4184 6.144 67.4917 6.144C67.5944 6.144 67.6457 6.28333 67.6457 6.562V7.618C68.4084 6.63533 69.3911 6.144 70.5937 6.144C71.6497 6.144 72.4124 6.53267 72.8817 7.31C73.1457 7.75 73.2777 8.586 73.2777 9.818V14.834C73.2777 15.3033 73.2997 15.56 73.3437 15.604C73.4317 15.692 73.6444 15.736 73.9817 15.736C74.0257 15.736 74.1064 15.7287 74.2237 15.714H74.3777C74.5244 15.714 74.5977 15.7653 74.5977 15.868ZM84.5914 11.248C84.5914 12.6707 84.1587 13.866 83.2934 14.834C82.4281 15.7873 81.3501 16.264 80.0594 16.264C78.7247 16.264 77.6101 15.7873 76.7154 14.834C75.8207 13.866 75.3734 12.6707 75.3734 11.248C75.3734 9.78133 75.8061 8.564 76.6714 7.596C77.5514 6.628 78.6441 6.144 79.9494 6.144C81.2694 6.144 82.3694 6.63533 83.2494 7.618C84.1441 8.586 84.5914 9.796 84.5914 11.248ZM82.5894 11.226C82.5894 9.61267 82.3401 8.35867 81.8414 7.464C81.4747 6.804 80.8587 6.474 79.9934 6.474C79.1721 6.474 78.5267 6.89933 78.0574 7.75C77.6027 8.586 77.3754 9.752 77.3754 11.248C77.3754 12.7293 77.6174 13.888 78.1014 14.724C78.6001 15.5453 79.2894 15.956 80.1694 15.956C80.8441 15.956 81.3427 15.6993 81.6654 15.186C82.2814 14.218 82.5894 12.898 82.5894 11.226ZM92.6537 13.206C92.6537 14.0567 92.3384 14.7827 91.7077 15.384C91.0917 15.9707 90.3511 16.264 89.4857 16.264C88.9871 16.264 88.3784 16.088 87.6597 15.736C87.4691 15.6333 87.3004 15.582 87.1537 15.582C86.9484 15.582 86.7944 15.7213 86.6917 16C86.6331 16.176 86.5524 16.264 86.4497 16.264C86.3471 16.264 86.2957 16.2053 86.2957 16.088C86.2957 16.0147 86.3031 15.9267 86.3177 15.824C86.3617 15.5307 86.3837 15.098 86.3837 14.526C86.3837 14.482 86.3764 14.306 86.3617 13.998C86.3471 13.69 86.3397 13.4847 86.3397 13.382V13.14C86.3397 12.9787 86.3911 12.898 86.4937 12.898C86.6111 12.898 86.6771 12.9787 86.6917 13.14C86.7797 13.8147 86.9704 14.3427 87.2637 14.724C87.8504 15.4867 88.6351 15.868 89.6177 15.868C90.1457 15.868 90.5711 15.714 90.8937 15.406C91.2164 15.098 91.3777 14.6873 91.3777 14.174C91.3777 13.602 91.1944 13.1473 90.8277 12.81C90.6224 12.6193 90.4317 12.4873 90.2557 12.414C90.0944 12.326 89.6031 12.128 88.7817 11.82C87.1537 11.204 86.3397 10.28 86.3397 9.048C86.3397 8.22667 86.6184 7.53733 87.1757 6.98C87.7331 6.42267 88.4224 6.144 89.2437 6.144C89.5371 6.144 89.9771 6.232 90.5637 6.408C90.7104 6.452 90.8424 6.474 90.9597 6.474C91.2677 6.474 91.4584 6.32733 91.5317 6.034C91.5757 5.88733 91.6417 5.814 91.7297 5.814C91.8324 5.814 91.8837 5.87267 91.8837 5.99C91.8837 6.00467 91.8764 6.04867 91.8617 6.122L91.8397 7.046C91.8251 7.398 91.8617 7.96267 91.9497 8.74V8.784C91.9497 8.90133 91.8911 8.96 91.7737 8.96C91.6857 8.96 91.5757 8.74 91.4437 8.3C91.2824 7.772 90.9964 7.34667 90.5857 7.024C90.1897 6.70133 89.7277 6.54 89.1997 6.54C88.7011 6.54 88.2904 6.694 87.9677 7.002C87.6451 7.31 87.4837 7.69867 87.4837 8.168C87.4837 8.90133 87.9751 9.45867 88.9577 9.84C90.4831 10.4413 91.4511 10.94 91.8617 11.336C92.3897 11.8493 92.6537 12.4727 92.6537 13.206ZM106.202 13.602C106.202 13.7487 106.085 14.0127 105.85 14.394C105.63 14.7607 105.403 15.0613 105.168 15.296C104.538 15.9413 103.694 16.264 102.638 16.264C101.318 16.264 100.211 15.7873 99.3165 14.834C98.4365 13.8807 97.9965 12.7 97.9965 11.292C97.9965 9.82533 98.4145 8.60067 99.2505 7.618C100.101 6.63533 101.157 6.144 102.418 6.144C103.46 6.144 104.332 6.452 105.036 7.068C105.74 7.66933 106.114 8.44667 106.158 9.4C105.689 9.47333 105.066 9.50267 104.288 9.488L102.748 9.466C102.646 9.466 101.766 9.488 100.108 9.532C100.035 10.016 99.9985 10.478 99.9985 10.918C99.9985 12.3993 100.277 13.5433 100.834 14.35C101.406 15.142 102.206 15.538 103.232 15.538C103.819 15.538 104.288 15.406 104.64 15.142C104.992 14.878 105.374 14.372 105.784 13.624C105.843 13.5067 105.924 13.448 106.026 13.448C106.144 13.448 106.202 13.4993 106.202 13.602ZM104.288 9.114C104.23 7.354 103.599 6.474 102.396 6.474C101.208 6.474 100.468 7.354 100.174 9.114H104.288ZM117.438 15.868C117.438 15.9853 117.328 16.044 117.108 16.044H116.844C116.58 16.0147 116.22 16 115.766 16C114.328 16 113.478 16.0147 113.214 16.044H113.06C112.869 16.044 112.774 15.9927 112.774 15.89C112.774 15.8167 112.81 15.7727 112.884 15.758C112.972 15.7433 113.258 15.7287 113.742 15.714C114.02 15.6993 114.182 15.6627 114.226 15.604C114.27 15.5307 114.292 15.2887 114.292 14.878V10.654C114.292 9.05533 114.233 8.102 114.116 7.794C113.866 7.134 113.368 6.804 112.62 6.804C111.886 6.804 111.27 7.12667 110.772 7.772C110.625 7.96267 110.552 8.22667 110.552 8.564L110.574 15.428C110.574 15.604 110.728 15.6993 111.036 15.714L111.696 15.736C111.842 15.736 111.916 15.7873 111.916 15.89C111.916 15.9927 111.828 16.044 111.652 16.044H111.3C110.977 16.0147 110.464 16 109.76 16C109.598 16 109.246 16.0073 108.704 16.022C108.176 16.0367 107.868 16.044 107.78 16.044H107.648C107.428 16.044 107.318 15.9927 107.318 15.89C107.318 15.7873 107.45 15.7213 107.714 15.692C107.904 15.692 108.088 15.692 108.264 15.692C108.484 15.692 108.616 15.6407 108.66 15.538L108.726 15.208V10.412C108.726 8.74 108.711 7.816 108.682 7.64C108.652 7.464 108.469 7.376 108.132 7.376C108.029 7.376 107.853 7.39067 107.604 7.42H107.494C107.2 7.42 107.054 7.36867 107.054 7.266C107.054 7.134 107.208 7.068 107.516 7.068C107.956 7.05333 108.432 6.97267 108.946 6.826C109.459 6.67933 109.818 6.51067 110.024 6.32C110.156 6.20267 110.258 6.144 110.332 6.144C110.434 6.144 110.486 6.28333 110.486 6.562V7.618C111.248 6.63533 112.231 6.144 113.434 6.144C114.49 6.144 115.252 6.53267 115.722 7.31C115.986 7.75 116.118 8.586 116.118 9.818V14.834C116.118 15.3033 116.14 15.56 116.184 15.604C116.272 15.692 116.484 15.736 116.822 15.736C116.866 15.736 116.946 15.7287 117.064 15.714H117.218C117.364 15.714 117.438 15.7653 117.438 15.868ZM128.279 14.702C128.279 14.834 128.096 15.0687 127.729 15.406C127.099 15.978 126.351 16.264 125.485 16.264C124.679 16.264 124.07 16.0587 123.659 15.648C123.425 15.4133 123.307 14.724 123.307 13.58V7.024C123.293 6.87733 123.212 6.79667 123.065 6.782H122.229C121.907 6.782 121.745 6.73067 121.745 6.628C121.745 6.52533 121.826 6.46667 121.987 6.452C123.131 6.34933 124.026 5.792 124.671 4.78C124.759 4.648 124.869 4.582 125.001 4.582C125.104 4.582 125.155 4.63333 125.155 4.736V4.824C125.141 4.89733 125.133 5.022 125.133 5.198C125.133 5.814 125.163 6.21 125.221 6.386C125.353 6.41533 125.573 6.43 125.881 6.43C126.688 6.43 127.223 6.39333 127.487 6.32C127.546 6.30533 127.597 6.298 127.641 6.298C127.759 6.298 127.817 6.364 127.817 6.496C127.817 6.716 127.223 6.826 126.035 6.826C125.83 6.826 125.529 6.81867 125.133 6.804V10.874C125.133 12.9273 125.185 14.218 125.287 14.746C125.39 15.2593 125.727 15.516 126.299 15.516C126.783 15.516 127.326 15.2447 127.927 14.702C127.986 14.6287 128.052 14.592 128.125 14.592C128.228 14.592 128.279 14.6287 128.279 14.702ZM138.865 15.252C138.865 15.3547 138.704 15.4133 138.381 15.428C137.237 15.5013 136.233 15.7507 135.367 16.176C135.309 16.2053 135.257 16.22 135.213 16.22C135.125 16.22 135.081 16.1613 135.081 16.044L135.103 14.812C134.429 15.78 133.483 16.264 132.265 16.264C131.18 16.264 130.403 15.9487 129.933 15.318C129.743 15.054 129.625 14.812 129.581 14.592C129.552 14.372 129.537 13.778 129.537 12.81V7.772C129.537 7.25867 129.508 6.958 129.449 6.87C129.391 6.782 129.193 6.73067 128.855 6.716L128.569 6.738C128.173 6.76733 127.975 6.70867 127.975 6.562C127.975 6.45933 128.1 6.408 128.349 6.408C128.613 6.408 128.995 6.42267 129.493 6.452C129.743 6.46667 129.889 6.474 129.933 6.474C130.447 6.474 130.923 6.452 131.363 6.408V12.546C131.363 13.6753 131.437 14.4233 131.583 14.79C131.818 15.362 132.295 15.648 133.013 15.648C133.791 15.648 134.363 15.3253 134.729 14.68C134.993 14.2107 135.125 13.4627 135.125 12.436V9.026C135.125 8.52733 135.118 8.15333 135.103 7.904L135.059 7.178C135.045 6.958 134.993 6.83333 134.905 6.804C134.832 6.76 134.671 6.738 134.421 6.738C133.805 6.75267 133.497 6.68667 133.497 6.54C133.497 6.452 133.651 6.408 133.959 6.408H134.157C134.275 6.42267 134.663 6.43 135.323 6.43C136.203 6.43 136.746 6.42267 136.951 6.408V12.546C136.951 13.602 136.973 14.2693 137.017 14.548C137.061 14.8267 137.171 14.988 137.347 15.032C137.538 15.076 137.956 15.098 138.601 15.098C138.777 15.098 138.865 15.1493 138.865 15.252ZM151.422 8.41C151.422 9.08467 151.092 9.422 150.432 9.422C149.787 9.422 149.464 9.114 149.464 8.498C149.464 8.33667 149.538 8.09467 149.684 7.772C149.728 7.66933 149.75 7.56667 149.75 7.464C149.75 7.17067 149.596 6.92867 149.288 6.738C148.995 6.54733 148.621 6.452 148.166 6.452C147.286 6.452 146.604 6.83333 146.12 7.596C145.636 8.35867 145.394 9.42933 145.394 10.808C145.394 12.3627 145.644 13.5653 146.142 14.416C146.641 15.252 147.345 15.67 148.254 15.67C148.87 15.67 149.42 15.4793 149.904 15.098C150.124 14.922 150.41 14.5847 150.762 14.086C150.836 14.0127 150.902 13.976 150.96 13.976C151.107 13.976 151.18 14.0347 151.18 14.152C151.18 14.3427 150.924 14.702 150.41 15.23C149.75 15.9193 148.907 16.264 147.88 16.264C146.59 16.264 145.519 15.802 144.668 14.878C143.832 13.954 143.414 12.788 143.414 11.38C143.414 9.86933 143.862 8.62267 144.756 7.64C145.651 6.64267 146.773 6.144 148.122 6.144C148.988 6.144 149.75 6.37133 150.41 6.826C151.085 7.28067 151.422 7.80867 151.422 8.41ZM161.172 15.01C161.172 15.2593 160.908 15.5233 160.38 15.802C159.867 16.066 159.368 16.198 158.884 16.198C157.872 16.198 157.344 15.6773 157.3 14.636C156.743 15.7213 155.878 16.264 154.704 16.264C154.074 16.264 153.553 16.0807 153.142 15.714C152.732 15.3327 152.526 14.8487 152.526 14.262C152.526 13.0593 153.252 12.106 154.704 11.402C155.203 11.1673 156.068 10.9327 157.3 10.698V10.148C157.3 8.85733 157.234 8.00667 157.102 7.596C156.868 6.848 156.34 6.474 155.518 6.474C155.005 6.474 154.572 6.61333 154.22 6.892C153.883 7.17067 153.714 7.52267 153.714 7.948C153.714 8.06533 153.802 8.124 153.978 8.124C154.169 8.124 154.338 8.212 154.484 8.388C154.631 8.564 154.704 8.762 154.704 8.982C154.704 9.62733 154.382 9.95 153.736 9.95C153.399 9.95 153.12 9.84 152.9 9.62C152.68 9.38533 152.57 9.092 152.57 8.74C152.57 8.05067 152.842 7.45667 153.384 6.958C153.986 6.41533 154.822 6.144 155.892 6.144C157.506 6.144 158.496 6.584 158.862 7.464C158.994 7.80133 159.06 8.46867 159.06 9.466V13.58C159.06 14.2547 159.068 14.6507 159.082 14.768C159.156 15.296 159.368 15.56 159.72 15.56C160.131 15.56 160.468 15.4133 160.732 15.12C160.879 14.9587 160.989 14.878 161.062 14.878C161.136 14.878 161.172 14.922 161.172 15.01ZM157.3 12.678V11.072C156.2 11.3213 155.408 11.6513 154.924 12.062C154.455 12.458 154.22 12.9933 154.22 13.668C154.22 14.1373 154.352 14.526 154.616 14.834C154.895 15.1273 155.24 15.274 155.65 15.274C156.281 15.274 156.787 14.922 157.168 14.218C157.256 14.0567 157.3 13.5433 157.3 12.678ZM165.451 15.846C165.451 15.978 165.355 16.044 165.165 16.044H164.901C164.871 16.044 164.483 16.0293 163.735 16L163.053 15.978C162.935 15.978 162.349 16 161.293 16.044C161.205 16.0587 161.117 16.066 161.029 16.066C160.809 16.0807 160.699 16.0147 160.699 15.868C160.699 15.7653 160.779 15.714 160.941 15.714H161.513C161.923 15.714 162.129 15.626 162.129 15.45C162.143 15.362 162.151 14.79 162.151 13.734V2.536C162.151 2.052 162.136 1.788 162.107 1.744C162.063 1.62667 161.945 1.568 161.755 1.568H161.579L160.963 1.59C160.757 1.59 160.655 1.524 160.655 1.392C160.655 1.27467 160.838 1.20867 161.205 1.194C161.909 1.15 162.561 0.988665 163.163 0.709999L163.625 0.489999L163.801 0.424C163.918 0.849333 163.969 1.49467 163.955 2.36L163.933 3.922L163.955 14.702C163.955 15.142 163.962 15.406 163.977 15.494C163.991 15.5673 164.043 15.6187 164.131 15.648C164.145 15.6627 164.417 15.6773 164.945 15.692C165.282 15.692 165.451 15.7433 165.451 15.846ZM174.544 13.602C174.544 13.7487 174.427 14.0127 174.192 14.394C173.972 14.7607 173.745 15.0613 173.51 15.296C172.88 15.9413 172.036 16.264 170.98 16.264C169.66 16.264 168.553 15.7873 167.658 14.834C166.778 13.8807 166.338 12.7 166.338 11.292C166.338 9.82533 166.756 8.60067 167.592 7.618C168.443 6.63533 169.499 6.144 170.76 6.144C171.802 6.144 172.674 6.452 173.378 7.068C174.082 7.66933 174.456 8.44667 174.5 9.4C174.031 9.47333 173.408 9.50267 172.63 9.488L171.09 9.466C170.988 9.466 170.108 9.488 168.45 9.532C168.377 10.016 168.34 10.478 168.34 10.918C168.34 12.3993 168.619 13.5433 169.176 14.35C169.748 15.142 170.548 15.538 171.574 15.538C172.161 15.538 172.63 15.406 172.982 15.142C173.334 14.878 173.716 14.372 174.126 13.624C174.185 13.5067 174.266 13.448 174.368 13.448C174.486 13.448 174.544 13.4993 174.544 13.602ZM172.63 9.114C172.572 7.354 171.941 6.474 170.738 6.474C169.55 6.474 168.81 7.354 168.516 9.114H172.63ZM185.779 15.868C185.779 15.9853 185.669 16.044 185.449 16.044H185.185C184.921 16.0147 184.562 16 184.107 16C182.67 16 181.819 16.0147 181.555 16.044H181.401C181.211 16.044 181.115 15.9927 181.115 15.89C181.115 15.8167 181.152 15.7727 181.225 15.758C181.313 15.7433 181.599 15.7287 182.083 15.714C182.362 15.6993 182.523 15.6627 182.567 15.604C182.611 15.5307 182.633 15.2887 182.633 14.878V10.654C182.633 9.05533 182.575 8.102 182.457 7.794C182.208 7.134 181.709 6.804 180.961 6.804C180.228 6.804 179.612 7.12667 179.113 7.772C178.967 7.96267 178.893 8.22667 178.893 8.564L178.915 15.428C178.915 15.604 179.069 15.6993 179.377 15.714L180.037 15.736C180.184 15.736 180.257 15.7873 180.257 15.89C180.257 15.9927 180.169 16.044 179.993 16.044H179.641C179.319 16.0147 178.805 16 178.101 16C177.94 16 177.588 16.0073 177.045 16.022C176.517 16.0367 176.209 16.044 176.121 16.044H175.989C175.769 16.044 175.659 15.9927 175.659 15.89C175.659 15.7873 175.791 15.7213 176.055 15.692C176.246 15.692 176.429 15.692 176.605 15.692C176.825 15.692 176.957 15.6407 177.001 15.538L177.067 15.208V10.412C177.067 8.74 177.053 7.816 177.023 7.64C176.994 7.464 176.811 7.376 176.473 7.376C176.371 7.376 176.195 7.39067 175.945 7.42H175.835C175.542 7.42 175.395 7.36867 175.395 7.266C175.395 7.134 175.549 7.068 175.857 7.068C176.297 7.05333 176.774 6.97267 177.287 6.826C177.801 6.67933 178.16 6.51067 178.365 6.32C178.497 6.20267 178.6 6.144 178.673 6.144C178.776 6.144 178.827 6.28333 178.827 6.562V7.618C179.59 6.63533 180.573 6.144 181.775 6.144C182.831 6.144 183.594 6.53267 184.063 7.31C184.327 7.75 184.459 8.586 184.459 9.818V14.834C184.459 15.3033 184.481 15.56 184.525 15.604C184.613 15.692 184.826 15.736 185.163 15.736C185.207 15.736 185.288 15.7287 185.405 15.714H185.559C185.706 15.714 185.779 15.7653 185.779 15.868ZM196.389 15.56C196.389 15.6627 196.286 15.714 196.081 15.714H195.971C195.854 15.714 195.729 15.7067 195.597 15.692C195.48 15.692 195.421 15.692 195.421 15.692C194.702 15.692 194.094 15.8387 193.595 16.132C193.39 16.2493 193.265 16.308 193.221 16.308C193.089 16.308 193.023 16.22 193.023 16.044L193.045 15.362C192.414 15.9633 191.666 16.264 190.801 16.264C189.569 16.264 188.55 15.7947 187.743 14.856C186.951 13.9027 186.555 12.6927 186.555 11.226C186.555 9.71533 186.951 8.49067 187.743 7.552C188.55 6.61333 189.598 6.144 190.889 6.144C191.886 6.144 192.634 6.50333 193.133 7.222V3.79C193.133 2.67533 193.082 1.986 192.979 1.722C192.891 1.502 192.759 1.39933 192.583 1.414C192.158 1.458 191.901 1.48 191.813 1.48C191.622 1.48 191.527 1.414 191.527 1.282C191.527 1.15 191.608 1.084 191.769 1.084L192.561 1.106C193.001 1.12067 193.676 0.915332 194.585 0.489999C194.644 0.460666 194.695 0.446 194.739 0.446C194.886 0.446 194.959 0.622 194.959 0.973999C194.959 1.062 194.959 1.216 194.959 1.436C194.944 1.67067 194.937 1.876 194.937 2.052V9.642C194.937 13.118 194.974 14.9807 195.047 15.23C195.076 15.3327 195.421 15.384 196.081 15.384C196.286 15.384 196.389 15.4427 196.389 15.56ZM193.133 10.038C193.133 8.63 192.979 7.728 192.671 7.332C192.275 6.83333 191.769 6.584 191.153 6.584C190.361 6.584 189.73 6.99467 189.261 7.816C188.792 8.63733 188.557 9.73733 188.557 11.116C188.557 12.436 188.762 13.5653 189.173 14.504C189.349 14.9 189.606 15.23 189.943 15.494C190.295 15.7433 190.654 15.868 191.021 15.868C191.476 15.868 191.886 15.736 192.253 15.472C192.62 15.1933 192.854 14.8633 192.957 14.482C193.074 14.1007 193.133 12.6193 193.133 10.038ZM205.774 15.01C205.774 15.2593 205.51 15.5233 204.982 15.802C204.469 16.066 203.97 16.198 203.486 16.198C202.474 16.198 201.946 15.6773 201.902 14.636C201.345 15.7213 200.479 16.264 199.306 16.264C198.675 16.264 198.155 16.0807 197.744 15.714C197.333 15.3327 197.128 14.8487 197.128 14.262C197.128 13.0593 197.854 12.106 199.306 11.402C199.805 11.1673 200.67 10.9327 201.902 10.698V10.148C201.902 8.85733 201.836 8.00667 201.704 7.596C201.469 6.848 200.941 6.474 200.12 6.474C199.607 6.474 199.174 6.61333 198.822 6.892C198.485 7.17067 198.316 7.52267 198.316 7.948C198.316 8.06533 198.404 8.124 198.58 8.124C198.771 8.124 198.939 8.212 199.086 8.388C199.233 8.564 199.306 8.762 199.306 8.982C199.306 9.62733 198.983 9.95 198.338 9.95C198.001 9.95 197.722 9.84 197.502 9.62C197.282 9.38533 197.172 9.092 197.172 8.74C197.172 8.05067 197.443 7.45667 197.986 6.958C198.587 6.41533 199.423 6.144 200.494 6.144C202.107 6.144 203.097 6.584 203.464 7.464C203.596 7.80133 203.662 8.46867 203.662 9.466V13.58C203.662 14.2547 203.669 14.6507 203.684 14.768C203.757 15.296 203.97 15.56 204.322 15.56C204.733 15.56 205.07 15.4133 205.334 15.12C205.481 14.9587 205.591 14.878 205.664 14.878C205.737 14.878 205.774 14.922 205.774 15.01ZM201.902 12.678V11.072C200.802 11.3213 200.01 11.6513 199.526 12.062C199.057 12.458 198.822 12.9933 198.822 13.668C198.822 14.1373 198.954 14.526 199.218 14.834C199.497 15.1273 199.841 15.274 200.252 15.274C200.883 15.274 201.389 14.922 201.77 14.218C201.858 14.0567 201.902 13.5433 201.902 12.678ZM212.494 7.64C212.494 7.97733 212.391 8.256 212.186 8.476C211.981 8.696 211.717 8.806 211.394 8.806C211.13 8.806 210.91 8.73267 210.734 8.586C210.558 8.42467 210.47 8.22667 210.47 7.992C210.47 7.78667 210.536 7.61067 210.668 7.464C210.8 7.31733 210.866 7.21467 210.866 7.156C210.866 6.936 210.705 6.826 210.382 6.826C209.971 6.826 209.619 7.08267 209.326 7.596C208.989 8.19733 208.82 9.312 208.82 10.94V15.296C208.82 15.472 208.879 15.582 208.996 15.626C209.128 15.67 209.509 15.6993 210.14 15.714C210.301 15.7433 210.382 15.802 210.382 15.89C210.382 15.9927 210.287 16.044 210.096 16.044C209.759 16.044 209.443 16.0367 209.15 16.022C208.857 16.0073 208.299 16 207.478 16C207.053 16 206.745 16.0073 206.554 16.022C206.363 16.0367 206.121 16.044 205.828 16.044C205.593 16.044 205.476 15.9927 205.476 15.89C205.476 15.7873 205.571 15.736 205.762 15.736H206.07C206.569 15.736 206.862 15.6773 206.95 15.56C206.979 15.5013 206.994 15.23 206.994 14.746V8.696C206.994 7.88933 206.869 7.42733 206.62 7.31C206.385 7.178 206.004 7.10467 205.476 7.09C205.3 7.09 205.212 7.03867 205.212 6.936C205.212 6.83333 205.285 6.782 205.432 6.782H205.586C205.806 6.782 206.026 6.79667 206.246 6.826C206.466 6.84067 206.561 6.848 206.532 6.848C207.075 6.848 207.676 6.694 208.336 6.386L208.622 6.254L208.798 6.188C208.857 6.54 208.886 6.892 208.886 7.244V7.684C209.355 6.65733 210.015 6.144 210.866 6.144C211.335 6.144 211.724 6.29067 212.032 6.584C212.34 6.86267 212.494 7.21467 212.494 7.64ZM216.188 2.162C216.188 2.822 215.858 3.152 215.198 3.152C214.919 3.152 214.684 3.064 214.494 2.888C214.303 2.69733 214.208 2.47 214.208 2.206C214.208 1.51667 214.538 1.172 215.198 1.172C215.858 1.172 216.188 1.502 216.188 2.162ZM217.838 15.868C217.838 16 217.713 16.066 217.464 16.066C217.478 16.066 217.302 16.0513 216.936 16.022C216.496 15.9927 216.129 15.978 215.836 15.978L213.548 16.022C213.474 16.0367 213.386 16.044 213.284 16.044C213.122 16.044 213.042 15.9927 213.042 15.89C213.042 15.7433 213.188 15.67 213.482 15.67C214.039 15.6553 214.34 15.6187 214.384 15.56C214.442 15.4867 214.472 15.1787 214.472 14.636L214.45 7.97C214.435 7.60333 214.413 7.39067 214.384 7.332C214.369 7.25867 214.281 7.222 214.12 7.222L213.482 7.244C213.423 7.25867 213.35 7.266 213.262 7.266C213.1 7.266 213.02 7.20733 213.02 7.09C213.02 6.98733 213.144 6.92867 213.394 6.914C214.376 6.87 215.22 6.63533 215.924 6.21L216.144 6.078C216.261 6.298 216.32 6.70133 216.32 7.288C216.32 7.25867 216.32 7.332 216.32 7.508C216.305 7.684 216.298 7.97 216.298 8.366V14.372C216.298 14.9587 216.305 15.3033 216.32 15.406C216.349 15.5087 216.43 15.5747 216.562 15.604C216.782 15.6627 217.104 15.692 217.53 15.692C217.735 15.692 217.838 15.7507 217.838 15.868ZM227.935 11.248C227.935 12.6707 227.502 13.866 226.637 14.834C225.772 15.7873 224.694 16.264 223.403 16.264C222.068 16.264 220.954 15.7873 220.059 14.834C219.164 13.866 218.717 12.6707 218.717 11.248C218.717 9.78133 219.15 8.564 220.015 7.596C220.895 6.628 221.988 6.144 223.293 6.144C224.613 6.144 225.713 6.63533 226.593 7.618C227.488 8.586 227.935 9.796 227.935 11.248ZM225.933 11.226C225.933 9.61267 225.684 8.35867 225.185 7.464C224.818 6.804 224.202 6.474 223.337 6.474C222.516 6.474 221.87 6.89933 221.401 7.75C220.946 8.586 220.719 9.752 220.719 11.248C220.719 12.7293 220.961 13.888 221.445 14.724C221.944 15.5453 222.633 15.956 223.513 15.956C224.188 15.956 224.686 15.6993 225.009 15.186C225.625 14.218 225.933 12.898 225.933 11.226Z" fill="white"/>
</svg>
