<svg width="144" height="43" viewBox="0 0 144 43" fill="none" xmlns="http://www.w3.org/2000/svg">
<rect width="144" height="43" rx="21.5" fill="#A58F49"/>
<path d="M60.068 27.34C60.068 27.956 59.5547 28.264 58.528 28.264C57.384 28.264 56.4893 27.7873 55.844 26.834C55.5653 26.4233 55.382 26.0273 55.294 25.646C55.2207 25.2647 55.1033 24.2967 54.942 22.742C54.854 21.8033 54.5533 21.1433 54.04 20.762C53.5267 20.366 52.6907 20.1533 51.532 20.124V27.054C51.532 27.3473 51.7667 27.5307 52.236 27.604C52.368 27.6187 52.7053 27.6333 53.248 27.648C53.4387 27.648 53.534 27.7067 53.534 27.824C53.534 27.956 53.4093 28.022 53.16 28.022H52.896C52.764 28.0073 52.126 28 50.982 28C50.762 28 50.388 28.0073 49.86 28.022C49.3467 28.022 49.0093 28.022 48.848 28.022H47.99C47.6673 28.022 47.506 27.956 47.506 27.824C47.506 27.7213 47.7187 27.6627 48.144 27.648C48.8333 27.6333 49.2073 27.5453 49.266 27.384C49.3247 27.3107 49.354 27.0247 49.354 26.526V14.382C49.354 13.7953 49.288 13.4433 49.156 13.326C49.0387 13.2087 48.6647 13.1427 48.034 13.128C47.6673 13.128 47.484 13.062 47.484 12.93C47.484 12.7833 47.6013 12.71 47.836 12.71C47.88 12.71 47.946 12.7173 48.034 12.732L50.96 12.798C51.2533 12.798 51.664 12.7907 52.192 12.776C52.7787 12.7467 53.1893 12.732 53.424 12.732C54.788 12.732 55.866 13.04 56.658 13.656C57.4647 14.2573 57.868 15.0787 57.868 16.12C57.868 17.1467 57.4573 17.9973 56.636 18.672C55.8147 19.332 54.7 19.7207 53.292 19.838C53.16 19.8527 53.0867 19.8747 53.072 19.904C53.072 19.9627 53.1453 19.992 53.292 19.992C54.832 20.256 55.888 20.7987 56.46 21.62C57.0467 22.4267 57.4353 23.8933 57.626 26.02C57.7433 27.2227 58.154 27.824 58.858 27.824C59.078 27.824 59.188 27.78 59.188 27.692C59.188 27.6773 59.1807 27.6627 59.166 27.648C59.0927 27.4867 59.056 27.3547 59.056 27.252C59.056 26.944 59.2173 26.79 59.54 26.79C59.892 26.79 60.068 26.9733 60.068 27.34ZM55.514 16.318C55.514 14.2207 54.6047 13.172 52.786 13.172C52.302 13.172 51.972 13.238 51.796 13.37C51.62 13.502 51.532 13.7367 51.532 14.074V19.662C52.94 19.6767 53.952 19.42 54.568 18.892C55.1987 18.364 55.514 17.506 55.514 16.318ZM70.2516 23.71C70.2516 24.9713 69.7676 26.0493 68.7996 26.944C67.8463 27.824 66.6949 28.264 65.3456 28.264C64.5536 28.264 63.6076 28.022 62.5076 27.538C62.2143 27.406 61.9943 27.34 61.8476 27.34C61.6716 27.34 61.5616 27.5527 61.5176 27.978C61.5029 28.198 61.4076 28.308 61.2316 28.308C61.0849 28.308 61.0116 28.22 61.0116 28.044C61.0116 27.9267 61.0189 27.8387 61.0336 27.78C61.1509 26.8853 61.2096 26.0567 61.2096 25.294C61.2096 25.1473 61.1949 24.7367 61.1656 24.062C61.1509 23.974 61.1436 23.8567 61.1436 23.71C61.1436 23.49 61.2316 23.38 61.4076 23.38C61.5543 23.38 61.6569 23.556 61.7156 23.908C62.0969 26.5187 63.3363 27.824 65.4336 27.824C66.3283 27.824 67.0176 27.5747 67.5016 27.076C68.0003 26.5627 68.2496 25.844 68.2496 24.92C68.2496 24.0987 68.0076 23.402 67.5236 22.83C67.0543 22.2433 66.2403 21.664 65.0816 21.092C63.6883 20.4027 62.7203 19.7353 62.1776 19.09C61.6349 18.4447 61.3636 17.6453 61.3636 16.692C61.3636 15.4747 61.7523 14.47 62.5296 13.678C63.3216 12.886 64.3189 12.49 65.5216 12.49C66.0203 12.49 66.7096 12.6587 67.5896 12.996C67.8976 13.1133 68.1249 13.172 68.2716 13.172C68.4329 13.172 68.5356 13.1427 68.5796 13.084C68.6383 13.0253 68.6896 12.8713 68.7336 12.622C68.7629 12.4753 68.8436 12.402 68.9756 12.402C69.1223 12.402 69.1956 12.49 69.1956 12.666C69.1956 12.7833 69.1883 12.8713 69.1736 12.93C69.1296 13.282 69.1076 13.7073 69.1076 14.206C69.1076 14.91 69.1443 15.4673 69.2176 15.878L69.2396 16.23C69.2543 16.3913 69.1883 16.472 69.0416 16.472C68.8803 16.472 68.7703 16.3033 68.7116 15.966C68.5503 15.1007 68.1689 14.382 67.5676 13.81C66.9663 13.2233 66.2916 12.93 65.5436 12.93C64.8103 12.93 64.2236 13.1647 63.7836 13.634C63.3583 14.1033 63.1456 14.7413 63.1456 15.548C63.1456 16.4867 63.4609 17.242 64.0916 17.814C64.4436 18.1367 65.2063 18.5913 66.3796 19.178C67.7583 19.8673 68.7483 20.5713 69.3496 21.29C69.9509 21.994 70.2516 22.8007 70.2516 23.71ZM85.2786 12.886C85.2786 13.0033 85.1393 13.0693 84.8606 13.084C84.2153 13.0987 83.7826 13.194 83.5626 13.37C83.3426 13.546 83.1153 13.9567 82.8806 14.602L82.1326 16.648C80.3286 21.5907 79.06 25.382 78.3266 28.022C78.2826 28.198 78.2093 28.286 78.1066 28.286C77.9893 28.286 77.7473 27.736 77.3806 26.636C76.7206 24.6267 76.2073 23.116 75.8406 22.104C75.4446 20.9893 74.858 19.3247 74.0806 17.11L73.0246 14.14C72.878 13.7293 72.7166 13.458 72.5406 13.326C72.3646 13.1793 72.0713 13.0987 71.6606 13.084C71.1766 13.0693 70.8906 13.0547 70.8026 13.04C70.7 13.0253 70.6486 12.9667 70.6486 12.864C70.6486 12.732 70.7953 12.666 71.0886 12.666H71.2866C71.5506 12.666 72.0053 12.6807 72.6506 12.71C73.3106 12.7247 73.78 12.732 74.0586 12.732C74.132 12.732 74.4106 12.7247 74.8946 12.71C75.3933 12.6807 76.0973 12.666 77.0066 12.666H77.3146C77.5786 12.666 77.7106 12.7393 77.7106 12.886C77.7106 13.0473 77.4466 13.1353 76.9186 13.15L75.5766 13.194C75.2686 13.2087 75.1146 13.304 75.1146 13.48C75.1146 13.5093 75.1293 13.568 75.1586 13.656L75.3346 14.228C75.364 14.3453 76.0753 16.4133 77.4686 20.432C77.7033 21.1213 78.1506 22.434 78.8106 24.37C81.2306 17.5207 82.4406 13.92 82.4406 13.568C82.4406 13.216 82.0813 13.0547 81.3626 13.084L80.6806 13.106C80.5046 13.106 80.4166 13.0473 80.4166 12.93C80.4166 12.7833 80.6366 12.71 81.0766 12.71C81.1646 12.71 81.414 12.71 81.8246 12.71C82.2353 12.7247 82.536 12.732 82.7266 12.732H83.4306L84.8826 12.71C85.1466 12.71 85.2786 12.7687 85.2786 12.886ZM95.7685 16.384C95.7685 17.8067 95.1598 18.914 93.9425 19.706C93.1798 20.2047 92.2118 20.454 91.0385 20.454C90.5398 20.454 89.9752 20.4027 89.3445 20.3V26.548C89.3445 26.8853 89.3592 27.098 89.3885 27.186C89.4618 27.3913 89.6232 27.516 89.8725 27.56C90.2978 27.6187 90.7085 27.648 91.1045 27.648C91.2658 27.648 91.3465 27.6993 91.3465 27.802C91.3465 27.9487 91.2438 28.022 91.0385 28.022C90.9505 28.022 90.8772 28.0147 90.8185 28C90.0118 28.0147 88.4938 28.022 86.2645 28.022H85.9785C85.5385 28.022 85.3185 27.9487 85.3185 27.802C85.3185 27.6993 85.4725 27.648 85.7805 27.648C86.4698 27.648 86.8658 27.582 86.9685 27.45C87.0858 27.3913 87.1518 27.2447 87.1665 27.01V14.03C87.1665 13.5753 87.0418 13.2967 86.7925 13.194C86.6458 13.1353 86.3892 13.106 86.0225 13.106H85.8025C85.7585 13.1207 85.7072 13.128 85.6485 13.128C85.4285 13.128 85.3185 13.062 85.3185 12.93C85.3185 12.7833 85.5238 12.71 85.9345 12.71H90.7745C92.4465 12.71 93.6712 13.0033 94.4485 13.59C95.3285 14.25 95.7685 15.1813 95.7685 16.384ZM93.4585 16.428C93.4585 14.228 92.5345 13.128 90.6865 13.128C90.0705 13.128 89.6672 13.2307 89.4765 13.436C89.3885 13.524 89.3445 13.7513 89.3445 14.118V19.97C89.4618 19.9847 89.5938 19.992 89.7405 19.992C90.7085 19.992 91.5298 19.7793 92.2045 19.354C93.0405 18.826 93.4585 17.8507 93.4585 16.428Z" fill="white"/>
</svg>
