<svg width="269" height="55" viewBox="0 0 269 55" fill="none" xmlns="http://www.w3.org/2000/svg">
<rect width="268.605" height="55" rx="27.5" fill="#364936"/>
<path d="M65.042 20.199C65.042 20.3217 64.8963 20.3907 64.605 20.406C63.9303 20.4213 63.478 20.521 63.248 20.705C63.018 20.889 62.7803 21.3183 62.535 21.993L61.753 24.132C59.867 29.2993 58.5407 33.263 57.774 36.023C57.728 36.207 57.6513 36.299 57.544 36.299C57.4213 36.299 57.1683 35.724 56.785 34.574C56.095 32.4733 55.5583 30.894 55.175 29.836C54.761 28.6707 54.1477 26.9303 53.335 24.615L52.231 21.51C52.0777 21.0807 51.909 20.797 51.725 20.659C51.541 20.5057 51.2343 20.4213 50.805 20.406C50.299 20.3907 50 20.3753 49.908 20.36C49.8007 20.3447 49.747 20.2833 49.747 20.176C49.747 20.038 49.9003 19.969 50.207 19.969H50.414C50.69 19.969 51.1653 19.9843 51.84 20.015C52.53 20.0303 53.0207 20.038 53.312 20.038C53.3887 20.038 53.68 20.0303 54.186 20.015C54.7073 19.9843 55.4433 19.969 56.394 19.969H56.716C56.992 19.969 57.13 20.0457 57.13 20.199C57.13 20.3677 56.854 20.4597 56.302 20.475L54.899 20.521C54.577 20.5363 54.416 20.636 54.416 20.82C54.416 20.8507 54.4313 20.912 54.462 21.004L54.646 21.602C54.6767 21.7247 55.4203 23.8867 56.877 28.088C57.1223 28.8087 57.59 30.181 58.28 32.205C60.81 25.0443 62.075 21.28 62.075 20.912C62.075 20.544 61.6993 20.3753 60.948 20.406L60.235 20.429C60.051 20.429 59.959 20.3677 59.959 20.245C59.959 20.0917 60.189 20.015 60.649 20.015C60.741 20.015 61.0017 20.015 61.431 20.015C61.8603 20.0303 62.1747 20.038 62.374 20.038H63.11L64.628 20.015C64.904 20.015 65.042 20.0763 65.042 20.199ZM73.8467 33.493C73.8467 33.6463 73.724 33.9223 73.4787 34.321C73.2487 34.7043 73.011 35.0187 72.7657 35.264C72.1064 35.9387 71.2247 36.276 70.1207 36.276C68.7407 36.276 67.583 35.7777 66.6477 34.781C65.7277 33.7843 65.2677 32.55 65.2677 31.078C65.2677 29.5447 65.7047 28.2643 66.5787 27.237C67.468 26.2097 68.572 25.696 69.8907 25.696C70.9794 25.696 71.8917 26.018 72.6277 26.662C73.3637 27.2907 73.7547 28.1033 73.8007 29.1C73.31 29.1767 72.6584 29.2073 71.8457 29.192L70.2357 29.169C70.1284 29.169 69.2084 29.192 67.4757 29.238C67.399 29.744 67.3607 30.227 67.3607 30.687C67.3607 32.2357 67.652 33.4317 68.2347 34.275C68.8327 35.103 69.6684 35.517 70.7417 35.517C71.355 35.517 71.8457 35.379 72.2137 35.103C72.5817 34.827 72.9804 34.298 73.4097 33.516C73.471 33.3933 73.5554 33.332 73.6627 33.332C73.7854 33.332 73.8467 33.3857 73.8467 33.493ZM71.8457 28.801C71.7844 26.961 71.125 26.041 69.8677 26.041C68.6257 26.041 67.8514 26.961 67.5447 28.801H71.8457ZM82.1885 27.26C82.1885 27.6127 82.0812 27.904 81.8665 28.134C81.6518 28.364 81.3758 28.479 81.0385 28.479C80.7625 28.479 80.5325 28.4023 80.3485 28.249C80.1645 28.0803 80.0725 27.8733 80.0725 27.628C80.0725 27.4133 80.1415 27.2293 80.2795 27.076C80.4175 26.9227 80.4865 26.8153 80.4865 26.754C80.4865 26.524 80.3178 26.409 79.9805 26.409C79.5512 26.409 79.1832 26.6773 78.8765 27.214C78.5238 27.8427 78.3475 29.008 78.3475 30.71V35.264C78.3475 35.448 78.4088 35.563 78.5315 35.609C78.6695 35.655 79.0682 35.6857 79.7275 35.701C79.8962 35.7317 79.9805 35.793 79.9805 35.885C79.9805 35.9923 79.8808 36.046 79.6815 36.046C79.3288 36.046 78.9992 36.0383 78.6925 36.023C78.3858 36.0077 77.8032 36 76.9445 36C76.4998 36 76.1778 36.0077 75.9785 36.023C75.7792 36.0383 75.5262 36.046 75.2195 36.046C74.9742 36.046 74.8515 35.9923 74.8515 35.885C74.8515 35.7777 74.9512 35.724 75.1505 35.724H75.4725C75.9938 35.724 76.3005 35.6627 76.3925 35.54C76.4232 35.4787 76.4385 35.195 76.4385 34.689V28.364C76.4385 27.5207 76.3082 27.0377 76.0475 26.915C75.8022 26.777 75.4035 26.7003 74.8515 26.685C74.6675 26.685 74.5755 26.6313 74.5755 26.524C74.5755 26.4167 74.6522 26.363 74.8055 26.363H74.9665C75.1965 26.363 75.4265 26.3783 75.6565 26.409C75.8865 26.4243 75.9862 26.432 75.9555 26.432C76.5228 26.432 77.1515 26.271 77.8415 25.949L78.1405 25.811L78.3245 25.742C78.3858 26.11 78.4165 26.478 78.4165 26.846V27.306C78.9072 26.2327 79.5972 25.696 80.4865 25.696C80.9772 25.696 81.3835 25.8493 81.7055 26.156C82.0275 26.4473 82.1885 26.8153 82.1885 27.26ZM97.4706 35.54C97.4706 35.6473 97.3632 35.701 97.1486 35.701H97.0336C96.9109 35.701 96.7806 35.6933 96.6426 35.678C96.5199 35.678 96.4586 35.678 96.4586 35.678C95.7072 35.678 95.0709 35.8313 94.5496 36.138C94.3349 36.2607 94.2046 36.322 94.1586 36.322C94.0206 36.322 93.9516 36.23 93.9516 36.046L93.9746 35.333C93.3152 35.9617 92.5332 36.276 91.6286 36.276C90.3406 36.276 89.2749 35.7853 88.4316 34.804C87.6036 33.8073 87.1896 32.5423 87.1896 31.009C87.1896 29.4297 87.6036 28.1493 88.4316 27.168C89.2749 26.1867 90.3712 25.696 91.7206 25.696C92.7632 25.696 93.5452 26.0717 94.0666 26.823V23.235C94.0666 22.0697 94.0129 21.349 93.9056 21.073C93.8136 20.843 93.6756 20.7357 93.4916 20.751C93.0469 20.797 92.7786 20.82 92.6866 20.82C92.4872 20.82 92.3876 20.751 92.3876 20.613C92.3876 20.475 92.4719 20.406 92.6406 20.406L93.4686 20.429C93.9286 20.4443 94.6339 20.2297 95.5846 19.785C95.6459 19.7543 95.6996 19.739 95.7456 19.739C95.8989 19.739 95.9756 19.923 95.9756 20.291C95.9756 20.383 95.9756 20.544 95.9756 20.774C95.9602 21.0193 95.9526 21.234 95.9526 21.418V29.353C95.9526 32.987 95.9909 34.9343 96.0676 35.195C96.0982 35.3023 96.4586 35.356 97.1486 35.356C97.3632 35.356 97.4706 35.4173 97.4706 35.54ZM94.0666 29.767C94.0666 28.295 93.9056 27.352 93.5836 26.938C93.1696 26.4167 92.6406 26.156 91.9966 26.156C91.1686 26.156 90.5092 26.5853 90.0186 27.444C89.5279 28.3027 89.2826 29.4527 89.2826 30.894C89.2826 32.274 89.4972 33.4547 89.9266 34.436C90.1106 34.85 90.3789 35.195 90.7316 35.471C91.0996 35.7317 91.4752 35.862 91.8586 35.862C92.3339 35.862 92.7632 35.724 93.1466 35.448C93.5299 35.1567 93.7752 34.8117 93.8826 34.413C94.0052 34.0143 94.0666 32.4657 94.0666 29.767ZM107.282 34.965C107.282 35.2257 107.006 35.5017 106.454 35.793C105.917 36.069 105.396 36.207 104.89 36.207C103.832 36.207 103.28 35.6627 103.234 34.574C102.651 35.7087 101.747 36.276 100.52 36.276C99.8607 36.276 99.3164 36.0843 98.887 35.701C98.4577 35.3023 98.243 34.7963 98.243 34.183C98.243 32.9257 99.002 31.929 100.52 31.193C101.041 30.9477 101.946 30.7023 103.234 30.457V29.882C103.234 28.5327 103.165 27.6433 103.027 27.214C102.782 26.432 102.23 26.041 101.371 26.041C100.834 26.041 100.382 26.1867 100.014 26.478C99.6614 26.7693 99.485 27.1373 99.485 27.582C99.485 27.7047 99.577 27.766 99.761 27.766C99.9604 27.766 100.137 27.858 100.29 28.042C100.443 28.226 100.52 28.433 100.52 28.663C100.52 29.3377 100.183 29.675 99.508 29.675C99.1554 29.675 98.864 29.56 98.634 29.33C98.404 29.0847 98.289 28.778 98.289 28.41C98.289 27.6893 98.5727 27.0683 99.14 26.547C99.7687 25.9797 100.643 25.696 101.762 25.696C103.449 25.696 104.484 26.156 104.867 27.076C105.005 27.4287 105.074 28.1263 105.074 29.169V33.47C105.074 34.1753 105.082 34.5893 105.097 34.712C105.174 35.264 105.396 35.54 105.764 35.54C106.193 35.54 106.546 35.3867 106.822 35.08C106.975 34.9113 107.09 34.827 107.167 34.827C107.244 34.827 107.282 34.873 107.282 34.965ZM103.234 32.527V30.848C102.084 31.1087 101.256 31.4537 100.75 31.883C100.259 32.297 100.014 32.8567 100.014 33.562C100.014 34.0527 100.152 34.459 100.428 34.781C100.719 35.0877 101.08 35.241 101.509 35.241C102.168 35.241 102.697 34.873 103.096 34.137C103.188 33.9683 103.234 33.4317 103.234 32.527ZM113.526 34.643C113.526 34.781 113.334 35.0263 112.951 35.379C112.291 35.977 111.509 36.276 110.605 36.276C109.761 36.276 109.125 36.0613 108.696 35.632C108.45 35.3867 108.328 34.666 108.328 33.47V26.616C108.312 26.4627 108.228 26.3783 108.075 26.363H107.201C106.863 26.363 106.695 26.3093 106.695 26.202C106.695 26.0947 106.779 26.0333 106.948 26.018C108.144 25.9107 109.079 25.328 109.754 24.27C109.846 24.132 109.961 24.063 110.099 24.063C110.206 24.063 110.26 24.1167 110.26 24.224V24.316C110.244 24.3927 110.237 24.523 110.237 24.707C110.237 25.351 110.267 25.765 110.329 25.949C110.467 25.9797 110.697 25.995 111.019 25.995C111.862 25.995 112.422 25.9567 112.698 25.88C112.759 25.8647 112.813 25.857 112.859 25.857C112.981 25.857 113.043 25.926 113.043 26.064C113.043 26.294 112.422 26.409 111.18 26.409C110.965 26.409 110.651 26.4013 110.237 26.386V30.641C110.237 32.7877 110.29 34.137 110.398 34.689C110.505 35.2257 110.858 35.494 111.456 35.494C111.962 35.494 112.529 35.2103 113.158 34.643C113.219 34.5663 113.288 34.528 113.365 34.528C113.472 34.528 113.526 34.5663 113.526 34.643ZM123.443 31.032C123.443 32.5193 122.99 33.769 122.086 34.781C121.181 35.7777 120.054 36.276 118.705 36.276C117.309 36.276 116.144 35.7777 115.209 34.781C114.273 33.769 113.806 32.5193 113.806 31.032C113.806 29.4987 114.258 28.226 115.163 27.214C116.083 26.202 117.225 25.696 118.59 25.696C119.97 25.696 121.12 26.2097 122.04 27.237C122.975 28.249 123.443 29.514 123.443 31.032ZM121.35 31.009C121.35 29.3223 121.089 28.0113 120.568 27.076C120.184 26.386 119.54 26.041 118.636 26.041C117.777 26.041 117.102 26.4857 116.612 27.375C116.136 28.249 115.899 29.468 115.899 31.032C115.899 32.5807 116.152 33.792 116.658 34.666C117.179 35.5247 117.9 35.954 118.82 35.954C119.525 35.954 120.046 35.6857 120.384 35.149C121.028 34.137 121.35 32.757 121.35 31.009ZM131.872 33.079C131.872 33.9683 131.542 34.7273 130.883 35.356C130.239 35.9693 129.464 36.276 128.56 36.276C128.038 36.276 127.402 36.092 126.651 35.724C126.451 35.6167 126.275 35.563 126.122 35.563C125.907 35.563 125.746 35.7087 125.639 36C125.577 36.184 125.493 36.276 125.386 36.276C125.278 36.276 125.225 36.2147 125.225 36.092C125.225 36.0153 125.232 35.9233 125.248 35.816C125.294 35.5093 125.317 35.057 125.317 34.459C125.317 34.413 125.309 34.229 125.294 33.907C125.278 33.585 125.271 33.3703 125.271 33.263V33.01C125.271 32.8413 125.324 32.757 125.432 32.757C125.554 32.757 125.623 32.8413 125.639 33.01C125.731 33.7153 125.93 34.2673 126.237 34.666C126.85 35.4633 127.67 35.862 128.698 35.862C129.25 35.862 129.694 35.701 130.032 35.379C130.369 35.057 130.538 34.6277 130.538 34.091C130.538 33.493 130.346 33.0177 129.963 32.665C129.748 32.4657 129.549 32.3277 129.365 32.251C129.196 32.159 128.682 31.952 127.824 31.63C126.122 30.986 125.271 30.02 125.271 28.732C125.271 27.8733 125.562 27.1527 126.145 26.57C126.727 25.9873 127.448 25.696 128.307 25.696C128.613 25.696 129.073 25.788 129.687 25.972C129.84 26.018 129.978 26.041 130.101 26.041C130.423 26.041 130.622 25.8877 130.699 25.581C130.745 25.4277 130.814 25.351 130.906 25.351C131.013 25.351 131.067 25.4123 131.067 25.535C131.067 25.5503 131.059 25.5963 131.044 25.673L131.021 26.639C131.005 27.007 131.044 27.5973 131.136 28.41V28.456C131.136 28.5787 131.074 28.64 130.952 28.64C130.86 28.64 130.745 28.41 130.607 27.95C130.438 27.398 130.139 26.9533 129.71 26.616C129.296 26.2787 128.813 26.11 128.261 26.11C127.739 26.11 127.31 26.271 126.973 26.593C126.635 26.915 126.467 27.3213 126.467 27.812C126.467 28.5787 126.98 29.1613 128.008 29.56C129.602 30.1887 130.614 30.71 131.044 31.124C131.596 31.6607 131.872 32.3123 131.872 33.079ZM147.094 30.526C147.094 32.1207 146.611 33.4777 145.645 34.597C144.679 35.7163 143.514 36.276 142.149 36.276C141.674 36.276 141.175 36.1763 140.654 35.977C140.133 35.7777 139.78 35.678 139.596 35.678C139.427 35.678 139.236 35.7547 139.021 35.908C138.806 36.046 138.645 36.115 138.538 36.115C138.415 36.115 138.354 35.862 138.354 35.356V23.396C138.354 21.8473 138.254 21.0117 138.055 20.889C137.978 20.843 137.679 20.82 137.158 20.82C136.79 20.82 136.606 20.7587 136.606 20.636C136.606 20.5287 136.69 20.475 136.859 20.475H137.181C138.024 20.475 138.837 20.2987 139.619 19.946C139.849 19.8387 140.01 19.785 140.102 19.785H140.194V27.007C140.777 26.133 141.651 25.696 142.816 25.696C144.104 25.696 145.139 26.1407 145.921 27.03C146.703 27.904 147.094 29.0693 147.094 30.526ZM145.001 30.641C145.001 29.1997 144.771 28.088 144.311 27.306C143.866 26.524 143.238 26.133 142.425 26.133C141.996 26.133 141.589 26.271 141.206 26.547C140.823 26.8077 140.562 27.1373 140.424 27.536C140.286 27.9347 140.217 29.146 140.217 31.17C140.217 33.286 140.271 34.5433 140.378 34.942C140.547 35.586 141.106 35.908 142.057 35.908C142.962 35.908 143.629 35.563 144.058 34.873C144.687 33.8457 145.001 32.435 145.001 30.641ZM157.684 34.965C157.684 35.2257 157.408 35.5017 156.856 35.793C156.32 36.069 155.798 36.207 155.292 36.207C154.234 36.207 153.682 35.6627 153.636 34.574C153.054 35.7087 152.149 36.276 150.922 36.276C150.263 36.276 149.719 36.0843 149.289 35.701C148.86 35.3023 148.645 34.7963 148.645 34.183C148.645 32.9257 149.404 31.929 150.922 31.193C151.444 30.9477 152.348 30.7023 153.636 30.457V29.882C153.636 28.5327 153.567 27.6433 153.429 27.214C153.184 26.432 152.632 26.041 151.773 26.041C151.237 26.041 150.784 26.1867 150.416 26.478C150.064 26.7693 149.887 27.1373 149.887 27.582C149.887 27.7047 149.979 27.766 150.163 27.766C150.363 27.766 150.539 27.858 150.692 28.042C150.846 28.226 150.922 28.433 150.922 28.663C150.922 29.3377 150.585 29.675 149.91 29.675C149.558 29.675 149.266 29.56 149.036 29.33C148.806 29.0847 148.691 28.778 148.691 28.41C148.691 27.6893 148.975 27.0683 149.542 26.547C150.171 25.9797 151.045 25.696 152.164 25.696C153.851 25.696 154.886 26.156 155.269 27.076C155.407 27.4287 155.476 28.1263 155.476 29.169V33.47C155.476 34.1753 155.484 34.5893 155.499 34.712C155.576 35.264 155.798 35.54 156.166 35.54C156.596 35.54 156.948 35.3867 157.224 35.08C157.378 34.9113 157.493 34.827 157.569 34.827C157.646 34.827 157.684 34.873 157.684 34.965ZM153.636 32.527V30.848C152.486 31.1087 151.658 31.4537 151.152 31.883C150.662 32.297 150.416 32.8567 150.416 33.562C150.416 34.0527 150.554 34.459 150.83 34.781C151.122 35.0877 151.482 35.241 151.911 35.241C152.571 35.241 153.1 34.873 153.498 34.137C153.59 33.9683 153.636 33.4317 153.636 32.527ZM168.114 35.862C168.114 35.9847 167.999 36.046 167.769 36.046H167.493C167.217 36.0153 166.841 36 166.366 36C164.863 36 163.974 36.0153 163.698 36.046H163.537C163.338 36.046 163.238 35.9923 163.238 35.885C163.238 35.8083 163.276 35.7623 163.353 35.747C163.445 35.7317 163.744 35.7163 164.25 35.701C164.541 35.6857 164.71 35.6473 164.756 35.586C164.802 35.5093 164.825 35.2563 164.825 34.827V30.411C164.825 28.7397 164.764 27.743 164.641 27.421C164.38 26.731 163.859 26.386 163.077 26.386C162.31 26.386 161.666 26.7233 161.145 27.398C160.992 27.5973 160.915 27.8733 160.915 28.226L160.938 35.402C160.938 35.586 161.099 35.6857 161.421 35.701L162.111 35.724C162.264 35.724 162.341 35.7777 162.341 35.885C162.341 35.9923 162.249 36.046 162.065 36.046H161.697C161.36 36.0153 160.823 36 160.087 36C159.918 36 159.55 36.0077 158.983 36.023C158.431 36.0383 158.109 36.046 158.017 36.046H157.879C157.649 36.046 157.534 35.9923 157.534 35.885C157.534 35.7777 157.672 35.7087 157.948 35.678C158.147 35.678 158.339 35.678 158.523 35.678C158.753 35.678 158.891 35.6243 158.937 35.517L159.006 35.172V30.158C159.006 28.41 158.991 27.444 158.96 27.26C158.929 27.076 158.738 26.984 158.385 26.984C158.278 26.984 158.094 26.9993 157.833 27.03H157.718C157.411 27.03 157.258 26.9763 157.258 26.869C157.258 26.731 157.419 26.662 157.741 26.662C158.201 26.6467 158.699 26.5623 159.236 26.409C159.773 26.2557 160.148 26.0793 160.363 25.88C160.501 25.7573 160.608 25.696 160.685 25.696C160.792 25.696 160.846 25.8417 160.846 26.133V27.237C161.643 26.2097 162.671 25.696 163.928 25.696C165.032 25.696 165.829 26.1023 166.32 26.915C166.596 27.375 166.734 28.249 166.734 29.537V34.781C166.734 35.2717 166.757 35.54 166.803 35.586C166.895 35.678 167.117 35.724 167.47 35.724C167.516 35.724 167.6 35.7163 167.723 35.701H167.884C168.037 35.701 168.114 35.7547 168.114 35.862ZM177.297 28.065C177.297 28.7703 176.952 29.123 176.262 29.123C175.587 29.123 175.25 28.801 175.25 28.157C175.25 27.9883 175.327 27.7353 175.48 27.398C175.526 27.2907 175.549 27.1833 175.549 27.076C175.549 26.7693 175.388 26.5163 175.066 26.317C174.759 26.1177 174.368 26.018 173.893 26.018C172.973 26.018 172.26 26.4167 171.754 27.214C171.248 28.0113 170.995 29.1307 170.995 30.572C170.995 32.1973 171.256 33.4547 171.777 34.344C172.298 35.218 173.034 35.655 173.985 35.655C174.629 35.655 175.204 35.4557 175.71 35.057C175.94 34.873 176.239 34.5203 176.607 33.999C176.684 33.9223 176.753 33.884 176.814 33.884C176.967 33.884 177.044 33.9453 177.044 34.068C177.044 34.2673 176.776 34.643 176.239 35.195C175.549 35.9157 174.667 36.276 173.594 36.276C172.245 36.276 171.125 35.793 170.236 34.827C169.362 33.861 168.925 32.642 168.925 31.17C168.925 29.5907 169.393 28.2873 170.328 27.26C171.263 26.2173 172.436 25.696 173.847 25.696C174.752 25.696 175.549 25.9337 176.239 26.409C176.944 26.8843 177.297 27.4363 177.297 28.065ZM187.49 34.965C187.49 35.2257 187.214 35.5017 186.662 35.793C186.125 36.069 185.604 36.207 185.098 36.207C184.04 36.207 183.488 35.6627 183.442 34.574C182.859 35.7087 181.955 36.276 180.728 36.276C180.069 36.276 179.524 36.0843 179.095 35.701C178.666 35.3023 178.451 34.7963 178.451 34.183C178.451 32.9257 179.21 31.929 180.728 31.193C181.249 30.9477 182.154 30.7023 183.442 30.457V29.882C183.442 28.5327 183.373 27.6433 183.235 27.214C182.99 26.432 182.438 26.041 181.579 26.041C181.042 26.041 180.59 26.1867 180.222 26.478C179.869 26.7693 179.693 27.1373 179.693 27.582C179.693 27.7047 179.785 27.766 179.969 27.766C180.168 27.766 180.345 27.858 180.498 28.042C180.651 28.226 180.728 28.433 180.728 28.663C180.728 29.3377 180.391 29.675 179.716 29.675C179.363 29.675 179.072 29.56 178.842 29.33C178.612 29.0847 178.497 28.778 178.497 28.41C178.497 27.6893 178.781 27.0683 179.348 26.547C179.977 25.9797 180.851 25.696 181.97 25.696C183.657 25.696 184.692 26.156 185.075 27.076C185.213 27.4287 185.282 28.1263 185.282 29.169V33.47C185.282 34.1753 185.29 34.5893 185.305 34.712C185.382 35.264 185.604 35.54 185.972 35.54C186.401 35.54 186.754 35.3867 187.03 35.08C187.183 34.9113 187.298 34.827 187.375 34.827C187.452 34.827 187.49 34.873 187.49 34.965ZM183.442 32.527V30.848C182.292 31.1087 181.464 31.4537 180.958 31.883C180.467 32.297 180.222 32.8567 180.222 33.562C180.222 34.0527 180.36 34.459 180.636 34.781C180.927 35.0877 181.288 35.241 181.717 35.241C182.376 35.241 182.905 34.873 183.304 34.137C183.396 33.9683 183.442 33.4317 183.442 32.527ZM194.516 27.26C194.516 27.6127 194.408 27.904 194.194 28.134C193.979 28.364 193.703 28.479 193.366 28.479C193.09 28.479 192.86 28.4023 192.676 28.249C192.492 28.0803 192.4 27.8733 192.4 27.628C192.4 27.4133 192.469 27.2293 192.607 27.076C192.745 26.9227 192.814 26.8153 192.814 26.754C192.814 26.524 192.645 26.409 192.308 26.409C191.878 26.409 191.51 26.6773 191.204 27.214C190.851 27.8427 190.675 29.008 190.675 30.71V35.264C190.675 35.448 190.736 35.563 190.859 35.609C190.997 35.655 191.395 35.6857 192.055 35.701C192.223 35.7317 192.308 35.793 192.308 35.885C192.308 35.9923 192.208 36.046 192.009 36.046C191.656 36.046 191.326 36.0383 191.02 36.023C190.713 36.0077 190.13 36 189.272 36C188.827 36 188.505 36.0077 188.306 36.023C188.106 36.0383 187.853 36.046 187.547 36.046C187.301 36.046 187.179 35.9923 187.179 35.885C187.179 35.7777 187.278 35.724 187.478 35.724H187.8C188.321 35.724 188.628 35.6627 188.72 35.54C188.75 35.4787 188.766 35.195 188.766 34.689V28.364C188.766 27.5207 188.635 27.0377 188.375 26.915C188.129 26.777 187.731 26.7003 187.179 26.685C186.995 26.685 186.903 26.6313 186.903 26.524C186.903 26.4167 186.979 26.363 187.133 26.363H187.294C187.524 26.363 187.754 26.3783 187.984 26.409C188.214 26.4243 188.313 26.432 188.283 26.432C188.85 26.432 189.479 26.271 190.169 25.949L190.468 25.811L190.652 25.742C190.713 26.11 190.744 26.478 190.744 26.846V27.306C191.234 26.2327 191.924 25.696 192.814 25.696C193.304 25.696 193.711 25.8493 194.033 26.156C194.355 26.4473 194.516 26.8153 194.516 27.26ZM198.377 21.533C198.377 22.223 198.032 22.568 197.342 22.568C197.051 22.568 196.805 22.476 196.606 22.292C196.407 22.0927 196.307 21.855 196.307 21.579C196.307 20.8583 196.652 20.498 197.342 20.498C198.032 20.498 198.377 20.843 198.377 21.533ZM200.102 35.862C200.102 36 199.972 36.069 199.711 36.069C199.726 36.069 199.542 36.0537 199.159 36.023C198.699 35.9923 198.316 35.977 198.009 35.977L195.617 36.023C195.54 36.0383 195.448 36.046 195.341 36.046C195.172 36.046 195.088 35.9923 195.088 35.885C195.088 35.7317 195.241 35.655 195.548 35.655C196.131 35.6397 196.445 35.6013 196.491 35.54C196.552 35.4633 196.583 35.1413 196.583 34.574L196.56 27.605C196.545 27.2217 196.522 26.9993 196.491 26.938C196.476 26.8613 196.384 26.823 196.215 26.823L195.548 26.846C195.487 26.8613 195.41 26.869 195.318 26.869C195.149 26.869 195.065 26.8077 195.065 26.685C195.065 26.5777 195.195 26.5163 195.456 26.501C196.483 26.455 197.365 26.2097 198.101 25.765L198.331 25.627C198.454 25.857 198.515 26.2787 198.515 26.892C198.515 26.8613 198.515 26.938 198.515 27.122C198.5 27.306 198.492 27.605 198.492 28.019V34.298C198.492 34.9113 198.5 35.2717 198.515 35.379C198.546 35.4863 198.63 35.5553 198.768 35.586C198.998 35.6473 199.335 35.678 199.78 35.678C199.995 35.678 200.102 35.7393 200.102 35.862ZM210.659 31.032C210.659 32.5193 210.206 33.769 209.302 34.781C208.397 35.7777 207.27 36.276 205.921 36.276C204.525 36.276 203.36 35.7777 202.425 34.781C201.489 33.769 201.022 32.5193 201.022 31.032C201.022 29.4987 201.474 28.226 202.379 27.214C203.299 26.202 204.441 25.696 205.806 25.696C207.186 25.696 208.336 26.2097 209.256 27.237C210.191 28.249 210.659 29.514 210.659 31.032ZM208.566 31.009C208.566 29.3223 208.305 28.0113 207.784 27.076C207.4 26.386 206.756 26.041 205.852 26.041C204.993 26.041 204.318 26.4857 203.828 27.375C203.352 28.249 203.115 29.468 203.115 31.032C203.115 32.5807 203.368 33.792 203.874 34.666C204.395 35.5247 205.116 35.954 206.036 35.954C206.741 35.954 207.262 35.6857 207.6 35.149C208.244 34.137 208.566 32.757 208.566 31.009ZM219.087 33.079C219.087 33.9683 218.758 34.7273 218.098 35.356C217.454 35.9693 216.68 36.276 215.775 36.276C215.254 36.276 214.618 36.092 213.866 35.724C213.667 35.6167 213.491 35.563 213.337 35.563C213.123 35.563 212.962 35.7087 212.854 36C212.793 36.184 212.709 36.276 212.601 36.276C212.494 36.276 212.44 36.2147 212.44 36.092C212.44 36.0153 212.448 35.9233 212.463 35.816C212.509 35.5093 212.532 35.057 212.532 34.459C212.532 34.413 212.525 34.229 212.509 33.907C212.494 33.585 212.486 33.3703 212.486 33.263V33.01C212.486 32.8413 212.54 32.757 212.647 32.757C212.77 32.757 212.839 32.8413 212.854 33.01C212.946 33.7153 213.146 34.2673 213.452 34.666C214.066 35.4633 214.886 35.862 215.913 35.862C216.465 35.862 216.91 35.701 217.247 35.379C217.585 35.057 217.753 34.6277 217.753 34.091C217.753 33.493 217.562 33.0177 217.178 32.665C216.964 32.4657 216.764 32.3277 216.58 32.251C216.412 32.159 215.898 31.952 215.039 31.63C213.337 30.986 212.486 30.02 212.486 28.732C212.486 27.8733 212.778 27.1527 213.36 26.57C213.943 25.9873 214.664 25.696 215.522 25.696C215.829 25.696 216.289 25.788 216.902 25.972C217.056 26.018 217.194 26.041 217.316 26.041C217.638 26.041 217.838 25.8877 217.914 25.581C217.96 25.4277 218.029 25.351 218.121 25.351C218.229 25.351 218.282 25.4123 218.282 25.535C218.282 25.5503 218.275 25.5963 218.259 25.673L218.236 26.639C218.221 27.007 218.259 27.5973 218.351 28.41V28.456C218.351 28.5787 218.29 28.64 218.167 28.64C218.075 28.64 217.96 28.41 217.822 27.95C217.654 27.398 217.355 26.9533 216.925 26.616C216.511 26.2787 216.028 26.11 215.476 26.11C214.955 26.11 214.526 26.271 214.188 26.593C213.851 26.915 213.682 27.3213 213.682 27.812C213.682 28.5787 214.196 29.1613 215.223 29.56C216.818 30.1887 217.83 30.71 218.259 31.124C218.811 31.6607 219.087 32.3123 219.087 33.079Z" fill="white"/>
</svg>
