<svg width="252" height="47" viewBox="0 0 252 47" fill="none" xmlns="http://www.w3.org/2000/svg">
<rect width="252" height="47" rx="23.5" fill="#A58F49"/>
<path d="M28.234 29.846C28.234 29.978 28.124 30.044 27.904 30.044C27.7573 30.044 27.6253 30.0367 27.508 30.022L24.714 29.978L21.92 30.022C21.8173 30.0367 21.7073 30.044 21.59 30.044C21.2967 30.044 21.15 29.9707 21.15 29.824C21.15 29.6627 21.348 29.582 21.744 29.582C23.0347 29.5673 23.68 29.4353 23.68 29.186C23.68 29.1713 23.6653 29.1127 23.636 29.01L23.46 28.416L23.35 28.108C23.218 27.6533 22.8953 26.6487 22.382 25.094H17.674C16.794 27.4407 16.354 28.79 16.354 29.142C16.354 29.3473 16.442 29.472 16.618 29.516C16.662 29.5307 17.0287 29.56 17.718 29.604C18.1433 29.6187 18.356 29.692 18.356 29.824C18.356 29.9707 18.1653 30.044 17.784 30.044C17.1093 30.044 16.3247 30.0147 15.43 29.956C15.21 29.9413 14.9827 29.934 14.748 29.934C14.5133 29.934 14.286 29.9487 14.066 29.978C13.9487 29.9927 13.8533 30 13.78 30C13.5747 30 13.472 29.934 13.472 29.802C13.472 29.67 13.6993 29.5967 14.154 29.582C14.6233 29.5673 14.9607 29.5013 15.166 29.384C15.3713 29.252 15.5327 29.01 15.65 28.658C17.542 23.2607 19.082 18.9267 20.27 15.656C20.2993 15.48 20.358 15.282 20.446 15.062L20.556 14.666C20.6 14.5047 20.6587 14.424 20.732 14.424C20.776 14.424 20.8127 14.468 20.842 14.556C21.0327 15.128 21.4653 16.3233 22.14 18.142C22.668 19.5647 23.9807 23.136 26.078 28.856C26.1953 29.1787 26.342 29.384 26.518 29.472C26.7087 29.56 27.09 29.6113 27.662 29.626C28.0433 29.6407 28.234 29.714 28.234 29.846ZM22.25 24.588C22.0153 23.928 21.6267 22.8353 21.084 21.31L20.028 18.296C19.412 19.9093 18.6713 22.0067 17.806 24.588H22.25ZM38.0584 21.442C38.0584 22.1167 37.7577 22.454 37.1564 22.454C36.951 22.454 36.7604 22.388 36.5844 22.256C36.423 22.1093 36.3424 21.948 36.3424 21.772C36.3424 21.7133 36.3644 21.6253 36.4084 21.508C36.4524 21.376 36.4744 21.2733 36.4744 21.2C36.4744 21.0093 36.3717 20.914 36.1664 20.914C35.9904 20.914 35.8217 21.0093 35.6604 21.2C35.499 21.376 35.4184 21.5593 35.4184 21.75C35.4184 21.794 35.455 22.0433 35.5284 22.498C35.6017 22.9527 35.6384 23.2973 35.6384 23.532C35.6384 24.5293 35.2937 25.3653 34.6044 26.04C33.915 26.7147 33.057 27.052 32.0304 27.052C31.7664 27.052 31.2824 26.942 30.5784 26.722C30.3877 26.6633 30.263 26.634 30.2044 26.634C29.8964 26.634 29.6177 26.7587 29.3684 27.008C29.119 27.2573 28.9944 27.5287 28.9944 27.822C28.9944 28.5847 29.4564 28.966 30.3804 28.966C30.7324 28.966 31.297 28.9 32.0744 28.768C32.6757 28.6653 33.2257 28.614 33.7244 28.614C34.619 28.614 35.3157 28.8487 35.8144 29.318C36.3277 29.7873 36.5844 30.44 36.5844 31.276C36.5844 32.5373 36.0417 33.586 34.9564 34.422C33.8857 35.258 32.529 35.676 30.8864 35.676C29.669 35.676 28.7084 35.4267 28.0044 34.928C27.315 34.444 26.9704 33.7693 26.9704 32.904C26.9704 32.068 27.293 31.4373 27.9384 31.012C28.261 30.8067 28.7744 30.6233 29.4784 30.462C28.437 30.0513 27.9164 29.4207 27.9164 28.57C27.9164 27.514 28.591 26.7807 29.9404 26.37C29.0604 25.6807 28.6204 24.7713 28.6204 23.642C28.6204 22.586 28.9577 21.7427 29.6324 21.112C30.307 20.4667 31.1944 20.144 32.2944 20.144C32.8957 20.144 33.3797 20.2247 33.7464 20.386C34.1277 20.5473 34.5677 20.87 35.0664 21.354C35.5357 20.6647 36.115 20.32 36.8044 20.32C37.6404 20.32 38.0584 20.694 38.0584 21.442ZM33.9664 23.62C33.9664 21.4933 33.3797 20.43 32.2064 20.43C31.0624 20.43 30.4904 21.42 30.4904 23.4C30.4904 25.6293 31.099 26.744 32.3164 26.744C33.4164 26.744 33.9664 25.7027 33.9664 23.62ZM35.6604 32.046C35.6604 30.8287 34.9417 30.22 33.5044 30.22C33.0937 30.22 32.485 30.286 31.6784 30.418C30.8864 30.55 30.2924 30.616 29.8964 30.616C29.1484 31.012 28.7744 31.7087 28.7744 32.706C28.7744 33.454 29.0384 34.0553 29.5664 34.51C30.109 34.9647 30.8204 35.192 31.7004 35.192C32.815 35.192 33.7537 34.884 34.5164 34.268C35.279 33.6667 35.6604 32.926 35.6604 32.046ZM46.3919 27.602C46.3919 27.7487 46.2746 28.0127 46.0399 28.394C45.8199 28.7607 45.5926 29.0613 45.3579 29.296C44.7272 29.9413 43.8839 30.264 42.8279 30.264C41.5079 30.264 40.4006 29.7873 39.5059 28.834C38.6259 27.8807 38.1859 26.7 38.1859 25.292C38.1859 23.8253 38.6039 22.6007 39.4399 21.618C40.2906 20.6353 41.3466 20.144 42.6079 20.144C43.6492 20.144 44.5219 20.452 45.2259 21.068C45.9299 21.6693 46.3039 22.4467 46.3479 23.4C45.8786 23.4733 45.2552 23.5027 44.4779 23.488L42.9379 23.466C42.8352 23.466 41.9552 23.488 40.2979 23.532C40.2246 24.016 40.1879 24.478 40.1879 24.918C40.1879 26.3993 40.4666 27.5433 41.0239 28.35C41.5959 29.142 42.3952 29.538 43.4219 29.538C44.0086 29.538 44.4779 29.406 44.8299 29.142C45.1819 28.878 45.5632 28.372 45.9739 27.624C46.0326 27.5067 46.1132 27.448 46.2159 27.448C46.3332 27.448 46.3919 27.4993 46.3919 27.602ZM44.4779 23.114C44.4192 21.354 43.7886 20.474 42.5859 20.474C41.3979 20.474 40.6572 21.354 40.3639 23.114H44.4779ZM57.627 29.868C57.627 29.9853 57.517 30.044 57.297 30.044H57.033C56.769 30.0147 56.4097 30 55.955 30C54.5177 30 53.667 30.0147 53.403 30.044H53.249C53.0584 30.044 52.963 29.9927 52.963 29.89C52.963 29.8167 52.9997 29.7727 53.073 29.758C53.161 29.7433 53.447 29.7287 53.931 29.714C54.2097 29.6993 54.371 29.6627 54.415 29.604C54.459 29.5307 54.481 29.2887 54.481 28.878V24.654C54.481 23.0553 54.4224 22.102 54.305 21.794C54.0557 21.134 53.557 20.804 52.809 20.804C52.0757 20.804 51.4597 21.1267 50.961 21.772C50.8144 21.9627 50.741 22.2267 50.741 22.564L50.763 29.428C50.763 29.604 50.917 29.6993 51.225 29.714L51.885 29.736C52.0317 29.736 52.105 29.7873 52.105 29.89C52.105 29.9927 52.017 30.044 51.841 30.044H51.489C51.1664 30.0147 50.653 30 49.949 30C49.7877 30 49.4357 30.0073 48.893 30.022C48.365 30.0367 48.057 30.044 47.969 30.044H47.837C47.617 30.044 47.507 29.9927 47.507 29.89C47.507 29.7873 47.639 29.7213 47.903 29.692C48.0937 29.692 48.277 29.692 48.453 29.692C48.673 29.692 48.805 29.6407 48.849 29.538L48.915 29.208V24.412C48.915 22.74 48.9004 21.816 48.871 21.64C48.8417 21.464 48.6584 21.376 48.321 21.376C48.2184 21.376 48.0424 21.3907 47.793 21.42H47.683C47.3897 21.42 47.243 21.3687 47.243 21.266C47.243 21.134 47.397 21.068 47.705 21.068C48.145 21.0533 48.6217 20.9727 49.135 20.826C49.6484 20.6793 50.0077 20.5107 50.213 20.32C50.345 20.2027 50.4477 20.144 50.521 20.144C50.6237 20.144 50.675 20.2833 50.675 20.562V21.618C51.4377 20.6353 52.4204 20.144 53.623 20.144C54.679 20.144 55.4417 20.5327 55.911 21.31C56.175 21.75 56.307 22.586 56.307 23.818V28.834C56.307 29.3033 56.329 29.56 56.373 29.604C56.461 29.692 56.6737 29.736 57.011 29.736C57.055 29.736 57.1357 29.7287 57.253 29.714H57.407C57.5537 29.714 57.627 29.7653 57.627 29.868ZM68.2367 29.56C68.2367 29.6627 68.134 29.714 67.9287 29.714H67.8187C67.7014 29.714 67.5767 29.7067 67.4447 29.692C67.3274 29.692 67.2687 29.692 67.2687 29.692C66.55 29.692 65.9414 29.8387 65.4427 30.132C65.2374 30.2493 65.1127 30.308 65.0687 30.308C64.9367 30.308 64.8707 30.22 64.8707 30.044L64.8927 29.362C64.262 29.9633 63.514 30.264 62.6487 30.264C61.4167 30.264 60.3974 29.7947 59.5907 28.856C58.7987 27.9027 58.4027 26.6927 58.4027 25.226C58.4027 23.7153 58.7987 22.4907 59.5907 21.552C60.3974 20.6133 61.446 20.144 62.7367 20.144C63.734 20.144 64.482 20.5033 64.9807 21.222V17.79C64.9807 16.6753 64.9294 15.986 64.8267 15.722C64.7387 15.502 64.6067 15.3993 64.4307 15.414C64.0054 15.458 63.7487 15.48 63.6607 15.48C63.47 15.48 63.3747 15.414 63.3747 15.282C63.3747 15.15 63.4554 15.084 63.6167 15.084L64.4087 15.106C64.8487 15.1207 65.5234 14.9153 66.4327 14.49C66.4914 14.4607 66.5427 14.446 66.5867 14.446C66.7334 14.446 66.8067 14.622 66.8067 14.974C66.8067 15.062 66.8067 15.216 66.8067 15.436C66.792 15.6707 66.7847 15.876 66.7847 16.052V23.642C66.7847 27.118 66.8214 28.9807 66.8947 29.23C66.924 29.3327 67.2687 29.384 67.9287 29.384C68.134 29.384 68.2367 29.4427 68.2367 29.56ZM64.9807 24.038C64.9807 22.63 64.8267 21.728 64.5187 21.332C64.1227 20.8333 63.6167 20.584 63.0007 20.584C62.2087 20.584 61.578 20.9947 61.1087 21.816C60.6394 22.6373 60.4047 23.7373 60.4047 25.116C60.4047 26.436 60.61 27.5653 61.0207 28.504C61.1967 28.9 61.4534 29.23 61.7907 29.494C62.1427 29.7433 62.502 29.868 62.8687 29.868C63.3234 29.868 63.734 29.736 64.1007 29.472C64.4674 29.1933 64.702 28.8633 64.8047 28.482C64.922 28.1007 64.9807 26.6193 64.9807 24.038ZM77.6216 29.01C77.6216 29.2593 77.3576 29.5233 76.8296 29.802C76.3163 30.066 75.8176 30.198 75.3336 30.198C74.3216 30.198 73.7936 29.6773 73.7496 28.636C73.1923 29.7213 72.3269 30.264 71.1536 30.264C70.5229 30.264 70.0023 30.0807 69.5916 29.714C69.1809 29.3327 68.9756 28.8487 68.9756 28.262C68.9756 27.0593 69.7016 26.106 71.1536 25.402C71.6523 25.1673 72.5176 24.9327 73.7496 24.698V24.148C73.7496 22.8573 73.6836 22.0067 73.5516 21.596C73.3169 20.848 72.7889 20.474 71.9676 20.474C71.4543 20.474 71.0216 20.6133 70.6696 20.892C70.3323 21.1707 70.1636 21.5227 70.1636 21.948C70.1636 22.0653 70.2516 22.124 70.4276 22.124C70.6183 22.124 70.7869 22.212 70.9336 22.388C71.0803 22.564 71.1536 22.762 71.1536 22.982C71.1536 23.6273 70.8309 23.95 70.1856 23.95C69.8483 23.95 69.5696 23.84 69.3496 23.62C69.1296 23.3853 69.0196 23.092 69.0196 22.74C69.0196 22.0507 69.2909 21.4567 69.8336 20.958C70.4349 20.4153 71.2709 20.144 72.3416 20.144C73.9549 20.144 74.9449 20.584 75.3116 21.464C75.4436 21.8013 75.5096 22.4687 75.5096 23.466V27.58C75.5096 28.2547 75.5169 28.6507 75.5316 28.768C75.6049 29.296 75.8176 29.56 76.1696 29.56C76.5803 29.56 76.9176 29.4133 77.1816 29.12C77.3283 28.9587 77.4383 28.878 77.5116 28.878C77.5849 28.878 77.6216 28.922 77.6216 29.01ZM73.7496 26.678V25.072C72.6496 25.3213 71.8576 25.6513 71.3736 26.062C70.9043 26.458 70.6696 26.9933 70.6696 27.668C70.6696 28.1373 70.8016 28.526 71.0656 28.834C71.3443 29.1273 71.6889 29.274 72.0996 29.274C72.7303 29.274 73.2363 28.922 73.6176 28.218C73.7056 28.0567 73.7496 27.5433 73.7496 26.678ZM87.5977 29.868C87.5977 29.9853 87.4877 30.044 87.2677 30.044H87.0037C86.7397 30.0147 86.3804 30 85.9257 30C84.4884 30 83.6377 30.0147 83.3737 30.044H83.2197C83.0291 30.044 82.9337 29.9927 82.9337 29.89C82.9337 29.8167 82.9704 29.7727 83.0437 29.758C83.1317 29.7433 83.4177 29.7287 83.9017 29.714C84.1804 29.6993 84.3417 29.6627 84.3857 29.604C84.4297 29.5307 84.4517 29.2887 84.4517 28.878V24.654C84.4517 23.0553 84.3931 22.102 84.2757 21.794C84.0264 21.134 83.5277 20.804 82.7797 20.804C82.0464 20.804 81.4304 21.1267 80.9317 21.772C80.7851 21.9627 80.7117 22.2267 80.7117 22.564L80.7337 29.428C80.7337 29.604 80.8877 29.6993 81.1957 29.714L81.8557 29.736C82.0024 29.736 82.0757 29.7873 82.0757 29.89C82.0757 29.9927 81.9877 30.044 81.8117 30.044H81.4597C81.1371 30.0147 80.6237 30 79.9197 30C79.7584 30 79.4064 30.0073 78.8637 30.022C78.3357 30.0367 78.0277 30.044 77.9397 30.044H77.8077C77.5877 30.044 77.4777 29.9927 77.4777 29.89C77.4777 29.7873 77.6097 29.7213 77.8737 29.692C78.0644 29.692 78.2477 29.692 78.4237 29.692C78.6437 29.692 78.7757 29.6407 78.8197 29.538L78.8857 29.208V24.412C78.8857 22.74 78.8711 21.816 78.8417 21.64C78.8124 21.464 78.6291 21.376 78.2917 21.376C78.1891 21.376 78.0131 21.3907 77.7637 21.42H77.6537C77.3604 21.42 77.2137 21.3687 77.2137 21.266C77.2137 21.134 77.3677 21.068 77.6757 21.068C78.1157 21.0533 78.5924 20.9727 79.1057 20.826C79.6191 20.6793 79.9784 20.5107 80.1837 20.32C80.3157 20.2027 80.4184 20.144 80.4917 20.144C80.5944 20.144 80.6457 20.2833 80.6457 20.562V21.618C81.4084 20.6353 82.3911 20.144 83.5937 20.144C84.6497 20.144 85.4124 20.5327 85.8817 21.31C86.1457 21.75 86.2777 22.586 86.2777 23.818V28.834C86.2777 29.3033 86.2997 29.56 86.3437 29.604C86.4317 29.692 86.6444 29.736 86.9817 29.736C87.0257 29.736 87.1064 29.7287 87.2237 29.714H87.3777C87.5244 29.714 87.5977 29.7653 87.5977 29.868ZM97.5914 25.248C97.5914 26.6707 97.1587 27.866 96.2934 28.834C95.4281 29.7873 94.3501 30.264 93.0594 30.264C91.7247 30.264 90.6101 29.7873 89.7154 28.834C88.8207 27.866 88.3734 26.6707 88.3734 25.248C88.3734 23.7813 88.8061 22.564 89.6714 21.596C90.5514 20.628 91.6441 20.144 92.9494 20.144C94.2694 20.144 95.3694 20.6353 96.2494 21.618C97.1441 22.586 97.5914 23.796 97.5914 25.248ZM95.5894 25.226C95.5894 23.6127 95.3401 22.3587 94.8414 21.464C94.4747 20.804 93.8587 20.474 92.9934 20.474C92.1721 20.474 91.5267 20.8993 91.0574 21.75C90.6027 22.586 90.3754 23.752 90.3754 25.248C90.3754 26.7293 90.6174 27.888 91.1014 28.724C91.6001 29.5453 92.2894 29.956 93.1694 29.956C93.8441 29.956 94.3427 29.6993 94.6654 29.186C95.2814 28.218 95.5894 26.898 95.5894 25.226ZM105.654 27.206C105.654 28.0567 105.338 28.7827 104.708 29.384C104.092 29.9707 103.351 30.264 102.486 30.264C101.987 30.264 101.378 30.088 100.66 29.736C100.469 29.6333 100.3 29.582 100.154 29.582C99.9484 29.582 99.7944 29.7213 99.6917 30C99.6331 30.176 99.5524 30.264 99.4497 30.264C99.3471 30.264 99.2957 30.2053 99.2957 30.088C99.2957 30.0147 99.3031 29.9267 99.3177 29.824C99.3617 29.5307 99.3837 29.098 99.3837 28.526C99.3837 28.482 99.3764 28.306 99.3617 27.998C99.3471 27.69 99.3397 27.4847 99.3397 27.382V27.14C99.3397 26.9787 99.3911 26.898 99.4937 26.898C99.6111 26.898 99.6771 26.9787 99.6917 27.14C99.7797 27.8147 99.9704 28.3427 100.264 28.724C100.85 29.4867 101.635 29.868 102.618 29.868C103.146 29.868 103.571 29.714 103.894 29.406C104.216 29.098 104.378 28.6873 104.378 28.174C104.378 27.602 104.194 27.1473 103.828 26.81C103.622 26.6193 103.432 26.4873 103.256 26.414C103.094 26.326 102.603 26.128 101.782 25.82C100.154 25.204 99.3397 24.28 99.3397 23.048C99.3397 22.2267 99.6184 21.5373 100.176 20.98C100.733 20.4227 101.422 20.144 102.244 20.144C102.537 20.144 102.977 20.232 103.564 20.408C103.71 20.452 103.842 20.474 103.96 20.474C104.268 20.474 104.458 20.3273 104.532 20.034C104.576 19.8873 104.642 19.814 104.73 19.814C104.832 19.814 104.884 19.8727 104.884 19.99C104.884 20.0047 104.876 20.0487 104.862 20.122L104.84 21.046C104.825 21.398 104.862 21.9627 104.95 22.74V22.784C104.95 22.9013 104.891 22.96 104.774 22.96C104.686 22.96 104.576 22.74 104.444 22.3C104.282 21.772 103.996 21.3467 103.586 21.024C103.19 20.7013 102.728 20.54 102.2 20.54C101.701 20.54 101.29 20.694 100.968 21.002C100.645 21.31 100.484 21.6987 100.484 22.168C100.484 22.9013 100.975 23.4587 101.958 23.84C103.483 24.4413 104.451 24.94 104.862 25.336C105.39 25.8493 105.654 26.4727 105.654 27.206ZM119.202 27.602C119.202 27.7487 119.085 28.0127 118.85 28.394C118.63 28.7607 118.403 29.0613 118.168 29.296C117.538 29.9413 116.694 30.264 115.638 30.264C114.318 30.264 113.211 29.7873 112.316 28.834C111.436 27.8807 110.996 26.7 110.996 25.292C110.996 23.8253 111.414 22.6007 112.25 21.618C113.101 20.6353 114.157 20.144 115.418 20.144C116.46 20.144 117.332 20.452 118.036 21.068C118.74 21.6693 119.114 22.4467 119.158 23.4C118.689 23.4733 118.066 23.5027 117.288 23.488L115.748 23.466C115.646 23.466 114.766 23.488 113.108 23.532C113.035 24.016 112.998 24.478 112.998 24.918C112.998 26.3993 113.277 27.5433 113.834 28.35C114.406 29.142 115.206 29.538 116.232 29.538C116.819 29.538 117.288 29.406 117.64 29.142C117.992 28.878 118.374 28.372 118.784 27.624C118.843 27.5067 118.924 27.448 119.026 27.448C119.144 27.448 119.202 27.4993 119.202 27.602ZM117.288 23.114C117.23 21.354 116.599 20.474 115.396 20.474C114.208 20.474 113.468 21.354 113.174 23.114H117.288ZM130.438 29.868C130.438 29.9853 130.328 30.044 130.108 30.044H129.844C129.58 30.0147 129.22 30 128.766 30C127.328 30 126.478 30.0147 126.214 30.044H126.06C125.869 30.044 125.774 29.9927 125.774 29.89C125.774 29.8167 125.81 29.7727 125.884 29.758C125.972 29.7433 126.258 29.7287 126.742 29.714C127.02 29.6993 127.182 29.6627 127.226 29.604C127.27 29.5307 127.292 29.2887 127.292 28.878V24.654C127.292 23.0553 127.233 22.102 127.116 21.794C126.866 21.134 126.368 20.804 125.62 20.804C124.886 20.804 124.27 21.1267 123.772 21.772C123.625 21.9627 123.552 22.2267 123.552 22.564L123.574 29.428C123.574 29.604 123.728 29.6993 124.036 29.714L124.696 29.736C124.842 29.736 124.916 29.7873 124.916 29.89C124.916 29.9927 124.828 30.044 124.652 30.044H124.3C123.977 30.0147 123.464 30 122.76 30C122.598 30 122.246 30.0073 121.704 30.022C121.176 30.0367 120.868 30.044 120.78 30.044H120.648C120.428 30.044 120.318 29.9927 120.318 29.89C120.318 29.7873 120.45 29.7213 120.714 29.692C120.904 29.692 121.088 29.692 121.264 29.692C121.484 29.692 121.616 29.6407 121.66 29.538L121.726 29.208V24.412C121.726 22.74 121.711 21.816 121.682 21.64C121.652 21.464 121.469 21.376 121.132 21.376C121.029 21.376 120.853 21.3907 120.604 21.42H120.494C120.2 21.42 120.054 21.3687 120.054 21.266C120.054 21.134 120.208 21.068 120.516 21.068C120.956 21.0533 121.432 20.9727 121.946 20.826C122.459 20.6793 122.818 20.5107 123.024 20.32C123.156 20.2027 123.258 20.144 123.332 20.144C123.434 20.144 123.486 20.2833 123.486 20.562V21.618C124.248 20.6353 125.231 20.144 126.434 20.144C127.49 20.144 128.252 20.5327 128.722 21.31C128.986 21.75 129.118 22.586 129.118 23.818V28.834C129.118 29.3033 129.14 29.56 129.184 29.604C129.272 29.692 129.484 29.736 129.822 29.736C129.866 29.736 129.946 29.7287 130.064 29.714H130.218C130.364 29.714 130.438 29.7653 130.438 29.868ZM141.279 28.702C141.279 28.834 141.096 29.0687 140.729 29.406C140.099 29.978 139.351 30.264 138.485 30.264C137.679 30.264 137.07 30.0587 136.659 29.648C136.425 29.4133 136.307 28.724 136.307 27.58V21.024C136.293 20.8773 136.212 20.7967 136.065 20.782H135.229C134.907 20.782 134.745 20.7307 134.745 20.628C134.745 20.5253 134.826 20.4667 134.987 20.452C136.131 20.3493 137.026 19.792 137.671 18.78C137.759 18.648 137.869 18.582 138.001 18.582C138.104 18.582 138.155 18.6333 138.155 18.736V18.824C138.141 18.8973 138.133 19.022 138.133 19.198C138.133 19.814 138.163 20.21 138.221 20.386C138.353 20.4153 138.573 20.43 138.881 20.43C139.688 20.43 140.223 20.3933 140.487 20.32C140.546 20.3053 140.597 20.298 140.641 20.298C140.759 20.298 140.817 20.364 140.817 20.496C140.817 20.716 140.223 20.826 139.035 20.826C138.83 20.826 138.529 20.8187 138.133 20.804V24.874C138.133 26.9273 138.185 28.218 138.287 28.746C138.39 29.2593 138.727 29.516 139.299 29.516C139.783 29.516 140.326 29.2447 140.927 28.702C140.986 28.6287 141.052 28.592 141.125 28.592C141.228 28.592 141.279 28.6287 141.279 28.702ZM151.865 29.252C151.865 29.3547 151.704 29.4133 151.381 29.428C150.237 29.5013 149.233 29.7507 148.367 30.176C148.309 30.2053 148.257 30.22 148.213 30.22C148.125 30.22 148.081 30.1613 148.081 30.044L148.103 28.812C147.429 29.78 146.483 30.264 145.265 30.264C144.18 30.264 143.403 29.9487 142.933 29.318C142.743 29.054 142.625 28.812 142.581 28.592C142.552 28.372 142.537 27.778 142.537 26.81V21.772C142.537 21.2587 142.508 20.958 142.449 20.87C142.391 20.782 142.193 20.7307 141.855 20.716L141.569 20.738C141.173 20.7673 140.975 20.7087 140.975 20.562C140.975 20.4593 141.1 20.408 141.349 20.408C141.613 20.408 141.995 20.4227 142.493 20.452C142.743 20.4667 142.889 20.474 142.933 20.474C143.447 20.474 143.923 20.452 144.363 20.408V26.546C144.363 27.6753 144.437 28.4233 144.583 28.79C144.818 29.362 145.295 29.648 146.013 29.648C146.791 29.648 147.363 29.3253 147.729 28.68C147.993 28.2107 148.125 27.4627 148.125 26.436V23.026C148.125 22.5273 148.118 22.1533 148.103 21.904L148.059 21.178C148.045 20.958 147.993 20.8333 147.905 20.804C147.832 20.76 147.671 20.738 147.421 20.738C146.805 20.7527 146.497 20.6867 146.497 20.54C146.497 20.452 146.651 20.408 146.959 20.408H147.157C147.275 20.4227 147.663 20.43 148.323 20.43C149.203 20.43 149.746 20.4227 149.951 20.408V26.546C149.951 27.602 149.973 28.2693 150.017 28.548C150.061 28.8267 150.171 28.988 150.347 29.032C150.538 29.076 150.956 29.098 151.601 29.098C151.777 29.098 151.865 29.1493 151.865 29.252ZM164.422 22.41C164.422 23.0847 164.092 23.422 163.432 23.422C162.787 23.422 162.464 23.114 162.464 22.498C162.464 22.3367 162.538 22.0947 162.684 21.772C162.728 21.6693 162.75 21.5667 162.75 21.464C162.75 21.1707 162.596 20.9287 162.288 20.738C161.995 20.5473 161.621 20.452 161.166 20.452C160.286 20.452 159.604 20.8333 159.12 21.596C158.636 22.3587 158.394 23.4293 158.394 24.808C158.394 26.3627 158.644 27.5653 159.142 28.416C159.641 29.252 160.345 29.67 161.254 29.67C161.87 29.67 162.42 29.4793 162.904 29.098C163.124 28.922 163.41 28.5847 163.762 28.086C163.836 28.0127 163.902 27.976 163.96 27.976C164.107 27.976 164.18 28.0347 164.18 28.152C164.18 28.3427 163.924 28.702 163.41 29.23C162.75 29.9193 161.907 30.264 160.88 30.264C159.59 30.264 158.519 29.802 157.668 28.878C156.832 27.954 156.414 26.788 156.414 25.38C156.414 23.8693 156.862 22.6227 157.756 21.64C158.651 20.6427 159.773 20.144 161.122 20.144C161.988 20.144 162.75 20.3713 163.41 20.826C164.085 21.2807 164.422 21.8087 164.422 22.41ZM174.172 29.01C174.172 29.2593 173.908 29.5233 173.38 29.802C172.867 30.066 172.368 30.198 171.884 30.198C170.872 30.198 170.344 29.6773 170.3 28.636C169.743 29.7213 168.878 30.264 167.704 30.264C167.074 30.264 166.553 30.0807 166.142 29.714C165.732 29.3327 165.526 28.8487 165.526 28.262C165.526 27.0593 166.252 26.106 167.704 25.402C168.203 25.1673 169.068 24.9327 170.3 24.698V24.148C170.3 22.8573 170.234 22.0067 170.102 21.596C169.868 20.848 169.34 20.474 168.518 20.474C168.005 20.474 167.572 20.6133 167.22 20.892C166.883 21.1707 166.714 21.5227 166.714 21.948C166.714 22.0653 166.802 22.124 166.978 22.124C167.169 22.124 167.338 22.212 167.484 22.388C167.631 22.564 167.704 22.762 167.704 22.982C167.704 23.6273 167.382 23.95 166.736 23.95C166.399 23.95 166.12 23.84 165.9 23.62C165.68 23.3853 165.57 23.092 165.57 22.74C165.57 22.0507 165.842 21.4567 166.384 20.958C166.986 20.4153 167.822 20.144 168.892 20.144C170.506 20.144 171.496 20.584 171.862 21.464C171.994 21.8013 172.06 22.4687 172.06 23.466V27.58C172.06 28.2547 172.068 28.6507 172.082 28.768C172.156 29.296 172.368 29.56 172.72 29.56C173.131 29.56 173.468 29.4133 173.732 29.12C173.879 28.9587 173.989 28.878 174.062 28.878C174.136 28.878 174.172 28.922 174.172 29.01ZM170.3 26.678V25.072C169.2 25.3213 168.408 25.6513 167.924 26.062C167.455 26.458 167.22 26.9933 167.22 27.668C167.22 28.1373 167.352 28.526 167.616 28.834C167.895 29.1273 168.24 29.274 168.65 29.274C169.281 29.274 169.787 28.922 170.168 28.218C170.256 28.0567 170.3 27.5433 170.3 26.678ZM178.451 29.846C178.451 29.978 178.355 30.044 178.165 30.044H177.901C177.871 30.044 177.483 30.0293 176.735 30L176.053 29.978C175.935 29.978 175.349 30 174.293 30.044C174.205 30.0587 174.117 30.066 174.029 30.066C173.809 30.0807 173.699 30.0147 173.699 29.868C173.699 29.7653 173.779 29.714 173.941 29.714H174.513C174.923 29.714 175.129 29.626 175.129 29.45C175.143 29.362 175.151 28.79 175.151 27.734V16.536C175.151 16.052 175.136 15.788 175.107 15.744C175.063 15.6267 174.945 15.568 174.755 15.568H174.579L173.963 15.59C173.757 15.59 173.655 15.524 173.655 15.392C173.655 15.2747 173.838 15.2087 174.205 15.194C174.909 15.15 175.561 14.9887 176.163 14.71L176.625 14.49L176.801 14.424C176.918 14.8493 176.969 15.4947 176.955 16.36L176.933 17.922L176.955 28.702C176.955 29.142 176.962 29.406 176.977 29.494C176.991 29.5673 177.043 29.6187 177.131 29.648C177.145 29.6627 177.417 29.6773 177.945 29.692C178.282 29.692 178.451 29.7433 178.451 29.846ZM187.544 27.602C187.544 27.7487 187.427 28.0127 187.192 28.394C186.972 28.7607 186.745 29.0613 186.51 29.296C185.88 29.9413 185.036 30.264 183.98 30.264C182.66 30.264 181.553 29.7873 180.658 28.834C179.778 27.8807 179.338 26.7 179.338 25.292C179.338 23.8253 179.756 22.6007 180.592 21.618C181.443 20.6353 182.499 20.144 183.76 20.144C184.802 20.144 185.674 20.452 186.378 21.068C187.082 21.6693 187.456 22.4467 187.5 23.4C187.031 23.4733 186.408 23.5027 185.63 23.488L184.09 23.466C183.988 23.466 183.108 23.488 181.45 23.532C181.377 24.016 181.34 24.478 181.34 24.918C181.34 26.3993 181.619 27.5433 182.176 28.35C182.748 29.142 183.548 29.538 184.574 29.538C185.161 29.538 185.63 29.406 185.982 29.142C186.334 28.878 186.716 28.372 187.126 27.624C187.185 27.5067 187.266 27.448 187.368 27.448C187.486 27.448 187.544 27.4993 187.544 27.602ZM185.63 23.114C185.572 21.354 184.941 20.474 183.738 20.474C182.55 20.474 181.81 21.354 181.516 23.114H185.63ZM198.779 29.868C198.779 29.9853 198.669 30.044 198.449 30.044H198.185C197.921 30.0147 197.562 30 197.107 30C195.67 30 194.819 30.0147 194.555 30.044H194.401C194.211 30.044 194.115 29.9927 194.115 29.89C194.115 29.8167 194.152 29.7727 194.225 29.758C194.313 29.7433 194.599 29.7287 195.083 29.714C195.362 29.6993 195.523 29.6627 195.567 29.604C195.611 29.5307 195.633 29.2887 195.633 28.878V24.654C195.633 23.0553 195.575 22.102 195.457 21.794C195.208 21.134 194.709 20.804 193.961 20.804C193.228 20.804 192.612 21.1267 192.113 21.772C191.967 21.9627 191.893 22.2267 191.893 22.564L191.915 29.428C191.915 29.604 192.069 29.6993 192.377 29.714L193.037 29.736C193.184 29.736 193.257 29.7873 193.257 29.89C193.257 29.9927 193.169 30.044 192.993 30.044H192.641C192.319 30.0147 191.805 30 191.101 30C190.94 30 190.588 30.0073 190.045 30.022C189.517 30.0367 189.209 30.044 189.121 30.044H188.989C188.769 30.044 188.659 29.9927 188.659 29.89C188.659 29.7873 188.791 29.7213 189.055 29.692C189.246 29.692 189.429 29.692 189.605 29.692C189.825 29.692 189.957 29.6407 190.001 29.538L190.067 29.208V24.412C190.067 22.74 190.053 21.816 190.023 21.64C189.994 21.464 189.811 21.376 189.473 21.376C189.371 21.376 189.195 21.3907 188.945 21.42H188.835C188.542 21.42 188.395 21.3687 188.395 21.266C188.395 21.134 188.549 21.068 188.857 21.068C189.297 21.0533 189.774 20.9727 190.287 20.826C190.801 20.6793 191.16 20.5107 191.365 20.32C191.497 20.2027 191.6 20.144 191.673 20.144C191.776 20.144 191.827 20.2833 191.827 20.562V21.618C192.59 20.6353 193.573 20.144 194.775 20.144C195.831 20.144 196.594 20.5327 197.063 21.31C197.327 21.75 197.459 22.586 197.459 23.818V28.834C197.459 29.3033 197.481 29.56 197.525 29.604C197.613 29.692 197.826 29.736 198.163 29.736C198.207 29.736 198.288 29.7287 198.405 29.714H198.559C198.706 29.714 198.779 29.7653 198.779 29.868ZM209.389 29.56C209.389 29.6627 209.286 29.714 209.081 29.714H208.971C208.854 29.714 208.729 29.7067 208.597 29.692C208.48 29.692 208.421 29.692 208.421 29.692C207.702 29.692 207.094 29.8387 206.595 30.132C206.39 30.2493 206.265 30.308 206.221 30.308C206.089 30.308 206.023 30.22 206.023 30.044L206.045 29.362C205.414 29.9633 204.666 30.264 203.801 30.264C202.569 30.264 201.55 29.7947 200.743 28.856C199.951 27.9027 199.555 26.6927 199.555 25.226C199.555 23.7153 199.951 22.4907 200.743 21.552C201.55 20.6133 202.598 20.144 203.889 20.144C204.886 20.144 205.634 20.5033 206.133 21.222V17.79C206.133 16.6753 206.082 15.986 205.979 15.722C205.891 15.502 205.759 15.3993 205.583 15.414C205.158 15.458 204.901 15.48 204.813 15.48C204.622 15.48 204.527 15.414 204.527 15.282C204.527 15.15 204.608 15.084 204.769 15.084L205.561 15.106C206.001 15.1207 206.676 14.9153 207.585 14.49C207.644 14.4607 207.695 14.446 207.739 14.446C207.886 14.446 207.959 14.622 207.959 14.974C207.959 15.062 207.959 15.216 207.959 15.436C207.944 15.6707 207.937 15.876 207.937 16.052V23.642C207.937 27.118 207.974 28.9807 208.047 29.23C208.076 29.3327 208.421 29.384 209.081 29.384C209.286 29.384 209.389 29.4427 209.389 29.56ZM206.133 24.038C206.133 22.63 205.979 21.728 205.671 21.332C205.275 20.8333 204.769 20.584 204.153 20.584C203.361 20.584 202.73 20.9947 202.261 21.816C201.792 22.6373 201.557 23.7373 201.557 25.116C201.557 26.436 201.762 27.5653 202.173 28.504C202.349 28.9 202.606 29.23 202.943 29.494C203.295 29.7433 203.654 29.868 204.021 29.868C204.476 29.868 204.886 29.736 205.253 29.472C205.62 29.1933 205.854 28.8633 205.957 28.482C206.074 28.1007 206.133 26.6193 206.133 24.038ZM218.774 29.01C218.774 29.2593 218.51 29.5233 217.982 29.802C217.469 30.066 216.97 30.198 216.486 30.198C215.474 30.198 214.946 29.6773 214.902 28.636C214.345 29.7213 213.479 30.264 212.306 30.264C211.675 30.264 211.155 30.0807 210.744 29.714C210.333 29.3327 210.128 28.8487 210.128 28.262C210.128 27.0593 210.854 26.106 212.306 25.402C212.805 25.1673 213.67 24.9327 214.902 24.698V24.148C214.902 22.8573 214.836 22.0067 214.704 21.596C214.469 20.848 213.941 20.474 213.12 20.474C212.607 20.474 212.174 20.6133 211.822 20.892C211.485 21.1707 211.316 21.5227 211.316 21.948C211.316 22.0653 211.404 22.124 211.58 22.124C211.771 22.124 211.939 22.212 212.086 22.388C212.233 22.564 212.306 22.762 212.306 22.982C212.306 23.6273 211.983 23.95 211.338 23.95C211.001 23.95 210.722 23.84 210.502 23.62C210.282 23.3853 210.172 23.092 210.172 22.74C210.172 22.0507 210.443 21.4567 210.986 20.958C211.587 20.4153 212.423 20.144 213.494 20.144C215.107 20.144 216.097 20.584 216.464 21.464C216.596 21.8013 216.662 22.4687 216.662 23.466V27.58C216.662 28.2547 216.669 28.6507 216.684 28.768C216.757 29.296 216.97 29.56 217.322 29.56C217.733 29.56 218.07 29.4133 218.334 29.12C218.481 28.9587 218.591 28.878 218.664 28.878C218.737 28.878 218.774 28.922 218.774 29.01ZM214.902 26.678V25.072C213.802 25.3213 213.01 25.6513 212.526 26.062C212.057 26.458 211.822 26.9933 211.822 27.668C211.822 28.1373 211.954 28.526 212.218 28.834C212.497 29.1273 212.841 29.274 213.252 29.274C213.883 29.274 214.389 28.922 214.77 28.218C214.858 28.0567 214.902 27.5433 214.902 26.678ZM225.494 21.64C225.494 21.9773 225.391 22.256 225.186 22.476C224.981 22.696 224.717 22.806 224.394 22.806C224.13 22.806 223.91 22.7327 223.734 22.586C223.558 22.4247 223.47 22.2267 223.47 21.992C223.47 21.7867 223.536 21.6107 223.668 21.464C223.8 21.3173 223.866 21.2147 223.866 21.156C223.866 20.936 223.705 20.826 223.382 20.826C222.971 20.826 222.619 21.0827 222.326 21.596C221.989 22.1973 221.82 23.312 221.82 24.94V29.296C221.82 29.472 221.879 29.582 221.996 29.626C222.128 29.67 222.509 29.6993 223.14 29.714C223.301 29.7433 223.382 29.802 223.382 29.89C223.382 29.9927 223.287 30.044 223.096 30.044C222.759 30.044 222.443 30.0367 222.15 30.022C221.857 30.0073 221.299 30 220.478 30C220.053 30 219.745 30.0073 219.554 30.022C219.363 30.0367 219.121 30.044 218.828 30.044C218.593 30.044 218.476 29.9927 218.476 29.89C218.476 29.7873 218.571 29.736 218.762 29.736H219.07C219.569 29.736 219.862 29.6773 219.95 29.56C219.979 29.5013 219.994 29.23 219.994 28.746V22.696C219.994 21.8893 219.869 21.4273 219.62 21.31C219.385 21.178 219.004 21.1047 218.476 21.09C218.3 21.09 218.212 21.0387 218.212 20.936C218.212 20.8333 218.285 20.782 218.432 20.782H218.586C218.806 20.782 219.026 20.7967 219.246 20.826C219.466 20.8407 219.561 20.848 219.532 20.848C220.075 20.848 220.676 20.694 221.336 20.386L221.622 20.254L221.798 20.188C221.857 20.54 221.886 20.892 221.886 21.244V21.684C222.355 20.6573 223.015 20.144 223.866 20.144C224.335 20.144 224.724 20.2907 225.032 20.584C225.34 20.8627 225.494 21.2147 225.494 21.64ZM229.188 16.162C229.188 16.822 228.858 17.152 228.198 17.152C227.919 17.152 227.684 17.064 227.494 16.888C227.303 16.6973 227.208 16.47 227.208 16.206C227.208 15.5167 227.538 15.172 228.198 15.172C228.858 15.172 229.188 15.502 229.188 16.162ZM230.838 29.868C230.838 30 230.713 30.066 230.464 30.066C230.478 30.066 230.302 30.0513 229.936 30.022C229.496 29.9927 229.129 29.978 228.836 29.978L226.548 30.022C226.474 30.0367 226.386 30.044 226.284 30.044C226.122 30.044 226.042 29.9927 226.042 29.89C226.042 29.7433 226.188 29.67 226.482 29.67C227.039 29.6553 227.34 29.6187 227.384 29.56C227.442 29.4867 227.472 29.1787 227.472 28.636L227.45 21.97C227.435 21.6033 227.413 21.3907 227.384 21.332C227.369 21.2587 227.281 21.222 227.12 21.222L226.482 21.244C226.423 21.2587 226.35 21.266 226.262 21.266C226.1 21.266 226.02 21.2073 226.02 21.09C226.02 20.9873 226.144 20.9287 226.394 20.914C227.376 20.87 228.22 20.6353 228.924 20.21L229.144 20.078C229.261 20.298 229.32 20.7013 229.32 21.288C229.32 21.2587 229.32 21.332 229.32 21.508C229.305 21.684 229.298 21.97 229.298 22.366V28.372C229.298 28.9587 229.305 29.3033 229.32 29.406C229.349 29.5087 229.43 29.5747 229.562 29.604C229.782 29.6627 230.104 29.692 230.53 29.692C230.735 29.692 230.838 29.7507 230.838 29.868ZM240.935 25.248C240.935 26.6707 240.502 27.866 239.637 28.834C238.772 29.7873 237.694 30.264 236.403 30.264C235.068 30.264 233.954 29.7873 233.059 28.834C232.164 27.866 231.717 26.6707 231.717 25.248C231.717 23.7813 232.15 22.564 233.015 21.596C233.895 20.628 234.988 20.144 236.293 20.144C237.613 20.144 238.713 20.6353 239.593 21.618C240.488 22.586 240.935 23.796 240.935 25.248ZM238.933 25.226C238.933 23.6127 238.684 22.3587 238.185 21.464C237.818 20.804 237.202 20.474 236.337 20.474C235.516 20.474 234.87 20.8993 234.401 21.75C233.946 22.586 233.719 23.752 233.719 25.248C233.719 26.7293 233.961 27.888 234.445 28.724C234.944 29.5453 235.633 29.956 236.513 29.956C237.188 29.956 237.686 29.6993 238.009 29.186C238.625 28.218 238.933 26.898 238.933 25.226Z" fill="white"/>
</svg>
