<svg width="168" height="43" viewBox="0 0 168 43" fill="none" xmlns="http://www.w3.org/2000/svg">
<rect width="168" height="43" rx="21.5" fill="#364936"/>
<path d="M48.984 24.871C48.984 24.8403 48.9687 25.0473 48.938 25.492C48.8767 26.3813 48.846 27.24 48.846 28.068C48.846 28.16 48.8613 28.3517 48.892 28.643C48.9227 28.919 48.938 29.2563 48.938 29.655V29.862C48.938 30.0613 48.8767 30.161 48.754 30.161C48.6313 30.161 48.524 30.046 48.432 29.816C48.2173 29.31 48.0027 28.9803 47.788 28.827C46.684 29.793 45.3577 30.276 43.809 30.276C41.555 30.276 39.6843 29.494 38.197 27.93C36.725 26.3507 35.989 24.365 35.989 21.973C35.989 19.5657 36.6637 17.603 38.013 16.085C39.3777 14.5517 41.1333 13.785 43.28 13.785C44.062 13.785 44.683 13.854 45.143 13.992C45.6183 14.1147 46.201 14.3753 46.891 14.774C47.2283 14.9733 47.4813 15.073 47.65 15.073C47.788 15.073 47.9183 14.9503 48.041 14.705C48.2403 14.2757 48.4013 14.061 48.524 14.061C48.6467 14.061 48.708 14.1223 48.708 14.245C48.708 14.3063 48.6927 14.406 48.662 14.544C48.4933 15.28 48.409 16.66 48.409 18.684C48.409 18.9753 48.386 19.144 48.34 19.19C48.294 19.236 48.2327 19.259 48.156 19.259C48.0027 19.259 47.903 19.1133 47.857 18.822C47.6577 17.5953 47.374 16.683 47.006 16.085C46.2547 14.8583 45.074 14.245 43.464 14.245C42.222 14.245 41.2407 14.659 40.52 15.487C39.2167 16.9743 38.565 19.1517 38.565 22.019C38.565 24.5797 39.1017 26.5653 40.175 27.976C41.1103 29.2027 42.3523 29.816 43.901 29.816C44.6983 29.816 45.4267 29.6243 46.086 29.241C46.7453 28.8423 47.2513 28.3057 47.604 27.631C48.0027 26.849 48.2863 25.998 48.455 25.078C48.5163 24.71 48.616 24.526 48.754 24.526C48.9073 24.526 48.984 24.641 48.984 24.871ZM58.5364 14.751L56.4434 16.936C55.5234 17.902 54.9867 18.385 54.8334 18.385C54.7414 18.385 54.6954 18.3467 54.6954 18.27C54.6954 18.2393 54.7107 18.1933 54.7414 18.132C54.91 17.718 55.163 17.12 55.5004 16.338L56.2364 14.728H56.9954C57.026 14.728 57.1334 14.728 57.3174 14.728C57.5167 14.7433 57.785 14.751 58.1224 14.751H58.5364ZM60.3764 25.032C60.3764 26.5193 59.924 27.769 59.0194 28.781C58.1147 29.7777 56.9877 30.276 55.6384 30.276C54.243 30.276 53.0777 29.7777 52.1424 28.781C51.207 27.769 50.7394 26.5193 50.7394 25.032C50.7394 23.4987 51.1917 22.226 52.0964 21.214C53.0164 20.202 54.1587 19.696 55.5234 19.696C56.9034 19.696 58.0534 20.2097 58.9734 21.237C59.9087 22.249 60.3764 23.514 60.3764 25.032ZM58.2834 25.009C58.2834 23.3223 58.0227 22.0113 57.5014 21.076C57.118 20.386 56.474 20.041 55.5694 20.041C54.7107 20.041 54.036 20.4857 53.5454 21.375C53.07 22.249 52.8324 23.468 52.8324 25.032C52.8324 26.5807 53.0854 27.792 53.5914 28.666C54.1127 29.5247 54.8334 29.954 55.7534 29.954C56.4587 29.954 56.98 29.6857 57.3174 29.149C57.9614 28.137 58.2834 26.757 58.2834 25.009ZM77.2461 29.862C77.2461 29.9847 77.1158 30.046 76.8551 30.046C76.8245 30.046 76.6558 30.0383 76.3491 30.023C76.0578 30.0077 75.6591 30 75.1531 30C75.1071 30 74.2945 30.0153 72.7151 30.046C72.5158 30.046 72.4161 29.9923 72.4161 29.885C72.4161 29.7623 72.5005 29.701 72.6691 29.701H72.8531L73.4281 29.678C73.6581 29.6627 73.7885 29.609 73.8191 29.517C73.8651 29.425 73.8881 29.103 73.8881 28.551V22.847C73.8881 21.9577 73.7655 21.329 73.5201 20.961C73.2901 20.5777 72.8915 20.386 72.3241 20.386C71.9255 20.386 71.5498 20.5087 71.1971 20.754C70.8598 20.984 70.6221 21.283 70.4841 21.651C70.4228 21.881 70.3921 22.732 70.3921 24.204V28.551C70.3921 29.057 70.3998 29.3483 70.4151 29.425C70.4611 29.609 70.5991 29.701 70.8291 29.701H71.4961C71.6955 29.701 71.7951 29.7623 71.7951 29.885C71.7951 29.9923 71.6801 30.046 71.4501 30.046H71.2891C71.1358 30.0153 70.6145 30 69.7251 30C69.4185 30 69.0045 30.0077 68.4831 30.023C67.9771 30.0383 67.6705 30.046 67.5631 30.046H67.3101C67.1261 30.046 67.0341 29.9847 67.0341 29.862C67.0341 29.7853 67.0801 29.7393 67.1721 29.724C67.2641 29.7087 67.5708 29.701 68.0921 29.701C68.3375 29.6857 68.4678 29.609 68.4831 29.471L68.5061 29.149V22.732C68.5061 21.8427 68.3911 21.2293 68.1611 20.892C67.9465 20.5547 67.5555 20.386 66.9881 20.386C66.4208 20.386 65.9455 20.5623 65.5621 20.915C65.1941 21.2677 65.0101 21.7123 65.0101 22.249V28.781C65.0101 29.241 65.0408 29.517 65.1021 29.609C65.1788 29.6857 65.4088 29.724 65.7921 29.724H65.9761C66.0681 29.7087 66.1525 29.701 66.2291 29.701C66.3978 29.701 66.4821 29.7623 66.4821 29.885C66.4821 29.9923 66.3825 30.046 66.1831 30.046H65.9531C65.5851 30 65.0101 29.9847 64.2281 30L61.9741 30.046C61.7595 30.046 61.6521 29.9847 61.6521 29.862C61.6521 29.7547 61.7518 29.701 61.9511 29.701C62.5338 29.701 62.8711 29.678 62.9631 29.632C63.0551 29.5707 63.1088 29.471 63.1241 29.333V23.353C63.1241 22.203 63.1011 21.5283 63.0551 21.329C63.0091 21.1297 62.7868 21.03 62.3881 21.03H62.0661C61.9281 21.0453 61.7825 21.053 61.6291 21.053C61.4298 21.053 61.3301 20.9993 61.3301 20.892C61.3301 20.8 61.3608 20.7463 61.4221 20.731C61.4988 20.7157 61.7518 20.6927 62.1811 20.662C62.5338 20.6467 62.9708 20.5547 63.4921 20.386C64.0288 20.2173 64.3355 20.0717 64.4121 19.949C64.5808 19.7803 64.7035 19.696 64.7801 19.696C64.8568 19.696 64.9028 19.7573 64.9181 19.88C64.9335 20.0027 64.9488 20.432 64.9641 21.168C65.5775 20.1867 66.5205 19.696 67.7931 19.696C69.1578 19.696 69.9858 20.2097 70.2771 21.237C70.8751 20.2097 71.8335 19.696 73.1521 19.696C74.2868 19.696 75.0535 20.1023 75.4521 20.915C75.6668 21.3443 75.7741 22.0573 75.7741 23.054V28.735C75.7741 29.2563 75.7971 29.5477 75.8431 29.609C75.9045 29.655 76.1498 29.6933 76.5791 29.724L76.9931 29.701C77.1618 29.6857 77.2461 29.7393 77.2461 29.862ZM87.599 25.032C87.599 26.5193 87.1467 27.769 86.242 28.781C85.3374 29.7777 84.2104 30.276 82.861 30.276C81.4657 30.276 80.3004 29.7777 79.365 28.781C78.4297 27.769 77.962 26.5193 77.962 25.032C77.962 23.4987 78.4144 22.226 79.319 21.214C80.239 20.202 81.3814 19.696 82.746 19.696C84.126 19.696 85.276 20.2097 86.196 21.237C87.1314 22.249 87.599 23.514 87.599 25.032ZM85.506 25.009C85.506 23.3223 85.2454 22.0113 84.724 21.076C84.3407 20.386 83.6967 20.041 82.792 20.041C81.9334 20.041 81.2587 20.4857 80.768 21.375C80.2927 22.249 80.055 23.468 80.055 25.032C80.055 26.5807 80.308 27.792 80.814 28.666C81.3354 29.5247 82.056 29.954 82.976 29.954C83.6814 29.954 84.2027 29.6857 84.54 29.149C85.184 28.137 85.506 26.757 85.506 25.009ZM97.7654 29.839C97.7654 29.977 97.6657 30.046 97.4664 30.046H97.1904C97.1597 30.046 96.7534 30.0307 95.9714 30L95.2584 29.977C95.1357 29.977 94.5224 30 93.4184 30.046C93.3264 30.0613 93.2344 30.069 93.1424 30.069C92.9124 30.0843 92.7974 30.0153 92.7974 29.862C92.7974 29.7547 92.8817 29.701 93.0504 29.701H93.6484C94.0777 29.701 94.2924 29.609 94.2924 29.425C94.3077 29.333 94.3154 28.735 94.3154 27.631V15.924C94.3154 15.418 94.3 15.142 94.2694 15.096C94.2234 14.9733 94.1007 14.912 93.9014 14.912H93.7174L93.0734 14.935C92.8587 14.935 92.7514 14.866 92.7514 14.728C92.7514 14.6053 92.943 14.5363 93.3264 14.521C94.0624 14.475 94.7447 14.3063 95.3734 14.015L95.8564 13.785L96.0404 13.716C96.163 14.1607 96.2167 14.8353 96.2014 15.74L96.1784 17.373L96.2014 28.643C96.2014 29.103 96.209 29.379 96.2244 29.471C96.2397 29.5477 96.2934 29.6013 96.3854 29.632C96.4007 29.6473 96.6844 29.6627 97.2364 29.678C97.589 29.678 97.7654 29.7317 97.7654 29.839ZM103.178 29.839C103.178 29.977 103.079 30.046 102.879 30.046H102.603C102.573 30.046 102.166 30.0307 101.384 30L100.671 29.977C100.549 29.977 99.9355 30 98.8315 30.046C98.7395 30.0613 98.6475 30.069 98.5555 30.069C98.3255 30.0843 98.2105 30.0153 98.2105 29.862C98.2105 29.7547 98.2948 29.701 98.4635 29.701H99.0615C99.4908 29.701 99.7055 29.609 99.7055 29.425C99.7208 29.333 99.7285 28.735 99.7285 27.631V15.924C99.7285 15.418 99.7131 15.142 99.6825 15.096C99.6365 14.9733 99.5138 14.912 99.3145 14.912H99.1305L98.4865 14.935C98.2718 14.935 98.1645 14.866 98.1645 14.728C98.1645 14.6053 98.3561 14.5363 98.7395 14.521C99.4755 14.475 100.158 14.3063 100.786 14.015L101.269 13.785L101.453 13.716C101.576 14.1607 101.63 14.8353 101.614 15.74L101.591 17.373L101.614 28.643C101.614 29.103 101.622 29.379 101.637 29.471C101.653 29.5477 101.706 29.6013 101.798 29.632C101.814 29.6473 102.097 29.6627 102.649 29.678C103.002 29.678 103.178 29.7317 103.178 29.839ZM112.686 27.493C112.686 27.6463 112.563 27.9223 112.318 28.321C112.088 28.7043 111.85 29.0187 111.605 29.264C110.945 29.9387 110.064 30.276 108.96 30.276C107.58 30.276 106.422 29.7777 105.487 28.781C104.567 27.7843 104.107 26.55 104.107 25.078C104.107 23.5447 104.544 22.2643 105.418 21.237C106.307 20.2097 107.411 19.696 108.73 19.696C109.818 19.696 110.731 20.018 111.467 20.662C112.203 21.2907 112.594 22.1033 112.64 23.1C112.149 23.1767 111.497 23.2073 110.685 23.192L109.075 23.169C108.967 23.169 108.047 23.192 106.315 23.238C106.238 23.744 106.2 24.227 106.2 24.687C106.2 26.2357 106.491 27.4317 107.074 28.275C107.672 29.103 108.507 29.517 109.581 29.517C110.194 29.517 110.685 29.379 111.053 29.103C111.421 28.827 111.819 28.298 112.249 27.516C112.31 27.3933 112.394 27.332 112.502 27.332C112.624 27.332 112.686 27.3857 112.686 27.493ZM110.685 22.801C110.623 20.961 109.964 20.041 108.707 20.041C107.465 20.041 106.69 20.961 106.384 22.801H110.685ZM124.592 21.053C124.592 21.7583 124.278 22.111 123.649 22.111C123.435 22.111 123.235 22.042 123.051 21.904C122.883 21.7507 122.798 21.582 122.798 21.398C122.798 21.3367 122.821 21.2447 122.867 21.122C122.913 20.984 122.936 20.8767 122.936 20.8C122.936 20.6007 122.829 20.501 122.614 20.501C122.43 20.501 122.254 20.6007 122.085 20.8C121.917 20.984 121.832 21.1757 121.832 21.375C121.832 21.421 121.871 21.6817 121.947 22.157C122.024 22.6323 122.062 22.9927 122.062 23.238C122.062 24.2807 121.702 25.1547 120.981 25.86C120.261 26.5653 119.364 26.918 118.29 26.918C118.014 26.918 117.508 26.803 116.772 26.573C116.573 26.5117 116.443 26.481 116.381 26.481C116.059 26.481 115.768 26.6113 115.507 26.872C115.247 27.1327 115.116 27.4163 115.116 27.723C115.116 28.5203 115.599 28.919 116.565 28.919C116.933 28.919 117.524 28.85 118.336 28.712C118.965 28.6047 119.54 28.551 120.061 28.551C120.997 28.551 121.725 28.7963 122.246 29.287C122.783 29.7777 123.051 30.46 123.051 31.334C123.051 32.6527 122.484 33.749 121.349 34.623C120.23 35.497 118.812 35.934 117.094 35.934C115.822 35.934 114.817 35.6733 114.081 35.152C113.361 34.646 113 33.9407 113 33.036C113 32.162 113.338 31.5027 114.012 31.058C114.35 30.8433 114.886 30.6517 115.622 30.483C114.534 30.0537 113.989 29.3943 113.989 28.505C113.989 27.401 114.695 26.6343 116.105 26.205C115.185 25.4843 114.725 24.5337 114.725 23.353C114.725 22.249 115.078 21.3673 115.783 20.708C116.489 20.0333 117.416 19.696 118.566 19.696C119.195 19.696 119.701 19.7803 120.084 19.949C120.483 20.1177 120.943 20.455 121.464 20.961C121.955 20.2403 122.561 19.88 123.281 19.88C124.155 19.88 124.592 20.271 124.592 21.053ZM120.314 23.33C120.314 21.1067 119.701 19.995 118.474 19.995C117.278 19.995 116.68 21.03 116.68 23.1C116.68 25.4307 117.317 26.596 118.589 26.596C119.739 26.596 120.314 25.5073 120.314 23.33ZM122.085 32.139C122.085 30.8663 121.334 30.23 119.831 30.23C119.402 30.23 118.766 30.299 117.922 30.437C117.094 30.575 116.473 30.644 116.059 30.644C115.277 31.058 114.886 31.7863 114.886 32.829C114.886 33.611 115.162 34.2397 115.714 34.715C116.282 35.1903 117.025 35.428 117.945 35.428C119.111 35.428 120.092 35.106 120.889 34.462C121.687 33.8333 122.085 33.059 122.085 32.139ZM133.88 28.965C133.88 29.2257 133.604 29.5017 133.052 29.793C132.515 30.069 131.994 30.207 131.488 30.207C130.43 30.207 129.878 29.6627 129.832 28.574C129.249 29.7087 128.344 30.276 127.118 30.276C126.458 30.276 125.914 30.0843 125.485 29.701C125.055 29.3023 124.841 28.7963 124.841 28.183C124.841 26.9257 125.6 25.929 127.118 25.193C127.639 24.9477 128.544 24.7023 129.832 24.457V23.882C129.832 22.5327 129.763 21.6433 129.625 21.214C129.379 20.432 128.827 20.041 127.969 20.041C127.432 20.041 126.98 20.1867 126.612 20.478C126.259 20.7693 126.083 21.1373 126.083 21.582C126.083 21.7047 126.175 21.766 126.359 21.766C126.558 21.766 126.734 21.858 126.888 22.042C127.041 22.226 127.118 22.433 127.118 22.663C127.118 23.3377 126.78 23.675 126.106 23.675C125.753 23.675 125.462 23.56 125.232 23.33C125.002 23.0847 124.887 22.778 124.887 22.41C124.887 21.6893 125.17 21.0683 125.738 20.547C126.366 19.9797 127.24 19.696 128.36 19.696C130.046 19.696 131.081 20.156 131.465 21.076C131.603 21.4287 131.672 22.1263 131.672 23.169V27.47C131.672 28.1753 131.679 28.5893 131.695 28.712C131.771 29.264 131.994 29.54 132.362 29.54C132.791 29.54 133.144 29.3867 133.42 29.08C133.573 28.9113 133.688 28.827 133.765 28.827C133.841 28.827 133.88 28.873 133.88 28.965ZM129.832 26.527V24.848C128.682 25.1087 127.854 25.4537 127.348 25.883C126.857 26.297 126.612 26.8567 126.612 27.562C126.612 28.0527 126.75 28.459 127.026 28.781C127.317 29.0877 127.677 29.241 128.107 29.241C128.766 29.241 129.295 28.873 129.694 28.137C129.786 27.9683 129.832 27.4317 129.832 26.527ZM140.905 21.26C140.905 21.6127 140.798 21.904 140.583 22.134C140.369 22.364 140.093 22.479 139.755 22.479C139.479 22.479 139.249 22.4023 139.065 22.249C138.881 22.0803 138.789 21.8733 138.789 21.628C138.789 21.4133 138.858 21.2293 138.996 21.076C139.134 20.9227 139.203 20.8153 139.203 20.754C139.203 20.524 139.035 20.409 138.697 20.409C138.268 20.409 137.9 20.6773 137.593 21.214C137.241 21.8427 137.064 23.008 137.064 24.71V29.264C137.064 29.448 137.126 29.563 137.248 29.609C137.386 29.655 137.785 29.6857 138.444 29.701C138.613 29.7317 138.697 29.793 138.697 29.885C138.697 29.9923 138.598 30.046 138.398 30.046C138.046 30.046 137.716 30.0383 137.409 30.023C137.103 30.0077 136.52 30 135.661 30C135.217 30 134.895 30.0077 134.695 30.023C134.496 30.0383 134.243 30.046 133.936 30.046C133.691 30.046 133.568 29.9923 133.568 29.885C133.568 29.7777 133.668 29.724 133.867 29.724H134.189C134.711 29.724 135.017 29.6627 135.109 29.54C135.14 29.4787 135.155 29.195 135.155 28.689V22.364C135.155 21.5207 135.025 21.0377 134.764 20.915C134.519 20.777 134.12 20.7003 133.568 20.685C133.384 20.685 133.292 20.6313 133.292 20.524C133.292 20.4167 133.369 20.363 133.522 20.363H133.683C133.913 20.363 134.143 20.3783 134.373 20.409C134.603 20.4243 134.703 20.432 134.672 20.432C135.24 20.432 135.868 20.271 136.558 19.949L136.857 19.811L137.041 19.742C137.103 20.11 137.133 20.478 137.133 20.846V21.306C137.624 20.2327 138.314 19.696 139.203 19.696C139.694 19.696 140.1 19.8493 140.422 20.156C140.744 20.4473 140.905 20.8153 140.905 21.26Z" fill="white"/>
</svg>
