<svg width="106" height="23" viewBox="0 0 106 23" fill="none" xmlns="http://www.w3.org/2000/svg">
<path d="M13.984 11.871C13.984 11.8403 13.9687 12.0473 13.938 12.492C13.8767 13.3813 13.846 14.24 13.846 15.068C13.846 15.16 13.8613 15.3517 13.892 15.643C13.9227 15.919 13.938 16.2563 13.938 16.655V16.862C13.938 17.0613 13.8767 17.161 13.754 17.161C13.6313 17.161 13.524 17.046 13.432 16.816C13.2173 16.31 13.0027 15.9803 12.788 15.827C11.684 16.793 10.3577 17.276 8.809 17.276C6.555 17.276 4.68433 16.494 3.197 14.93C1.725 13.3507 0.989 11.365 0.989 8.973C0.989 6.56567 1.66367 4.603 3.013 3.085C4.37767 1.55167 6.13333 0.784999 8.28 0.784999C9.062 0.784999 9.683 0.853999 10.143 0.991999C10.6183 1.11467 11.201 1.37533 11.891 1.774C12.2283 1.97333 12.4813 2.073 12.65 2.073C12.788 2.073 12.9183 1.95033 13.041 1.705C13.2403 1.27567 13.4013 1.061 13.524 1.061C13.6467 1.061 13.708 1.12233 13.708 1.245C13.708 1.30633 13.6927 1.406 13.662 1.544C13.4933 2.28 13.409 3.66 13.409 5.684C13.409 5.97533 13.386 6.144 13.34 6.19C13.294 6.236 13.2327 6.259 13.156 6.259C13.0027 6.259 12.903 6.11333 12.857 5.822C12.6577 4.59533 12.374 3.683 12.006 3.085C11.2547 1.85833 10.074 1.245 8.464 1.245C7.222 1.245 6.24067 1.659 5.52 2.487C4.21667 3.97433 3.565 6.15167 3.565 9.019C3.565 11.5797 4.10167 13.5653 5.175 14.976C6.11033 16.2027 7.35233 16.816 8.901 16.816C9.69833 16.816 10.4267 16.6243 11.086 16.241C11.7453 15.8423 12.2513 15.3057 12.604 14.631C13.0027 13.849 13.2863 12.998 13.455 12.078C13.5163 11.71 13.616 11.526 13.754 11.526C13.9073 11.526 13.984 11.641 13.984 11.871ZM25.3764 12.032C25.3764 13.5193 24.924 14.769 24.0194 15.781C23.1147 16.7777 21.9877 17.276 20.6384 17.276C19.243 17.276 18.0777 16.7777 17.1424 15.781C16.207 14.769 15.7394 13.5193 15.7394 12.032C15.7394 10.4987 16.1917 9.226 17.0964 8.214C18.0164 7.202 19.1587 6.696 20.5234 6.696C21.9034 6.696 23.0534 7.20967 23.9734 8.237C24.9087 9.249 25.3764 10.514 25.3764 12.032ZM23.2834 12.009C23.2834 10.3223 23.0227 9.01133 22.5014 8.076C22.118 7.386 21.474 7.041 20.5694 7.041C19.7107 7.041 19.036 7.48567 18.5454 8.375C18.07 9.249 17.8324 10.468 17.8324 12.032C17.8324 13.5807 18.0854 14.792 18.5914 15.666C19.1127 16.5247 19.8334 16.954 20.7534 16.954C21.4587 16.954 21.98 16.6857 22.3174 16.149C22.9614 15.137 23.2834 13.757 23.2834 12.009ZM42.2461 16.862C42.2461 16.9847 42.1158 17.046 41.8551 17.046C41.8245 17.046 41.6558 17.0383 41.3491 17.023C41.0578 17.0077 40.6591 17 40.1531 17C40.1071 17 39.2945 17.0153 37.7151 17.046C37.5158 17.046 37.4161 16.9923 37.4161 16.885C37.4161 16.7623 37.5005 16.701 37.6691 16.701H37.8531L38.4281 16.678C38.6581 16.6627 38.7885 16.609 38.8191 16.517C38.8651 16.425 38.8881 16.103 38.8881 15.551V9.847C38.8881 8.95767 38.7655 8.329 38.5201 7.961C38.2901 7.57767 37.8915 7.386 37.3241 7.386C36.9255 7.386 36.5498 7.50867 36.1971 7.754C35.8598 7.984 35.6221 8.283 35.4841 8.651C35.4228 8.881 35.3921 9.732 35.3921 11.204V15.551C35.3921 16.057 35.3998 16.3483 35.4151 16.425C35.4611 16.609 35.5991 16.701 35.8291 16.701H36.4961C36.6955 16.701 36.7951 16.7623 36.7951 16.885C36.7951 16.9923 36.6801 17.046 36.4501 17.046H36.2891C36.1358 17.0153 35.6145 17 34.7251 17C34.4185 17 34.0045 17.0077 33.4831 17.023C32.9771 17.0383 32.6705 17.046 32.5631 17.046H32.3101C32.1261 17.046 32.0341 16.9847 32.0341 16.862C32.0341 16.7853 32.0801 16.7393 32.1721 16.724C32.2641 16.7087 32.5708 16.701 33.0921 16.701C33.3375 16.6857 33.4678 16.609 33.4831 16.471L33.5061 16.149V9.732C33.5061 8.84267 33.3911 8.22933 33.1611 7.892C32.9465 7.55467 32.5555 7.386 31.9881 7.386C31.4208 7.386 30.9455 7.56233 30.5621 7.915C30.1941 8.26767 30.0101 8.71233 30.0101 9.249V15.781C30.0101 16.241 30.0408 16.517 30.1021 16.609C30.1788 16.6857 30.4088 16.724 30.7921 16.724H30.9761C31.0681 16.7087 31.1525 16.701 31.2291 16.701C31.3978 16.701 31.4821 16.7623 31.4821 16.885C31.4821 16.9923 31.3825 17.046 31.1831 17.046H30.9531C30.5851 17 30.0101 16.9847 29.2281 17L26.9741 17.046C26.7595 17.046 26.6521 16.9847 26.6521 16.862C26.6521 16.7547 26.7518 16.701 26.9511 16.701C27.5338 16.701 27.8711 16.678 27.9631 16.632C28.0551 16.5707 28.1088 16.471 28.1241 16.333V10.353C28.1241 9.203 28.1011 8.52833 28.0551 8.329C28.0091 8.12967 27.7868 8.03 27.3881 8.03H27.0661C26.9281 8.04533 26.7825 8.053 26.6291 8.053C26.4298 8.053 26.3301 7.99933 26.3301 7.892C26.3301 7.8 26.3608 7.74633 26.4221 7.731C26.4988 7.71567 26.7518 7.69267 27.1811 7.662C27.5338 7.64667 27.9708 7.55467 28.4921 7.386C29.0288 7.21733 29.3355 7.07167 29.4121 6.949C29.5808 6.78033 29.7035 6.696 29.7801 6.696C29.8568 6.696 29.9028 6.75733 29.9181 6.88C29.9335 7.00267 29.9488 7.432 29.9641 8.168C30.5775 7.18667 31.5205 6.696 32.7931 6.696C34.1578 6.696 34.9858 7.20967 35.2771 8.237C35.8751 7.20967 36.8335 6.696 38.1521 6.696C39.2868 6.696 40.0535 7.10233 40.4521 7.915C40.6668 8.34433 40.7741 9.05733 40.7741 10.054V15.735C40.7741 16.2563 40.7971 16.5477 40.8431 16.609C40.9045 16.655 41.1498 16.6933 41.5791 16.724L41.9931 16.701C42.1618 16.6857 42.2461 16.7393 42.2461 16.862ZM52.599 12.032C52.599 13.5193 52.1467 14.769 51.242 15.781C50.3374 16.7777 49.2104 17.276 47.861 17.276C46.4657 17.276 45.3004 16.7777 44.365 15.781C43.4297 14.769 42.962 13.5193 42.962 12.032C42.962 10.4987 43.4144 9.226 44.319 8.214C45.239 7.202 46.3814 6.696 47.746 6.696C49.126 6.696 50.276 7.20967 51.196 8.237C52.1314 9.249 52.599 10.514 52.599 12.032ZM50.506 12.009C50.506 10.3223 50.2454 9.01133 49.724 8.076C49.3407 7.386 48.6967 7.041 47.792 7.041C46.9334 7.041 46.2587 7.48567 45.768 8.375C45.2927 9.249 45.055 10.468 45.055 12.032C45.055 13.5807 45.308 14.792 45.814 15.666C46.3354 16.5247 47.056 16.954 47.976 16.954C48.6814 16.954 49.2027 16.6857 49.54 16.149C50.184 15.137 50.506 13.757 50.506 12.009ZM62.7654 16.839C62.7654 16.977 62.6657 17.046 62.4664 17.046H62.1904C62.1597 17.046 61.7534 17.0307 60.9714 17L60.2584 16.977C60.1357 16.977 59.5224 17 58.4184 17.046C58.3264 17.0613 58.2344 17.069 58.1424 17.069C57.9124 17.0843 57.7974 17.0153 57.7974 16.862C57.7974 16.7547 57.8817 16.701 58.0504 16.701H58.6484C59.0777 16.701 59.2924 16.609 59.2924 16.425C59.3077 16.333 59.3154 15.735 59.3154 14.631V2.924C59.3154 2.418 59.3 2.142 59.2694 2.096C59.2234 1.97333 59.1007 1.912 58.9014 1.912H58.7174L58.0734 1.935C57.8587 1.935 57.7514 1.866 57.7514 1.728C57.7514 1.60533 57.943 1.53633 58.3264 1.521C59.0624 1.475 59.7447 1.30633 60.3734 1.015L60.8564 0.784999L61.0404 0.716C61.163 1.16067 61.2167 1.83533 61.2014 2.74L61.1784 4.373L61.2014 15.643C61.2014 16.103 61.209 16.379 61.2244 16.471C61.2397 16.5477 61.2934 16.6013 61.3854 16.632C61.4007 16.6473 61.6844 16.6627 62.2364 16.678C62.589 16.678 62.7654 16.7317 62.7654 16.839ZM68.1785 16.839C68.1785 16.977 68.0788 17.046 67.8795 17.046H67.6035C67.5728 17.046 67.1665 17.0307 66.3845 17L65.6715 16.977C65.5488 16.977 64.9355 17 63.8315 17.046C63.7395 17.0613 63.6475 17.069 63.5555 17.069C63.3255 17.0843 63.2105 17.0153 63.2105 16.862C63.2105 16.7547 63.2948 16.701 63.4635 16.701H64.0615C64.4908 16.701 64.7055 16.609 64.7055 16.425C64.7208 16.333 64.7285 15.735 64.7285 14.631V2.924C64.7285 2.418 64.7131 2.142 64.6825 2.096C64.6365 1.97333 64.5138 1.912 64.3145 1.912H64.1305L63.4865 1.935C63.2718 1.935 63.1645 1.866 63.1645 1.728C63.1645 1.60533 63.3561 1.53633 63.7395 1.521C64.4755 1.475 65.1578 1.30633 65.7865 1.015L66.2695 0.784999L66.4535 0.716C66.5761 1.16067 66.6298 1.83533 66.6145 2.74L66.5915 4.373L66.6145 15.643C66.6145 16.103 66.6221 16.379 66.6375 16.471C66.6528 16.5477 66.7065 16.6013 66.7985 16.632C66.8138 16.6473 67.0975 16.6627 67.6495 16.678C68.0021 16.678 68.1785 16.7317 68.1785 16.839ZM77.6856 14.493C77.6856 14.6463 77.5629 14.9223 77.3176 15.321C77.0876 15.7043 76.8499 16.0187 76.6046 16.264C75.9452 16.9387 75.0636 17.276 73.9596 17.276C72.5796 17.276 71.4219 16.7777 70.4866 15.781C69.5666 14.7843 69.1066 13.55 69.1066 12.078C69.1066 10.5447 69.5436 9.26433 70.4176 8.237C71.3069 7.20967 72.4109 6.696 73.7296 6.696C74.8182 6.696 75.7306 7.018 76.4666 7.662C77.2026 8.29067 77.5936 9.10333 77.6396 10.1C77.1489 10.1767 76.4972 10.2073 75.6846 10.192L74.0746 10.169C73.9672 10.169 73.0472 10.192 71.3146 10.238C71.2379 10.744 71.1996 11.227 71.1996 11.687C71.1996 13.2357 71.4909 14.4317 72.0736 15.275C72.6716 16.103 73.5072 16.517 74.5806 16.517C75.1939 16.517 75.6846 16.379 76.0526 16.103C76.4206 15.827 76.8192 15.298 77.2486 14.516C77.3099 14.3933 77.3942 14.332 77.5016 14.332C77.6242 14.332 77.6856 14.3857 77.6856 14.493ZM75.6846 9.801C75.6232 7.961 74.9639 7.041 73.7066 7.041C72.4646 7.041 71.6902 7.961 71.3836 9.801H75.6846ZM89.5924 8.053C89.5924 8.75833 89.278 9.111 88.6494 9.111C88.4347 9.111 88.2354 9.042 88.0514 8.904C87.8827 8.75067 87.7984 8.582 87.7984 8.398C87.7984 8.33667 87.8214 8.24467 87.8674 8.122C87.9134 7.984 87.9364 7.87667 87.9364 7.8C87.9364 7.60067 87.829 7.501 87.6144 7.501C87.4304 7.501 87.254 7.60067 87.0854 7.8C86.9167 7.984 86.8324 8.17567 86.8324 8.375C86.8324 8.421 86.8707 8.68167 86.9474 9.157C87.024 9.63233 87.0624 9.99267 87.0624 10.238C87.0624 11.2807 86.702 12.1547 85.9814 12.86C85.2607 13.5653 84.3637 13.918 83.2904 13.918C83.0144 13.918 82.5084 13.803 81.7724 13.573C81.573 13.5117 81.4427 13.481 81.3814 13.481C81.0594 13.481 80.768 13.6113 80.5074 13.872C80.2467 14.1327 80.1164 14.4163 80.1164 14.723C80.1164 15.5203 80.5994 15.919 81.5654 15.919C81.9334 15.919 82.5237 15.85 83.3364 15.712C83.965 15.6047 84.54 15.551 85.0614 15.551C85.9967 15.551 86.725 15.7963 87.2464 16.287C87.783 16.7777 88.0514 17.46 88.0514 18.334C88.0514 19.6527 87.484 20.749 86.3494 21.623C85.23 22.497 83.8117 22.934 82.0944 22.934C80.8217 22.934 79.8174 22.6733 79.0814 22.152C78.3607 21.646 78.0004 20.9407 78.0004 20.036C78.0004 19.162 78.3377 18.5027 79.0124 18.058C79.3497 17.8433 79.8864 17.6517 80.6224 17.483C79.5337 17.0537 78.9894 16.3943 78.9894 15.505C78.9894 14.401 79.6947 13.6343 81.1054 13.205C80.1854 12.4843 79.7254 11.5337 79.7254 10.353C79.7254 9.249 80.078 8.36733 80.7834 7.708C81.4887 7.03333 82.4164 6.696 83.5664 6.696C84.195 6.696 84.701 6.78033 85.0844 6.949C85.483 7.11767 85.943 7.455 86.4644 7.961C86.955 7.24033 87.5607 6.88 88.2814 6.88C89.1554 6.88 89.5924 7.271 89.5924 8.053ZM85.3144 10.33C85.3144 8.10667 84.701 6.995 83.4744 6.995C82.2784 6.995 81.6804 8.03 81.6804 10.1C81.6804 12.4307 82.3167 13.596 83.5894 13.596C84.7394 13.596 85.3144 12.5073 85.3144 10.33ZM87.0854 19.139C87.0854 17.8663 86.334 17.23 84.8314 17.23C84.402 17.23 83.7657 17.299 82.9224 17.437C82.0944 17.575 81.4734 17.644 81.0594 17.644C80.2774 18.058 79.8864 18.7863 79.8864 19.829C79.8864 20.611 80.1624 21.2397 80.7144 21.715C81.2817 22.1903 82.0254 22.428 82.9454 22.428C84.1107 22.428 85.092 22.106 85.8894 21.462C86.6867 20.8333 87.0854 20.059 87.0854 19.139ZM98.8797 15.965C98.8797 16.2257 98.6037 16.5017 98.0517 16.793C97.515 17.069 96.9937 17.207 96.4877 17.207C95.4297 17.207 94.8777 16.6627 94.8317 15.574C94.249 16.7087 93.3444 17.276 92.1177 17.276C91.4584 17.276 90.914 17.0843 90.4847 16.701C90.0554 16.3023 89.8407 15.7963 89.8407 15.183C89.8407 13.9257 90.5997 12.929 92.1177 12.193C92.639 11.9477 93.5437 11.7023 94.8317 11.457V10.882C94.8317 9.53267 94.7627 8.64333 94.6247 8.214C94.3794 7.432 93.8274 7.041 92.9687 7.041C92.432 7.041 91.9797 7.18667 91.6117 7.478C91.259 7.76933 91.0827 8.13733 91.0827 8.582C91.0827 8.70467 91.1747 8.766 91.3587 8.766C91.558 8.766 91.7344 8.858 91.8877 9.042C92.041 9.226 92.1177 9.433 92.1177 9.663C92.1177 10.3377 91.7804 10.675 91.1057 10.675C90.753 10.675 90.4617 10.56 90.2317 10.33C90.0017 10.0847 89.8867 9.778 89.8867 9.41C89.8867 8.68933 90.1704 8.06833 90.7377 7.547C91.3664 6.97967 92.2404 6.696 93.3597 6.696C95.0464 6.696 96.0814 7.156 96.4647 8.076C96.6027 8.42867 96.6717 9.12633 96.6717 10.169V14.47C96.6717 15.1753 96.6794 15.5893 96.6947 15.712C96.7714 16.264 96.9937 16.54 97.3617 16.54C97.791 16.54 98.1437 16.3867 98.4197 16.08C98.573 15.9113 98.688 15.827 98.7647 15.827C98.8414 15.827 98.8797 15.873 98.8797 15.965ZM94.8317 13.527V11.848C93.6817 12.1087 92.8537 12.4537 92.3477 12.883C91.857 13.297 91.6117 13.8567 91.6117 14.562C91.6117 15.0527 91.7497 15.459 92.0257 15.781C92.317 16.0877 92.6774 16.241 93.1067 16.241C93.766 16.241 94.295 15.873 94.6937 15.137C94.7857 14.9683 94.8317 14.4317 94.8317 13.527ZM105.905 8.26C105.905 8.61267 105.798 8.904 105.583 9.134C105.369 9.364 105.093 9.479 104.755 9.479C104.479 9.479 104.249 9.40233 104.065 9.249C103.881 9.08033 103.789 8.87333 103.789 8.628C103.789 8.41333 103.858 8.22933 103.996 8.076C104.134 7.92267 104.203 7.81533 104.203 7.754C104.203 7.524 104.035 7.409 103.697 7.409C103.268 7.409 102.9 7.67733 102.593 8.214C102.241 8.84267 102.064 10.008 102.064 11.71V16.264C102.064 16.448 102.126 16.563 102.248 16.609C102.386 16.655 102.785 16.6857 103.444 16.701C103.613 16.7317 103.697 16.793 103.697 16.885C103.697 16.9923 103.598 17.046 103.398 17.046C103.046 17.046 102.716 17.0383 102.409 17.023C102.103 17.0077 101.52 17 100.661 17C100.217 17 99.8946 17.0077 99.6953 17.023C99.496 17.0383 99.243 17.046 98.9363 17.046C98.691 17.046 98.5683 16.9923 98.5683 16.885C98.5683 16.7777 98.668 16.724 98.8673 16.724H99.1893C99.7106 16.724 100.017 16.6627 100.109 16.54C100.14 16.4787 100.155 16.195 100.155 15.689V9.364C100.155 8.52067 100.025 8.03767 99.7643 7.915C99.519 7.777 99.1203 7.70033 98.5683 7.685C98.3843 7.685 98.2923 7.63133 98.2923 7.524C98.2923 7.41667 98.369 7.363 98.5223 7.363H98.6833C98.9133 7.363 99.1433 7.37833 99.3733 7.409C99.6033 7.42433 99.703 7.432 99.6723 7.432C100.24 7.432 100.868 7.271 101.558 6.949L101.857 6.811L102.041 6.742C102.103 7.11 102.133 7.478 102.133 7.846V8.306C102.624 7.23267 103.314 6.696 104.203 6.696C104.694 6.696 105.1 6.84933 105.422 7.156C105.744 7.44733 105.905 7.81533 105.905 8.26Z" fill="white"/>
</svg>
