<svg width="49" height="17" viewBox="0 0 49 17" fill="none" xmlns="http://www.w3.org/2000/svg">
<path d="M13.068 15.34C13.068 15.956 12.5547 16.264 11.528 16.264C10.384 16.264 9.48933 15.7873 8.844 14.834C8.56533 14.4233 8.382 14.0273 8.294 13.646C8.22067 13.2647 8.10333 12.2967 7.942 10.742C7.854 9.80333 7.55333 9.14333 7.04 8.762C6.52667 8.366 5.69067 8.15333 4.532 8.124V15.054C4.532 15.3473 4.76667 15.5307 5.236 15.604C5.368 15.6187 5.70533 15.6333 6.248 15.648C6.43867 15.648 6.534 15.7067 6.534 15.824C6.534 15.956 6.40933 16.022 6.16 16.022H5.896C5.764 16.0073 5.126 16 3.982 16C3.762 16 3.388 16.0073 2.86 16.022C2.34667 16.022 2.00933 16.022 1.848 16.022H0.99C0.667333 16.022 0.506 15.956 0.506 15.824C0.506 15.7213 0.718667 15.6627 1.144 15.648C1.83333 15.6333 2.20733 15.5453 2.266 15.384C2.32467 15.3107 2.354 15.0247 2.354 14.526V2.382C2.354 1.79533 2.288 1.44333 2.156 1.326C2.03867 1.20867 1.66467 1.14267 1.034 1.128C0.667333 1.128 0.484 1.062 0.484 0.929999C0.484 0.783332 0.601333 0.709999 0.836 0.709999C0.88 0.709999 0.946 0.717333 1.034 0.732L3.96 0.797999C4.25333 0.797999 4.664 0.790666 5.192 0.775999C5.77867 0.746666 6.18933 0.732 6.424 0.732C7.788 0.732 8.866 1.04 9.658 1.656C10.4647 2.25733 10.868 3.07867 10.868 4.12C10.868 5.14667 10.4573 5.99733 9.636 6.672C8.81467 7.332 7.7 7.72067 6.292 7.838C6.16 7.85267 6.08667 7.87467 6.072 7.904C6.072 7.96267 6.14533 7.992 6.292 7.992C7.832 8.256 8.888 8.79867 9.46 9.62C10.0467 10.4267 10.4353 11.8933 10.626 14.02C10.7433 15.2227 11.154 15.824 11.858 15.824C12.078 15.824 12.188 15.78 12.188 15.692C12.188 15.6773 12.1807 15.6627 12.166 15.648C12.0927 15.4867 12.056 15.3547 12.056 15.252C12.056 14.944 12.2173 14.79 12.54 14.79C12.892 14.79 13.068 14.9733 13.068 15.34ZM8.514 4.318C8.514 2.22067 7.60467 1.172 5.786 1.172C5.302 1.172 4.972 1.238 4.796 1.37C4.62 1.502 4.532 1.73667 4.532 2.074V7.662C5.94 7.67667 6.952 7.42 7.568 6.892C8.19867 6.364 8.514 5.506 8.514 4.318ZM23.2516 11.71C23.2516 12.9713 22.7676 14.0493 21.7996 14.944C20.8463 15.824 19.6949 16.264 18.3456 16.264C17.5536 16.264 16.6076 16.022 15.5076 15.538C15.2143 15.406 14.9943 15.34 14.8476 15.34C14.6716 15.34 14.5616 15.5527 14.5176 15.978C14.5029 16.198 14.4076 16.308 14.2316 16.308C14.0849 16.308 14.0116 16.22 14.0116 16.044C14.0116 15.9267 14.0189 15.8387 14.0336 15.78C14.1509 14.8853 14.2096 14.0567 14.2096 13.294C14.2096 13.1473 14.1949 12.7367 14.1656 12.062C14.1509 11.974 14.1436 11.8567 14.1436 11.71C14.1436 11.49 14.2316 11.38 14.4076 11.38C14.5543 11.38 14.6569 11.556 14.7156 11.908C15.0969 14.5187 16.3363 15.824 18.4336 15.824C19.3283 15.824 20.0176 15.5747 20.5016 15.076C21.0003 14.5627 21.2496 13.844 21.2496 12.92C21.2496 12.0987 21.0076 11.402 20.5236 10.83C20.0543 10.2433 19.2403 9.664 18.0816 9.092C16.6883 8.40267 15.7203 7.73533 15.1776 7.09C14.6349 6.44467 14.3636 5.64533 14.3636 4.692C14.3636 3.47467 14.7523 2.47 15.5296 1.678C16.3216 0.885999 17.3189 0.489999 18.5216 0.489999C19.0203 0.489999 19.7096 0.658666 20.5896 0.995999C20.8976 1.11333 21.1249 1.172 21.2716 1.172C21.4329 1.172 21.5356 1.14267 21.5796 1.084C21.6383 1.02533 21.6896 0.871332 21.7336 0.621999C21.7629 0.475332 21.8436 0.401999 21.9756 0.401999C22.1223 0.401999 22.1956 0.489999 22.1956 0.665999C22.1956 0.783333 22.1883 0.871333 22.1736 0.929999C22.1296 1.282 22.1076 1.70733 22.1076 2.206C22.1076 2.91 22.1443 3.46733 22.2176 3.878L22.2396 4.23C22.2543 4.39133 22.1883 4.472 22.0416 4.472C21.8803 4.472 21.7703 4.30333 21.7116 3.966C21.5503 3.10067 21.1689 2.382 20.5676 1.81C19.9663 1.22333 19.2916 0.929999 18.5436 0.929999C17.8103 0.929999 17.2236 1.16467 16.7836 1.634C16.3583 2.10333 16.1456 2.74133 16.1456 3.548C16.1456 4.48667 16.4609 5.242 17.0916 5.814C17.4436 6.13667 18.2063 6.59133 19.3796 7.178C20.7583 7.86733 21.7483 8.57133 22.3496 9.29C22.9509 9.994 23.2516 10.8007 23.2516 11.71ZM38.2786 0.885999C38.2786 1.00333 38.1393 1.06933 37.8606 1.084C37.2153 1.09867 36.7826 1.194 36.5626 1.37C36.3426 1.546 36.1153 1.95667 35.8806 2.602L35.1326 4.648C33.3286 9.59067 32.06 13.382 31.3266 16.022C31.2826 16.198 31.2093 16.286 31.1066 16.286C30.9893 16.286 30.7473 15.736 30.3806 14.636C29.7206 12.6267 29.2073 11.116 28.8406 10.104C28.4446 8.98933 27.858 7.32467 27.0806 5.11L26.0246 2.14C25.878 1.72933 25.7166 1.458 25.5406 1.326C25.3646 1.17933 25.0713 1.09867 24.6606 1.084C24.1766 1.06933 23.8906 1.05467 23.8026 1.04C23.7 1.02533 23.6486 0.966666 23.6486 0.863999C23.6486 0.731999 23.7953 0.665999 24.0886 0.665999H24.2866C24.5506 0.665999 25.0053 0.680666 25.6506 0.709999C26.3106 0.724666 26.78 0.732 27.0586 0.732C27.132 0.732 27.4106 0.724666 27.8946 0.709999C28.3933 0.680666 29.0973 0.665999 30.0066 0.665999H30.3146C30.5786 0.665999 30.7106 0.739333 30.7106 0.885999C30.7106 1.04733 30.4466 1.13533 29.9186 1.15L28.5766 1.194C28.2686 1.20867 28.1146 1.304 28.1146 1.48C28.1146 1.50933 28.1293 1.568 28.1586 1.656L28.3346 2.228C28.364 2.34533 29.0753 4.41333 30.4686 8.432C30.7033 9.12133 31.1506 10.434 31.8106 12.37C34.2306 5.52067 35.4406 1.92 35.4406 1.568C35.4406 1.216 35.0813 1.05467 34.3626 1.084L33.6806 1.106C33.5046 1.106 33.4166 1.04733 33.4166 0.929999C33.4166 0.783332 33.6366 0.709999 34.0766 0.709999C34.1646 0.709999 34.414 0.709999 34.8246 0.709999C35.2353 0.724666 35.536 0.732 35.7266 0.732H36.4306L37.8826 0.709999C38.1466 0.709999 38.2786 0.768666 38.2786 0.885999ZM48.7685 4.384C48.7685 5.80667 48.1598 6.914 46.9425 7.706C46.1798 8.20467 45.2118 8.454 44.0385 8.454C43.5398 8.454 42.9752 8.40267 42.3445 8.3V14.548C42.3445 14.8853 42.3592 15.098 42.3885 15.186C42.4618 15.3913 42.6232 15.516 42.8725 15.56C43.2978 15.6187 43.7085 15.648 44.1045 15.648C44.2658 15.648 44.3465 15.6993 44.3465 15.802C44.3465 15.9487 44.2438 16.022 44.0385 16.022C43.9505 16.022 43.8772 16.0147 43.8185 16C43.0118 16.0147 41.4938 16.022 39.2645 16.022H38.9785C38.5385 16.022 38.3185 15.9487 38.3185 15.802C38.3185 15.6993 38.4725 15.648 38.7805 15.648C39.4698 15.648 39.8658 15.582 39.9685 15.45C40.0858 15.3913 40.1518 15.2447 40.1665 15.01V2.03C40.1665 1.57533 40.0418 1.29667 39.7925 1.194C39.6458 1.13533 39.3892 1.106 39.0225 1.106H38.8025C38.7585 1.12067 38.7072 1.128 38.6485 1.128C38.4285 1.128 38.3185 1.062 38.3185 0.929999C38.3185 0.783332 38.5238 0.709999 38.9345 0.709999H43.7745C45.4465 0.709999 46.6712 1.00333 47.4485 1.59C48.3285 2.25 48.7685 3.18133 48.7685 4.384ZM46.4585 4.428C46.4585 2.228 45.5345 1.128 43.6865 1.128C43.0705 1.128 42.6672 1.23067 42.4765 1.436C42.3885 1.524 42.3445 1.75133 42.3445 2.118V7.97C42.4618 7.98467 42.5938 7.992 42.7405 7.992C43.7085 7.992 44.5298 7.77933 45.2045 7.354C46.0405 6.826 46.4585 5.85067 46.4585 4.428Z" fill="white"/>
</svg>
