<svg width="84" height="46" viewBox="0 0 84 46" fill="none" xmlns="http://www.w3.org/2000/svg">
<path d="M11.6448 17V2.671L8.60883 3.614L8.17183 2.142L12.1048 0.784999H13.4388V17H11.6448ZM22.74 17.276C20.44 17.276 18.462 16.195 16.99 14.723L18.186 13.412C19.589 14.792 21.107 15.62 22.763 15.62C25.063 15.62 26.65 14.102 26.65 12.055V12.009C26.65 9.985 24.971 8.628 22.648 8.628C21.268 8.628 20.21 9.019 19.267 9.548L18.048 8.743L18.508 0.899999H27.777V2.579H20.095L19.75 7.731C20.693 7.294 21.567 7.018 22.924 7.018C26.052 7.018 28.49 8.881 28.49 11.94V11.986C28.49 15.137 26.121 17.276 22.74 17.276ZM31.717 7.524V5.109H33.833V7.524H31.717ZM31.717 17V14.585H33.833V17H31.717ZM43.9048 17.276C39.7418 17.276 37.1198 13.504 37.1198 8.996V8.95C37.1198 4.442 39.8108 0.624 43.9508 0.624C48.0908 0.624 50.7128 4.396 50.7128 8.904V8.95C50.7128 13.458 48.0448 17.276 43.9048 17.276ZM43.9508 15.62C46.9868 15.62 48.8268 12.515 48.8268 8.996V8.95C48.8268 5.454 46.9178 2.28 43.9048 2.28C40.8918 2.28 39.0058 5.362 39.0058 8.904V8.95C39.0058 12.446 40.9148 15.62 43.9508 15.62ZM60.3463 17.276C56.1833 17.276 53.5613 13.504 53.5613 8.996V8.95C53.5613 4.442 56.2523 0.624 60.3923 0.624C64.5323 0.624 67.1543 4.396 67.1543 8.904V8.95C67.1543 13.458 64.4863 17.276 60.3463 17.276ZM60.3923 15.62C63.4283 15.62 65.2683 12.515 65.2683 8.996V8.95C65.2683 5.454 63.3593 2.28 60.3463 2.28C57.3333 2.28 55.4473 5.362 55.4473 8.904V8.95C55.4473 12.446 57.3563 15.62 60.3923 15.62ZM0.674461 45V28.9H2.49146V36.053H11.7835V28.9H13.6005V45H11.7835V37.755H2.49146V45H0.674461ZM25.6241 45.276C20.7251 45.276 17.4361 41.435 17.4361 36.996V36.95C17.4361 32.511 20.7711 28.624 25.6701 28.624C30.5691 28.624 33.8581 32.465 33.8581 36.904V36.95C33.8581 41.389 30.5231 45.276 25.6241 45.276ZM25.6701 43.597C29.3501 43.597 31.9721 40.653 31.9721 36.996V36.95C31.9721 33.293 29.3041 30.303 25.6241 30.303C21.9441 30.303 19.3221 33.247 19.3221 36.904V36.95C19.3221 40.607 21.9901 43.597 25.6701 43.597ZM37.6901 45V28.9H44.6131C46.6141 28.9 48.1781 29.498 49.1901 30.51C49.9951 31.315 50.4321 32.396 50.4321 33.684V33.73C50.4321 36.398 48.5921 37.985 46.0621 38.422L51.0071 45H48.7761L44.1071 38.744H39.5071V45H37.6901ZM39.5071 37.111H44.4521C46.8441 37.111 48.5921 35.869 48.5921 33.799V33.753C48.5921 31.752 47.0741 30.579 44.4751 30.579H39.5071V37.111ZM52.9312 45L60.2682 28.785H61.9702L69.3072 45H67.3522L65.4662 40.745H56.7032L54.7942 45H52.9312ZM57.4162 39.112H64.7532L61.0962 30.901L57.4162 39.112ZM77.6876 45.23C75.1116 45.23 73.0416 44.402 71.1096 42.654L72.2366 41.32C73.9156 42.861 75.5256 43.597 77.7566 43.597C79.9416 43.597 81.3446 42.447 81.3446 40.86V40.814C81.3446 39.319 80.5396 38.491 77.1586 37.755C73.4556 36.95 71.7536 35.754 71.7536 33.109V33.063C71.7536 30.556 73.9846 28.67 77.0436 28.67C79.4126 28.67 81.0456 29.337 82.7016 30.648L81.6436 32.051C80.1486 30.832 78.6536 30.303 76.9976 30.303C74.8816 30.303 73.5706 31.43 73.5706 32.902V32.948C73.5706 34.466 74.3756 35.34 77.9406 36.076C81.5286 36.881 83.1846 38.169 83.1846 40.63V40.676C83.1846 43.436 80.8846 45.23 77.6876 45.23Z" fill="white"/>
</svg>
