<svg width="130" height="23" viewBox="0 0 130 23" fill="none" xmlns="http://www.w3.org/2000/svg">
<path d="M17.848 15.087C17.848 15.0457 17.8273 15.3247 17.786 15.924C17.7033 17.1227 17.662 18.28 17.662 19.396C17.662 19.52 17.6827 19.7783 17.724 20.171C17.7653 20.543 17.786 20.9977 17.786 21.535V21.814C17.786 22.0827 17.7033 22.217 17.538 22.217C17.3727 22.217 17.228 22.062 17.104 21.752C16.8147 21.07 16.5253 20.6257 16.236 20.419C14.748 21.721 12.9603 22.372 10.873 22.372C7.835 22.372 5.31367 21.318 3.309 19.21C1.325 17.0813 0.333 14.405 0.333 11.181C0.333 7.93633 1.24233 5.291 3.061 3.245C4.90033 1.17833 7.26667 0.144999 10.16 0.144999C11.214 0.144999 12.051 0.237999 12.671 0.423999C13.3117 0.589332 14.097 0.940666 15.027 1.478C15.4817 1.74667 15.8227 1.881 16.05 1.881C16.236 1.881 16.4117 1.71567 16.577 1.385C16.8457 0.806333 17.0627 0.516999 17.228 0.516999C17.3933 0.516999 17.476 0.599666 17.476 0.764998C17.476 0.847665 17.4553 0.981998 17.414 1.168C17.1867 2.16 17.073 4.02 17.073 6.748C17.073 7.14067 17.042 7.368 16.98 7.43C16.918 7.492 16.8353 7.523 16.732 7.523C16.5253 7.523 16.391 7.32667 16.329 6.934C16.0603 5.28067 15.678 4.051 15.182 3.245C14.1693 1.59167 12.578 0.764998 10.408 0.764998C8.734 0.764998 7.41133 1.323 6.44 2.439C4.68333 4.44367 3.805 7.37833 3.805 11.243C3.805 14.6943 4.52833 17.3707 5.975 19.272C7.23567 20.9253 8.90967 21.752 10.997 21.752C12.0717 21.752 13.0533 21.4937 13.942 20.977C14.8307 20.4397 15.5127 19.7163 15.988 18.807C16.5253 17.753 16.9077 16.606 17.135 15.366C17.2177 14.87 17.352 14.622 17.538 14.622C17.7447 14.622 17.848 14.777 17.848 15.087ZM31.7769 18.621C31.7769 18.8277 31.6116 19.1997 31.2809 19.737C30.9709 20.2537 30.6506 20.6773 30.3199 21.008C29.4313 21.9173 28.2429 22.372 26.7549 22.372C24.8949 22.372 23.3346 21.7003 22.0739 20.357C20.8339 19.0137 20.2139 17.35 20.2139 15.366C20.2139 13.2993 20.8029 11.5737 21.9809 10.189C23.1796 8.80433 24.6676 8.112 26.4449 8.112C27.9123 8.112 29.1419 8.546 30.1339 9.414C31.1259 10.2613 31.6529 11.3567 31.7149 12.7C31.0536 12.8033 30.1753 12.8447 29.0799 12.824L26.9099 12.793C26.7653 12.793 25.5253 12.824 23.1899 12.886C23.0866 13.568 23.0349 14.219 23.0349 14.839C23.0349 16.9263 23.4276 18.5383 24.2129 19.675C25.0189 20.791 26.1453 21.349 27.5919 21.349C28.4186 21.349 29.0799 21.163 29.5759 20.791C30.0719 20.419 30.6093 19.706 31.1879 18.652C31.2706 18.4867 31.3843 18.404 31.5289 18.404C31.6943 18.404 31.7769 18.4763 31.7769 18.621ZM29.0799 12.297C28.9973 9.817 28.1086 8.577 26.4139 8.577C24.7399 8.577 23.6963 9.817 23.2829 12.297H29.0799ZM43.0202 10.22C43.0202 10.6953 42.8756 11.088 42.5862 11.398C42.2969 11.708 41.9249 11.863 41.4702 11.863C41.0982 11.863 40.7882 11.7597 40.5402 11.553C40.2922 11.3257 40.1682 11.0467 40.1682 10.716C40.1682 10.4267 40.2612 10.1787 40.4472 9.972C40.6332 9.76533 40.7262 9.62067 40.7262 9.538C40.7262 9.228 40.4989 9.073 40.0442 9.073C39.4656 9.073 38.9696 9.43467 38.5562 10.158C38.0809 11.0053 37.8432 12.576 37.8432 14.87V21.008C37.8432 21.256 37.9259 21.411 38.0912 21.473C38.2772 21.535 38.8146 21.5763 39.7032 21.597C39.9306 21.6383 40.0442 21.721 40.0442 21.845C40.0442 21.9897 39.9099 22.062 39.6412 22.062C39.1659 22.062 38.7216 22.0517 38.3082 22.031C37.8949 22.0103 37.1096 22 35.9522 22C35.3529 22 34.9189 22.0103 34.6502 22.031C34.3816 22.0517 34.0406 22.062 33.6272 22.062C33.2966 22.062 33.1312 21.9897 33.1312 21.845C33.1312 21.7003 33.2656 21.628 33.5342 21.628H33.9682C34.6709 21.628 35.0842 21.5453 35.2082 21.38C35.2496 21.2973 35.2702 20.915 35.2702 20.233V11.708C35.2702 10.5713 35.0946 9.92033 34.7432 9.755C34.4126 9.569 33.8752 9.46567 33.1312 9.445C32.8832 9.445 32.7592 9.37267 32.7592 9.228C32.7592 9.08333 32.8626 9.011 33.0692 9.011H33.2862C33.5962 9.011 33.9062 9.03167 34.2162 9.073C34.5262 9.09367 34.6606 9.104 34.6192 9.104C35.3839 9.104 36.2312 8.887 37.1612 8.453L37.5642 8.267L37.8122 8.174C37.8949 8.67 37.9362 9.166 37.9362 9.662V10.282C38.5976 8.83533 39.5276 8.112 40.7262 8.112C41.3876 8.112 41.9352 8.31867 42.3692 8.732C42.8032 9.12467 43.0202 9.62067 43.0202 10.22ZM55.5719 18.621C55.5719 18.8277 55.4065 19.1997 55.0759 19.737C54.7659 20.2537 54.4455 20.6773 54.1149 21.008C53.2262 21.9173 52.0379 22.372 50.5499 22.372C48.6899 22.372 47.1295 21.7003 45.8689 20.357C44.6289 19.0137 44.0089 17.35 44.0089 15.366C44.0089 13.2993 44.5979 11.5737 45.7759 10.189C46.9745 8.80433 48.4625 8.112 50.2399 8.112C51.7072 8.112 52.9369 8.546 53.9289 9.414C54.9209 10.2613 55.4479 11.3567 55.5099 12.7C54.8485 12.8033 53.9702 12.8447 52.8749 12.824L50.7049 12.793C50.5602 12.793 49.3202 12.824 46.9849 12.886C46.8815 13.568 46.8299 14.219 46.8299 14.839C46.8299 16.9263 47.2225 18.5383 48.0079 19.675C48.8139 20.791 49.9402 21.349 51.3869 21.349C52.2135 21.349 52.8749 21.163 53.3709 20.791C53.8669 20.419 54.4042 19.706 54.9829 18.652C55.0655 18.4867 55.1792 18.404 55.3239 18.404C55.4892 18.404 55.5719 18.4763 55.5719 18.621ZM52.8749 12.297C52.7922 9.817 51.9035 8.577 50.2089 8.577C48.5349 8.577 47.4912 9.817 47.0779 12.297H52.8749ZM78.1612 21.814C78.1612 21.9793 77.9855 22.062 77.6342 22.062C77.5928 22.062 77.3655 22.0517 76.9522 22.031C76.5595 22.0103 76.0222 22 75.3402 22C75.2782 22 74.1828 22.0207 72.0542 22.062C71.7855 22.062 71.6512 21.9897 71.6512 21.845C71.6512 21.6797 71.7648 21.597 71.9922 21.597H72.2402L73.0152 21.566C73.3252 21.5453 73.5008 21.473 73.5422 21.349C73.6042 21.225 73.6352 20.791 73.6352 20.047V12.359C73.6352 11.1603 73.4698 10.313 73.1392 9.817C72.8292 9.30033 72.2918 9.042 71.5272 9.042C70.9898 9.042 70.4835 9.20733 70.0082 9.538C69.5535 9.848 69.2332 10.251 69.0472 10.747C68.9645 11.057 68.9232 12.204 68.9232 14.188V20.047C68.9232 20.729 68.9335 21.1217 68.9542 21.225C69.0162 21.473 69.2022 21.597 69.5122 21.597H70.4112C70.6798 21.597 70.8142 21.6797 70.8142 21.845C70.8142 21.9897 70.6592 22.062 70.3492 22.062H70.1322C69.9255 22.0207 69.2228 22 68.0242 22C67.6108 22 67.0528 22.0103 66.3502 22.031C65.6682 22.0517 65.2548 22.062 65.1102 22.062H64.7692C64.5212 22.062 64.3972 21.9793 64.3972 21.814C64.3972 21.7107 64.4592 21.6487 64.5832 21.628C64.7072 21.6073 65.1205 21.597 65.8232 21.597C66.1538 21.5763 66.3295 21.473 66.3502 21.287L66.3812 20.853V12.204C66.3812 11.0053 66.2262 10.1787 65.9162 9.724C65.6268 9.26933 65.0998 9.042 64.3352 9.042C63.5705 9.042 62.9298 9.27967 62.4132 9.755C61.9172 10.2303 61.6692 10.8297 61.6692 11.553V20.357C61.6692 20.977 61.7105 21.349 61.7932 21.473C61.8965 21.5763 62.2065 21.628 62.7232 21.628H62.9712C63.0952 21.6073 63.2088 21.597 63.3122 21.597C63.5395 21.597 63.6532 21.6797 63.6532 21.845C63.6532 21.9897 63.5188 22.062 63.2502 22.062H62.9402C62.4442 22 61.6692 21.9793 60.6152 22L57.5772 22.062C57.2878 22.062 57.1432 21.9793 57.1432 21.814C57.1432 21.6693 57.2775 21.597 57.5462 21.597C58.3315 21.597 58.7862 21.566 58.9102 21.504C59.0342 21.4213 59.1065 21.287 59.1272 21.101V13.041C59.1272 11.491 59.0962 10.5817 59.0342 10.313C58.9722 10.0443 58.6725 9.91 58.1352 9.91H57.7012C57.5152 9.93067 57.3188 9.941 57.1122 9.941C56.8435 9.941 56.7092 9.86867 56.7092 9.724C56.7092 9.6 56.7505 9.52767 56.8332 9.507C56.9365 9.48633 57.2775 9.45533 57.8562 9.414C58.3315 9.39333 58.9205 9.26933 59.6232 9.042C60.3465 8.81467 60.7598 8.61833 60.8632 8.453C61.0905 8.22567 61.2558 8.112 61.3592 8.112C61.4625 8.112 61.5245 8.19467 61.5452 8.36C61.5658 8.52533 61.5865 9.104 61.6072 10.096C62.4338 8.77333 63.7048 8.112 65.4202 8.112C67.2595 8.112 68.3755 8.80433 68.7682 10.189C69.5742 8.80433 70.8658 8.112 72.6432 8.112C74.1725 8.112 75.2058 8.65967 75.7432 9.755C76.0325 10.3337 76.1772 11.2947 76.1772 12.638V20.295C76.1772 20.9977 76.2082 21.3903 76.2702 21.473C76.3528 21.535 76.6835 21.5867 77.2622 21.628L77.8202 21.597C78.0475 21.5763 78.1612 21.6487 78.1612 21.814ZM92.115 15.304C92.115 17.3087 91.5054 18.993 90.286 20.357C89.0667 21.7003 87.5477 22.372 85.729 22.372C83.8484 22.372 82.2777 21.7003 81.017 20.357C79.7564 18.993 79.126 17.3087 79.126 15.304C79.126 13.2373 79.7357 11.522 80.955 10.158C82.195 8.794 83.7347 8.112 85.574 8.112C87.434 8.112 88.984 8.80433 90.224 10.189C91.4847 11.553 92.115 13.258 92.115 15.304ZM89.294 15.273C89.294 12.9997 88.9427 11.2327 88.24 9.972C87.7234 9.042 86.8554 8.577 85.636 8.577C84.4787 8.577 83.5694 9.17633 82.908 10.375C82.2674 11.553 81.947 13.196 81.947 15.304C81.947 17.3913 82.288 19.024 82.97 20.202C83.6727 21.3593 84.644 21.938 85.884 21.938C86.8347 21.938 87.5374 21.5763 87.992 20.853C88.86 19.489 89.294 17.629 89.294 15.273ZM108.095 21.814C108.095 21.9793 107.94 22.062 107.63 22.062H107.258C106.886 22.0207 106.379 22 105.739 22C103.713 22 102.515 22.0207 102.143 22.062H101.926C101.657 22.062 101.523 21.9897 101.523 21.845C101.523 21.7417 101.574 21.6797 101.678 21.659C101.802 21.6383 102.205 21.6177 102.887 21.597C103.279 21.5763 103.507 21.5247 103.569 21.442C103.631 21.3387 103.662 20.9977 103.662 20.419V14.467C103.662 12.2143 103.579 10.871 103.414 10.437C103.062 9.507 102.36 9.042 101.306 9.042C100.272 9.042 99.4042 9.49667 98.7016 10.406C98.4949 10.6747 98.3916 11.0467 98.3916 11.522L98.4226 21.194C98.4226 21.442 98.6396 21.5763 99.0736 21.597L100.004 21.628C100.21 21.628 100.314 21.7003 100.314 21.845C100.314 21.9897 100.19 22.062 99.9416 22.062H99.4456C98.9909 22.0207 98.2676 22 97.2756 22C97.0482 22 96.5522 22.0103 95.7876 22.031C95.0436 22.0517 94.6096 22.062 94.4856 22.062H94.2996C93.9896 22.062 93.8346 21.9897 93.8346 21.845C93.8346 21.7003 94.0206 21.6073 94.3926 21.566C94.6612 21.566 94.9196 21.566 95.1676 21.566C95.4776 21.566 95.6636 21.4937 95.7256 21.349L95.8186 20.884V14.126C95.8186 11.77 95.7979 10.468 95.7566 10.22C95.7152 9.972 95.4569 9.848 94.9816 9.848C94.8369 9.848 94.5889 9.86867 94.2376 9.91H94.0826C93.6692 9.91 93.4626 9.83767 93.4626 9.693C93.4626 9.507 93.6796 9.414 94.1136 9.414C94.7336 9.39333 95.4052 9.27967 96.1286 9.073C96.8519 8.86633 97.3582 8.62867 97.6476 8.36C97.8336 8.19467 97.9782 8.112 98.0816 8.112C98.2262 8.112 98.2986 8.30833 98.2986 8.701V10.189C99.3732 8.80433 100.758 8.112 102.453 8.112C103.941 8.112 105.015 8.65967 105.677 9.755C106.049 10.375 106.235 11.553 106.235 13.289V20.357C106.235 21.0183 106.266 21.38 106.328 21.442C106.452 21.566 106.751 21.628 107.227 21.628C107.289 21.628 107.402 21.6177 107.568 21.597H107.785C107.991 21.597 108.095 21.6693 108.095 21.814ZM113.404 2.501C113.404 3.431 112.939 3.896 112.009 3.896C111.616 3.896 111.285 3.772 111.017 3.524C110.748 3.25533 110.614 2.935 110.614 2.563C110.614 1.59167 111.079 1.106 112.009 1.106C112.939 1.106 113.404 1.571 113.404 2.501ZM115.729 21.814C115.729 22 115.553 22.093 115.202 22.093C115.222 22.093 114.974 22.0723 114.458 22.031C113.838 21.9897 113.321 21.969 112.908 21.969L109.684 22.031C109.58 22.0517 109.456 22.062 109.312 22.062C109.084 22.062 108.971 21.9897 108.971 21.845C108.971 21.6383 109.177 21.535 109.591 21.535C110.376 21.5143 110.8 21.4627 110.862 21.38C110.944 21.2767 110.986 20.8427 110.986 20.078L110.955 10.685C110.934 10.1683 110.903 9.86867 110.862 9.786C110.841 9.68267 110.717 9.631 110.49 9.631L109.591 9.662C109.508 9.68267 109.405 9.693 109.281 9.693C109.053 9.693 108.94 9.61033 108.94 9.445C108.94 9.30033 109.115 9.21767 109.467 9.197C110.851 9.135 112.04 8.80433 113.032 8.205L113.342 8.019C113.507 8.329 113.59 8.89733 113.59 9.724C113.59 9.68267 113.59 9.786 113.59 10.034C113.569 10.282 113.559 10.685 113.559 11.243V19.706C113.559 20.5327 113.569 21.0183 113.59 21.163C113.631 21.3077 113.745 21.4007 113.931 21.442C114.241 21.5247 114.695 21.566 115.295 21.566C115.584 21.566 115.729 21.6487 115.729 21.814ZM129.306 20.605C129.306 20.9563 128.934 21.3283 128.19 21.721C127.467 22.093 126.764 22.279 126.082 22.279C124.656 22.279 123.912 21.5453 123.85 20.078C123.065 21.6073 121.845 22.372 120.192 22.372C119.303 22.372 118.57 22.1137 117.991 21.597C117.412 21.0597 117.123 20.3777 117.123 19.551C117.123 17.8563 118.146 16.513 120.192 15.521C120.895 15.1903 122.114 14.8597 123.85 14.529V13.754C123.85 11.9353 123.757 10.7367 123.571 10.158C123.24 9.104 122.496 8.577 121.339 8.577C120.616 8.577 120.006 8.77333 119.51 9.166C119.035 9.55867 118.797 10.0547 118.797 10.654C118.797 10.8193 118.921 10.902 119.169 10.902C119.438 10.902 119.675 11.026 119.882 11.274C120.089 11.522 120.192 11.801 120.192 12.111C120.192 13.0203 119.737 13.475 118.828 13.475C118.353 13.475 117.96 13.32 117.65 13.01C117.34 12.6793 117.185 12.266 117.185 11.77C117.185 10.7987 117.567 9.96167 118.332 9.259C119.179 8.49433 120.357 8.112 121.866 8.112C124.139 8.112 125.534 8.732 126.051 9.972C126.237 10.4473 126.33 11.3877 126.33 12.793V18.59C126.33 19.5407 126.34 20.0987 126.361 20.264C126.464 21.008 126.764 21.38 127.26 21.38C127.839 21.38 128.314 21.1733 128.686 20.76C128.893 20.5327 129.048 20.419 129.151 20.419C129.254 20.419 129.306 20.481 129.306 20.605ZM123.85 17.319V15.056C122.3 15.4073 121.184 15.8723 120.502 16.451C119.841 17.009 119.51 17.7633 119.51 18.714C119.51 19.3753 119.696 19.923 120.068 20.357C120.461 20.7703 120.946 20.977 121.525 20.977C122.414 20.977 123.127 20.481 123.664 19.489C123.788 19.2617 123.85 18.5383 123.85 17.319Z" fill="white"/>
</svg>
