<svg width="101" height="19" viewBox="0 0 101 19" fill="none" xmlns="http://www.w3.org/2000/svg">
<path d="M11.1193 6H9.53409C9.44034 5.54403 9.27628 5.14347 9.0419 4.7983C8.81179 4.45312 8.53054 4.16335 8.19815 3.92898C7.87003 3.69034 7.50568 3.51136 7.10511 3.39205C6.70455 3.27273 6.28693 3.21307 5.85227 3.21307C5.05966 3.21307 4.34162 3.41335 3.69815 3.81392C3.05895 4.21449 2.54972 4.80469 2.17045 5.58452C1.79545 6.36435 1.60795 7.32102 1.60795 8.45455C1.60795 9.58807 1.79545 10.5447 2.17045 11.3246C2.54972 12.1044 3.05895 12.6946 3.69815 13.0952C4.34162 13.4957 5.05966 13.696 5.85227 13.696C6.28693 13.696 6.70455 13.6364 7.10511 13.517C7.50568 13.3977 7.87003 13.2209 8.19815 12.9865C8.53054 12.7479 8.81179 12.456 9.0419 12.1108C9.27628 11.7614 9.44034 11.3608 9.53409 10.9091H11.1193C11 11.5781 10.7827 12.1768 10.4673 12.7053C10.152 13.2337 9.75994 13.6832 9.29119 14.054C8.82244 14.4205 8.29617 14.6996 7.71236 14.8913C7.13281 15.0831 6.51278 15.179 5.85227 15.179C4.7358 15.179 3.7429 14.9062 2.87358 14.3608C2.00426 13.8153 1.32031 13.0398 0.821733 12.0341C0.323153 11.0284 0.0738637 9.83523 0.0738637 8.45455C0.0738637 7.07386 0.323153 5.88068 0.821733 4.875C1.32031 3.86932 2.00426 3.09375 2.87358 2.5483C3.7429 2.00284 4.7358 1.73011 5.85227 1.73011C6.51278 1.73011 7.13281 1.82599 7.71236 2.01776C8.29617 2.20952 8.82244 2.49077 9.29119 2.86151C9.75994 3.22798 10.152 3.67543 10.4673 4.20384C10.7827 4.72798 11 5.3267 11.1193 6ZM17.465 15.2045C16.5787 15.2045 15.801 14.9936 15.1319 14.5717C14.4672 14.1499 13.9473 13.5597 13.5723 12.8011C13.2015 12.0426 13.0162 11.1562 13.0162 10.142C13.0162 9.11932 13.2015 8.22656 13.5723 7.46378C13.9473 6.70099 14.4672 6.10866 15.1319 5.68679C15.801 5.26491 16.5787 5.05398 17.465 5.05398C18.3514 5.05398 19.127 5.26491 19.7917 5.68679C20.4608 6.10866 20.9806 6.70099 21.3514 7.46378C21.7264 8.22656 21.9139 9.11932 21.9139 10.142C21.9139 11.1562 21.7264 12.0426 21.3514 12.8011C20.9806 13.5597 20.4608 14.1499 19.7917 14.5717C19.127 14.9936 18.3514 15.2045 17.465 15.2045ZM17.465 13.8494C18.1383 13.8494 18.6923 13.6768 19.127 13.3317C19.5616 12.9865 19.8833 12.5327 20.0922 11.9702C20.301 11.4077 20.4054 10.7983 20.4054 10.142C20.4054 9.4858 20.301 8.87429 20.0922 8.30753C19.8833 7.74077 19.5616 7.28267 19.127 6.93324C18.6923 6.58381 18.1383 6.40909 17.465 6.40909C16.7917 6.40909 16.2377 6.58381 15.8031 6.93324C15.3684 7.28267 15.0467 7.74077 14.8379 8.30753C14.6291 8.87429 14.5247 9.4858 14.5247 10.142C14.5247 10.7983 14.6291 11.4077 14.8379 11.9702C15.0467 12.5327 15.3684 12.9865 15.8031 13.3317C16.2377 13.6768 16.7917 13.8494 17.465 13.8494ZM16.7747 3.85227L18.3343 0.886363H20.0985L18.1042 3.85227H16.7747ZM24.2166 15V5.18182H25.674V6.71591H25.8018C26.0064 6.19176 26.3366 5.7848 26.7926 5.49503C27.2486 5.20099 27.7962 5.05398 28.4354 5.05398C29.0831 5.05398 29.6222 5.20099 30.0526 5.49503C30.4872 5.7848 30.826 6.19176 31.0689 6.71591H31.1712C31.4226 6.20881 31.7997 5.80611 32.3026 5.50781C32.8054 5.20526 33.4084 5.05398 34.1115 5.05398C34.9893 5.05398 35.7074 5.32884 36.2656 5.87855C36.8239 6.42401 37.103 7.27415 37.103 8.42898V15H35.5945V8.42898C35.5945 7.70455 35.3963 7.18679 35 6.87571C34.6037 6.56463 34.1371 6.40909 33.6001 6.40909C32.9098 6.40909 32.375 6.6179 31.9957 7.03551C31.6165 7.44886 31.4268 7.97301 31.4268 8.60795V15H29.8928V8.27557C29.8928 7.71733 29.7116 7.26776 29.3494 6.92685C28.9872 6.58168 28.5206 6.40909 27.9496 6.40909C27.5575 6.40909 27.1911 6.51349 26.8501 6.7223C26.5135 6.93111 26.2408 7.22088 26.032 7.59162C25.8274 7.9581 25.7251 8.3821 25.7251 8.86364V15H24.2166ZM43.8498 15.2045C42.9634 15.2045 42.1857 14.9936 41.5167 14.5717C40.8519 14.1499 40.332 13.5597 39.957 12.8011C39.5863 12.0426 39.4009 11.1562 39.4009 10.142C39.4009 9.11932 39.5863 8.22656 39.957 7.46378C40.332 6.70099 40.8519 6.10866 41.5167 5.68679C42.1857 5.26491 42.9634 5.05398 43.8498 5.05398C44.7362 5.05398 45.5117 5.26491 46.1765 5.68679C46.8455 6.10866 47.3654 6.70099 47.7362 7.46378C48.1112 8.22656 48.2987 9.11932 48.2987 10.142C48.2987 11.1562 48.1112 12.0426 47.7362 12.8011C47.3654 13.5597 46.8455 14.1499 46.1765 14.5717C45.5117 14.9936 44.7362 15.2045 43.8498 15.2045ZM43.8498 13.8494C44.5231 13.8494 45.0771 13.6768 45.5117 13.3317C45.9464 12.9865 46.2681 12.5327 46.4769 11.9702C46.6857 11.4077 46.7901 10.7983 46.7901 10.142C46.7901 9.4858 46.6857 8.87429 46.4769 8.30753C46.2681 7.74077 45.9464 7.28267 45.5117 6.93324C45.0771 6.58381 44.5231 6.40909 43.8498 6.40909C43.1765 6.40909 42.6225 6.58381 42.1879 6.93324C41.7532 7.28267 41.4315 7.74077 41.2227 8.30753C41.0138 8.87429 40.9094 9.4858 40.9094 10.142C40.9094 10.7983 41.0138 11.4077 41.2227 11.9702C41.4315 12.5327 41.7532 12.9865 42.1879 13.3317C42.6225 13.6768 43.1765 13.8494 43.8498 13.8494ZM57.1724 1.90909V15H55.6639V1.90909H57.1724ZM61.4439 1.90909V15H59.9354V1.90909H61.4439ZM68.3233 15.2045C67.3773 15.2045 66.5613 14.9957 65.8752 14.5781C65.1934 14.1562 64.6671 13.5682 64.2963 12.8139C63.9299 12.0554 63.7466 11.1733 63.7466 10.1676C63.7466 9.16193 63.9299 8.27557 64.2963 7.50852C64.6671 6.73722 65.1827 6.13636 65.8432 5.70597C66.508 5.27131 67.2836 5.05398 68.1699 5.05398C68.6813 5.05398 69.1863 5.1392 69.6848 5.30966C70.1834 5.48011 70.6373 5.7571 71.0463 6.14062C71.4554 6.51989 71.7814 7.02273 72.0243 7.64915C72.2672 8.27557 72.3887 9.04687 72.3887 9.96307V10.6023H64.8205V9.2983H70.8546C70.8546 8.74432 70.7438 8.25 70.5222 7.81534C70.3049 7.38068 69.9938 7.03764 69.589 6.78622C69.1884 6.5348 68.7154 6.40909 68.1699 6.40909C67.5691 6.40909 67.0492 6.55824 66.6103 6.85653C66.1756 7.15057 65.8411 7.53409 65.6067 8.0071C65.3723 8.48011 65.2551 8.98722 65.2551 9.52841V10.3977C65.2551 11.1392 65.383 11.7678 65.6387 12.2834C65.8986 12.7947 66.2587 13.1847 66.7189 13.4531C67.1792 13.7173 67.714 13.8494 68.3233 13.8494C68.7196 13.8494 69.0776 13.794 69.3972 13.6832C69.7211 13.5682 70.0002 13.3977 70.2346 13.1719C70.4689 12.9418 70.65 12.6562 70.7779 12.3153L72.2353 12.7244C72.0819 13.2188 71.824 13.6534 71.4618 14.0284C71.0996 14.3991 70.6522 14.6889 70.1195 14.8977C69.5868 15.1023 68.9881 15.2045 68.3233 15.2045ZM78.6465 18.8864C77.9178 18.8864 77.2914 18.7926 76.7672 18.6051C76.2431 18.4219 75.8063 18.179 75.4569 17.8764C75.1117 17.5781 74.8368 17.2585 74.6323 16.9176L75.834 16.0739C75.9703 16.2528 76.1429 16.4574 76.3517 16.6875C76.5605 16.9219 76.8461 17.1243 77.2083 17.2947C77.5748 17.4695 78.0542 17.5568 78.6465 17.5568C79.4391 17.5568 80.0932 17.3651 80.6088 16.9815C81.1245 16.598 81.3823 15.9972 81.3823 15.179V13.1847H81.2544C81.1436 13.3636 80.986 13.5852 80.7814 13.8494C80.5811 14.1094 80.2914 14.3416 79.9121 14.5462C79.5371 14.7464 79.03 14.8466 78.3908 14.8466C77.5982 14.8466 76.8865 14.6591 76.2559 14.2841C75.6294 13.9091 75.133 13.3636 74.7665 12.6477C74.4043 11.9318 74.2232 11.0625 74.2232 10.0398C74.2232 9.03409 74.4 8.15838 74.7537 7.41264C75.1074 6.66264 75.5996 6.0831 76.2303 5.67401C76.861 5.26065 77.5897 5.05398 78.4164 5.05398C79.0556 5.05398 79.5627 5.16051 79.9377 5.37358C80.3169 5.58239 80.6067 5.82102 80.807 6.08949C81.0115 6.35369 81.1692 6.57102 81.28 6.74148H81.4334V5.18182H82.8908V15.2812C82.8908 16.125 82.699 16.8111 82.3155 17.3395C81.9363 17.8722 81.4249 18.2621 80.7814 18.5092C80.1422 18.7607 79.4306 18.8864 78.6465 18.8864ZM78.5953 13.4915C79.2005 13.4915 79.7118 13.353 80.1294 13.076C80.5471 12.799 80.8645 12.4006 81.0819 11.8807C81.2992 11.3608 81.4078 10.7386 81.4078 10.0142C81.4078 9.30682 81.3013 8.68253 81.0882 8.14134C80.8752 7.60014 80.5598 7.17614 80.1422 6.86932C79.7246 6.5625 79.209 6.40909 78.5953 6.40909C77.9561 6.40909 77.4235 6.57102 76.9973 6.89489C76.5755 7.21875 76.258 7.65341 76.0449 8.19886C75.8361 8.74432 75.7317 9.34943 75.7317 10.0142C75.7317 10.696 75.8382 11.299 76.0513 11.8232C76.2686 12.343 76.5882 12.7521 77.0101 13.0504C77.4363 13.3445 77.9647 13.4915 78.5953 13.4915ZM88.5414 15.2301C87.9192 15.2301 87.3546 15.1129 86.8475 14.8786C86.3404 14.6399 85.9377 14.2969 85.6394 13.8494C85.3411 13.3977 85.1919 12.8523 85.1919 12.2131C85.1919 11.6506 85.3027 11.1946 85.5243 10.8452C85.7459 10.4915 86.0421 10.2145 86.4128 10.0142C86.7836 9.81392 87.1926 9.66477 87.6401 9.56676C88.0918 9.46449 88.5456 9.38352 89.0016 9.32386C89.5982 9.24716 90.0819 9.18963 90.4526 9.15128C90.8276 9.10866 91.1003 9.03835 91.2708 8.94034C91.4455 8.84233 91.5328 8.67187 91.5328 8.42898V8.37784C91.5328 7.74716 91.3603 7.2571 91.0151 6.90767C90.6742 6.55824 90.1564 6.38352 89.4618 6.38352C88.7417 6.38352 88.177 6.54119 87.7679 6.85653C87.3588 7.17187 87.0712 7.50852 86.905 7.86648L85.4732 7.35511C85.7289 6.75852 86.0698 6.29403 86.4959 5.96165C86.9263 5.625 87.3951 5.39062 87.9022 5.25852C88.4135 5.12216 88.9164 5.05398 89.4107 5.05398C89.726 5.05398 90.0882 5.09233 90.4973 5.16903C90.9107 5.24148 91.3091 5.39276 91.6926 5.62287C92.0804 5.85298 92.4022 6.20028 92.6578 6.66477C92.9135 7.12926 93.0414 7.75142 93.0414 8.53125V15H91.5328V13.6705H91.4561C91.3539 13.8835 91.1834 14.1115 90.9448 14.3544C90.7061 14.5973 90.3887 14.804 89.9924 14.9744C89.5961 15.1449 89.1124 15.2301 88.5414 15.2301ZM88.7715 13.875C89.3681 13.875 89.8709 13.7578 90.28 13.5234C90.6934 13.2891 91.0044 12.9865 91.2132 12.6158C91.4263 12.245 91.5328 11.8551 91.5328 11.446V10.0653C91.4689 10.142 91.3283 10.2124 91.111 10.2763C90.8979 10.3359 90.6507 10.3892 90.3695 10.4361C90.0925 10.4787 89.8219 10.517 89.5577 10.5511C89.2978 10.581 89.0868 10.6065 88.9249 10.6278C88.5328 10.679 88.1664 10.7621 87.8255 10.8771C87.4888 10.9879 87.2161 11.1562 87.0073 11.3821C86.8027 11.6037 86.7005 11.9062 86.7005 12.2898C86.7005 12.8139 86.8944 13.2102 87.2821 13.4787C87.6742 13.7429 88.1706 13.875 88.7715 13.875ZM95.7947 15V5.18182H97.2521V6.66477H97.3544C97.5334 6.17898 97.8572 5.7848 98.326 5.48224C98.7947 5.17969 99.3232 5.02841 99.9112 5.02841C100.022 5.02841 100.161 5.03054 100.327 5.0348C100.493 5.03906 100.619 5.04545 100.704 5.05398V6.58807C100.653 6.57528 100.536 6.55611 100.352 6.53054C100.173 6.50071 99.9837 6.4858 99.7834 6.4858C99.3061 6.4858 98.88 6.58594 98.505 6.78622C98.1342 6.98224 97.8402 7.25497 97.6229 7.6044C97.4098 7.94957 97.3033 8.34375 97.3033 8.78693V15H95.7947Z" fill="white"/>
</svg>
