<svg width="137" height="23" viewBox="0 0 137 23" fill="none" xmlns="http://www.w3.org/2000/svg">
<path d="M20.894 11.274C20.894 14.9113 19.623 17.7427 17.081 19.768C15.221 21.256 12.7307 22 9.61 22C9.52733 22 9.15533 21.9897 8.494 21.969C7.85333 21.9483 6.913 21.938 5.673 21.938H4.123L1.674 21.969C1.52933 21.9897 1.37433 22 1.209 22C0.816333 22 0.62 21.8967 0.62 21.69C0.62 21.504 0.950667 21.411 1.612 21.411C2.45933 21.411 2.98633 21.256 3.193 20.946C3.27567 20.8013 3.317 20.4087 3.317 19.768V3.059C3.317 2.04633 3.23433 1.45733 3.069 1.292C2.92433 1.12667 2.39733 1.044 1.488 1.044C1.01267 1.044 0.775 0.930332 0.775 0.702999C0.775 0.537665 0.950667 0.454998 1.302 0.454998C1.28133 0.454998 1.50867 0.465332 1.984 0.486C2.45933 0.506666 2.92433 0.516999 3.379 0.516999H6.696C10.416 0.516999 13.051 0.775333 14.601 1.292C16.4817 1.912 18.0007 3.14167 19.158 4.981C20.3153 6.79967 20.894 8.89733 20.894 11.274ZM17.422 11.15C17.422 7.71933 16.7503 5.20833 15.407 3.617C14.0637 2.005 11.966 1.199 9.114 1.199C7.72933 1.199 6.89233 1.34367 6.603 1.633C6.479 1.77767 6.417 2.27367 6.417 3.121V19.613C6.417 20.1917 6.42733 20.543 6.448 20.667C6.48933 20.791 6.58233 20.8943 6.727 20.977C7.223 21.225 8.26667 21.349 9.858 21.349C12.09 21.349 13.888 20.5637 15.252 18.993C16.6987 17.3397 17.422 14.7253 17.422 11.15ZM32.6374 10.22C32.6374 10.6953 32.4928 11.088 32.2034 11.398C31.9141 11.708 31.5421 11.863 31.0874 11.863C30.7154 11.863 30.4054 11.7597 30.1574 11.553C29.9094 11.3257 29.7854 11.0467 29.7854 10.716C29.7854 10.4267 29.8784 10.1787 30.0644 9.972C30.2504 9.76533 30.3434 9.62067 30.3434 9.538C30.3434 9.228 30.1161 9.073 29.6614 9.073C29.0828 9.073 28.5868 9.43467 28.1734 10.158C27.6981 11.0053 27.4604 12.576 27.4604 14.87V21.008C27.4604 21.256 27.5431 21.411 27.7084 21.473C27.8944 21.535 28.4318 21.5763 29.3204 21.597C29.5478 21.6383 29.6614 21.721 29.6614 21.845C29.6614 21.9897 29.5271 22.062 29.2584 22.062C28.7831 22.062 28.3388 22.0517 27.9254 22.031C27.5121 22.0103 26.7268 22 25.5694 22C24.9701 22 24.5361 22.0103 24.2674 22.031C23.9988 22.0517 23.6578 22.062 23.2444 22.062C22.9138 22.062 22.7484 21.9897 22.7484 21.845C22.7484 21.7003 22.8828 21.628 23.1514 21.628H23.5854C24.2881 21.628 24.7014 21.5453 24.8254 21.38C24.8668 21.2973 24.8874 20.915 24.8874 20.233V11.708C24.8874 10.5713 24.7118 9.92033 24.3604 9.755C24.0298 9.569 23.4924 9.46567 22.7484 9.445C22.5004 9.445 22.3764 9.37267 22.3764 9.228C22.3764 9.08333 22.4798 9.011 22.6864 9.011H22.9034C23.2134 9.011 23.5234 9.03167 23.8334 9.073C24.1434 9.09367 24.2778 9.104 24.2364 9.104C25.0011 9.104 25.8484 8.887 26.7784 8.453L27.1814 8.267L27.4294 8.174C27.5121 8.67 27.5534 9.166 27.5534 9.662V10.282C28.2148 8.83533 29.1448 8.112 30.3434 8.112C31.0048 8.112 31.5524 8.31867 31.9864 8.732C32.4204 9.12467 32.6374 9.62067 32.6374 10.22ZM45.189 18.621C45.189 18.8277 45.0237 19.1997 44.693 19.737C44.383 20.2537 44.0627 20.6773 43.732 21.008C42.8434 21.9173 41.655 22.372 40.167 22.372C38.307 22.372 36.7467 21.7003 35.486 20.357C34.246 19.0137 33.626 17.35 33.626 15.366C33.626 13.2993 34.215 11.5737 35.393 10.189C36.5917 8.80433 38.0797 8.112 39.857 8.112C41.3244 8.112 42.554 8.546 43.546 9.414C44.538 10.2613 45.065 11.3567 45.127 12.7C44.4657 12.8033 43.5874 12.8447 42.492 12.824L40.322 12.793C40.1774 12.793 38.9374 12.824 36.602 12.886C36.4987 13.568 36.447 14.219 36.447 14.839C36.447 16.9263 36.8397 18.5383 37.625 19.675C38.431 20.791 39.5574 21.349 41.004 21.349C41.8307 21.349 42.492 21.163 42.988 20.791C43.484 20.419 44.0214 19.706 44.6 18.652C44.6827 18.4867 44.7964 18.404 44.941 18.404C45.1064 18.404 45.189 18.4763 45.189 18.621ZM42.492 12.297C42.4094 9.817 41.5207 8.577 39.826 8.577C38.152 8.577 37.1084 9.817 36.695 12.297H42.492ZM56.4014 18.063C56.4014 19.2617 55.957 20.2847 55.0684 21.132C54.2004 21.9587 53.1567 22.372 51.9374 22.372C51.2347 22.372 50.377 22.124 49.3644 21.628C49.0957 21.4833 48.858 21.411 48.6514 21.411C48.362 21.411 48.145 21.6073 48.0004 22C47.9177 22.248 47.804 22.372 47.6594 22.372C47.5147 22.372 47.4424 22.2893 47.4424 22.124C47.4424 22.0207 47.4527 21.8967 47.4734 21.752C47.5354 21.3387 47.5664 20.729 47.5664 19.923C47.5664 19.861 47.556 19.613 47.5354 19.179C47.5147 18.745 47.5044 18.4557 47.5044 18.311V17.97C47.5044 17.7427 47.5767 17.629 47.7214 17.629C47.8867 17.629 47.9797 17.7427 48.0004 17.97C48.1244 18.9207 48.393 19.6647 48.8064 20.202C49.633 21.2767 50.7387 21.814 52.1234 21.814C52.8674 21.814 53.4667 21.597 53.9214 21.163C54.376 20.729 54.6034 20.1503 54.6034 19.427C54.6034 18.621 54.345 17.9803 53.8284 17.505C53.539 17.2363 53.2704 17.0503 53.0224 16.947C52.795 16.823 52.1027 16.544 50.9454 16.11C48.6514 15.242 47.5044 13.94 47.5044 12.204C47.5044 11.0467 47.897 10.0753 48.6824 9.29C49.4677 8.50467 50.439 8.112 51.5964 8.112C52.0097 8.112 52.6297 8.236 53.4564 8.484C53.663 8.546 53.849 8.577 54.0144 8.577C54.4484 8.577 54.717 8.37033 54.8204 7.957C54.8824 7.75033 54.9754 7.647 55.0994 7.647C55.244 7.647 55.3164 7.72967 55.3164 7.895C55.3164 7.91567 55.306 7.97767 55.2854 8.081L55.2544 9.383C55.2337 9.879 55.2854 10.6747 55.4094 11.77V11.832C55.4094 11.9973 55.3267 12.08 55.1614 12.08C55.0374 12.08 54.8824 11.77 54.6964 11.15C54.469 10.406 54.066 9.80667 53.4874 9.352C52.9294 8.89733 52.2784 8.67 51.5344 8.67C50.8317 8.67 50.253 8.887 49.7984 9.321C49.3437 9.755 49.1164 10.3027 49.1164 10.964C49.1164 11.9973 49.8087 12.7827 51.1934 13.32C53.3427 14.1673 54.7067 14.87 55.2854 15.428C56.0294 16.1513 56.4014 17.0297 56.4014 18.063ZM67.6328 18.063C67.6328 19.2617 67.1885 20.2847 66.2998 21.132C65.4318 21.9587 64.3881 22.372 63.1688 22.372C62.4661 22.372 61.6085 22.124 60.5958 21.628C60.3271 21.4833 60.0895 21.411 59.8828 21.411C59.5935 21.411 59.3765 21.6073 59.2318 22C59.1491 22.248 59.0355 22.372 58.8908 22.372C58.7461 22.372 58.6738 22.2893 58.6738 22.124C58.6738 22.0207 58.6841 21.8967 58.7048 21.752C58.7668 21.3387 58.7978 20.729 58.7978 19.923C58.7978 19.861 58.7875 19.613 58.7668 19.179C58.7461 18.745 58.7358 18.4557 58.7358 18.311V17.97C58.7358 17.7427 58.8081 17.629 58.9528 17.629C59.1181 17.629 59.2111 17.7427 59.2318 17.97C59.3558 18.9207 59.6245 19.6647 60.0378 20.202C60.8645 21.2767 61.9701 21.814 63.3548 21.814C64.0988 21.814 64.6981 21.597 65.1528 21.163C65.6075 20.729 65.8348 20.1503 65.8348 19.427C65.8348 18.621 65.5765 17.9803 65.0598 17.505C64.7705 17.2363 64.5018 17.0503 64.2538 16.947C64.0265 16.823 63.3341 16.544 62.1768 16.11C59.8828 15.242 58.7358 13.94 58.7358 12.204C58.7358 11.0467 59.1285 10.0753 59.9138 9.29C60.6991 8.50467 61.6705 8.112 62.8278 8.112C63.2411 8.112 63.8611 8.236 64.6878 8.484C64.8945 8.546 65.0805 8.577 65.2458 8.577C65.6798 8.577 65.9485 8.37033 66.0518 7.957C66.1138 7.75033 66.2068 7.647 66.3308 7.647C66.4755 7.647 66.5478 7.72967 66.5478 7.895C66.5478 7.91567 66.5375 7.97767 66.5168 8.081L66.4858 9.383C66.4651 9.879 66.5168 10.6747 66.6408 11.77V11.832C66.6408 11.9973 66.5581 12.08 66.3928 12.08C66.2688 12.08 66.1138 11.77 65.9278 11.15C65.7005 10.406 65.2975 9.80667 64.7188 9.352C64.1608 8.89733 63.5098 8.67 62.7658 8.67C62.0631 8.67 61.4845 8.887 61.0298 9.321C60.5751 9.755 60.3478 10.3027 60.3478 10.964C60.3478 11.9973 61.0401 12.7827 62.4248 13.32C64.5741 14.1673 65.9381 14.87 66.5168 15.428C67.2608 16.1513 67.6328 17.0297 67.6328 18.063ZM93.0482 15.087C93.0482 15.0457 93.0275 15.3247 92.9862 15.924C92.9035 17.1227 92.8622 18.28 92.8622 19.396C92.8622 19.52 92.8829 19.7783 92.9242 20.171C92.9655 20.543 92.9862 20.9977 92.9862 21.535V21.814C92.9862 22.0827 92.9035 22.217 92.7382 22.217C92.5729 22.217 92.4282 22.062 92.3042 21.752C92.0149 21.07 91.7255 20.6257 91.4362 20.419C89.9482 21.721 88.1605 22.372 86.0732 22.372C83.0352 22.372 80.5139 21.318 78.5092 19.21C76.5252 17.0813 75.5332 14.405 75.5332 11.181C75.5332 7.93633 76.4425 5.291 78.2612 3.245C80.1005 1.17833 82.4669 0.144999 85.3602 0.144999C86.4142 0.144999 87.2512 0.237999 87.8712 0.423999C88.5119 0.589332 89.2972 0.940666 90.2272 1.478C90.6819 1.74667 91.0229 1.881 91.2502 1.881C91.4362 1.881 91.6119 1.71567 91.7772 1.385C92.0459 0.806333 92.2629 0.516999 92.4282 0.516999C92.5935 0.516999 92.6762 0.599666 92.6762 0.764998C92.6762 0.847665 92.6555 0.981998 92.6142 1.168C92.3869 2.16 92.2732 4.02 92.2732 6.748C92.2732 7.14067 92.2422 7.368 92.1802 7.43C92.1182 7.492 92.0355 7.523 91.9322 7.523C91.7255 7.523 91.5912 7.32667 91.5292 6.934C91.2605 5.28067 90.8782 4.051 90.3822 3.245C89.3695 1.59167 87.7782 0.764998 85.6082 0.764998C83.9342 0.764998 82.6115 1.323 81.6402 2.439C79.8835 4.44367 79.0052 7.37833 79.0052 11.243C79.0052 14.6943 79.7285 17.3707 81.1752 19.272C82.4359 20.9253 84.1099 21.752 86.1972 21.752C87.2719 21.752 88.2535 21.4937 89.1422 20.977C90.0309 20.4397 90.7129 19.7163 91.1882 18.807C91.7255 17.753 92.1079 16.606 92.3352 15.366C92.4179 14.87 92.5522 14.622 92.7382 14.622C92.9449 14.622 93.0482 14.777 93.0482 15.087ZM108.403 15.304C108.403 17.3087 107.793 18.993 106.574 20.357C105.355 21.7003 103.836 22.372 102.017 22.372C100.136 22.372 98.5658 21.7003 97.3051 20.357C96.0445 18.993 95.4141 17.3087 95.4141 15.304C95.4141 13.2373 96.0238 11.522 97.2431 10.158C98.4831 8.794 100.023 8.112 101.862 8.112C103.722 8.112 105.272 8.80433 106.512 10.189C107.773 11.553 108.403 13.258 108.403 15.304ZM105.582 15.273C105.582 12.9997 105.231 11.2327 104.528 9.972C104.011 9.042 103.143 8.577 101.924 8.577C100.767 8.577 99.8575 9.17633 99.1961 10.375C98.5555 11.553 98.2351 13.196 98.2351 15.304C98.2351 17.3913 98.5761 19.024 99.2581 20.202C99.9608 21.3593 100.932 21.938 102.172 21.938C103.123 21.938 103.825 21.5763 104.28 20.853C105.148 19.489 105.582 17.629 105.582 15.273ZM124.166 21.38C124.166 21.5247 124.021 21.597 123.732 21.597H123.577C123.411 21.597 123.236 21.5867 123.05 21.566C122.884 21.566 122.802 21.566 122.802 21.566C121.789 21.566 120.931 21.7727 120.229 22.186C119.939 22.3513 119.764 22.434 119.702 22.434C119.516 22.434 119.423 22.31 119.423 22.062L119.454 21.101C118.565 21.9483 117.511 22.372 116.292 22.372C114.556 22.372 113.119 21.7107 111.983 20.388C110.867 19.0447 110.309 17.3397 110.309 15.273C110.309 13.1443 110.867 11.4187 111.983 10.096C113.119 8.77333 114.597 8.112 116.416 8.112C117.821 8.112 118.875 8.61833 119.578 9.631V4.795C119.578 3.22433 119.505 2.253 119.361 1.881C119.237 1.571 119.051 1.42633 118.803 1.447C118.203 1.509 117.842 1.54 117.718 1.54C117.449 1.54 117.315 1.447 117.315 1.261C117.315 1.075 117.428 0.981999 117.656 0.981999L118.772 1.013C119.392 1.03366 120.342 0.744332 121.624 0.144999C121.706 0.103666 121.779 0.0829995 121.841 0.0829995C122.047 0.0829995 122.151 0.330999 122.151 0.826999C122.151 0.950999 122.151 1.168 122.151 1.478C122.13 1.80867 122.12 2.098 122.12 2.346V13.041C122.12 17.939 122.171 20.5637 122.275 20.915C122.316 21.0597 122.802 21.132 123.732 21.132C124.021 21.132 124.166 21.2147 124.166 21.38ZM119.578 13.599C119.578 11.615 119.361 10.344 118.927 9.786C118.369 9.08333 117.656 8.732 116.788 8.732C115.672 8.732 114.783 9.31067 114.122 10.468C113.46 11.6253 113.13 13.1753 113.13 15.118C113.13 16.978 113.419 18.5693 113.998 19.892C114.246 20.45 114.607 20.915 115.083 21.287C115.579 21.6383 116.085 21.814 116.602 21.814C117.242 21.814 117.821 21.628 118.338 21.256C118.854 20.8633 119.185 20.3983 119.33 19.861C119.495 19.3237 119.578 17.2363 119.578 13.599ZM136.615 18.621C136.615 18.8277 136.449 19.1997 136.119 19.737C135.809 20.2537 135.488 20.6773 135.158 21.008C134.269 21.9173 133.081 22.372 131.593 22.372C129.733 22.372 128.172 21.7003 126.912 20.357C125.672 19.0137 125.052 17.35 125.052 15.366C125.052 13.2993 125.641 11.5737 126.819 10.189C128.017 8.80433 129.505 8.112 131.283 8.112C132.75 8.112 133.98 8.546 134.972 9.414C135.964 10.2613 136.491 11.3567 136.553 12.7C135.891 12.8033 135.013 12.8447 133.918 12.824L131.748 12.793C131.603 12.793 130.363 12.824 128.028 12.886C127.924 13.568 127.873 14.219 127.873 14.839C127.873 16.9263 128.265 18.5383 129.051 19.675C129.857 20.791 130.983 21.349 132.43 21.349C133.256 21.349 133.918 21.163 134.414 20.791C134.91 20.419 135.447 19.706 136.026 18.652C136.108 18.4867 136.222 18.404 136.367 18.404C136.532 18.404 136.615 18.4763 136.615 18.621ZM133.918 12.297C133.835 9.817 132.946 8.577 131.252 8.577C129.578 8.577 128.534 9.817 128.121 12.297H133.918Z" fill="white"/>
</svg>
