<svg width="153" height="22" viewBox="0 0 153 22" fill="none" xmlns="http://www.w3.org/2000/svg">
<path d="M0.9375 17V1H10.5937V2.71875H2.875V8.125H10.0938V9.84375H2.875V15.2812H10.7188V17H0.9375ZM15.6797 1V17H13.8359V1H15.6797ZM24.0879 17.25C22.9316 17.25 21.9342 16.9948 21.0957 16.4844C20.2624 15.9688 19.6191 15.25 19.166 14.3281C18.7181 13.401 18.4941 12.3229 18.4941 11.0938C18.4941 9.86458 18.7181 8.78125 19.166 7.84375C19.6191 6.90104 20.2493 6.16667 21.0566 5.64062C21.8691 5.10937 22.8171 4.84375 23.9004 4.84375C24.5254 4.84375 25.1426 4.94792 25.752 5.15625C26.3613 5.36458 26.916 5.70312 27.416 6.17188C27.916 6.63542 28.3145 7.25 28.6113 8.01562C28.9082 8.78125 29.0566 9.72396 29.0566 10.8437V11.625H19.8066V10.0312H27.1816C27.1816 9.35417 27.0462 8.75 26.7754 8.21875C26.5098 7.6875 26.1296 7.26823 25.6348 6.96094C25.1452 6.65365 24.5671 6.5 23.9004 6.5C23.166 6.5 22.5306 6.68229 21.9941 7.04687C21.4629 7.40625 21.054 7.875 20.7676 8.45312C20.4811 9.03125 20.3379 9.65104 20.3379 10.3125V11.375C20.3379 12.2813 20.4941 13.0495 20.8066 13.6797C21.1243 14.3047 21.5645 14.7812 22.127 15.1094C22.6895 15.4323 23.3431 15.5938 24.0879 15.5938C24.5723 15.5938 25.0098 15.526 25.4004 15.3906C25.7962 15.25 26.1374 15.0417 26.4238 14.7656C26.7103 14.4844 26.9316 14.1354 27.0879 13.7187L28.8691 14.2188C28.6816 14.8229 28.3665 15.3542 27.9238 15.8125C27.4811 16.2656 26.9342 16.6198 26.2832 16.875C25.6322 17.125 24.9004 17.25 24.0879 17.25ZM36.7051 21.75C35.8145 21.75 35.0488 21.6354 34.4082 21.4063C33.7676 21.1823 33.2337 20.8854 32.8066 20.5156C32.3848 20.151 32.0488 19.7604 31.7988 19.3438L33.2676 18.3125C33.4342 18.5313 33.6452 18.7813 33.9004 19.0625C34.1556 19.349 34.5046 19.5964 34.9473 19.8047C35.3952 20.0182 35.9811 20.125 36.7051 20.125C37.6738 20.125 38.4733 19.8906 39.1035 19.4219C39.7337 18.9531 40.0488 18.2187 40.0488 17.2187V14.7812H39.8926C39.7572 15 39.5645 15.2708 39.3145 15.5938C39.0697 15.9115 38.7155 16.1953 38.252 16.4453C37.7936 16.6901 37.1738 16.8125 36.3926 16.8125C35.4238 16.8125 34.554 16.5833 33.7832 16.125C33.0176 15.6667 32.4108 15 31.9629 14.125C31.5202 13.25 31.2988 12.1875 31.2988 10.9375C31.2988 9.70833 31.515 8.63802 31.9473 7.72656C32.3796 6.8099 32.9811 6.10156 33.752 5.60156C34.5228 5.09635 35.4134 4.84375 36.4238 4.84375C37.2051 4.84375 37.8249 4.97396 38.2832 5.23438C38.7467 5.48958 39.1009 5.78125 39.3457 6.10937C39.5957 6.43229 39.7884 6.69792 39.9238 6.90625H40.1113V5H41.8926V17.3438C41.8926 18.375 41.6582 19.2135 41.1895 19.8594C40.7259 20.5104 40.1009 20.987 39.3145 21.2891C38.5332 21.5964 37.6634 21.75 36.7051 21.75ZM36.6426 15.1562C37.3822 15.1562 38.0072 14.987 38.5176 14.6484C39.028 14.3099 39.416 13.8229 39.6816 13.1875C39.9473 12.5521 40.0801 11.7917 40.0801 10.9062C40.0801 10.0417 39.9499 9.27865 39.6895 8.61719C39.429 7.95573 39.0436 7.4375 38.5332 7.0625C38.0228 6.6875 37.3926 6.5 36.6426 6.5C35.8613 6.5 35.2103 6.69792 34.6895 7.09375C34.1738 7.48958 33.7858 8.02083 33.5254 8.6875C33.2702 9.35417 33.1426 10.0937 33.1426 10.9062C33.1426 11.7396 33.2728 12.4766 33.5332 13.1172C33.7988 13.7526 34.1895 14.2526 34.7051 14.6172C35.2259 14.9766 35.8717 15.1562 36.6426 15.1562ZM48.7988 17.2813C48.0384 17.2813 47.3483 17.138 46.7285 16.8516C46.1087 16.5599 45.6165 16.1406 45.252 15.5938C44.8874 15.0417 44.7051 14.375 44.7051 13.5937C44.7051 12.9062 44.8405 12.349 45.1113 11.9219C45.3822 11.4896 45.7441 11.151 46.1973 10.9062C46.6504 10.6615 47.1504 10.4792 47.6973 10.3594C48.2493 10.2344 48.804 10.1354 49.3613 10.0625C50.0905 9.96875 50.6816 9.89844 51.1348 9.85156C51.5931 9.79948 51.9264 9.71354 52.1348 9.59375C52.3483 9.47396 52.4551 9.26562 52.4551 8.96875V8.90625C52.4551 8.13542 52.2441 7.53646 51.8223 7.10937C51.4056 6.68229 50.7728 6.46875 49.9238 6.46875C49.0436 6.46875 48.3535 6.66146 47.8535 7.04687C47.3535 7.43229 47.002 7.84375 46.7988 8.28125L45.0488 7.65625C45.3613 6.92708 45.778 6.35937 46.2988 5.95312C46.8249 5.54167 47.3978 5.25521 48.0176 5.09375C48.6426 4.92708 49.2572 4.84375 49.8613 4.84375C50.2467 4.84375 50.6895 4.89062 51.1895 4.98437C51.6947 5.07292 52.1816 5.25781 52.6504 5.53906C53.1243 5.82031 53.5176 6.24479 53.8301 6.8125C54.1426 7.38021 54.2988 8.14062 54.2988 9.09375V17H52.4551V15.375H52.3613C52.2363 15.6354 52.028 15.9141 51.7363 16.2109C51.4447 16.5078 51.0566 16.7604 50.5723 16.9687C50.0879 17.1771 49.4967 17.2813 48.7988 17.2813ZM49.0801 15.625C49.8092 15.625 50.4238 15.4818 50.9238 15.1953C51.429 14.9089 51.8092 14.5391 52.0645 14.0859C52.3249 13.6328 52.4551 13.1562 52.4551 12.6562V10.9687C52.377 11.0625 52.2051 11.1484 51.9395 11.2266C51.679 11.2995 51.377 11.3646 51.0332 11.4219C50.6947 11.474 50.3639 11.5208 50.041 11.5625C49.7233 11.599 49.4655 11.6302 49.2676 11.6562C48.7884 11.7187 48.3405 11.8203 47.9238 11.9609C47.5124 12.0964 47.179 12.3021 46.9238 12.5781C46.6738 12.849 46.5488 13.2187 46.5488 13.6875C46.5488 14.3281 46.7858 14.8125 47.2598 15.1406C47.7389 15.4635 48.3457 15.625 49.0801 15.625ZM59.5078 9.78125V17H57.6641V5H59.4453V6.875H59.6016C59.8828 6.26563 60.3099 5.77604 60.8828 5.40625C61.4557 5.03125 62.1953 4.84375 63.1016 4.84375C63.9141 4.84375 64.625 5.01042 65.2344 5.34375C65.8438 5.67188 66.3177 6.17188 66.6563 6.84375C66.9948 7.51042 67.1641 8.35417 67.1641 9.375V17H65.3203V9.5C65.3203 8.55729 65.0755 7.82292 64.5859 7.29687C64.0964 6.76562 63.4245 6.5 62.5703 6.5C61.9818 6.5 61.4557 6.6276 60.9922 6.88281C60.5339 7.13802 60.1719 7.51042 59.9063 8C59.6406 8.48958 59.5078 9.08333 59.5078 9.78125ZM75.752 5V6.5625H69.5332V5H75.752ZM71.3457 2.125H73.1895V13.5625C73.1895 14.0833 73.265 14.474 73.416 14.7344C73.5723 14.9896 73.7702 15.1615 74.0098 15.25C74.2546 15.3333 74.5124 15.375 74.7832 15.375C74.9863 15.375 75.153 15.3646 75.2832 15.3437C75.4134 15.3177 75.5176 15.2969 75.5957 15.2812L75.9707 16.9375C75.8457 16.9844 75.6712 17.0313 75.4473 17.0781C75.2233 17.1302 74.9395 17.1563 74.5957 17.1563C74.0749 17.1563 73.5645 17.0443 73.0645 16.8203C72.5697 16.5964 72.1582 16.2552 71.8301 15.7969C71.5072 15.3385 71.3457 14.7604 71.3457 14.0625V2.125ZM83.4277 17.25C82.2715 17.25 81.2741 16.9948 80.4355 16.4844C79.6022 15.9688 78.959 15.25 78.5059 14.3281C78.0579 13.401 77.834 12.3229 77.834 11.0938C77.834 9.86458 78.0579 8.78125 78.5059 7.84375C78.959 6.90104 79.5892 6.16667 80.3965 5.64062C81.209 5.10937 82.1569 4.84375 83.2402 4.84375C83.8652 4.84375 84.4824 4.94792 85.0918 5.15625C85.7012 5.36458 86.2559 5.70312 86.7559 6.17188C87.2559 6.63542 87.6543 7.25 87.9512 8.01562C88.248 8.78125 88.3965 9.72396 88.3965 10.8437V11.625H79.1465V10.0312H86.5215C86.5215 9.35417 86.3861 8.75 86.1152 8.21875C85.8496 7.6875 85.4694 7.26823 84.9746 6.96094C84.485 6.65365 83.9069 6.5 83.2402 6.5C82.5059 6.5 81.8704 6.68229 81.334 7.04687C80.8027 7.40625 80.3939 7.875 80.1074 8.45312C79.821 9.03125 79.6777 9.65104 79.6777 10.3125V11.375C79.6777 12.2813 79.834 13.0495 80.1465 13.6797C80.4642 14.3047 80.9043 14.7812 81.4668 15.1094C82.0293 15.4323 82.6829 15.5938 83.4277 15.5938C83.9121 15.5938 84.3496 15.526 84.7402 15.3906C85.1361 15.25 85.4772 15.0417 85.7637 14.7656C86.0501 14.4844 86.2715 14.1354 86.4277 13.7187L88.209 14.2188C88.0215 14.8229 87.7064 15.3542 87.2637 15.8125C86.821 16.2656 86.2741 16.6198 85.623 16.875C84.972 17.125 84.2402 17.25 83.4277 17.25ZM106.389 5C106.295 4.20833 105.915 3.59375 105.248 3.15625C104.581 2.71875 103.764 2.5 102.795 2.5C102.087 2.5 101.467 2.61458 100.936 2.84375C100.41 3.07292 99.998 3.38802 99.7012 3.78906C99.4095 4.1901 99.2637 4.64583 99.2637 5.15625C99.2637 5.58333 99.3652 5.95052 99.5684 6.25781C99.7767 6.5599 100.042 6.8125 100.365 7.01562C100.688 7.21354 101.027 7.3776 101.381 7.50781C101.735 7.63281 102.061 7.73437 102.357 7.8125L103.982 8.25C104.399 8.35937 104.863 8.51042 105.373 8.70312C105.889 8.89583 106.381 9.15885 106.85 9.49219C107.324 9.82031 107.714 10.2422 108.021 10.7578C108.329 11.2734 108.482 11.9062 108.482 12.6562C108.482 13.5208 108.256 14.3021 107.803 15C107.355 15.6979 106.699 16.2526 105.834 16.6641C104.975 17.0755 103.93 17.2813 102.701 17.2813C101.555 17.2813 100.563 17.0964 99.7246 16.7266C98.8913 16.3568 98.235 15.8411 97.7559 15.1797C97.2819 14.5182 97.0137 13.75 96.9512 12.875H98.9512C99.0033 13.4792 99.2064 13.9792 99.5605 14.375C99.9199 14.7656 100.373 15.0573 100.92 15.25C101.472 15.4375 102.066 15.5312 102.701 15.5312C103.441 15.5312 104.105 15.4115 104.693 15.1719C105.282 14.9271 105.748 14.5885 106.092 14.1562C106.436 13.7187 106.607 13.2083 106.607 12.625C106.607 12.0937 106.459 11.6615 106.162 11.3281C105.865 10.9948 105.475 10.724 104.99 10.5156C104.506 10.3073 103.982 10.125 103.42 9.96875L101.451 9.40625C100.201 9.04687 99.2116 8.53385 98.4824 7.86719C97.7533 7.20052 97.3887 6.32812 97.3887 5.25C97.3887 4.35417 97.6309 3.57292 98.1152 2.90625C98.6048 2.23437 99.2611 1.71354 100.084 1.34375C100.912 0.968749 101.837 0.781249 102.857 0.781249C103.889 0.781249 104.805 0.966145 105.607 1.33594C106.41 1.70052 107.045 2.20052 107.514 2.83594C107.988 3.47135 108.238 4.19271 108.264 5H106.389ZM111.418 21.5V5H113.199V6.90625H113.418C113.553 6.69792 113.741 6.43229 113.98 6.10937C114.225 5.78125 114.574 5.48958 115.027 5.23438C115.486 4.97396 116.105 4.84375 116.887 4.84375C117.897 4.84375 118.788 5.09635 119.559 5.60156C120.329 6.10677 120.931 6.82292 121.363 7.75C121.796 8.67708 122.012 9.77083 122.012 11.0313C122.012 12.3021 121.796 13.4036 121.363 14.3359C120.931 15.263 120.332 15.9818 119.566 16.4922C118.801 16.9974 117.918 17.25 116.918 17.25C116.147 17.25 115.53 17.1224 115.066 16.8672C114.603 16.6068 114.246 16.3125 113.996 15.9844C113.746 15.651 113.553 15.375 113.418 15.1562H113.262V21.5H111.418ZM113.23 11C113.23 11.9062 113.363 12.7057 113.629 13.3984C113.895 14.0859 114.283 14.625 114.793 15.0156C115.303 15.401 115.928 15.5938 116.668 15.5938C117.439 15.5938 118.082 15.3906 118.598 14.9844C119.118 14.5729 119.509 14.0208 119.77 13.3281C120.035 12.6302 120.168 11.8542 120.168 11C120.168 10.1562 120.038 9.39583 119.777 8.71875C119.522 8.03646 119.134 7.4974 118.613 7.10156C118.098 6.70052 117.449 6.5 116.668 6.5C115.918 6.5 115.288 6.6901 114.777 7.07031C114.267 7.44531 113.882 7.97135 113.621 8.64844C113.361 9.32031 113.23 10.1042 113.23 11ZM129.699 17.25C128.616 17.25 127.665 16.9922 126.848 16.4766C126.035 15.9609 125.4 15.2396 124.941 14.3125C124.488 13.3854 124.262 12.3021 124.262 11.0625C124.262 9.8125 124.488 8.72135 124.941 7.78906C125.4 6.85677 126.035 6.13281 126.848 5.61719C127.665 5.10156 128.616 4.84375 129.699 4.84375C130.783 4.84375 131.73 5.10156 132.543 5.61719C133.361 6.13281 133.996 6.85677 134.449 7.78906C134.908 8.72135 135.137 9.8125 135.137 11.0625C135.137 12.3021 134.908 13.3854 134.449 14.3125C133.996 15.2396 133.361 15.9609 132.543 16.4766C131.73 16.9922 130.783 17.25 129.699 17.25ZM129.699 15.5938C130.522 15.5938 131.199 15.3828 131.73 14.9609C132.262 14.5391 132.655 13.9844 132.91 13.2969C133.165 12.6094 133.293 11.8646 133.293 11.0625C133.293 10.2604 133.165 9.51302 132.91 8.82031C132.655 8.1276 132.262 7.56771 131.73 7.14062C131.199 6.71354 130.522 6.5 129.699 6.5C128.876 6.5 128.199 6.71354 127.668 7.14062C127.137 7.56771 126.743 8.1276 126.488 8.82031C126.233 9.51302 126.105 10.2604 126.105 11.0625C126.105 11.8646 126.233 12.6094 126.488 13.2969C126.743 13.9844 127.137 14.5391 127.668 14.9609C128.199 15.3828 128.876 15.5938 129.699 15.5938ZM137.951 17V5H139.732V6.8125H139.857C140.076 6.21875 140.472 5.73698 141.045 5.36719C141.618 4.99739 142.264 4.8125 142.982 4.8125C143.118 4.8125 143.287 4.8151 143.49 4.82031C143.693 4.82552 143.847 4.83333 143.951 4.84375V6.71875C143.889 6.70312 143.745 6.67969 143.521 6.64844C143.303 6.61198 143.071 6.59375 142.826 6.59375C142.243 6.59375 141.722 6.71615 141.264 6.96094C140.811 7.20052 140.451 7.53385 140.186 7.96094C139.925 8.38281 139.795 8.86458 139.795 9.40625V17H137.951ZM152.107 5V6.5625H145.889V5H152.107ZM147.701 2.125H149.545V13.5625C149.545 14.0833 149.62 14.474 149.771 14.7344C149.928 14.9896 150.126 15.1615 150.365 15.25C150.61 15.3333 150.868 15.375 151.139 15.375C151.342 15.375 151.508 15.3646 151.639 15.3437C151.769 15.3177 151.873 15.2969 151.951 15.2812L152.326 16.9375C152.201 16.9844 152.027 17.0313 151.803 17.0781C151.579 17.1302 151.295 17.1563 150.951 17.1563C150.43 17.1563 149.92 17.0443 149.42 16.8203C148.925 16.5964 148.514 16.2552 148.186 15.7969C147.863 15.3385 147.701 14.7604 147.701 14.0625V2.125Z" fill="white"/>
</svg>
