<svg width="585" height="32" viewBox="0 0 585 32" fill="none" xmlns="http://www.w3.org/2000/svg">
<path d="M0.32 31V30H17.84C19.1733 30 20.2933 29.6133 21.2 28.84C22.1333 28.0667 22.8533 27.04 23.36 25.76C23.8667 24.48 24.1333 23.0933 24.16 21.6H25.56V31H0.32ZM5.04 30.4V1.24H10.4V30.4H5.04ZM16.6 22.36C16.5733 20.8667 16.3733 19.6933 16 18.84C15.6267 17.9867 14.9867 17.3867 14.08 17.04C13.2 16.6667 11.9333 16.48 10.28 16.48V15.48C11.9333 15.48 13.2133 15.32 14.12 15C15.0533 14.68 15.6933 14.12 16.04 13.32C16.4133 12.52 16.6 11.4 16.6 9.96H18V22.36H16.6ZM22.96 9.04C22.9333 7.73333 22.6667 6.54667 22.16 5.48C21.6533 4.38667 20.9333 3.50667 20 2.84C19.0933 2.17333 17.9733 1.84 16.64 1.84H0.32V0.84H24.36V9.04H22.96ZM31.3363 30.4V1.48H35.7363V30.4H31.3363ZM28.1763 31V30H38.9363V31H28.1763ZM28.1763 1.84V0.84H35.7363V1.84H28.1763ZM256.047 31.48C254.714 31.48 253.447 31.0933 252.247 30.32C251.074 29.52 250.114 28.4133 249.367 27C248.647 25.56 248.287 23.8933 248.287 22C248.287 20.1067 248.647 18.4533 249.367 17.04C250.114 15.6 251.074 14.4933 252.247 13.72C253.421 12.92 254.674 12.52 256.007 12.52C257.261 12.52 258.354 12.7867 259.287 13.32C260.247 13.8533 260.941 14.52 261.367 15.32H262.327L261.527 21.4C261.527 18.7867 261.047 16.88 260.087 15.68C259.154 14.48 257.967 13.88 256.527 13.88C255.781 13.88 255.181 14.1067 254.727 14.56C254.274 14.9867 253.941 15.7867 253.727 16.96C253.514 18.1333 253.407 19.8267 253.407 22.04C253.407 24.2267 253.501 25.9067 253.687 27.08C253.901 28.2533 254.234 29.0533 254.687 29.48C255.141 29.9067 255.741 30.12 256.487 30.12C257.927 30.12 259.127 29.52 260.087 28.32C261.047 27.0933 261.527 25.1867 261.527 22.6L262.327 28.68H261.367C260.941 29.48 260.261 30.1467 259.327 30.68C258.394 31.2133 257.301 31.48 256.047 31.48ZM261.527 31V30H268.647V31H261.527ZM261.527 30.4V1.48H265.927V30.4H261.527ZM257.567 1.84V0.84H265.927V1.84H257.567ZM280.062 31.48C278.782 31.48 277.568 31.2267 276.422 30.72C275.302 30.1867 274.315 29.48 273.462 28.6C272.608 27.6933 271.942 26.68 271.462 25.56C270.982 24.4133 270.742 23.2267 270.742 22C270.742 20.3733 271.115 18.84 271.862 17.4C272.635 15.96 273.702 14.7867 275.062 13.88C276.422 12.9733 278.022 12.52 279.862 12.52C281.302 12.52 282.595 12.8533 283.742 13.52C284.915 14.16 285.835 15.0667 286.502 16.24C287.168 17.4133 287.502 18.76 287.502 20.28V20.52H274.422V19.52H282.862V17.24C282.862 14.8133 281.795 13.6 279.662 13.6C278.782 13.6 278.062 13.8667 277.502 14.4C276.968 14.9067 276.568 15.7733 276.302 17C276.062 18.2267 275.942 19.8933 275.942 22C275.942 24.16 276.075 25.84 276.342 27.04C276.608 28.24 277.048 29.08 277.662 29.56C278.302 30.04 279.142 30.28 280.182 30.28C281.595 30.28 282.822 29.92 283.862 29.2C284.902 28.48 285.782 27.2267 286.502 25.44H287.622C287.088 27.3067 286.142 28.7867 284.782 29.88C283.448 30.9467 281.875 31.48 280.062 31.48ZM408.083 31.48C406.643 31.48 405.469 31.0667 404.563 30.24C403.656 29.4133 403.203 28.3333 403.203 27C403.203 25.72 403.629 24.6267 404.483 23.72C405.363 22.8133 406.603 22.12 408.203 21.64C409.803 21.1333 411.696 20.88 413.883 20.88V16C413.883 15.3067 413.616 14.76 413.083 14.36C412.549 13.96 411.816 13.76 410.883 13.76C410.083 13.76 409.429 13.8933 408.923 14.16C408.416 14.4267 408.163 14.7733 408.163 15.2C408.163 15.4667 408.256 15.7067 408.443 15.92C408.629 16.1333 408.723 16.4667 408.723 16.92C408.723 17.48 408.509 17.9467 408.083 18.32C407.683 18.6667 407.163 18.84 406.523 18.84C405.883 18.84 405.376 18.6533 405.003 18.28C404.629 17.88 404.443 17.3867 404.443 16.8C404.443 16 404.763 15.28 405.403 14.64C406.043 13.9733 406.909 13.4533 408.003 13.08C409.096 12.7067 410.323 12.52 411.683 12.52C413.629 12.52 415.216 12.9067 416.443 13.68C417.669 14.4267 418.283 15.4133 418.283 16.64V28.8C418.283 29.0667 418.363 29.2933 418.523 29.48C418.709 29.64 418.923 29.72 419.163 29.72C419.403 29.72 419.683 29.6 420.003 29.36C420.323 29.0933 420.723 28.6933 421.203 28.16L421.762 28.8C420.509 30.5867 419.109 31.48 417.563 31.48C416.629 31.48 415.856 31.2267 415.243 30.72C414.656 30.1867 414.256 29.4533 414.043 28.52H413.883C413.376 29.3733 412.576 30.08 411.483 30.64C410.389 31.2 409.256 31.48 408.083 31.48ZM410.483 29.28C411.496 29.28 412.309 28.9067 412.923 28.16C413.563 27.3867 413.883 26.3867 413.883 25.16V21.92C411.883 21.92 410.376 22.2933 409.363 23.04C408.349 23.76 407.843 24.8267 407.843 26.24C407.843 27.2 408.069 27.9467 408.523 28.48C409.003 29.0133 409.656 29.28 410.483 29.28ZM433.719 30.4V1.48H438.119V30.4H433.719ZM430.559 31V30H441.319V31H430.559ZM430.559 1.84V0.84H438.119V1.84H430.559ZM448.395 31.48C446.955 31.48 445.782 31.0667 444.875 30.24C443.968 29.4133 443.515 28.3333 443.515 27C443.515 25.72 443.942 24.6267 444.795 23.72C445.675 22.8133 446.915 22.12 448.515 21.64C450.115 21.1333 452.008 20.88 454.195 20.88V16C454.195 15.3067 453.928 14.76 453.395 14.36C452.862 13.96 452.128 13.76 451.195 13.76C450.395 13.76 449.742 13.8933 449.235 14.16C448.728 14.4267 448.475 14.7733 448.475 15.2C448.475 15.4667 448.568 15.7067 448.755 15.92C448.942 16.1333 449.035 16.4667 449.035 16.92C449.035 17.48 448.822 17.9467 448.395 18.32C447.995 18.6667 447.475 18.84 446.835 18.84C446.195 18.84 445.688 18.6533 445.315 18.28C444.942 17.88 444.755 17.3867 444.755 16.8C444.755 16 445.075 15.28 445.715 14.64C446.355 13.9733 447.222 13.4533 448.315 13.08C449.408 12.7067 450.635 12.52 451.995 12.52C453.942 12.52 455.528 12.9067 456.755 13.68C457.982 14.4267 458.595 15.4133 458.595 16.64V28.8C458.595 29.0667 458.675 29.2933 458.835 29.48C459.022 29.64 459.235 29.72 459.475 29.72C459.715 29.72 459.995 29.6 460.315 29.36C460.635 29.0933 461.035 28.6933 461.515 28.16L462.075 28.8C460.822 30.5867 459.422 31.48 457.875 31.48C456.942 31.48 456.168 31.2267 455.555 30.72C454.968 30.1867 454.568 29.4533 454.355 28.52H454.195C453.688 29.3733 452.888 30.08 451.795 30.64C450.702 31.2 449.568 31.48 448.395 31.48ZM450.795 29.28C451.808 29.28 452.622 28.9067 453.235 28.16C453.875 27.3867 454.195 26.3867 454.195 25.16V21.92C452.195 21.92 450.688 22.2933 449.675 23.04C448.662 23.76 448.155 24.8267 448.155 26.24C448.155 27.2 448.382 27.9467 448.835 28.48C449.315 29.0133 449.968 29.28 450.795 29.28ZM471.669 31.48C470.576 31.48 469.509 31.2933 468.469 30.92C467.456 30.5467 466.629 30.0533 465.989 29.44L465.389 31H464.229V24.88H465.509L465.709 25.64C466.083 27.08 466.749 28.1733 467.709 28.92C468.696 29.6667 470.003 30.04 471.629 30.04C472.963 30.04 473.896 29.8133 474.429 29.36C474.963 28.88 475.229 28.2 475.229 27.32C475.229 26.44 474.869 25.8 474.149 25.4C473.429 24.9733 472.323 24.6 470.829 24.28C469.549 24.0133 468.429 23.68 467.469 23.28C466.536 22.8533 465.803 22.2667 465.269 21.52C464.736 20.7467 464.469 19.6933 464.469 18.36C464.469 16.4667 465.016 15.0267 466.109 14.04C467.203 13.0267 468.763 12.52 470.789 12.52C471.936 12.52 472.923 12.68 473.749 13C474.603 13.32 475.203 13.76 475.549 14.32L475.989 13H477.029V18.8H475.789L475.669 18.2C475.376 16.7067 474.856 15.6267 474.109 14.96C473.389 14.2933 472.309 13.96 470.869 13.96C469.589 13.96 468.629 14.2133 467.989 14.72C467.376 15.2 467.069 15.88 467.069 16.76C467.069 17.1867 467.189 17.5733 467.429 17.92C467.669 18.24 468.109 18.5333 468.749 18.8C469.416 19.0667 470.336 19.3333 471.509 19.6C472.869 19.8933 474.016 20.2667 474.949 20.72C475.883 21.1733 476.589 21.7733 477.069 22.52C477.576 23.2667 477.829 24.24 477.829 25.44C477.829 27.28 477.269 28.7467 476.149 29.84C475.029 30.9333 473.536 31.48 471.669 31.48Z" fill="#1E1E1E"/>
<path d="M49.1344 31V27.92L57.7344 19.92C59.0944 18.64 60.1477 17.52 60.8944 16.56C61.6677 15.5733 62.201 14.6267 62.4944 13.72C62.8144 12.7867 62.9744 11.76 62.9744 10.64C62.9744 8.42667 62.4944 6.69333 61.5344 5.44C60.601 4.16 59.2277 3.52 57.4144 3.52C56.321 3.52 55.3077 3.74667 54.3744 4.2C53.4677 4.62667 52.7344 5.17333 52.1744 5.84C51.6144 6.50667 51.3344 7.21333 51.3344 7.96C51.3344 8.25333 51.3744 8.45333 51.4544 8.56C51.561 8.66666 51.6944 8.72 51.8544 8.72C52.121 8.72 52.401 8.64 52.6944 8.48C52.9877 8.32 53.3877 8.24 53.8944 8.24C54.561 8.24 55.0944 8.42667 55.4944 8.8C55.921 9.17333 56.1344 9.74667 56.1344 10.52C56.1344 11.4267 55.8677 12.08 55.3344 12.48C54.801 12.8533 54.161 13.04 53.4144 13.04C52.6144 13.04 51.9477 12.84 51.4144 12.44C50.9077 12.04 50.521 11.52 50.2544 10.88C50.0144 10.24 49.8944 9.54667 49.8944 8.8C49.8944 7.28 50.3344 6 51.2144 4.96C52.0944 3.89333 53.2277 3.09333 54.6144 2.56C56.0277 2 57.5077 1.72 59.0544 1.72C60.1744 1.72 61.281 1.88 62.3744 2.2C63.4677 2.49333 64.4677 2.94666 65.3744 3.56C66.281 4.17333 67.001 4.96 67.5344 5.92C68.0677 6.85333 68.3344 7.97333 68.3344 9.28C68.3344 9.92 68.2277 10.6267 68.0144 11.4C67.801 12.1467 67.3877 12.9733 66.7744 13.88C66.1877 14.76 65.2944 15.7333 64.0944 16.8L52.6944 27V27.16H64.8944C65.5344 27.16 66.0277 27.08 66.3744 26.92C66.721 26.76 66.961 26.3867 67.0944 25.8C67.2544 25.1867 67.3344 24.2533 67.3344 23H68.3344V31H49.1344ZM80.1069 31.48C78.5602 31.48 77.1602 31.2533 75.9069 30.8C74.6535 30.3467 73.6535 29.72 72.9069 28.92C72.1869 28.0933 71.8269 27.1467 71.8269 26.08C71.8269 25.2 72.0669 24.4933 72.5469 23.96C73.0535 23.4 73.6802 23.12 74.4269 23.12C75.1469 23.12 75.7469 23.32 76.2269 23.72C76.7335 24.12 76.9869 24.6667 76.9869 25.36C76.9869 25.8133 76.8935 26.1733 76.7069 26.44C76.5202 26.68 76.2935 26.8933 76.0269 27.08C75.7869 27.24 75.5735 27.4133 75.3869 27.6C75.2002 27.7867 75.1069 28.04 75.1069 28.36C75.1069 28.76 75.3069 29.1067 75.7069 29.4C76.1069 29.6933 76.6135 29.92 77.2269 30.08C77.8669 30.2133 78.5469 30.28 79.2669 30.28C81.2935 30.28 82.8669 29.6533 83.9869 28.4C85.1335 27.12 85.7069 25.2133 85.7069 22.68C85.7069 19.9333 85.0802 17.9333 83.8269 16.68C82.6002 15.4 81.0269 14.76 79.1069 14.76C78.2802 14.76 77.4269 14.8667 76.5469 15.08C75.6935 15.2933 75.0135 15.5733 74.5069 15.92L74.7869 14.4C74.9735 14.2933 75.3069 14.1733 75.7869 14.04C76.2669 13.9067 76.8669 13.7867 77.5869 13.68C78.3069 13.5733 79.1202 13.52 80.0269 13.52C82.3735 13.52 84.3735 13.8933 86.0269 14.64C87.7069 15.3867 88.9869 16.4133 89.8669 17.72C90.7735 19 91.2269 20.4667 91.2269 22.12C91.2269 23.9067 90.7202 25.5067 89.7069 26.92C88.7202 28.3333 87.3869 29.4533 85.7069 30.28C84.0269 31.08 82.1602 31.48 80.1069 31.48ZM74.5069 15.92L73.8669 15.52L75.3469 2.36H76.7469L75.2669 15.16L74.5069 15.92ZM76.3469 6.2L75.3469 2.36H85.9869C86.8669 2.36 87.4935 2.28 87.8669 2.12C88.2669 1.93333 88.6002 1.58667 88.8669 1.08H89.8669L88.4269 6.2H76.3469ZM110.5 31.48C109.167 31.48 107.9 31.0933 106.7 30.32C105.527 29.52 104.567 28.4133 103.82 27C103.1 25.56 102.74 23.8933 102.74 22C102.74 20.1067 103.1 18.4533 103.82 17.04C104.567 15.6 105.527 14.4933 106.7 13.72C107.874 12.92 109.127 12.52 110.46 12.52C111.714 12.52 112.807 12.7867 113.74 13.32C114.7 13.8533 115.394 14.52 115.82 15.32H116.78L115.98 21.4C115.98 18.7867 115.5 16.88 114.54 15.68C113.607 14.48 112.42 13.88 110.98 13.88C110.234 13.88 109.634 14.1067 109.18 14.56C108.727 14.9867 108.394 15.7867 108.18 16.96C107.967 18.1333 107.86 19.8267 107.86 22.04C107.86 24.2267 107.954 25.9067 108.14 27.08C108.354 28.2533 108.687 29.0533 109.14 29.48C109.594 29.9067 110.194 30.12 110.94 30.12C112.38 30.12 113.58 29.52 114.54 28.32C115.5 27.0933 115.98 25.1867 115.98 22.6L116.78 28.68H115.82C115.394 29.48 114.714 30.1467 113.78 30.68C112.847 31.2133 111.754 31.48 110.5 31.48ZM115.98 31V30H123.1V31H115.98ZM115.98 30.4V1.48H120.38V30.4H115.98ZM112.02 1.84V0.84H120.38V1.84H112.02ZM134.515 31.48C133.235 31.48 132.021 31.2267 130.875 30.72C129.755 30.1867 128.768 29.48 127.915 28.6C127.061 27.6933 126.395 26.68 125.915 25.56C125.435 24.4133 125.195 23.2267 125.195 22C125.195 20.3733 125.568 18.84 126.315 17.4C127.088 15.96 128.155 14.7867 129.515 13.88C130.875 12.9733 132.475 12.52 134.315 12.52C135.755 12.52 137.048 12.8533 138.195 13.52C139.368 14.16 140.288 15.0667 140.955 16.24C141.621 17.4133 141.955 18.76 141.955 20.28V20.52H128.875V19.52H137.315V17.24C137.315 14.8133 136.248 13.6 134.115 13.6C133.235 13.6 132.515 13.8667 131.955 14.4C131.421 14.9067 131.021 15.7733 130.755 17C130.515 18.2267 130.395 19.8933 130.395 22C130.395 24.16 130.528 25.84 130.795 27.04C131.061 28.24 131.501 29.08 132.115 29.56C132.755 30.04 133.595 30.28 134.635 30.28C136.048 30.28 137.275 29.92 138.315 29.2C139.355 28.48 140.235 27.2267 140.955 25.44H142.075C141.541 27.3067 140.595 28.7867 139.235 29.88C137.901 30.9467 136.328 31.48 134.515 31.48ZM158.512 31.48C157.072 31.48 155.899 31.0667 154.992 30.24C154.086 29.4133 153.632 28.3333 153.632 27C153.632 25.72 154.059 24.6267 154.912 23.72C155.792 22.8133 157.032 22.12 158.632 21.64C160.232 21.1333 162.126 20.88 164.312 20.88V16C164.312 15.3067 164.046 14.76 163.512 14.36C162.979 13.96 162.246 13.76 161.312 13.76C160.512 13.76 159.859 13.8933 159.352 14.16C158.846 14.4267 158.592 14.7733 158.592 15.2C158.592 15.4667 158.686 15.7067 158.872 15.92C159.059 16.1333 159.152 16.4667 159.152 16.92C159.152 17.48 158.939 17.9467 158.512 18.32C158.112 18.6667 157.592 18.84 156.952 18.84C156.312 18.84 155.806 18.6533 155.432 18.28C155.059 17.88 154.872 17.3867 154.872 16.8C154.872 16 155.192 15.28 155.832 14.64C156.472 13.9733 157.339 13.4533 158.432 13.08C159.526 12.7067 160.752 12.52 162.112 12.52C164.059 12.52 165.646 12.9067 166.872 13.68C168.099 14.4267 168.712 15.4133 168.712 16.64V28.8C168.712 29.0667 168.792 29.2933 168.952 29.48C169.139 29.64 169.352 29.72 169.592 29.72C169.832 29.72 170.112 29.6 170.432 29.36C170.752 29.0933 171.152 28.6933 171.632 28.16L172.192 28.8C170.939 30.5867 169.539 31.48 167.992 31.48C167.059 31.48 166.286 31.2267 165.672 30.72C165.086 30.1867 164.686 29.4533 164.472 28.52H164.312C163.806 29.3733 163.006 30.08 161.912 30.64C160.819 31.2 159.686 31.48 158.512 31.48ZM160.912 29.28C161.926 29.28 162.739 28.9067 163.352 28.16C163.992 27.3867 164.312 26.3867 164.312 25.16V21.92C162.312 21.92 160.806 22.2933 159.792 23.04C158.779 23.76 158.272 24.8267 158.272 26.24C158.272 27.2 158.499 27.9467 158.952 28.48C159.432 29.0133 160.086 29.28 160.912 29.28ZM185.427 31.48C184.2 31.48 183.12 31.2133 182.187 30.68C181.253 30.1467 180.56 29.48 180.107 28.68H179.147L179.947 22.6C179.947 25.1867 180.427 27.0933 181.387 28.32C182.347 29.52 183.547 30.12 184.987 30.12C185.733 30.12 186.333 29.9067 186.787 29.48C187.24 29.0533 187.56 28.2533 187.747 27.08C187.96 25.9067 188.067 24.2267 188.067 22.04C188.067 19.8267 187.96 18.1333 187.747 16.96C187.533 15.7867 187.2 14.9867 186.747 14.56C186.293 14.1067 185.693 13.88 184.947 13.88C183.507 13.88 182.307 14.48 181.347 15.68C180.413 16.88 179.947 18.7867 179.947 21.4L179.147 15.32H180.107C180.56 14.52 181.253 13.8533 182.187 13.32C183.147 12.7867 184.24 12.52 185.467 12.52C186.8 12.52 188.053 12.92 189.227 13.72C190.4 14.4933 191.347 15.6 192.067 17.04C192.813 18.4533 193.187 20.1067 193.187 22C193.187 23.8933 192.813 25.56 192.067 27C191.347 28.4133 190.387 29.52 189.187 30.32C188.013 31.0933 186.76 31.48 185.427 31.48ZM172.387 31V30H179.947V31H172.387ZM175.547 30.4V1.48H179.947V30.4H175.547ZM172.387 1.84V0.84H179.947V1.84H172.387ZM196.159 31V30H199.319V14H196.159V13H203.719V16.16H203.879C204.546 14.72 205.306 13.76 206.159 13.28C207.039 12.7733 207.852 12.52 208.599 12.52C209.452 12.52 210.119 12.7733 210.599 13.28C211.106 13.76 211.359 14.4533 211.359 15.36C211.359 16.1867 211.106 16.8 210.599 17.2C210.119 17.5733 209.572 17.76 208.959 17.76C208.452 17.76 207.986 17.6267 207.559 17.36C207.159 17.0667 206.959 16.6667 206.959 16.16C206.959 16 206.972 15.8667 206.999 15.76C207.052 15.6267 207.079 15.4933 207.079 15.36C207.079 15.2267 207.039 15.1067 206.959 15C206.879 14.8933 206.706 14.84 206.439 14.84C206.092 14.84 205.706 15.12 205.279 15.68C204.852 16.2133 204.479 16.9467 204.159 17.88C203.866 18.7867 203.719 19.8 203.719 20.92V30H207.319V31H196.159ZM217.646 30.4V14H222.046V30.4H217.646ZM214.486 31V30H225.246V31H214.486ZM214.086 14.36V13.36H222.046V14.36H214.086ZM219.766 7.08C219.046 7.08 218.419 6.82666 217.886 6.32C217.379 5.78667 217.126 5.16 217.126 4.44C217.126 3.72 217.379 3.10666 217.886 2.6C218.419 2.06667 219.046 1.8 219.766 1.8C220.486 1.8 221.099 2.06667 221.606 2.6C222.139 3.10666 222.406 3.72 222.406 4.44C222.406 5.16 222.139 5.78667 221.606 6.32C221.099 6.82666 220.486 7.08 219.766 7.08ZM229.969 30.4V1.48H234.369V30.4H229.969ZM226.809 31V30H237.569V31H226.809ZM226.809 1.84V0.84H234.369V1.84H226.809ZM298.939 31V27.92L307.539 19.92C308.899 18.64 309.952 17.52 310.699 16.56C311.472 15.5733 312.006 14.6267 312.299 13.72C312.619 12.7867 312.779 11.76 312.779 10.64C312.779 8.42667 312.299 6.69333 311.339 5.44C310.406 4.16 309.032 3.52 307.219 3.52C306.126 3.52 305.112 3.74667 304.179 4.2C303.272 4.62667 302.539 5.17333 301.979 5.84C301.419 6.50667 301.139 7.21333 301.139 7.96C301.139 8.25333 301.179 8.45333 301.259 8.56C301.366 8.66666 301.499 8.72 301.659 8.72C301.926 8.72 302.206 8.64 302.499 8.48C302.792 8.32 303.192 8.24 303.699 8.24C304.366 8.24 304.899 8.42667 305.299 8.8C305.726 9.17333 305.939 9.74667 305.939 10.52C305.939 11.4267 305.672 12.08 305.139 12.48C304.606 12.8533 303.966 13.04 303.219 13.04C302.419 13.04 301.752 12.84 301.219 12.44C300.712 12.04 300.326 11.52 300.059 10.88C299.819 10.24 299.699 9.54667 299.699 8.8C299.699 7.28 300.139 6 301.019 4.96C301.899 3.89333 303.032 3.09333 304.419 2.56C305.832 2 307.312 1.72 308.859 1.72C309.979 1.72 311.086 1.88 312.179 2.2C313.272 2.49333 314.272 2.94666 315.179 3.56C316.086 4.17333 316.806 4.96 317.339 5.92C317.872 6.85333 318.139 7.97333 318.139 9.28C318.139 9.92 318.032 10.6267 317.819 11.4C317.606 12.1467 317.192 12.9733 316.579 13.88C315.992 14.76 315.099 15.7333 313.899 16.8L302.499 27V27.16H314.699C315.339 27.16 315.832 27.08 316.179 26.92C316.526 26.76 316.766 26.3867 316.899 25.8C317.059 25.1867 317.139 24.2533 317.139 23H318.139V31H298.939ZM333.592 31.48C331.965 31.48 330.458 31.1067 329.072 30.36C327.712 29.5867 326.512 28.52 325.472 27.16C324.458 25.8 323.658 24.2267 323.072 22.44C322.512 20.6267 322.232 18.68 322.232 16.6C322.232 14.52 322.512 12.5867 323.072 10.8C323.658 8.98667 324.458 7.4 325.472 6.04C326.512 4.68 327.712 3.62667 329.072 2.88C330.458 2.10667 331.965 1.72 333.592 1.72C335.218 1.72 336.725 2.10667 338.112 2.88C339.498 3.62667 340.698 4.68 341.712 6.04C342.752 7.4 343.552 8.98667 344.112 10.8C344.698 12.5867 344.992 14.52 344.992 16.6C344.992 18.68 344.698 20.6267 344.112 22.44C343.552 24.2267 342.752 25.8 341.712 27.16C340.698 28.52 339.498 29.5867 338.112 30.36C336.725 31.1067 335.218 31.48 333.592 31.48ZM333.592 30.28C334.605 30.28 335.458 30.0933 336.152 29.72C336.845 29.32 337.392 28.6267 337.792 27.64C338.218 26.6267 338.525 25.24 338.712 23.48C338.898 21.6933 338.992 19.4 338.992 16.6C338.992 13.8267 338.898 11.5467 338.712 9.76C338.525 7.97333 338.218 6.58666 337.792 5.6C337.392 4.58666 336.845 3.89333 336.152 3.52C335.458 3.12 334.605 2.92 333.592 2.92C332.552 2.92 331.685 3.12 330.992 3.52C330.325 3.89333 329.778 4.58666 329.352 5.6C328.952 6.58666 328.658 7.97333 328.472 9.76C328.312 11.5467 328.232 13.8267 328.232 16.6C328.232 19.4 328.312 21.6933 328.472 23.48C328.658 25.24 328.952 26.6267 329.352 27.64C329.778 28.6267 330.325 29.32 330.992 29.72C331.685 30.0933 332.552 30.28 333.592 30.28ZM347.65 31V27.92L356.25 19.92C357.61 18.64 358.663 17.52 359.41 16.56C360.183 15.5733 360.717 14.6267 361.01 13.72C361.33 12.7867 361.49 11.76 361.49 10.64C361.49 8.42667 361.01 6.69333 360.05 5.44C359.117 4.16 357.743 3.52 355.93 3.52C354.837 3.52 353.823 3.74667 352.89 4.2C351.983 4.62667 351.25 5.17333 350.69 5.84C350.13 6.50667 349.85 7.21333 349.85 7.96C349.85 8.25333 349.89 8.45333 349.97 8.56C350.077 8.66666 350.21 8.72 350.37 8.72C350.637 8.72 350.917 8.64 351.21 8.48C351.503 8.32 351.903 8.24 352.41 8.24C353.077 8.24 353.61 8.42667 354.01 8.8C354.437 9.17333 354.65 9.74667 354.65 10.52C354.65 11.4267 354.383 12.08 353.85 12.48C353.317 12.8533 352.677 13.04 351.93 13.04C351.13 13.04 350.463 12.84 349.93 12.44C349.423 12.04 349.037 11.52 348.77 10.88C348.53 10.24 348.41 9.54667 348.41 8.8C348.41 7.28 348.85 6 349.73 4.96C350.61 3.89333 351.743 3.09333 353.13 2.56C354.543 2 356.023 1.72 357.57 1.72C358.69 1.72 359.797 1.88 360.89 2.2C361.983 2.49333 362.983 2.94666 363.89 3.56C364.797 4.17333 365.517 4.96 366.05 5.92C366.583 6.85333 366.85 7.97333 366.85 9.28C366.85 9.92 366.743 10.6267 366.53 11.4C366.317 12.1467 365.903 12.9733 365.29 13.88C364.703 14.76 363.81 15.7333 362.61 16.8L351.21 27V27.16H363.41C364.05 27.16 364.543 27.08 364.89 26.92C365.237 26.76 365.477 26.3867 365.61 25.8C365.77 25.1867 365.85 24.2533 365.85 23H366.85V31H347.65ZM381.463 31.48C379.516 31.48 377.756 30.9867 376.183 30C374.609 28.9867 373.356 27.5733 372.423 25.76C371.489 23.9467 371.023 21.8267 371.023 19.4C371.023 16.8667 371.529 14.5067 372.543 12.32C373.556 10.1067 374.929 8.16 376.663 6.48C378.423 4.8 380.409 3.48 382.623 2.52C384.863 1.53333 387.196 0.999999 389.622 0.919999V2.08C387.329 2.24 385.289 2.84 383.503 3.88C381.743 4.92 380.316 6.30667 379.223 8.04C378.129 9.74667 377.423 11.72 377.103 13.96L377.223 14C377.943 13.36 378.716 12.88 379.543 12.56C380.396 12.2133 381.356 12.04 382.423 12.04C384.209 12.04 385.823 12.4667 387.263 13.32C388.729 14.1467 389.903 15.2667 390.783 16.68C391.663 18.0933 392.103 19.6933 392.103 21.48C392.103 22.92 391.809 24.2533 391.223 25.48C390.636 26.7067 389.836 27.7733 388.823 28.68C387.836 29.56 386.703 30.2533 385.423 30.76C384.169 31.24 382.849 31.48 381.463 31.48ZM381.383 30.28C382.636 30.28 383.609 30.0533 384.303 29.6C385.023 29.12 385.529 28.2667 385.823 27.04C386.143 25.8133 386.303 24.0533 386.303 21.76C386.303 19.44 386.156 17.6667 385.863 16.44C385.596 15.2133 385.169 14.3733 384.583 13.92C384.023 13.4667 383.276 13.24 382.343 13.24C381.116 13.24 380.049 13.52 379.143 14.08C378.236 14.64 377.503 15.3733 376.943 16.28C376.783 17.24 376.676 18.2533 376.623 19.32C376.569 20.3867 376.543 21.3333 376.543 22.16C376.543 24.3733 376.689 26.0667 376.983 27.24C377.303 28.4133 377.823 29.2133 378.543 29.64C379.263 30.0667 380.209 30.28 381.383 30.28ZM488.331 31V30H494.331V3.36H488.331V2.36H499.091V30H504.691V31H488.331ZM514.677 31.48C513.131 31.48 511.731 31.2533 510.477 30.8C509.224 30.3467 508.224 29.72 507.477 28.92C506.757 28.0933 506.397 27.1467 506.397 26.08C506.397 25.2 506.637 24.4933 507.117 23.96C507.624 23.4 508.251 23.12 508.997 23.12C509.717 23.12 510.317 23.32 510.797 23.72C511.304 24.12 511.557 24.6667 511.557 25.36C511.557 25.8133 511.464 26.1733 511.277 26.44C511.091 26.68 510.864 26.8933 510.597 27.08C510.357 27.24 510.144 27.4133 509.957 27.6C509.771 27.7867 509.677 28.04 509.677 28.36C509.677 28.76 509.877 29.1067 510.277 29.4C510.677 29.6933 511.184 29.92 511.797 30.08C512.437 30.2133 513.117 30.28 513.837 30.28C515.864 30.28 517.437 29.6533 518.557 28.4C519.704 27.12 520.277 25.2133 520.277 22.68C520.277 19.9333 519.651 17.9333 518.397 16.68C517.171 15.4 515.597 14.76 513.677 14.76C512.851 14.76 511.997 14.8667 511.117 15.08C510.264 15.2933 509.584 15.5733 509.077 15.92L509.357 14.4C509.544 14.2933 509.877 14.1733 510.357 14.04C510.837 13.9067 511.437 13.7867 512.157 13.68C512.877 13.5733 513.691 13.52 514.597 13.52C516.944 13.52 518.944 13.8933 520.597 14.64C522.277 15.3867 523.557 16.4133 524.437 17.72C525.344 19 525.797 20.4667 525.797 22.12C525.797 23.9067 525.291 25.5067 524.277 26.92C523.291 28.3333 521.957 29.4533 520.277 30.28C518.597 31.08 516.731 31.48 514.677 31.48ZM509.077 15.92L508.437 15.52L509.917 2.36H511.317L509.837 15.16L509.077 15.92ZM510.917 6.2L509.917 2.36H520.557C521.437 2.36 522.064 2.28 522.437 2.12C522.837 1.93333 523.171 1.58667 523.437 1.08H524.437L522.997 6.2H510.917ZM551.231 30.4V16.88C551.231 15.8667 551.004 15.12 550.551 14.64C550.124 14.1333 549.511 13.88 548.711 13.88C547.804 13.88 546.964 14.24 546.191 14.96C545.444 15.68 544.844 16.6667 544.391 17.92C543.964 19.1467 543.751 20.5467 543.751 22.12L542.951 16.32H543.911C544.497 15.2267 545.284 14.32 546.271 13.6C547.257 12.88 548.537 12.52 550.111 12.52C551.737 12.52 553.057 12.9467 554.071 13.8C555.111 14.6267 555.631 15.6533 555.631 16.88V30.4H551.231ZM536.191 31V30H546.351V31H536.191ZM548.191 31V30H558.351V31H548.191ZM539.351 30.4V1.48H543.751V30.4H539.351ZM536.191 1.84V0.84H543.751V1.84H536.191ZM568.779 31.48C567.685 31.48 566.619 31.2933 565.579 30.92C564.565 30.5467 563.739 30.0533 563.099 29.44L562.499 31H561.339V24.88H562.619L562.819 25.64C563.192 27.08 563.859 28.1733 564.819 28.92C565.805 29.6667 567.112 30.04 568.739 30.04C570.072 30.04 571.005 29.8133 571.539 29.36C572.072 28.88 572.339 28.2 572.339 27.32C572.339 26.44 571.979 25.8 571.259 25.4C570.539 24.9733 569.432 24.6 567.939 24.28C566.659 24.0133 565.539 23.68 564.579 23.28C563.645 22.8533 562.912 22.2667 562.379 21.52C561.845 20.7467 561.579 19.6933 561.579 18.36C561.579 16.4667 562.125 15.0267 563.219 14.04C564.312 13.0267 565.872 12.52 567.899 12.52C569.045 12.52 570.032 12.68 570.859 13C571.712 13.32 572.312 13.76 572.659 14.32L573.099 13H574.139V18.8H572.899L572.779 18.2C572.485 16.7067 571.965 15.6267 571.219 14.96C570.499 14.2933 569.419 13.96 567.979 13.96C566.699 13.96 565.739 14.2133 565.099 14.72C564.485 15.2 564.179 15.88 564.179 16.76C564.179 17.1867 564.299 17.5733 564.539 17.92C564.779 18.24 565.219 18.5333 565.859 18.8C566.525 19.0667 567.445 19.3333 568.619 19.6C569.979 19.8933 571.125 20.2667 572.059 20.72C572.992 21.1733 573.699 21.7733 574.179 22.52C574.685 23.2667 574.939 24.24 574.939 25.44C574.939 27.28 574.379 28.7467 573.259 29.84C572.139 30.9333 570.645 31.48 568.779 31.48ZM581.278 31.48C580.478 31.48 579.784 31.2 579.198 30.64C578.638 30.0533 578.358 29.36 578.358 28.56C578.358 27.76 578.638 27.08 579.198 26.52C579.784 25.9333 580.478 25.64 581.278 25.64C582.078 25.64 582.758 25.9333 583.318 26.52C583.904 27.08 584.198 27.76 584.198 28.56C584.198 29.36 583.904 30.0533 583.318 30.64C582.758 31.2 582.078 31.48 581.278 31.48Z" fill="#A58F49"/>
</svg>
