<svg width="129" height="24" viewBox="0 0 129 24" fill="none" xmlns="http://www.w3.org/2000/svg">
<path d="M0.22375 3.96V0.599998H3.16775V3.96H0.22375ZM0.25575 23V21.176L0.99175 6.936H2.36775L3.13575 21.176V23H0.25575ZM19.5993 23.384C12.5593 23.384 8.20725 18.264 8.20725 11.864V11.8C8.20725 5.656 12.7193 0.216 19.4393 0.216C23.2153 0.216 25.5513 1.304 27.7913 3.192L26.1593 5.112C24.4633 3.608 22.4792 2.552 19.3433 2.552C14.3833 2.552 10.8313 6.744 10.8313 11.736V11.8C10.8313 17.144 14.2552 21.112 19.6953 21.112C22.2553 21.112 24.6233 20.12 26.1593 18.872V13.304H19.3433V11.032H28.5913V19.96C26.5113 21.848 23.4073 23.384 19.5993 23.384ZM33.877 23V6.456H36.341V10.776C37.557 8.024 39.957 6.072 43.093 6.168V8.824H42.901C39.285 8.824 36.341 11.416 36.341 16.408V23H33.877ZM50.9613 23.352C47.8893 23.352 44.7853 21.624 44.7853 18.2V18.136C44.7853 14.68 47.6653 12.792 51.8573 12.792C54.0013 12.792 55.4413 13.08 56.9453 13.496V12.92C56.9453 9.944 55.1213 8.408 52.0173 8.408C50.0653 8.408 48.5293 8.888 46.9933 9.624L46.2573 7.608C48.0813 6.744 49.8413 6.232 52.2733 6.232C54.6093 6.232 56.4013 6.84 57.6173 8.056C58.7373 9.176 59.3133 10.808 59.3133 12.888V23H56.9453V20.504C55.7933 22.008 53.9053 23.352 50.9613 23.352ZM51.4413 21.4C54.5133 21.4 56.9773 19.544 56.9773 16.92V15.32C55.7293 14.968 54.1613 14.616 52.1133 14.616C49.0093 14.616 47.2812 15.96 47.2812 18.04V18.104C47.2812 20.184 49.2333 21.4 51.4413 21.4ZM72.0205 23.384C67.1565 23.384 63.5405 19.448 63.5405 14.808V14.744C63.5405 10.04 67.1565 6.104 72.0205 6.104C75.1565 6.104 77.0765 7.384 78.6445 9.048L77.0125 10.776C75.7005 9.4 74.2605 8.28 71.9885 8.28C68.6285 8.28 66.0685 11.096 66.0685 14.68V14.744C66.0685 18.328 68.6925 21.176 72.1485 21.176C74.2925 21.176 75.8925 20.12 77.2045 18.712L78.7725 20.184C77.1085 22.072 75.1245 23.384 72.0205 23.384ZM82.9098 2.84V0.119999H85.7258V2.84H82.9098ZM83.0698 23V6.456H85.5338V23H83.0698ZM96.18 23.352C93.108 23.352 90.004 21.624 90.004 18.2V18.136C90.004 14.68 92.884 12.792 97.076 12.792C99.22 12.792 100.66 13.08 102.164 13.496V12.92C102.164 9.944 100.34 8.408 97.236 8.408C95.284 8.408 93.748 8.888 92.212 9.624L91.476 7.608C93.3 6.744 95.06 6.232 97.492 6.232C99.828 6.232 101.62 6.84 102.836 8.056C103.956 9.176 104.532 10.808 104.532 12.888V23H102.164V20.504C101.012 22.008 99.124 23.352 96.18 23.352ZM96.66 21.4C99.732 21.4 102.196 19.544 102.196 16.92V15.32C100.948 14.968 99.38 14.616 97.332 14.616C94.228 14.616 92.5 15.96 92.5 18.04V18.104C92.5 20.184 94.452 21.4 96.66 21.4ZM115.255 23.32C112.855 23.32 110.295 22.392 108.407 20.888L109.655 19.128C111.447 20.504 113.431 21.24 115.383 21.24C117.399 21.24 118.807 20.248 118.807 18.616V18.552C118.807 16.92 116.855 16.248 114.679 15.64C112.119 14.872 109.207 14.04 109.207 10.968V10.904C109.207 8.056 111.575 6.168 114.839 6.168C116.887 6.168 119.095 6.872 120.791 7.992L119.671 9.848C118.135 8.856 116.407 8.248 114.775 8.248C112.823 8.248 111.575 9.272 111.575 10.648V10.712C111.575 12.28 113.623 12.888 115.831 13.56C118.391 14.328 121.143 15.32 121.143 18.296V18.36C121.143 21.496 118.551 23.32 115.255 23.32ZM126.617 16.664L125.881 2.424V0.599998H128.761V2.424L127.993 16.664H126.617ZM125.849 23V19.64H128.793V23H125.849Z" fill="#364936"/>
</svg>
