<svg width="865" height="53" viewBox="0 0 865 53" fill="none" xmlns="http://www.w3.org/2000/svg">
<path d="M0.489524 17V1.6H2.22752V15.394H10.8955V17H0.489524ZM18.8018 17.264C15.3918 17.264 12.9058 14.58 12.9058 11.368V11.324C12.9058 8.09 15.3918 5.384 18.8458 5.384C22.2778 5.384 24.7638 8.068 24.7638 11.28V11.324C24.7638 14.558 22.2338 17.264 18.8018 17.264ZM18.8458 15.746C21.3098 15.746 23.0258 13.744 23.0258 11.368V11.324C23.0258 8.882 21.1998 6.88 18.8018 6.88C16.3378 6.88 14.6438 8.882 14.6438 11.28V11.324C14.6438 13.766 16.4478 15.746 18.8458 15.746ZM34.4281 17V5.626H36.1221V7.54C36.8921 6.396 37.8821 5.384 39.7961 5.384C41.6441 5.384 42.8321 6.352 43.4481 7.65C44.2841 6.396 45.4501 5.384 47.4521 5.384C50.0921 5.384 51.6761 7.122 51.6761 9.96V17H49.9821V10.356C49.9821 8.156 48.8821 6.924 47.0341 6.924C45.3401 6.924 43.8881 8.2 43.8881 10.444V17H42.2161V10.312C42.2161 8.178 41.1161 6.924 39.2901 6.924C37.4861 6.924 36.1221 8.42 36.1221 10.51V17H34.4281ZM58.6775 17.242C56.5655 17.242 54.4315 16.054 54.4315 13.7V13.656C54.4315 11.28 56.4115 9.982 59.2935 9.982C60.7675 9.982 61.7575 10.18 62.7915 10.466V10.07C62.7915 8.024 61.5375 6.968 59.4035 6.968C58.0615 6.968 57.0055 7.298 55.9495 7.804L55.4435 6.418C56.6975 5.824 57.9075 5.472 59.5795 5.472C61.1855 5.472 62.4175 5.89 63.2535 6.726C64.0235 7.496 64.4195 8.618 64.4195 10.048V17H62.7915V15.284C61.9995 16.318 60.7015 17.242 58.6775 17.242ZM59.0075 15.9C61.1195 15.9 62.8135 14.624 62.8135 12.82V11.72C61.9555 11.478 60.8775 11.236 59.4695 11.236C57.3355 11.236 56.1475 12.16 56.1475 13.59V13.634C56.1475 15.064 57.4895 15.9 59.0075 15.9ZM59.0735 3.91L61.1415 0.72L62.9015 1.534L60.3935 3.91H59.0735ZM71.7917 17.22C70.1417 17.22 68.3817 16.582 67.0837 15.548L67.9417 14.338C69.1737 15.284 70.5377 15.79 71.8797 15.79C73.2657 15.79 74.2337 15.108 74.2337 13.986V13.942C74.2337 12.82 72.8917 12.358 71.3957 11.94C69.6357 11.412 67.6337 10.84 67.6337 8.728V8.684C67.6337 6.726 69.2617 5.428 71.5057 5.428C72.9137 5.428 74.4317 5.912 75.5977 6.682L74.8277 7.958C73.7717 7.276 72.5837 6.858 71.4617 6.858C70.1197 6.858 69.2617 7.562 69.2617 8.508V8.552C69.2617 9.63 70.6697 10.048 72.1877 10.51C73.9477 11.038 75.8397 11.72 75.8397 13.766V13.81C75.8397 15.966 74.0577 17.22 71.7917 17.22ZM85.6264 3.14V1.27H87.5624V3.14H85.6264ZM85.7364 17V5.626H87.4304V17H85.7364ZM91.3617 17V5.626H93.0557V7.54C93.8257 6.396 94.8157 5.384 96.7297 5.384C98.5777 5.384 99.7657 6.352 100.382 7.65C101.218 6.396 102.384 5.384 104.386 5.384C107.026 5.384 108.61 7.122 108.61 9.96V17H106.916V10.356C106.916 8.156 105.816 6.924 103.968 6.924C102.274 6.924 100.822 8.2 100.822 10.444V17H99.1497V10.312C99.1497 8.178 98.0497 6.924 96.2237 6.924C94.4197 6.924 93.0557 8.42 93.0557 10.51V17H91.3617ZM112.223 20.52V5.626H113.917V7.914C114.863 6.572 116.161 5.384 118.273 5.384C121.001 5.384 123.707 7.54 123.707 11.28V11.324C123.707 15.02 121.023 17.242 118.273 17.242C116.161 17.242 114.797 16.12 113.917 14.822V20.52H112.223ZM117.965 15.724C120.165 15.724 121.969 14.096 121.969 11.346V11.302C121.969 8.596 120.143 6.902 117.965 6.902C115.853 6.902 113.851 8.706 113.851 11.28V11.324C113.851 13.964 115.853 15.724 117.965 15.724ZM132.024 17.264C128.614 17.264 126.128 14.58 126.128 11.368V11.324C126.128 8.09 128.614 5.384 132.068 5.384C135.5 5.384 137.986 8.068 137.986 11.28V11.324C137.986 14.558 135.456 17.264 132.024 17.264ZM132.068 15.746C134.532 15.746 136.248 13.744 136.248 11.368V11.324C136.248 8.882 134.422 6.88 132.024 6.88C129.56 6.88 127.866 8.882 127.866 11.28V11.324C127.866 13.766 129.67 15.746 132.068 15.746ZM141.055 17V5.626H142.749V8.596C143.585 6.704 145.235 5.362 147.391 5.428V7.254H147.259C144.773 7.254 142.749 9.036 142.749 12.468V17H141.055ZM153.777 17.198C151.929 17.198 150.565 16.296 150.565 13.986V7.122H148.981V5.626H150.565V2.194H152.259V5.626H155.867V7.122H152.259V13.766C152.259 15.174 153.029 15.658 154.173 15.658C154.767 15.658 155.229 15.548 155.823 15.262V16.714C155.229 17.044 154.591 17.198 153.777 17.198ZM162.254 17.242C160.142 17.242 158.008 16.054 158.008 13.7V13.656C158.008 11.28 159.988 9.982 162.87 9.982C164.344 9.982 165.334 10.18 166.368 10.466V10.07C166.368 8.024 165.114 6.968 162.98 6.968C161.638 6.968 160.582 7.298 159.526 7.804L159.02 6.418C160.274 5.824 161.484 5.472 163.156 5.472C164.762 5.472 165.994 5.89 166.83 6.726C167.6 7.496 167.996 8.618 167.996 10.048V17H166.368V15.284C165.576 16.318 164.278 17.242 162.254 17.242ZM162.584 15.9C164.696 15.9 166.39 14.624 166.39 12.82V11.72C165.532 11.478 164.454 11.236 163.046 11.236C160.912 11.236 159.724 12.16 159.724 13.59V13.634C159.724 15.064 161.066 15.9 162.584 15.9ZM171.606 17V5.626H173.3V7.606C174.07 6.374 175.236 5.384 177.194 5.384C179.922 5.384 181.55 7.232 181.55 9.938V17H179.856V10.356C179.856 8.244 178.734 6.924 176.71 6.924C174.752 6.924 173.3 8.354 173.3 10.488V17H171.606ZM188.969 17.198C187.121 17.198 185.757 16.296 185.757 13.986V7.122H184.173V5.626H185.757V2.194H187.451V5.626H191.059V7.122H187.451V13.766C187.451 15.174 188.221 15.658 189.365 15.658C189.959 15.658 190.421 15.548 191.015 15.262V16.714C190.421 17.044 189.783 17.198 188.969 17.198ZM198.707 17.264C195.605 17.264 193.031 14.866 193.031 11.346V11.302C193.031 8.024 195.319 5.384 198.487 5.384C201.853 5.384 203.789 8.068 203.789 11.39C203.789 11.632 203.789 11.742 203.767 11.94H194.747C194.989 14.404 196.727 15.79 198.751 15.79C200.335 15.79 201.391 15.152 202.337 14.184L203.393 15.13C202.249 16.428 200.885 17.264 198.707 17.264ZM194.747 10.686H202.073C201.897 8.64 200.731 6.814 198.443 6.814C196.441 6.814 194.989 8.486 194.747 10.686ZM213.35 20.52V5.626H215.044V7.914C215.99 6.572 217.288 5.384 219.4 5.384C222.128 5.384 224.834 7.54 224.834 11.28V11.324C224.834 15.02 222.15 17.242 219.4 17.242C217.288 17.242 215.924 16.12 215.044 14.822V20.52H213.35ZM219.092 15.724C221.292 15.724 223.096 14.096 223.096 11.346V11.302C223.096 8.596 221.27 6.902 219.092 6.902C216.98 6.902 214.978 8.706 214.978 11.28V11.324C214.978 13.964 216.98 15.724 219.092 15.724ZM231.347 17.242C229.235 17.242 227.101 16.054 227.101 13.7V13.656C227.101 11.28 229.081 9.982 231.963 9.982C233.437 9.982 234.427 10.18 235.461 10.466V10.07C235.461 8.024 234.207 6.968 232.073 6.968C230.731 6.968 229.675 7.298 228.619 7.804L228.113 6.418C229.367 5.824 230.577 5.472 232.249 5.472C233.855 5.472 235.087 5.89 235.923 6.726C236.693 7.496 237.089 8.618 237.089 10.048V17H235.461V15.284C234.669 16.318 233.371 17.242 231.347 17.242ZM231.677 15.9C233.789 15.9 235.483 14.624 235.483 12.82V11.72C234.625 11.478 233.547 11.236 232.139 11.236C230.005 11.236 228.817 12.16 228.817 13.59V13.634C228.817 15.064 230.159 15.9 231.677 15.9ZM240.7 17V5.626H242.394V8.596C243.23 6.704 244.88 5.362 247.036 5.428V7.254H246.904C244.418 7.254 242.394 9.036 242.394 12.468V17H240.7ZM252.445 17.242C250.333 17.242 248.199 16.054 248.199 13.7V13.656C248.199 11.28 250.179 9.982 253.061 9.982C254.535 9.982 255.525 10.18 256.559 10.466V10.07C256.559 8.024 255.305 6.968 253.171 6.968C251.829 6.968 250.773 7.298 249.717 7.804L249.211 6.418C250.465 5.824 251.675 5.472 253.347 5.472C254.953 5.472 256.185 5.89 257.021 6.726C257.791 7.496 258.187 8.618 258.187 10.048V17H256.559V15.284C255.767 16.318 254.469 17.242 252.445 17.242ZM252.775 15.9C254.887 15.9 256.581 14.624 256.581 12.82V11.72C255.723 11.478 254.645 11.236 253.237 11.236C251.103 11.236 249.915 12.16 249.915 13.59V13.634C249.915 15.064 251.257 15.9 252.775 15.9ZM268.393 17V5.626H270.087V7.606C270.857 6.374 272.023 5.384 273.981 5.384C276.709 5.384 278.337 7.232 278.337 9.938V17H276.643V10.356C276.643 8.244 275.521 6.924 273.497 6.924C271.539 6.924 270.087 8.354 270.087 10.488V17H268.393ZM287.142 17.264C283.732 17.264 281.246 14.58 281.246 11.368V11.324C281.246 8.09 283.732 5.384 287.186 5.384C290.618 5.384 293.104 8.068 293.104 11.28V11.324C293.104 14.558 290.574 17.264 287.142 17.264ZM287.186 15.746C289.65 15.746 291.366 13.744 291.366 11.368V11.324C291.366 8.882 289.54 6.88 287.142 6.88C284.678 6.88 282.984 8.882 282.984 11.28V11.324C282.984 13.766 284.788 15.746 287.186 15.746ZM299.934 17.22C298.284 17.22 296.524 16.582 295.226 15.548L296.084 14.338C297.316 15.284 298.68 15.79 300.022 15.79C301.408 15.79 302.376 15.108 302.376 13.986V13.942C302.376 12.82 301.034 12.358 299.538 11.94C297.778 11.412 295.776 10.84 295.776 8.728V8.684C295.776 6.726 297.404 5.428 299.648 5.428C301.056 5.428 302.574 5.912 303.74 6.682L302.97 7.958C301.914 7.276 300.726 6.858 299.604 6.858C298.262 6.858 297.404 7.562 297.404 8.508V8.552C297.404 9.63 298.812 10.048 300.33 10.51C302.09 11.038 303.982 11.72 303.982 13.766V13.81C303.982 15.966 302.2 17.22 299.934 17.22ZM312.321 17.264C308.911 17.264 306.425 14.58 306.425 11.368V11.324C306.425 8.09 308.911 5.384 312.365 5.384C315.797 5.384 318.283 8.068 318.283 11.28V11.324C318.283 14.558 315.753 17.264 312.321 17.264ZM312.365 15.746C314.829 15.746 316.545 13.744 316.545 11.368V11.324C316.545 8.882 314.719 6.88 312.321 6.88C309.857 6.88 308.163 8.882 308.163 11.28V11.324C308.163 13.766 309.967 15.746 312.365 15.746ZM325.158 17.198C323.31 17.198 321.946 16.296 321.946 13.986V7.122H320.362V5.626H321.946V2.194H323.64V5.626H327.248V7.122H323.64V13.766C323.64 15.174 324.41 15.658 325.554 15.658C326.148 15.658 326.61 15.548 327.204 15.262V16.714C326.61 17.044 325.972 17.198 325.158 17.198ZM330.246 17V5.626H331.94V8.596C332.776 6.704 334.426 5.362 336.582 5.428V7.254H336.45C333.964 7.254 331.94 9.036 331.94 12.468V17H330.246ZM343.86 17.264C340.45 17.264 337.964 14.58 337.964 11.368V11.324C337.964 8.09 340.45 5.384 343.904 5.384C347.336 5.384 349.822 8.068 349.822 11.28V11.324C349.822 14.558 347.292 17.264 343.86 17.264ZM343.904 15.746C346.368 15.746 348.084 13.744 348.084 11.368V11.324C348.084 8.882 346.258 6.88 343.86 6.88C341.396 6.88 339.702 8.882 339.702 11.28V11.324C339.702 13.766 341.506 15.746 343.904 15.746ZM356.653 17.22C355.003 17.22 353.243 16.582 351.945 15.548L352.803 14.338C354.035 15.284 355.399 15.79 356.741 15.79C358.127 15.79 359.095 15.108 359.095 13.986V13.942C359.095 12.82 357.753 12.358 356.257 11.94C354.497 11.412 352.495 10.84 352.495 8.728V8.684C352.495 6.726 354.123 5.428 356.367 5.428C357.775 5.428 359.293 5.912 360.459 6.682L359.689 7.958C358.633 7.276 357.445 6.858 356.323 6.858C354.981 6.858 354.123 7.562 354.123 8.508V8.552C354.123 9.63 355.531 10.048 357.049 10.51C358.809 11.038 360.701 11.72 360.701 13.766V13.81C360.701 15.966 358.919 17.22 356.653 17.22ZM375.416 17.264C372.314 17.264 369.74 14.866 369.74 11.346V11.302C369.74 8.024 372.028 5.384 375.196 5.384C378.562 5.384 380.498 8.068 380.498 11.39C380.498 11.632 380.498 11.742 380.476 11.94H371.456C371.698 14.404 373.436 15.79 375.46 15.79C377.044 15.79 378.1 15.152 379.046 14.184L380.102 15.13C378.958 16.428 377.594 17.264 375.416 17.264ZM371.456 10.686H378.782C378.606 8.64 377.44 6.814 375.152 6.814C373.15 6.814 371.698 8.486 371.456 10.686ZM387.225 17.22C385.575 17.22 383.815 16.582 382.517 15.548L383.375 14.338C384.607 15.284 385.971 15.79 387.313 15.79C388.699 15.79 389.667 15.108 389.667 13.986V13.942C389.667 12.82 388.325 12.358 386.829 11.94C385.069 11.412 383.067 10.84 383.067 8.728V8.684C383.067 6.726 384.695 5.428 386.939 5.428C388.347 5.428 389.865 5.912 391.031 6.682L390.261 7.958C389.205 7.276 388.017 6.858 386.895 6.858C385.553 6.858 384.695 7.562 384.695 8.508V8.552C384.695 9.63 386.103 10.048 387.621 10.51C389.381 11.038 391.273 11.72 391.273 13.766V13.81C391.273 15.966 389.491 17.22 387.225 17.22ZM410.146 20.52V14.712C409.2 16.076 407.902 17.242 405.79 17.242C403.062 17.242 400.356 15.086 400.356 11.346V11.302C400.356 7.606 403.062 5.384 405.79 5.384C407.902 5.384 409.266 6.506 410.146 7.804V5.626H411.84V20.52H410.146ZM406.098 15.724C408.21 15.724 410.212 13.942 410.212 11.324V11.28C410.212 8.662 408.21 6.902 406.098 6.902C403.898 6.902 402.094 8.53 402.094 11.28V11.324C402.094 14.03 403.92 15.724 406.098 15.724ZM419.805 17.242C417.077 17.242 415.449 15.394 415.449 12.688V5.626H417.143V12.27C417.143 14.382 418.265 15.702 420.289 15.702C422.225 15.702 423.699 14.272 423.699 12.138V5.626H425.371V17H423.699V15.02C422.929 16.252 421.763 17.242 419.805 17.242ZM434.154 17.264C431.052 17.264 428.478 14.866 428.478 11.346V11.302C428.478 8.024 430.766 5.384 433.934 5.384C437.3 5.384 439.236 8.068 439.236 11.39C439.236 11.632 439.236 11.742 439.214 11.94H430.194C430.436 14.404 432.174 15.79 434.198 15.79C435.782 15.79 436.838 15.152 437.784 14.184L438.84 15.13C437.696 16.428 436.332 17.264 434.154 17.264ZM430.194 10.686H437.52C437.344 8.64 436.178 6.814 433.89 6.814C431.888 6.814 430.436 8.486 430.194 10.686ZM453.769 17.264C450.667 17.264 448.093 14.866 448.093 11.346V11.302C448.093 8.024 450.381 5.384 453.549 5.384C456.915 5.384 458.851 8.068 458.851 11.39C458.851 11.632 458.851 11.742 458.829 11.94H449.809C450.051 14.404 451.789 15.79 453.813 15.79C455.397 15.79 456.453 15.152 457.399 14.184L458.455 15.13C457.311 16.428 455.947 17.264 453.769 17.264ZM449.809 10.686H457.135C456.959 8.64 455.793 6.814 453.505 6.814C451.503 6.814 450.051 8.486 449.809 10.686ZM465.579 17.22C463.929 17.22 462.169 16.582 460.871 15.548L461.729 14.338C462.961 15.284 464.325 15.79 465.667 15.79C467.053 15.79 468.021 15.108 468.021 13.986V13.942C468.021 12.82 466.679 12.358 465.183 11.94C463.423 11.412 461.421 10.84 461.421 8.728V8.684C461.421 6.726 463.049 5.428 465.293 5.428C466.701 5.428 468.219 5.912 469.385 6.682L468.615 7.958C467.559 7.276 466.371 6.858 465.249 6.858C463.907 6.858 463.049 7.562 463.049 8.508V8.552C463.049 9.63 464.457 10.048 465.975 10.51C467.735 11.038 469.627 11.72 469.627 13.766V13.81C469.627 15.966 467.845 17.22 465.579 17.22ZM476.365 17.198C474.517 17.198 473.153 16.296 473.153 13.986V7.122H471.569V5.626H473.153V2.194H474.847V5.626H478.455V7.122H474.847V13.766C474.847 15.174 475.617 15.658 476.761 15.658C477.355 15.658 477.817 15.548 478.411 15.262V16.714C477.817 17.044 477.179 17.198 476.365 17.198ZM485.179 3.91L487.247 0.72L489.007 1.534L486.499 3.91H485.179ZM486.103 17.264C483.001 17.264 480.427 14.866 480.427 11.346V11.302C480.427 8.024 482.715 5.384 485.883 5.384C489.249 5.384 491.185 8.068 491.185 11.39C491.185 11.632 491.185 11.742 491.163 11.94H482.143C482.385 14.404 484.123 15.79 486.147 15.79C487.731 15.79 488.787 15.152 489.733 14.184L490.789 15.13C489.645 16.428 488.281 17.264 486.103 17.264ZM482.143 10.686H489.469C489.293 8.64 488.127 6.814 485.839 6.814C483.837 6.814 482.385 8.486 482.143 10.686ZM497.913 17.22C496.263 17.22 494.503 16.582 493.205 15.548L494.063 14.338C495.295 15.284 496.659 15.79 498.001 15.79C499.387 15.79 500.355 15.108 500.355 13.986V13.942C500.355 12.82 499.013 12.358 497.517 11.94C495.757 11.412 493.755 10.84 493.755 8.728V8.684C493.755 6.726 495.383 5.428 497.627 5.428C499.035 5.428 500.553 5.912 501.719 6.682L500.949 7.958C499.893 7.276 498.705 6.858 497.583 6.858C496.241 6.858 495.383 7.562 495.383 8.508V8.552C495.383 9.63 496.791 10.048 498.309 10.51C500.069 11.038 501.961 11.72 501.961 13.766V13.81C501.961 15.966 500.179 17.22 497.913 17.22ZM511.704 20.52V5.626H513.398V7.914C514.344 6.572 515.642 5.384 517.754 5.384C520.482 5.384 523.188 7.54 523.188 11.28V11.324C523.188 15.02 520.504 17.242 517.754 17.242C515.642 17.242 514.278 16.12 513.398 14.822V20.52H511.704ZM517.446 15.724C519.646 15.724 521.45 14.096 521.45 11.346V11.302C521.45 8.596 519.624 6.902 517.446 6.902C515.334 6.902 513.332 8.706 513.332 11.28V11.324C513.332 13.964 515.334 15.724 517.446 15.724ZM526.313 17V5.626H528.007V8.596C528.843 6.704 530.493 5.362 532.649 5.428V7.254H532.517C530.031 7.254 528.007 9.036 528.007 12.468V17H526.313ZM539.707 17.264C536.605 17.264 534.031 14.866 534.031 11.346V11.302C534.031 8.024 536.319 5.384 539.487 5.384C542.853 5.384 544.789 8.068 544.789 11.39C544.789 11.632 544.789 11.742 544.767 11.94H535.747C535.989 14.404 537.727 15.79 539.751 15.79C541.335 15.79 542.391 15.152 543.337 14.184L544.393 15.13C543.249 16.428 541.885 17.264 539.707 17.264ZM535.747 10.686H543.073C542.897 8.64 541.731 6.814 539.443 6.814C537.441 6.814 535.989 8.486 535.747 10.686ZM551.516 17.22C549.866 17.22 548.106 16.582 546.808 15.548L547.666 14.338C548.898 15.284 550.262 15.79 551.604 15.79C552.99 15.79 553.958 15.108 553.958 13.986V13.942C553.958 12.82 552.616 12.358 551.12 11.94C549.36 11.412 547.358 10.84 547.358 8.728V8.684C547.358 6.726 548.986 5.428 551.23 5.428C552.638 5.428 554.156 5.912 555.322 6.682L554.552 7.958C553.496 7.276 552.308 6.858 551.186 6.858C549.844 6.858 548.986 7.562 548.986 8.508V8.552C548.986 9.63 550.394 10.048 551.912 10.51C553.672 11.038 555.564 11.72 555.564 13.766V13.81C555.564 15.966 553.782 17.22 551.516 17.22ZM563.683 17.264C560.581 17.264 558.007 14.866 558.007 11.346V11.302C558.007 8.024 560.295 5.384 563.463 5.384C566.829 5.384 568.765 8.068 568.765 11.39C568.765 11.632 568.765 11.742 568.743 11.94H559.723C559.965 14.404 561.703 15.79 563.727 15.79C565.311 15.79 566.367 15.152 567.313 14.184L568.369 15.13C567.225 16.428 565.861 17.264 563.683 17.264ZM559.723 10.686H567.049C566.873 8.64 565.707 6.814 563.419 6.814C561.417 6.814 559.965 8.486 559.723 10.686ZM571.731 17V5.626H573.425V7.606C574.195 6.374 575.361 5.384 577.319 5.384C580.047 5.384 581.675 7.232 581.675 9.938V17H579.981V10.356C579.981 8.244 578.859 6.924 576.835 6.924C574.877 6.924 573.425 8.354 573.425 10.488V17H571.731ZM589.094 17.198C587.246 17.198 585.882 16.296 585.882 13.986V7.122H584.298V5.626H585.882V2.194H587.576V5.626H591.184V7.122H587.576V13.766C587.576 15.174 588.346 15.658 589.49 15.658C590.084 15.658 590.546 15.548 591.14 15.262V16.714C590.546 17.044 589.908 17.198 589.094 17.198ZM598.832 17.264C595.73 17.264 593.156 14.866 593.156 11.346V11.302C593.156 8.024 595.444 5.384 598.612 5.384C601.978 5.384 603.914 8.068 603.914 11.39C603.914 11.632 603.914 11.742 603.892 11.94H594.872C595.114 14.404 596.852 15.79 598.876 15.79C600.46 15.79 601.516 15.152 602.462 14.184L603.518 15.13C602.374 16.428 601.01 17.264 598.832 17.264ZM594.872 10.686H602.198C602.022 8.64 600.856 6.814 598.568 6.814C596.566 6.814 595.114 8.486 594.872 10.686ZM618.447 17.264C615.345 17.264 612.771 14.866 612.771 11.346V11.302C612.771 8.024 615.059 5.384 618.227 5.384C621.593 5.384 623.529 8.068 623.529 11.39C623.529 11.632 623.529 11.742 623.507 11.94H614.487C614.729 14.404 616.467 15.79 618.491 15.79C620.075 15.79 621.131 15.152 622.077 14.184L623.133 15.13C621.989 16.428 620.625 17.264 618.447 17.264ZM614.487 10.686H621.813C621.637 8.64 620.471 6.814 618.183 6.814C616.181 6.814 614.729 8.486 614.487 10.686ZM626.495 17V5.626H628.189V7.606C628.959 6.374 630.125 5.384 632.083 5.384C634.811 5.384 636.439 7.232 636.439 9.938V17H634.745V10.356C634.745 8.244 633.623 6.924 631.599 6.924C629.641 6.924 628.189 8.354 628.189 10.488V17H626.495ZM651.619 17.264C648.517 17.264 645.943 14.866 645.943 11.346V11.302C645.943 8.024 648.231 5.384 651.399 5.384C654.765 5.384 656.701 8.068 656.701 11.39C656.701 11.632 656.701 11.742 656.679 11.94H647.659C647.901 14.404 649.639 15.79 651.663 15.79C653.247 15.79 654.303 15.152 655.249 14.184L656.305 15.13C655.161 16.428 653.797 17.264 651.619 17.264ZM647.659 10.686H654.985C654.809 8.64 653.643 6.814 651.355 6.814C649.353 6.814 647.901 8.486 647.659 10.686ZM663.428 17.22C661.778 17.22 660.018 16.582 658.72 15.548L659.578 14.338C660.81 15.284 662.174 15.79 663.516 15.79C664.902 15.79 665.87 15.108 665.87 13.986V13.942C665.87 12.82 664.528 12.358 663.032 11.94C661.272 11.412 659.27 10.84 659.27 8.728V8.684C659.27 6.726 660.898 5.428 663.142 5.428C664.55 5.428 666.068 5.912 667.234 6.682L666.464 7.958C665.408 7.276 664.22 6.858 663.098 6.858C661.756 6.858 660.898 7.562 660.898 8.508V8.552C660.898 9.63 662.306 10.048 663.824 10.51C665.584 11.038 667.476 11.72 667.476 13.766V13.81C667.476 15.966 665.694 17.22 663.428 17.22ZM674.215 17.198C672.367 17.198 671.003 16.296 671.003 13.986V7.122H669.419V5.626H671.003V2.194H672.697V5.626H676.305V7.122H672.697V13.766C672.697 15.174 673.467 15.658 674.611 15.658C675.205 15.658 675.667 15.548 676.261 15.262V16.714C675.667 17.044 675.029 17.198 674.215 17.198ZM683.953 17.264C680.851 17.264 678.277 14.866 678.277 11.346V11.302C678.277 8.024 680.565 5.384 683.733 5.384C687.099 5.384 689.035 8.068 689.035 11.39C689.035 11.632 689.035 11.742 689.013 11.94H679.993C680.235 14.404 681.973 15.79 683.997 15.79C685.581 15.79 686.637 15.152 687.583 14.184L688.639 15.13C687.495 16.428 686.131 17.264 683.953 17.264ZM679.993 10.686H687.319C687.143 8.64 685.977 6.814 683.689 6.814C681.687 6.814 680.235 8.486 679.993 10.686ZM703.37 17.242C700.642 17.242 697.936 15.086 697.936 11.346V11.302C697.936 7.606 700.642 5.384 703.37 5.384C705.482 5.384 706.846 6.506 707.726 7.804V0.94H709.42V17H707.726V14.712C706.78 16.076 705.482 17.242 703.37 17.242ZM703.678 15.724C705.79 15.724 707.792 13.942 707.792 11.324V11.28C707.792 8.662 705.79 6.902 703.678 6.902C701.478 6.902 699.674 8.53 699.674 11.28V11.324C699.674 14.03 701.5 15.724 703.678 15.724ZM713.557 3.91L715.625 0.72L717.385 1.534L714.877 3.91H713.557ZM713.359 17V5.626H715.053V17H713.359ZM722.373 17.242C720.261 17.242 718.127 16.054 718.127 13.7V13.656C718.127 11.28 720.107 9.982 722.989 9.982C724.463 9.982 725.453 10.18 726.487 10.466V10.07C726.487 8.024 725.233 6.968 723.099 6.968C721.757 6.968 720.701 7.298 719.645 7.804L719.139 6.418C720.393 5.824 721.603 5.472 723.275 5.472C724.881 5.472 726.113 5.89 726.949 6.726C727.719 7.496 728.115 8.618 728.115 10.048V17H726.487V15.284C725.695 16.318 724.397 17.242 722.373 17.242ZM722.703 15.9C724.815 15.9 726.509 14.624 726.509 12.82V11.72C725.651 11.478 724.573 11.236 723.165 11.236C721.031 11.236 719.843 12.16 719.843 13.59V13.634C719.843 15.064 721.185 15.9 722.703 15.9ZM742.127 17.198C740.279 17.198 738.915 16.296 738.915 13.986V7.122H737.331V5.626H738.915V2.194H740.609V5.626H744.217V7.122H740.609V13.766C740.609 15.174 741.379 15.658 742.523 15.658C743.117 15.658 743.579 15.548 744.173 15.262V16.714C743.579 17.044 742.941 17.198 742.127 17.198ZM750.603 17.242C748.491 17.242 746.357 16.054 746.357 13.7V13.656C746.357 11.28 748.337 9.982 751.219 9.982C752.693 9.982 753.683 10.18 754.717 10.466V10.07C754.717 8.024 753.463 6.968 751.329 6.968C749.987 6.968 748.931 7.298 747.875 7.804L747.369 6.418C748.623 5.824 749.833 5.472 751.505 5.472C753.111 5.472 754.343 5.89 755.179 6.726C755.949 7.496 756.345 8.618 756.345 10.048V17H754.717V15.284C753.925 16.318 752.627 17.242 750.603 17.242ZM750.933 15.9C753.045 15.9 754.739 14.624 754.739 12.82V11.72C753.881 11.478 752.803 11.236 751.395 11.236C749.261 11.236 748.073 12.16 748.073 13.59V13.634C748.073 15.064 749.415 15.9 750.933 15.9ZM759.955 17V5.626H761.649V7.606C762.419 6.374 763.585 5.384 765.543 5.384C768.271 5.384 769.899 7.232 769.899 9.938V17H768.205V10.356C768.205 8.244 767.083 6.924 765.059 6.924C763.101 6.924 761.649 8.354 761.649 10.488V17H759.955ZM785.08 17.264C781.978 17.264 779.404 14.866 779.404 11.346V11.302C779.404 8.024 781.692 5.384 784.86 5.384C788.226 5.384 790.162 8.068 790.162 11.39C790.162 11.632 790.162 11.742 790.14 11.94H781.12C781.362 14.404 783.1 15.79 785.124 15.79C786.708 15.79 787.764 15.152 788.71 14.184L789.766 15.13C788.622 16.428 787.258 17.264 785.08 17.264ZM781.12 10.686H788.446C788.27 8.64 787.104 6.814 784.816 6.814C782.814 6.814 781.362 8.486 781.12 10.686ZM796.889 17.22C795.239 17.22 793.479 16.582 792.181 15.548L793.039 14.338C794.271 15.284 795.635 15.79 796.977 15.79C798.363 15.79 799.331 15.108 799.331 13.986V13.942C799.331 12.82 797.989 12.358 796.493 11.94C794.733 11.412 792.731 10.84 792.731 8.728V8.684C792.731 6.726 794.359 5.428 796.603 5.428C798.011 5.428 799.529 5.912 800.695 6.682L799.925 7.958C798.869 7.276 797.681 6.858 796.559 6.858C795.217 6.858 794.359 7.562 794.359 8.508V8.552C794.359 9.63 795.767 10.048 797.285 10.51C799.045 11.038 800.937 11.72 800.937 13.766V13.81C800.937 15.966 799.155 17.22 796.889 17.22ZM804.084 20.52V5.626H805.778V7.914C806.724 6.572 808.022 5.384 810.134 5.384C812.862 5.384 815.568 7.54 815.568 11.28V11.324C815.568 15.02 812.884 17.242 810.134 17.242C808.022 17.242 806.658 16.12 805.778 14.822V20.52H804.084ZM809.826 15.724C812.026 15.724 813.83 14.096 813.83 11.346V11.302C813.83 8.596 812.004 6.902 809.826 6.902C807.714 6.902 805.712 8.706 805.712 11.28V11.324C805.712 13.964 807.714 15.724 809.826 15.724ZM823.666 17.264C820.564 17.264 817.99 14.866 817.99 11.346V11.302C817.99 8.024 820.278 5.384 823.446 5.384C826.812 5.384 828.748 8.068 828.748 11.39C828.748 11.632 828.748 11.742 828.726 11.94H819.706C819.948 14.404 821.686 15.79 823.71 15.79C825.294 15.79 826.35 15.152 827.296 14.184L828.352 15.13C827.208 16.428 825.844 17.264 823.666 17.264ZM819.706 10.686H827.032C826.856 8.64 825.69 6.814 823.402 6.814C821.4 6.814 819.948 8.486 819.706 10.686ZM836.839 17.264C833.495 17.264 831.009 14.558 831.009 11.368V11.324C831.009 8.09 833.495 5.384 836.839 5.384C838.995 5.384 840.315 6.264 841.393 7.408L840.271 8.596C839.369 7.65 838.379 6.88 836.817 6.88C834.507 6.88 832.747 8.816 832.747 11.28V11.324C832.747 13.788 834.551 15.746 836.927 15.746C838.401 15.746 839.501 15.02 840.403 14.052L841.481 15.064C840.337 16.362 838.973 17.264 836.839 17.264ZM844.326 3.14V1.27H846.262V3.14H844.326ZM844.436 17V5.626H846.13V17H844.436ZM853.449 17.242C851.337 17.242 849.203 16.054 849.203 13.7V13.656C849.203 11.28 851.183 9.982 854.065 9.982C855.539 9.982 856.529 10.18 857.563 10.466V10.07C857.563 8.024 856.309 6.968 854.175 6.968C852.833 6.968 851.777 7.298 850.721 7.804L850.215 6.418C851.469 5.824 852.679 5.472 854.351 5.472C855.957 5.472 857.189 5.89 858.025 6.726C858.795 7.496 859.191 8.618 859.191 10.048V17H857.563V15.284C856.771 16.318 855.473 17.242 853.449 17.242ZM853.779 15.9C855.891 15.9 857.585 14.624 857.585 12.82V11.72C856.727 11.478 855.649 11.236 854.241 11.236C852.107 11.236 850.919 12.16 850.919 13.59V13.634C850.919 15.064 852.261 15.9 853.779 15.9ZM862.955 17V0.94H864.649V17H862.955ZM93.5169 49V33.6H99.2809C102.757 33.6 105.045 35.448 105.045 38.484V38.528C105.045 41.85 102.273 43.566 98.9949 43.566H95.2549V49H93.5169ZM95.2549 41.982H99.0609C101.613 41.982 103.285 40.618 103.285 38.594V38.55C103.285 36.35 101.635 35.206 99.1489 35.206H95.2549V41.982ZM112.791 49.264C109.689 49.264 107.115 46.866 107.115 43.346V43.302C107.115 40.024 109.403 37.384 112.571 37.384C115.937 37.384 117.873 40.068 117.873 43.39C117.873 43.632 117.873 43.742 117.851 43.94H108.831C109.073 46.404 110.811 47.79 112.835 47.79C114.419 47.79 115.475 47.152 116.421 46.184L117.477 47.13C116.333 48.428 114.969 49.264 112.791 49.264ZM108.831 42.686H116.157C115.981 40.64 114.815 38.814 112.527 38.814C110.525 38.814 109.073 40.486 108.831 42.686ZM120.838 49V37.626H122.532V40.596C123.368 38.704 125.018 37.362 127.174 37.428V39.254H127.042C124.556 39.254 122.532 41.036 122.532 44.468V49H120.838ZM134.452 49.264C131.042 49.264 128.556 46.58 128.556 43.368V43.324C128.556 40.09 131.042 37.384 134.496 37.384C137.928 37.384 140.414 40.068 140.414 43.28V43.324C140.414 46.558 137.884 49.264 134.452 49.264ZM134.496 47.746C136.96 47.746 138.676 45.744 138.676 43.368V43.324C138.676 40.882 136.85 38.88 134.452 38.88C131.988 38.88 130.294 40.882 130.294 43.28V43.324C130.294 45.766 132.098 47.746 134.496 47.746ZM153.841 49.22C152.191 49.22 150.431 48.582 149.133 47.548L149.991 46.338C151.223 47.284 152.587 47.79 153.929 47.79C155.315 47.79 156.283 47.108 156.283 45.986V45.942C156.283 44.82 154.941 44.358 153.445 43.94C151.685 43.412 149.683 42.84 149.683 40.728V40.684C149.683 38.726 151.311 37.428 153.555 37.428C154.963 37.428 156.481 37.912 157.647 38.682L156.877 39.958C155.821 39.276 154.633 38.858 153.511 38.858C152.169 38.858 151.311 39.562 151.311 40.508V40.552C151.311 41.63 152.719 42.048 154.237 42.51C155.997 43.038 157.889 43.72 157.889 45.766V45.81C157.889 47.966 156.107 49.22 153.841 49.22ZM161.08 35.14V33.27H163.016V35.14H161.08ZM161.19 49V37.626H162.884V49H161.19ZM177.217 49.198C175.369 49.198 174.005 48.296 174.005 45.986V39.122H172.421V37.626H174.005V34.194H175.699V37.626H179.307V39.122H175.699V45.766C175.699 47.174 176.469 47.658 177.613 47.658C178.207 47.658 178.669 47.548 179.263 47.262V48.714C178.669 49.044 178.031 49.198 177.217 49.198ZM186.955 49.264C183.853 49.264 181.279 46.866 181.279 43.346V43.302C181.279 40.024 183.567 37.384 186.735 37.384C190.101 37.384 192.037 40.068 192.037 43.39C192.037 43.632 192.037 43.742 192.015 43.94H182.995C183.237 46.404 184.975 47.79 186.999 47.79C188.583 47.79 189.639 47.152 190.585 46.184L191.641 47.13C190.497 48.428 189.133 49.264 186.955 49.264ZM182.995 42.686H190.321C190.145 40.64 188.979 38.814 186.691 38.814C184.689 38.814 183.237 40.486 182.995 42.686ZM206.636 52.564C204.722 52.564 202.984 52.036 201.466 50.98L202.236 49.66C203.556 50.606 204.964 51.112 206.614 51.112C209.144 51.112 210.75 49.726 210.75 47.064V45.722C209.76 47.042 208.374 48.12 206.284 48.12C203.556 48.12 200.938 46.052 200.938 42.796V42.752C200.938 39.43 203.556 37.384 206.284 37.384C208.418 37.384 209.782 38.44 210.728 39.672V37.626H212.422V47.02C212.422 48.78 211.916 50.1 210.97 51.046C209.936 52.08 208.462 52.564 206.636 52.564ZM206.614 46.624C208.77 46.624 210.794 45.062 210.794 42.774V42.73C210.794 40.398 208.77 38.88 206.614 38.88C204.436 38.88 202.676 40.376 202.676 42.708V42.752C202.676 45.04 204.502 46.624 206.614 46.624ZM220.387 49.242C217.659 49.242 216.031 47.394 216.031 44.688V37.626H217.725V44.27C217.725 46.382 218.847 47.702 220.871 47.702C222.807 47.702 224.281 46.272 224.281 44.138V37.626H225.953V49H224.281V47.02C223.511 48.252 222.345 49.242 220.387 49.242ZM233.526 49.22C231.876 49.22 230.116 48.582 228.818 47.548L229.676 46.338C230.908 47.284 232.272 47.79 233.614 47.79C235 47.79 235.968 47.108 235.968 45.986V45.942C235.968 44.82 234.626 44.358 233.13 43.94C231.37 43.412 229.368 42.84 229.368 40.728V40.684C229.368 38.726 230.996 37.428 233.24 37.428C234.648 37.428 236.166 37.912 237.332 38.682L236.562 39.958C235.506 39.276 234.318 38.858 233.196 38.858C231.854 38.858 230.996 39.562 230.996 40.508V40.552C230.996 41.63 232.404 42.048 233.922 42.51C235.682 43.038 237.574 43.72 237.574 45.766V45.81C237.574 47.966 235.792 49.22 233.526 49.22ZM244.312 49.198C242.464 49.198 241.1 48.296 241.1 45.986V39.122H239.516V37.626H241.1V34.194H242.794V37.626H246.402V39.122H242.794V45.766C242.794 47.174 243.564 47.658 244.708 47.658C245.302 47.658 245.764 47.548 246.358 47.262V48.714C245.764 49.044 245.126 49.198 244.312 49.198ZM252.789 49.242C250.677 49.242 248.543 48.054 248.543 45.7V45.656C248.543 43.28 250.523 41.982 253.405 41.982C254.879 41.982 255.869 42.18 256.903 42.466V42.07C256.903 40.024 255.649 38.968 253.515 38.968C252.173 38.968 251.117 39.298 250.061 39.804L249.555 38.418C250.809 37.824 252.019 37.472 253.691 37.472C255.297 37.472 256.529 37.89 257.365 38.726C258.135 39.496 258.531 40.618 258.531 42.048V49H256.903V47.284C256.111 48.318 254.813 49.242 252.789 49.242ZM253.119 47.9C255.231 47.9 256.925 46.624 256.925 44.82V43.72C256.067 43.478 254.989 43.236 253.581 43.236C251.447 43.236 250.259 44.16 250.259 45.59V45.634C250.259 47.064 251.601 47.9 253.119 47.9ZM262.141 49V37.626H263.835V40.596C264.671 38.704 266.321 37.362 268.477 37.428V39.254H268.345C265.859 39.254 263.835 41.036 263.835 44.468V49H262.141ZM271.409 35.91L273.477 32.72L275.237 33.534L272.729 35.91H271.409ZM271.211 49V37.626H272.905V49H271.211ZM280.224 49.242C278.112 49.242 275.978 48.054 275.978 45.7V45.656C275.978 43.28 277.958 41.982 280.84 41.982C282.314 41.982 283.304 42.18 284.338 42.466V42.07C284.338 40.024 283.084 38.968 280.95 38.968C279.608 38.968 278.552 39.298 277.496 39.804L276.99 38.418C278.244 37.824 279.454 37.472 281.126 37.472C282.732 37.472 283.964 37.89 284.8 38.726C285.57 39.496 285.966 40.618 285.966 42.048V49H284.338V47.284C283.546 48.318 282.248 49.242 280.224 49.242ZM280.554 47.9C282.666 47.9 284.36 46.624 284.36 44.82V43.72C283.502 43.478 282.424 43.236 281.016 43.236C278.882 43.236 277.694 44.16 277.694 45.59V45.634C277.694 47.064 279.036 47.9 280.554 47.9ZM296.172 49V32.94H297.866V39.606C298.636 38.374 299.802 37.384 301.76 37.384C304.488 37.384 306.116 39.232 306.116 41.938V49H304.422V42.356C304.422 40.244 303.3 38.924 301.276 38.924C299.318 38.924 297.866 40.354 297.866 42.488V49H296.172ZM313.117 49.242C311.005 49.242 308.871 48.054 308.871 45.7V45.656C308.871 43.28 310.851 41.982 313.733 41.982C315.207 41.982 316.197 42.18 317.231 42.466V42.07C317.231 40.024 315.977 38.968 313.843 38.968C312.501 38.968 311.445 39.298 310.389 39.804L309.883 38.418C311.137 37.824 312.347 37.472 314.019 37.472C315.625 37.472 316.857 37.89 317.693 38.726C318.463 39.496 318.859 40.618 318.859 42.048V49H317.231V47.284C316.439 48.318 315.141 49.242 313.117 49.242ZM313.447 47.9C315.559 47.9 317.253 46.624 317.253 44.82V43.72C316.395 43.478 315.317 43.236 313.909 43.236C311.775 43.236 310.587 44.16 310.587 45.59V45.634C310.587 47.064 311.929 47.9 313.447 47.9ZM327.595 49.264C324.251 49.264 321.765 46.558 321.765 43.368V43.324C321.765 40.09 324.251 37.384 327.595 37.384C329.751 37.384 331.071 38.264 332.149 39.408L331.027 40.596C330.125 39.65 329.135 38.88 327.573 38.88C325.263 38.88 323.503 40.816 323.503 43.28V43.324C323.503 45.788 325.307 47.746 327.683 47.746C329.157 47.746 330.257 47.02 331.159 46.052L332.237 47.064C331.093 48.362 329.729 49.264 327.595 49.264ZM339.687 49.264C336.585 49.264 334.011 46.866 334.011 43.346V43.302C334.011 40.024 336.299 37.384 339.467 37.384C342.833 37.384 344.769 40.068 344.769 43.39C344.769 43.632 344.769 43.742 344.747 43.94H335.727C335.969 46.404 337.707 47.79 339.731 47.79C341.315 47.79 342.371 47.152 343.317 46.184L344.373 47.13C343.229 48.428 341.865 49.264 339.687 49.264ZM335.727 42.686H343.053C342.877 40.64 341.711 38.814 339.423 38.814C337.421 38.814 335.969 40.486 335.727 42.686ZM347.735 49V37.626H349.429V40.596C350.265 38.704 351.915 37.362 354.071 37.428V39.254H353.939C351.453 39.254 349.429 41.036 349.429 44.468V49H347.735ZM356.651 49V37.626H358.345V39.606C359.115 38.374 360.281 37.384 362.239 37.384C364.967 37.384 366.595 39.232 366.595 41.938V49H364.901V42.356C364.901 40.244 363.779 38.924 361.755 38.924C359.797 38.924 358.345 40.354 358.345 42.488V49H356.651ZM375.399 49.264C371.989 49.264 369.503 46.58 369.503 43.368V43.324C369.503 40.09 371.989 37.384 375.443 37.384C378.875 37.384 381.361 40.068 381.361 43.28V43.324C381.361 46.558 378.831 49.264 375.399 49.264ZM375.443 47.746C377.907 47.746 379.623 45.744 379.623 43.368V43.324C379.623 40.882 377.797 38.88 375.399 38.88C372.935 38.88 371.241 40.882 371.241 43.28V43.324C371.241 45.766 373.045 47.746 375.443 47.746ZM388.192 49.22C386.542 49.22 384.782 48.582 383.484 47.548L384.342 46.338C385.574 47.284 386.938 47.79 388.28 47.79C389.666 47.79 390.634 47.108 390.634 45.986V45.942C390.634 44.82 389.292 44.358 387.796 43.94C386.036 43.412 384.034 42.84 384.034 40.728V40.684C384.034 38.726 385.662 37.428 387.906 37.428C389.314 37.428 390.832 37.912 391.998 38.682L391.228 39.958C390.172 39.276 388.984 38.858 387.862 38.858C386.52 38.858 385.662 39.562 385.662 40.508V40.552C385.662 41.63 387.07 42.048 388.588 42.51C390.348 43.038 392.24 43.72 392.24 45.766V45.81C392.24 47.966 390.458 49.22 388.192 49.22ZM406.163 49.242C403.435 49.242 401.807 47.394 401.807 44.688V37.626H403.501V44.27C403.501 46.382 404.623 47.702 406.647 47.702C408.583 47.702 410.057 46.272 410.057 44.138V37.626H411.729V49H410.057V47.02C409.287 48.252 408.121 49.242 406.163 49.242ZM415.539 49V37.626H417.233V39.606C418.003 38.374 419.169 37.384 421.127 37.384C423.855 37.384 425.483 39.232 425.483 41.938V49H423.789V42.356C423.789 40.244 422.667 38.924 420.643 38.924C418.685 38.924 417.233 40.354 417.233 42.488V49H415.539ZM435.692 49V37.626H437.386V40.596C438.222 38.704 439.872 37.362 442.028 37.428V39.254H441.896C439.41 39.254 437.386 41.036 437.386 44.468V49H435.692ZM449.086 49.264C445.984 49.264 443.41 46.866 443.41 43.346V43.302C443.41 40.024 445.698 37.384 448.866 37.384C452.232 37.384 454.168 40.068 454.168 43.39C454.168 43.632 454.168 43.742 454.146 43.94H445.126C445.368 46.404 447.106 47.79 449.13 47.79C450.714 47.79 451.77 47.152 452.716 46.184L453.772 47.13C452.628 48.428 451.264 49.264 449.086 49.264ZM445.126 42.686H452.452C452.276 40.64 451.11 38.814 448.822 38.814C446.82 38.814 445.368 40.486 445.126 42.686ZM462.171 52.564C460.257 52.564 458.519 52.036 457.001 50.98L457.771 49.66C459.091 50.606 460.499 51.112 462.149 51.112C464.679 51.112 466.285 49.726 466.285 47.064V45.722C465.295 47.042 463.909 48.12 461.819 48.12C459.091 48.12 456.473 46.052 456.473 42.796V42.752C456.473 39.43 459.091 37.384 461.819 37.384C463.953 37.384 465.317 38.44 466.263 39.672V37.626H467.957V47.02C467.957 48.78 467.451 50.1 466.505 51.046C465.471 52.08 463.997 52.564 462.171 52.564ZM462.149 46.624C464.305 46.624 466.329 45.062 466.329 42.774V42.73C466.329 40.398 464.305 38.88 462.149 38.88C459.971 38.88 458.211 40.376 458.211 42.708V42.752C458.211 45.04 460.037 46.624 462.149 46.624ZM475.131 49.242C473.019 49.242 470.885 48.054 470.885 45.7V45.656C470.885 43.28 472.865 41.982 475.747 41.982C477.221 41.982 478.211 42.18 479.245 42.466V42.07C479.245 40.024 477.991 38.968 475.857 38.968C474.515 38.968 473.459 39.298 472.403 39.804L471.897 38.418C473.151 37.824 474.361 37.472 476.033 37.472C477.639 37.472 478.871 37.89 479.707 38.726C480.477 39.496 480.873 40.618 480.873 42.048V49H479.245V47.284C478.453 48.318 477.155 49.242 475.131 49.242ZM475.461 47.9C477.573 47.9 479.267 46.624 479.267 44.82V43.72C478.409 43.478 477.331 43.236 475.923 43.236C473.789 43.236 472.601 44.16 472.601 45.59V45.634C472.601 47.064 473.943 47.9 475.461 47.9ZM484.637 49V32.94H486.331V49H484.637ZM495.454 49.264C492.044 49.264 489.558 46.58 489.558 43.368V43.324C489.558 40.09 492.044 37.384 495.498 37.384C498.93 37.384 501.416 40.068 501.416 43.28V43.324C501.416 46.558 498.886 49.264 495.454 49.264ZM495.498 47.746C497.962 47.746 499.678 45.744 499.678 43.368V43.324C499.678 40.882 497.852 38.88 495.454 38.88C492.99 38.88 491.296 40.882 491.296 43.28V43.324C491.296 45.766 493.1 47.746 495.498 47.746ZM503.439 51.684L503.175 50.914C504.297 50.496 504.737 49.946 504.649 49H503.857V46.69H505.881V48.67C505.881 50.452 505.111 51.31 503.439 51.684ZM519.849 49.198C518.001 49.198 516.637 48.296 516.637 45.986V39.122H515.053V37.626H516.637V34.194H518.331V37.626H521.939V39.122H518.331V45.766C518.331 47.174 519.101 47.658 520.245 47.658C520.839 47.658 521.301 47.548 521.895 47.262V48.714C521.301 49.044 520.663 49.198 519.849 49.198ZM529.588 49.264C526.486 49.264 523.912 46.866 523.912 43.346V43.302C523.912 40.024 526.2 37.384 529.368 37.384C532.734 37.384 534.67 40.068 534.67 43.39C534.67 43.632 534.67 43.742 534.648 43.94H525.628C525.87 46.404 527.608 47.79 529.632 47.79C531.216 47.79 532.272 47.152 533.218 46.184L534.274 47.13C533.13 48.428 531.766 49.264 529.588 49.264ZM525.628 42.686H532.954C532.778 40.64 531.612 38.814 529.324 38.814C527.322 38.814 525.87 40.486 525.628 42.686ZM549.005 49.242C546.277 49.242 543.571 47.086 543.571 43.346V43.302C543.571 39.606 546.277 37.384 549.005 37.384C551.117 37.384 552.481 38.506 553.361 39.804V32.94H555.055V49H553.361V46.712C552.415 48.076 551.117 49.242 549.005 49.242ZM549.313 47.724C551.425 47.724 553.427 45.942 553.427 43.324V43.28C553.427 40.662 551.425 38.902 549.313 38.902C547.113 38.902 545.309 40.53 545.309 43.28V43.324C545.309 46.03 547.135 47.724 549.313 47.724ZM563.812 49.264C560.71 49.264 558.136 46.866 558.136 43.346V43.302C558.136 40.024 560.424 37.384 563.592 37.384C566.958 37.384 568.894 40.068 568.894 43.39C568.894 43.632 568.894 43.742 568.872 43.94H559.852C560.094 46.404 561.832 47.79 563.856 47.79C565.44 47.79 566.496 47.152 567.442 46.184L568.498 47.13C567.354 48.428 565.99 49.264 563.812 49.264ZM559.852 42.686H567.178C567.002 40.64 565.836 38.814 563.548 38.814C561.546 38.814 560.094 40.486 559.852 42.686ZM571.904 35.14V33.27H573.84V35.14H571.904ZM570.936 52.586C570.518 52.586 570.254 52.564 569.88 52.476V51.09C570.144 51.156 570.474 51.156 570.716 51.156C571.486 51.156 572.014 50.694 572.014 49.638V37.626H573.708V49.66C573.708 51.684 572.674 52.586 570.936 52.586ZM581.027 49.242C578.915 49.242 576.781 48.054 576.781 45.7V45.656C576.781 43.28 578.761 41.982 581.643 41.982C583.117 41.982 584.107 42.18 585.141 42.466V42.07C585.141 40.024 583.887 38.968 581.753 38.968C580.411 38.968 579.355 39.298 578.299 39.804L577.793 38.418C579.047 37.824 580.257 37.472 581.929 37.472C583.535 37.472 584.767 37.89 585.603 38.726C586.373 39.496 586.769 40.618 586.769 42.048V49H585.141V47.284C584.349 48.318 583.051 49.242 581.027 49.242ZM581.357 47.9C583.469 47.9 585.163 46.624 585.163 44.82V43.72C584.305 43.478 583.227 43.236 581.819 43.236C579.685 43.236 578.497 44.16 578.497 45.59V45.634C578.497 47.064 579.839 47.9 581.357 47.9ZM590.379 49V37.626H592.073V39.54C592.843 38.396 593.833 37.384 595.747 37.384C597.595 37.384 598.783 38.352 599.399 39.65C600.235 38.396 601.401 37.384 603.403 37.384C606.043 37.384 607.627 39.122 607.627 41.96V49H605.933V42.356C605.933 40.156 604.833 38.924 602.985 38.924C601.291 38.924 599.839 40.2 599.839 42.444V49H598.167V42.312C598.167 40.178 597.067 38.924 595.241 38.924C593.437 38.924 592.073 40.42 592.073 42.51V49H590.379ZM616.433 49.264C613.023 49.264 610.537 46.58 610.537 43.368V43.324C610.537 40.09 613.023 37.384 616.477 37.384C619.909 37.384 622.395 40.068 622.395 43.28V43.324C622.395 46.558 619.865 49.264 616.433 49.264ZM616.477 47.746C618.941 47.746 620.657 45.744 620.657 43.368V43.324C620.657 40.882 618.831 38.88 616.433 38.88C613.969 38.88 612.275 40.882 612.275 43.28V43.324C612.275 45.766 614.079 47.746 616.477 47.746ZM629.225 49.22C627.575 49.22 625.815 48.582 624.517 47.548L625.375 46.338C626.607 47.284 627.971 47.79 629.313 47.79C630.699 47.79 631.667 47.108 631.667 45.986V45.942C631.667 44.82 630.325 44.358 628.829 43.94C627.069 43.412 625.067 42.84 625.067 40.728V40.684C625.067 38.726 626.695 37.428 628.939 37.428C630.347 37.428 631.865 37.912 633.031 38.682L632.261 39.958C631.205 39.276 630.017 38.858 628.895 38.858C627.553 38.858 626.695 39.562 626.695 40.508V40.552C626.695 41.63 628.103 42.048 629.621 42.51C631.381 43.038 633.273 43.72 633.273 45.766V45.81C633.273 47.966 631.491 49.22 629.225 49.22ZM647.988 49.264C644.886 49.264 642.312 46.866 642.312 43.346V43.302C642.312 40.024 644.6 37.384 647.768 37.384C651.134 37.384 653.07 40.068 653.07 43.39C653.07 43.632 653.07 43.742 653.048 43.94H644.028C644.27 46.404 646.008 47.79 648.032 47.79C649.616 47.79 650.672 47.152 651.618 46.184L652.674 47.13C651.53 48.428 650.166 49.264 647.988 49.264ZM644.028 42.686H651.354C651.178 40.64 650.012 38.814 647.724 38.814C645.722 38.814 644.27 40.486 644.028 42.686ZM659.798 49.22C658.148 49.22 656.388 48.582 655.09 47.548L655.948 46.338C657.18 47.284 658.544 47.79 659.886 47.79C661.272 47.79 662.24 47.108 662.24 45.986V45.942C662.24 44.82 660.898 44.358 659.402 43.94C657.642 43.412 655.64 42.84 655.64 40.728V40.684C655.64 38.726 657.268 37.428 659.512 37.428C660.92 37.428 662.438 37.912 663.604 38.682L662.834 39.958C661.778 39.276 660.59 38.858 659.468 38.858C658.126 38.858 657.268 39.562 657.268 40.508V40.552C657.268 41.63 658.676 42.048 660.194 42.51C661.954 43.038 663.846 43.72 663.846 45.766V45.81C663.846 47.966 662.064 49.22 659.798 49.22ZM670.584 49.198C668.736 49.198 667.372 48.296 667.372 45.986V39.122H665.788V37.626H667.372V34.194H669.066V37.626H672.674V39.122H669.066V45.766C669.066 47.174 669.836 47.658 670.98 47.658C671.574 47.658 672.036 47.548 672.63 47.262V48.714C672.036 49.044 671.398 49.198 670.584 49.198ZM679.06 49.242C676.948 49.242 674.814 48.054 674.814 45.7V45.656C674.814 43.28 676.794 41.982 679.676 41.982C681.15 41.982 682.14 42.18 683.174 42.466V42.07C683.174 40.024 681.92 38.968 679.786 38.968C678.444 38.968 677.388 39.298 676.332 39.804L675.826 38.418C677.08 37.824 678.29 37.472 679.962 37.472C681.568 37.472 682.8 37.89 683.636 38.726C684.406 39.496 684.802 40.618 684.802 42.048V49H683.174V47.284C682.382 48.318 681.084 49.242 679.06 49.242ZM679.39 47.9C681.502 47.9 683.196 46.624 683.196 44.82V43.72C682.338 43.478 681.26 43.236 679.852 43.236C677.718 43.236 676.53 44.16 676.53 45.59V45.634C676.53 47.064 677.872 47.9 679.39 47.9ZM700.2 49.264C696.79 49.264 694.304 46.58 694.304 43.368V43.324C694.304 40.09 696.79 37.384 700.244 37.384C703.676 37.384 706.162 40.068 706.162 43.28V43.324C706.162 46.558 703.632 49.264 700.2 49.264ZM700.244 47.746C702.708 47.746 704.424 45.744 704.424 43.368V43.324C704.424 40.882 702.598 38.88 700.2 38.88C697.736 38.88 696.042 40.882 696.042 43.28V43.324C696.042 45.766 697.846 47.746 700.244 47.746ZM709.231 52.52V37.626H710.925V39.914C711.871 38.572 713.169 37.384 715.281 37.384C718.009 37.384 720.715 39.54 720.715 43.28V43.324C720.715 47.02 718.031 49.242 715.281 49.242C713.169 49.242 711.805 48.12 710.925 46.822V52.52H709.231ZM714.973 47.724C717.173 47.724 718.977 46.096 718.977 43.346V43.302C718.977 40.596 717.151 38.902 714.973 38.902C712.861 38.902 710.859 40.706 710.859 43.28V43.324C710.859 45.964 712.861 47.724 714.973 47.724ZM728.966 49.264C725.622 49.264 723.136 46.558 723.136 43.368V43.324C723.136 40.09 725.622 37.384 728.966 37.384C731.122 37.384 732.442 38.264 733.52 39.408L732.398 40.596C731.496 39.65 730.506 38.88 728.944 38.88C726.634 38.88 724.874 40.816 724.874 43.28V43.324C724.874 45.788 726.678 47.746 729.054 47.746C730.528 47.746 731.628 47.02 732.53 46.052L733.608 47.064C732.464 48.362 731.1 49.264 728.966 49.264ZM736.453 35.14V33.27H738.389V35.14H736.453ZM736.563 49V37.626H738.257V49H736.563ZM746.72 35.91L748.788 32.72L750.548 33.534L748.04 35.91H746.72ZM747.38 49.264C743.97 49.264 741.484 46.58 741.484 43.368V43.324C741.484 40.09 743.97 37.384 747.424 37.384C750.856 37.384 753.342 40.068 753.342 43.28V43.324C753.342 46.558 750.812 49.264 747.38 49.264ZM747.424 47.746C749.888 47.746 751.604 45.744 751.604 43.368V43.324C751.604 40.882 749.778 38.88 747.38 38.88C744.916 38.88 743.222 40.882 743.222 43.28V43.324C743.222 45.766 745.026 47.746 747.424 47.746ZM756.411 49V37.626H758.105V39.606C758.875 38.374 760.041 37.384 761.999 37.384C764.727 37.384 766.355 39.232 766.355 41.938V49H764.661V42.356C764.661 40.244 763.539 38.924 761.515 38.924C759.557 38.924 758.105 40.354 758.105 42.488V49H756.411ZM769.857 39.936V37.626H771.881V39.936H769.857ZM769.857 49V46.69H771.881V49H769.857Z" fill="#364936"/>
</svg>
