<svg width="408" height="20" viewBox="0 0 408 20" fill="none" xmlns="http://www.w3.org/2000/svg">
<path d="M0.277 17V0.899999H6.303C9.937 0.899999 12.329 2.832 12.329 6.006V6.052C12.329 9.525 9.431 11.319 6.004 11.319H2.094V17H0.277ZM2.094 9.663H6.073C8.741 9.663 10.489 8.237 10.489 6.121V6.075C10.489 3.775 8.764 2.579 6.165 2.579H2.094V9.663ZM15.3413 17V5.109H17.1123V8.214C17.9863 6.236 19.7113 4.833 21.9653 4.902V6.811H21.8273C19.2283 6.811 17.1123 8.674 17.1123 12.262V17H15.3413ZM27.6206 17.253C25.4126 17.253 23.1816 16.011 23.1816 13.55V13.504C23.1816 11.02 25.2516 9.663 28.2646 9.663C29.8056 9.663 30.8406 9.87 31.9216 10.169V9.755C31.9216 7.616 30.6106 6.512 28.3796 6.512C26.9766 6.512 25.8726 6.857 24.7686 7.386L24.2396 5.937C25.5506 5.316 26.8156 4.948 28.5636 4.948C30.2426 4.948 31.5306 5.385 32.4046 6.259C33.2096 7.064 33.6236 8.237 33.6236 9.732V17H31.9216V15.206C31.0936 16.287 29.7366 17.253 27.6206 17.253ZM27.9656 15.85C30.1736 15.85 31.9446 14.516 31.9446 12.63V11.48C31.0476 11.227 29.9206 10.974 28.4486 10.974C26.2176 10.974 24.9756 11.94 24.9756 13.435V13.481C24.9756 14.976 26.3786 15.85 27.9656 15.85ZM37.4439 2.51V0.554999H39.4679V2.51H37.4439ZM37.5589 17V5.109H39.3299V17H37.5589ZM46.9819 17.253C44.7739 17.253 42.5429 16.011 42.5429 13.55V13.504C42.5429 11.02 44.6129 9.663 47.6259 9.663C49.1669 9.663 50.2019 9.87 51.2829 10.169V9.755C51.2829 7.616 49.9719 6.512 47.7409 6.512C46.3379 6.512 45.2339 6.857 44.1299 7.386L43.6009 5.937C44.9119 5.316 46.1769 4.948 47.9249 4.948C49.6039 4.948 50.8919 5.385 51.7659 6.259C52.5709 7.064 52.9849 8.237 52.9849 9.732V17H51.2829V15.206C50.4549 16.287 49.0979 17.253 46.9819 17.253ZM47.3269 15.85C49.5349 15.85 51.3059 14.516 51.3059 12.63V11.48C50.4089 11.227 49.2819 10.974 47.8099 10.974C45.5789 10.974 44.3369 11.94 44.3369 13.435V13.481C44.3369 14.976 45.7399 15.85 47.3269 15.85ZM68.6458 17.253C65.7938 17.253 62.9648 14.999 62.9648 11.089V11.043C62.9648 7.179 65.7938 4.856 68.6458 4.856C70.8538 4.856 72.2798 6.029 73.1998 7.386V0.21H74.9708V17H73.1998V14.608C72.2108 16.034 70.8538 17.253 68.6458 17.253ZM68.9678 15.666C71.1758 15.666 73.2688 13.803 73.2688 11.066V11.02C73.2688 8.283 71.1758 6.443 68.9678 6.443C66.6678 6.443 64.7818 8.145 64.7818 11.02V11.066C64.7818 13.895 66.6908 15.666 68.9678 15.666ZM84.3562 17.276C80.7912 17.276 78.1922 14.47 78.1922 11.112V11.066C78.1922 7.685 80.7912 4.856 84.4022 4.856C87.9902 4.856 90.5892 7.662 90.5892 11.02V11.066C90.5892 14.447 87.9442 17.276 84.3562 17.276ZM84.4022 15.689C86.9782 15.689 88.7722 13.596 88.7722 11.112V11.066C88.7722 8.513 86.8632 6.42 84.3562 6.42C81.7802 6.42 80.0092 8.513 80.0092 11.02V11.066C80.0092 13.619 81.8952 15.689 84.4022 15.689ZM100.992 17V0.899999H107.915C109.916 0.899999 111.48 1.498 112.492 2.51C113.297 3.315 113.734 4.396 113.734 5.684V5.73C113.734 8.398 111.894 9.985 109.364 10.422L114.309 17H112.078L107.409 10.744H102.809V17H100.992ZM102.809 9.111H107.754C110.146 9.111 111.894 7.869 111.894 5.799V5.753C111.894 3.752 110.376 2.579 107.777 2.579H102.809V9.111ZM122.517 17.276C118.952 17.276 116.353 14.47 116.353 11.112V11.066C116.353 7.685 118.952 4.856 122.563 4.856C126.151 4.856 128.75 7.662 128.75 11.02V11.066C128.75 14.447 126.105 17.276 122.517 17.276ZM122.563 15.689C125.139 15.689 126.933 13.596 126.933 11.112V11.066C126.933 8.513 125.024 6.42 122.517 6.42C119.941 6.42 118.17 8.513 118.17 11.02V11.066C118.17 13.619 120.056 15.689 122.563 15.689ZM135.891 17.23C134.166 17.23 132.326 16.563 130.969 15.482L131.866 14.217C133.154 15.206 134.58 15.735 135.983 15.735C137.432 15.735 138.444 15.022 138.444 13.849V13.803C138.444 12.63 137.041 12.147 135.477 11.71C133.637 11.158 131.544 10.56 131.544 8.352V8.306C131.544 6.259 133.246 4.902 135.592 4.902C137.064 4.902 138.651 5.408 139.87 6.213L139.065 7.547C137.961 6.834 136.719 6.397 135.546 6.397C134.143 6.397 133.246 7.133 133.246 8.122V8.168C133.246 9.295 134.718 9.732 136.305 10.215C138.145 10.767 140.123 11.48 140.123 13.619V13.665C140.123 15.919 138.26 17.23 135.891 17.23ZM146.956 17.253C144.748 17.253 142.517 16.011 142.517 13.55V13.504C142.517 11.02 144.587 9.663 147.6 9.663C149.141 9.663 150.176 9.87 151.257 10.169V9.755C151.257 7.616 149.946 6.512 147.715 6.512C146.312 6.512 145.208 6.857 144.104 7.386L143.575 5.937C144.886 5.316 146.151 4.948 147.899 4.948C149.578 4.948 150.866 5.385 151.74 6.259C152.545 7.064 152.959 8.237 152.959 9.732V17H151.257V15.206C150.429 16.287 149.072 17.253 146.956 17.253ZM147.301 15.85C149.509 15.85 151.28 14.516 151.28 12.63V11.48C150.383 11.227 149.256 10.974 147.784 10.974C145.553 10.974 144.311 11.94 144.311 13.435V13.481C144.311 14.976 145.714 15.85 147.301 15.85ZM156.089 19.806L155.813 19.001C156.986 18.564 157.446 17.989 157.354 17H156.526V14.585H158.642V16.655C158.642 18.518 157.837 19.415 156.089 19.806ZM175.085 17.23C172.509 17.23 170.439 16.402 168.507 14.654L169.634 13.32C171.313 14.861 172.923 15.597 175.154 15.597C177.339 15.597 178.742 14.447 178.742 12.86V12.814C178.742 11.319 177.937 10.491 174.556 9.755C170.853 8.95 169.151 7.754 169.151 5.109V5.063C169.151 2.556 171.382 0.669999 174.441 0.669999C176.81 0.669999 178.443 1.337 180.099 2.648L179.041 4.051C177.546 2.832 176.051 2.303 174.395 2.303C172.279 2.303 170.968 3.43 170.968 4.902V4.948C170.968 6.466 171.773 7.34 175.338 8.076C178.926 8.881 180.582 10.169 180.582 12.63V12.676C180.582 15.436 178.282 17.23 175.085 17.23ZM187.52 17.253C185.312 17.253 183.081 16.011 183.081 13.55V13.504C183.081 11.02 185.151 9.663 188.164 9.663C189.705 9.663 190.74 9.87 191.821 10.169V9.755C191.821 7.616 190.51 6.512 188.279 6.512C186.876 6.512 185.772 6.857 184.668 7.386L184.139 5.937C185.45 5.316 186.715 4.948 188.463 4.948C190.142 4.948 191.43 5.385 192.304 6.259C193.109 7.064 193.523 8.237 193.523 9.732V17H191.821V15.206C190.993 16.287 189.636 17.253 187.52 17.253ZM187.865 15.85C190.073 15.85 191.844 14.516 191.844 12.63V11.48C190.947 11.227 189.82 10.974 188.348 10.974C186.117 10.974 184.875 11.94 184.875 13.435V13.481C184.875 14.976 186.278 15.85 187.865 15.85ZM197.297 17V5.109H199.068V7.179C199.873 5.891 201.092 4.856 203.139 4.856C205.991 4.856 207.693 6.788 207.693 9.617V17H205.922V10.054C205.922 7.846 204.749 6.466 202.633 6.466C200.586 6.466 199.068 7.961 199.068 10.192V17H197.297ZM215.449 17.207C213.517 17.207 212.091 16.264 212.091 13.849V6.673H210.435V5.109H212.091V1.521H213.862V5.109H217.634V6.673H213.862V13.619C213.862 15.091 214.667 15.597 215.863 15.597C216.484 15.597 216.967 15.482 217.588 15.183V16.701C216.967 17.046 216.3 17.207 215.449 17.207ZM224.311 17.253C222.103 17.253 219.872 16.011 219.872 13.55V13.504C219.872 11.02 221.942 9.663 224.955 9.663C226.496 9.663 227.531 9.87 228.612 10.169V9.755C228.612 7.616 227.301 6.512 225.07 6.512C223.667 6.512 222.563 6.857 221.459 7.386L220.93 5.937C222.241 5.316 223.506 4.948 225.254 4.948C226.933 4.948 228.221 5.385 229.095 6.259C229.9 7.064 230.314 8.237 230.314 9.732V17H228.612V15.206C227.784 16.287 226.427 17.253 224.311 17.253ZM224.656 15.85C226.864 15.85 228.635 14.516 228.635 12.63V11.48C227.738 11.227 226.611 10.974 225.139 10.974C222.908 10.974 221.666 11.94 221.666 13.435V13.481C221.666 14.976 223.069 15.85 224.656 15.85ZM248.643 17.276C243.997 17.276 240.57 13.619 240.57 8.996V8.95C240.57 4.396 243.997 0.624 248.712 0.624C251.633 0.624 253.404 1.636 254.991 3.177L253.749 4.511C252.369 3.223 250.897 2.303 248.689 2.303C245.124 2.303 242.456 5.201 242.456 8.904V8.95C242.456 12.676 245.124 15.597 248.689 15.597C250.897 15.597 252.346 14.746 253.887 13.274L255.083 14.447C253.427 16.149 251.541 17.276 248.643 17.276ZM261.596 17.253C259.388 17.253 257.157 16.011 257.157 13.55V13.504C257.157 11.02 259.227 9.663 262.24 9.663C263.781 9.663 264.816 9.87 265.897 10.169V9.755C265.897 7.616 264.586 6.512 262.355 6.512C260.952 6.512 259.848 6.857 258.744 7.386L258.215 5.937C259.526 5.316 260.791 4.948 262.539 4.948C264.218 4.948 265.506 5.385 266.38 6.259C267.185 7.064 267.599 8.237 267.599 9.732V17H265.897V15.206C265.069 16.287 263.712 17.253 261.596 17.253ZM261.941 15.85C264.149 15.85 265.92 14.516 265.92 12.63V11.48C265.023 11.227 263.896 10.974 262.424 10.974C260.193 10.974 258.951 11.94 258.951 13.435V13.481C258.951 14.976 260.354 15.85 261.941 15.85ZM275.24 17.207C273.308 17.207 271.882 16.264 271.882 13.849V6.673H270.226V5.109H271.882V1.521H273.653V5.109H277.425V6.673H273.653V13.619C273.653 15.091 274.458 15.597 275.654 15.597C276.275 15.597 276.758 15.482 277.379 15.183V16.701C276.758 17.046 276.091 17.207 275.24 17.207ZM284.102 17.253C281.894 17.253 279.663 16.011 279.663 13.55V13.504C279.663 11.02 281.733 9.663 284.746 9.663C286.287 9.663 287.322 9.87 288.403 10.169V9.755C288.403 7.616 287.092 6.512 284.861 6.512C283.458 6.512 282.354 6.857 281.25 7.386L280.721 5.937C282.032 5.316 283.297 4.948 285.045 4.948C286.724 4.948 288.012 5.385 288.886 6.259C289.691 7.064 290.105 8.237 290.105 9.732V17H288.403V15.206C287.575 16.287 286.218 17.253 284.102 17.253ZM284.447 15.85C286.655 15.85 288.426 14.516 288.426 12.63V11.48C287.529 11.227 286.402 10.974 284.93 10.974C282.699 10.974 281.457 11.94 281.457 13.435V13.481C281.457 14.976 282.86 15.85 284.447 15.85ZM293.879 17V5.109H295.65V8.214C296.524 6.236 298.249 4.833 300.503 4.902V6.811H300.365C297.766 6.811 295.65 8.674 295.65 12.262V17H293.879ZM303.247 2.51V0.554999H305.271V2.51H303.247ZM303.362 17V5.109H305.133V17H303.362ZM309.243 17V5.109H311.014V7.179C311.819 5.891 313.038 4.856 315.085 4.856C317.937 4.856 319.639 6.788 319.639 9.617V17H317.868V10.054C317.868 7.846 316.695 6.466 314.579 6.466C312.532 6.466 311.014 7.961 311.014 10.192V17H309.243ZM326.958 17.253C324.75 17.253 322.519 16.011 322.519 13.55V13.504C322.519 11.02 324.589 9.663 327.602 9.663C329.143 9.663 330.178 9.87 331.259 10.169V9.755C331.259 7.616 329.948 6.512 327.717 6.512C326.314 6.512 325.21 6.857 324.106 7.386L323.577 5.937C324.888 5.316 326.153 4.948 327.901 4.948C329.58 4.948 330.868 5.385 331.742 6.259C332.547 7.064 332.961 8.237 332.961 9.732V17H331.259V15.206C330.431 16.287 329.074 17.253 326.958 17.253ZM327.303 15.85C329.511 15.85 331.282 14.516 331.282 12.63V11.48C330.385 11.227 329.258 10.974 327.786 10.974C325.555 10.974 324.312 11.94 324.312 13.435V13.481C324.312 14.976 325.716 15.85 327.303 15.85ZM336.091 19.806L335.815 19.001C336.988 18.564 337.448 17.989 337.356 17H336.528V14.585H338.644V16.655C338.644 18.518 337.839 19.415 336.091 19.806ZM349.567 17V0.899999H356.421C358.261 0.899999 359.71 1.429 360.63 2.326C361.32 3.039 361.665 3.913 361.665 4.902V4.948C361.665 7.041 360.377 8.122 359.112 8.674C361.021 9.226 362.562 10.376 362.562 12.561V12.607C362.562 15.367 360.239 17 356.72 17H349.567ZM359.825 5.201V5.155C359.825 3.568 358.56 2.533 356.26 2.533H351.361V8.076H356.122C358.33 8.076 359.825 7.11 359.825 5.201ZM360.722 12.492V12.446C360.722 10.698 359.273 9.686 356.444 9.686H351.361V15.367H356.766C359.227 15.367 360.722 14.309 360.722 12.492ZM365.867 17V5.109H367.638V8.214C368.512 6.236 370.237 4.833 372.491 4.902V6.811H372.353C369.754 6.811 367.638 8.674 367.638 12.262V17H365.867ZM378.146 17.253C375.938 17.253 373.707 16.011 373.707 13.55V13.504C373.707 11.02 375.777 9.663 378.79 9.663C380.331 9.663 381.366 9.87 382.447 10.169V9.755C382.447 7.616 381.136 6.512 378.905 6.512C377.502 6.512 376.398 6.857 375.294 7.386L374.765 5.937C376.076 5.316 377.341 4.948 379.089 4.948C380.768 4.948 382.056 5.385 382.93 6.259C383.735 7.064 384.149 8.237 384.149 9.732V17H382.447V15.206C381.619 16.287 380.262 17.253 378.146 17.253ZM378.491 15.85C380.699 15.85 382.47 14.516 382.47 12.63V11.48C381.573 11.227 380.446 10.974 378.974 10.974C376.743 10.974 375.501 11.94 375.501 13.435V13.481C375.501 14.976 376.904 15.85 378.491 15.85ZM391.856 17.23C390.131 17.23 388.291 16.563 386.934 15.482L387.831 14.217C389.119 15.206 390.545 15.735 391.948 15.735C393.397 15.735 394.409 15.022 394.409 13.849V13.803C394.409 12.63 393.006 12.147 391.442 11.71C389.602 11.158 387.509 10.56 387.509 8.352V8.306C387.509 6.259 389.211 4.902 391.557 4.902C393.029 4.902 394.616 5.408 395.835 6.213L395.03 7.547C393.926 6.834 392.684 6.397 391.511 6.397C390.108 6.397 389.211 7.133 389.211 8.122V8.168C389.211 9.295 390.683 9.732 392.27 10.215C394.11 10.767 396.088 11.48 396.088 13.619V13.665C396.088 15.919 394.225 17.23 391.856 17.23ZM399.424 2.51V0.554999H401.448V2.51H399.424ZM399.539 17V5.109H401.31V17H399.539ZM405.581 17V0.21H407.352V17H405.581Z" fill="#364936"/>
</svg>
