<svg width="936" height="21" viewBox="0 0 936 21" fill="none" xmlns="http://www.w3.org/2000/svg">
<path d="M6.458 17.22C3.994 17.22 2.014 16.428 0.166 14.756L1.244 13.48C2.85 14.954 4.39 15.658 6.524 15.658C8.614 15.658 9.956 14.558 9.956 13.04V12.996C9.956 11.566 9.186 10.774 5.952 10.07C2.41 9.3 0.782 8.156 0.782 5.626V5.582C0.782 3.184 2.916 1.38 5.842 1.38C8.108 1.38 9.67 2.018 11.254 3.272L10.242 4.614C8.812 3.448 7.382 2.942 5.798 2.942C3.774 2.942 2.52 4.02 2.52 5.428V5.472C2.52 6.924 3.29 7.76 6.7 8.464C10.132 9.234 11.716 10.466 11.716 12.82V12.864C11.716 15.504 9.516 17.22 6.458 17.22ZM15.0083 3.14V1.27H16.9443V3.14H15.0083ZM15.1183 17V5.626H16.8123V17H15.1183ZM27.3393 17V5.626H29.0333V7.606C29.8033 6.374 30.9693 5.384 32.9273 5.384C35.6553 5.384 37.2833 7.232 37.2833 9.938V17H35.5893V10.356C35.5893 8.244 34.4673 6.924 32.4433 6.924C30.4853 6.924 29.0333 8.354 29.0333 10.488V17H27.3393ZM45.8679 17.264C42.7659 17.264 40.1919 14.866 40.1919 11.346V11.302C40.1919 8.024 42.4799 5.384 45.6479 5.384C49.0139 5.384 50.9499 8.068 50.9499 11.39C50.9499 11.632 50.9499 11.742 50.9279 11.94H41.9079C42.1499 14.404 43.8879 15.79 45.9119 15.79C47.4959 15.79 48.5519 15.152 49.4979 14.184L50.5539 15.13C49.4099 16.428 48.0459 17.264 45.8679 17.264ZM41.9079 10.686H49.2339C49.0579 8.64 47.8919 6.814 45.6039 6.814C43.6019 6.814 42.1499 8.486 41.9079 10.686ZM59.0414 17.264C55.6974 17.264 53.2114 14.558 53.2114 11.368V11.324C53.2114 8.09 55.6974 5.384 59.0414 5.384C61.1974 5.384 62.5174 6.264 63.5954 7.408L62.4734 8.596C61.5714 7.65 60.5814 6.88 59.0194 6.88C56.7094 6.88 54.9494 8.816 54.9494 11.28V11.324C54.9494 13.788 56.7534 15.746 59.1294 15.746C60.6034 15.746 61.7034 15.02 62.6054 14.052L63.6834 15.064C62.5394 16.362 61.1754 17.264 59.0414 17.264ZM71.1335 17.264C68.0315 17.264 65.4575 14.866 65.4575 11.346V11.302C65.4575 8.024 67.7455 5.384 70.9135 5.384C74.2795 5.384 76.2155 8.068 76.2155 11.39C76.2155 11.632 76.2155 11.742 76.1935 11.94H67.1735C67.4155 14.404 69.1535 15.79 71.1775 15.79C72.7615 15.79 73.8175 15.152 74.7635 14.184L75.8195 15.13C74.6755 16.428 73.3115 17.264 71.1335 17.264ZM67.1735 10.686H74.4995C74.3235 8.64 73.1575 6.814 70.8695 6.814C68.8675 6.814 67.4155 8.486 67.1735 10.686ZM82.9431 17.22C81.2931 17.22 79.5331 16.582 78.2351 15.548L79.0931 14.338C80.3251 15.284 81.6891 15.79 83.0311 15.79C84.4171 15.79 85.3851 15.108 85.3851 13.986V13.942C85.3851 12.82 84.0431 12.358 82.5471 11.94C80.7871 11.412 78.7851 10.84 78.7851 8.728V8.684C78.7851 6.726 80.4131 5.428 82.6571 5.428C84.0651 5.428 85.5831 5.912 86.7491 6.682L85.9791 7.958C84.9231 7.276 83.7351 6.858 82.6131 6.858C81.2711 6.858 80.4131 7.562 80.4131 8.508V8.552C80.4131 9.63 81.8211 10.048 83.3391 10.51C85.0991 11.038 86.9911 11.72 86.9911 13.766V13.81C86.9911 15.966 85.2091 17.22 82.9431 17.22ZM90.1821 3.14V1.27H92.1181V3.14H90.1821ZM90.2921 17V5.626H91.9861V17H90.2921ZM99.7234 17.198C97.8754 17.198 96.5114 16.296 96.5114 13.986V7.122H94.9274V5.626H96.5114V2.194H98.2054V5.626H101.813V7.122H98.2054V13.766C98.2054 15.174 98.9754 15.658 100.119 15.658C100.713 15.658 101.175 15.548 101.769 15.262V16.714C101.175 17.044 100.537 17.198 99.7234 17.198ZM108.2 17.242C106.088 17.242 103.954 16.054 103.954 13.7V13.656C103.954 11.28 105.934 9.982 108.816 9.982C110.29 9.982 111.28 10.18 112.314 10.466V10.07C112.314 8.024 111.06 6.968 108.926 6.968C107.584 6.968 106.528 7.298 105.472 7.804L104.966 6.418C106.22 5.824 107.43 5.472 109.102 5.472C110.708 5.472 111.94 5.89 112.776 6.726C113.546 7.496 113.942 8.618 113.942 10.048V17H112.314V15.284C111.522 16.318 110.224 17.242 108.2 17.242ZM108.53 15.9C110.642 15.9 112.336 14.624 112.336 12.82V11.72C111.478 11.478 110.4 11.236 108.992 11.236C106.858 11.236 105.67 12.16 105.67 13.59V13.634C105.67 15.064 107.012 15.9 108.53 15.9ZM108.596 3.91L110.664 0.72L112.424 1.534L109.916 3.91H108.596ZM121.314 17.22C119.664 17.22 117.904 16.582 116.606 15.548L117.464 14.338C118.696 15.284 120.06 15.79 121.402 15.79C122.788 15.79 123.756 15.108 123.756 13.986V13.942C123.756 12.82 122.414 12.358 120.918 11.94C119.158 11.412 117.156 10.84 117.156 8.728V8.684C117.156 6.726 118.784 5.428 121.028 5.428C122.436 5.428 123.954 5.912 125.12 6.682L124.35 7.958C123.294 7.276 122.106 6.858 120.984 6.858C119.642 6.858 118.784 7.562 118.784 8.508V8.552C118.784 9.63 120.192 10.048 121.71 10.51C123.47 11.038 125.362 11.72 125.362 13.766V13.81C125.362 15.966 123.58 17.22 121.314 17.22ZM135.149 3.14V1.27H137.085V3.14H135.149ZM135.259 17V5.626H136.953V17H135.259ZM140.884 17V5.626H142.578V7.606C143.348 6.374 144.514 5.384 146.472 5.384C149.2 5.384 150.828 7.232 150.828 9.938V17H149.134V10.356C149.134 8.244 148.012 6.924 145.988 6.924C144.03 6.924 142.578 8.354 142.578 10.488V17H140.884ZM155.079 17V7.122H153.517V5.648H155.079V4.658C155.079 3.36 155.409 2.392 156.069 1.732C156.663 1.138 157.477 0.851999 158.511 0.851999C159.303 0.851999 159.831 0.94 160.381 1.138V2.612C159.765 2.436 159.325 2.326 158.731 2.326C157.411 2.326 156.751 3.14 156.751 4.746V5.67H160.359V7.122H156.773V17H155.079ZM167.496 17.264C164.086 17.264 161.6 14.58 161.6 11.368V11.324C161.6 8.09 164.086 5.384 167.54 5.384C170.972 5.384 173.458 8.068 173.458 11.28V11.324C173.458 14.558 170.928 17.264 167.496 17.264ZM167.54 15.746C170.004 15.746 171.72 13.744 171.72 11.368V11.324C171.72 8.882 169.894 6.88 167.496 6.88C165.032 6.88 163.338 8.882 163.338 11.28V11.324C163.338 13.766 165.142 15.746 167.54 15.746ZM176.527 17V5.626H178.221V8.596C179.057 6.704 180.707 5.362 182.863 5.428V7.254H182.731C180.245 7.254 178.221 9.036 178.221 12.468V17H176.527ZM185.443 17V5.626H187.137V7.54C187.907 6.396 188.897 5.384 190.811 5.384C192.659 5.384 193.847 6.352 194.463 7.65C195.299 6.396 196.465 5.384 198.467 5.384C201.107 5.384 202.691 7.122 202.691 9.96V17H200.997V10.356C200.997 8.156 199.897 6.924 198.049 6.924C196.355 6.924 194.903 8.2 194.903 10.444V17H193.231V10.312C193.231 8.178 192.131 6.924 190.305 6.924C188.501 6.924 187.137 8.42 187.137 10.51V17H185.443ZM209.692 17.242C207.58 17.242 205.446 16.054 205.446 13.7V13.656C205.446 11.28 207.426 9.982 210.308 9.982C211.782 9.982 212.772 10.18 213.806 10.466V10.07C213.806 8.024 212.552 6.968 210.418 6.968C209.076 6.968 208.02 7.298 206.964 7.804L206.458 6.418C207.712 5.824 208.922 5.472 210.594 5.472C212.2 5.472 213.432 5.89 214.268 6.726C215.038 7.496 215.434 8.618 215.434 10.048V17H213.806V15.284C213.014 16.318 211.716 17.242 209.692 17.242ZM210.022 15.9C212.134 15.9 213.828 14.624 213.828 12.82V11.72C212.97 11.478 211.892 11.236 210.484 11.236C208.35 11.236 207.162 12.16 207.162 13.59V13.634C207.162 15.064 208.504 15.9 210.022 15.9ZM224.17 17.264C220.826 17.264 218.34 14.558 218.34 11.368V11.324C218.34 8.09 220.826 5.384 224.17 5.384C226.326 5.384 227.646 6.264 228.724 7.408L227.602 8.596C226.7 7.65 225.71 6.88 224.148 6.88C221.838 6.88 220.078 8.816 220.078 11.28V11.324C220.078 13.788 221.882 15.746 224.258 15.746C225.732 15.746 226.832 15.02 227.734 14.052L228.812 15.064C227.668 16.362 226.304 17.264 224.17 17.264ZM231.657 3.14V1.27H233.593V3.14H231.657ZM231.767 17V5.626H233.461V17H231.767ZM241.924 3.91L243.992 0.72L245.752 1.534L243.244 3.91H241.924ZM242.584 17.264C239.174 17.264 236.688 14.58 236.688 11.368V11.324C236.688 8.09 239.174 5.384 242.628 5.384C246.06 5.384 248.546 8.068 248.546 11.28V11.324C248.546 14.558 246.016 17.264 242.584 17.264ZM242.628 15.746C245.092 15.746 246.808 13.744 246.808 11.368V11.324C246.808 8.882 244.982 6.88 242.584 6.88C240.12 6.88 238.426 8.882 238.426 11.28V11.324C238.426 13.766 240.23 15.746 242.628 15.746ZM251.615 17V5.626H253.309V7.606C254.079 6.374 255.245 5.384 257.203 5.384C259.931 5.384 261.559 7.232 261.559 9.938V17H259.865V10.356C259.865 8.244 258.743 6.924 256.719 6.924C254.761 6.924 253.309 8.354 253.309 10.488V17H251.615ZM276.541 17.242C273.813 17.242 271.107 15.086 271.107 11.346V11.302C271.107 7.606 273.813 5.384 276.541 5.384C278.653 5.384 280.017 6.506 280.897 7.804V0.94H282.591V17H280.897V14.712C279.951 16.076 278.653 17.242 276.541 17.242ZM276.849 15.724C278.961 15.724 280.963 13.942 280.963 11.324V11.28C280.963 8.662 278.961 6.902 276.849 6.902C274.649 6.902 272.845 8.53 272.845 11.28V11.324C272.845 14.03 274.671 15.724 276.849 15.724ZM291.348 17.264C288.246 17.264 285.672 14.866 285.672 11.346V11.302C285.672 8.024 287.96 5.384 291.128 5.384C294.494 5.384 296.43 8.068 296.43 11.39C296.43 11.632 296.43 11.742 296.408 11.94H287.388C287.63 14.404 289.368 15.79 291.392 15.79C292.976 15.79 294.032 15.152 294.978 14.184L296.034 15.13C294.89 16.428 293.526 17.264 291.348 17.264ZM287.388 10.686H294.714C294.538 8.64 293.372 6.814 291.084 6.814C289.082 6.814 287.63 8.486 287.388 10.686ZM305.992 17V0.94H307.686V7.606C308.456 6.374 309.622 5.384 311.58 5.384C314.308 5.384 315.936 7.232 315.936 9.938V17H314.242V10.356C314.242 8.244 313.12 6.924 311.096 6.924C309.138 6.924 307.686 8.354 307.686 10.488V17H305.992ZM324.74 17.264C321.33 17.264 318.844 14.58 318.844 11.368V11.324C318.844 8.09 321.33 5.384 324.784 5.384C328.216 5.384 330.702 8.068 330.702 11.28V11.324C330.702 14.558 328.172 17.264 324.74 17.264ZM324.784 15.746C327.248 15.746 328.964 13.744 328.964 11.368V11.324C328.964 8.882 327.138 6.88 324.74 6.88C322.276 6.88 320.582 8.882 320.582 11.28V11.324C320.582 13.766 322.386 15.746 324.784 15.746ZM337.533 17.22C335.883 17.22 334.123 16.582 332.825 15.548L333.683 14.338C334.915 15.284 336.279 15.79 337.621 15.79C339.007 15.79 339.975 15.108 339.975 13.986V13.942C339.975 12.82 338.633 12.358 337.137 11.94C335.377 11.412 333.375 10.84 333.375 8.728V8.684C333.375 6.726 335.003 5.428 337.247 5.428C338.655 5.428 340.173 5.912 341.339 6.682L340.569 7.958C339.513 7.276 338.325 6.858 337.203 6.858C335.861 6.858 335.003 7.562 335.003 8.508V8.552C335.003 9.63 336.411 10.048 337.929 10.51C339.689 11.038 341.581 11.72 341.581 13.766V13.81C341.581 15.966 339.799 17.22 337.533 17.22ZM344.728 20.52V5.626H346.422V7.914C347.368 6.572 348.666 5.384 350.778 5.384C353.506 5.384 356.212 7.54 356.212 11.28V11.324C356.212 15.02 353.528 17.242 350.778 17.242C348.666 17.242 347.302 16.12 346.422 14.822V20.52H344.728ZM350.47 15.724C352.67 15.724 354.474 14.096 354.474 11.346V11.302C354.474 8.596 352.648 6.902 350.47 6.902C348.358 6.902 346.356 8.706 346.356 11.28V11.324C346.356 13.964 348.358 15.724 350.47 15.724ZM364.309 17.264C361.207 17.264 358.633 14.866 358.633 11.346V11.302C358.633 8.024 360.921 5.384 364.089 5.384C367.455 5.384 369.391 8.068 369.391 11.39C369.391 11.632 369.391 11.742 369.369 11.94H360.349C360.591 14.404 362.329 15.79 364.353 15.79C365.937 15.79 366.993 15.152 367.939 14.184L368.995 15.13C367.851 16.428 366.487 17.264 364.309 17.264ZM360.349 10.686H367.675C367.499 8.64 366.333 6.814 364.045 6.814C362.043 6.814 360.591 8.486 360.349 10.686ZM377.131 17.242C374.403 17.242 371.697 15.086 371.697 11.346V11.302C371.697 7.606 374.403 5.384 377.131 5.384C379.243 5.384 380.607 6.506 381.487 7.804V0.94H383.181V17H381.487V14.712C380.541 16.076 379.243 17.242 377.131 17.242ZM377.439 15.724C379.551 15.724 381.553 13.942 381.553 11.324V11.28C381.553 8.662 379.551 6.902 377.439 6.902C375.239 6.902 373.435 8.53 373.435 11.28V11.324C373.435 14.03 375.261 15.724 377.439 15.724ZM390.354 17.242C388.242 17.242 386.108 16.054 386.108 13.7V13.656C386.108 11.28 388.088 9.982 390.97 9.982C392.444 9.982 393.434 10.18 394.468 10.466V10.07C394.468 8.024 393.214 6.968 391.08 6.968C389.738 6.968 388.682 7.298 387.626 7.804L387.12 6.418C388.374 5.824 389.584 5.472 391.256 5.472C392.862 5.472 394.094 5.89 394.93 6.726C395.7 7.496 396.096 8.618 396.096 10.048V17H394.468V15.284C393.676 16.318 392.378 17.242 390.354 17.242ZM390.684 15.9C392.796 15.9 394.49 14.624 394.49 12.82V11.72C393.632 11.478 392.554 11.236 391.146 11.236C389.012 11.236 387.824 12.16 387.824 13.59V13.634C387.824 15.064 389.166 15.9 390.684 15.9ZM399.75 3.14V1.27H401.686V3.14H399.75ZM398.782 20.586C398.364 20.586 398.1 20.564 397.726 20.476V19.09C397.99 19.156 398.32 19.156 398.562 19.156C399.332 19.156 399.86 18.694 399.86 17.638V5.626H401.554V17.66C401.554 19.684 400.52 20.586 398.782 20.586ZM410.458 17.264C407.356 17.264 404.782 14.866 404.782 11.346V11.302C404.782 8.024 407.07 5.384 410.238 5.384C413.604 5.384 415.54 8.068 415.54 11.39C415.54 11.632 415.54 11.742 415.518 11.94H406.498C406.74 14.404 408.478 15.79 410.502 15.79C412.086 15.79 413.142 15.152 414.088 14.184L415.144 15.13C414 16.428 412.636 17.264 410.458 17.264ZM406.498 10.686H413.824C413.648 8.64 412.482 6.814 410.194 6.814C408.192 6.814 406.74 8.486 406.498 10.686ZM422.267 17.22C420.617 17.22 418.857 16.582 417.559 15.548L418.417 14.338C419.649 15.284 421.013 15.79 422.355 15.79C423.741 15.79 424.709 15.108 424.709 13.986V13.942C424.709 12.82 423.367 12.358 421.871 11.94C420.111 11.412 418.109 10.84 418.109 8.728V8.684C418.109 6.726 419.737 5.428 421.981 5.428C423.389 5.428 424.907 5.912 426.073 6.682L425.303 7.958C424.247 7.276 423.059 6.858 421.937 6.858C420.595 6.858 419.737 7.562 419.737 8.508V8.552C419.737 9.63 421.145 10.048 422.663 10.51C424.423 11.038 426.315 11.72 426.315 13.766V13.81C426.315 15.966 424.533 17.22 422.267 17.22ZM428.846 19.684L428.582 18.914C429.704 18.496 430.144 17.946 430.056 17H429.264V14.69H431.288V16.67C431.288 18.452 430.518 19.31 428.846 19.684ZM445.631 17.242C442.903 17.242 441.275 15.394 441.275 12.688V5.626H442.969V12.27C442.969 14.382 444.091 15.702 446.115 15.702C448.051 15.702 449.525 14.272 449.525 12.138V5.626H451.197V17H449.525V15.02C448.755 16.252 447.589 17.242 445.631 17.242ZM461.057 17.242C458.945 17.242 457.581 16.12 456.701 14.822V17H455.007V0.94H456.701V7.914C457.647 6.572 458.945 5.384 461.057 5.384C463.785 5.384 466.491 7.54 466.491 11.28V11.324C466.491 15.02 463.807 17.242 461.057 17.242ZM460.749 15.724C462.949 15.724 464.753 14.096 464.753 11.346V11.302C464.753 8.596 462.927 6.902 460.749 6.902C458.637 6.902 456.635 8.706 456.635 11.28V11.324C456.635 13.964 458.637 15.724 460.749 15.724ZM469.661 3.14V1.27H471.597V3.14H469.661ZM469.771 17V5.626H471.465V17H469.771ZM480.522 17.264C477.178 17.264 474.692 14.558 474.692 11.368V11.324C474.692 8.09 477.178 5.384 480.522 5.384C482.678 5.384 483.998 6.264 485.076 7.408L483.954 8.596C483.052 7.65 482.062 6.88 480.5 6.88C478.19 6.88 476.43 8.816 476.43 11.28V11.324C476.43 13.788 478.234 15.746 480.61 15.746C482.084 15.746 483.184 15.02 484.086 14.052L485.164 15.064C484.02 16.362 482.656 17.264 480.522 17.264ZM491.352 17.242C489.24 17.242 487.106 16.054 487.106 13.7V13.656C487.106 11.28 489.086 9.982 491.968 9.982C493.442 9.982 494.432 10.18 495.466 10.466V10.07C495.466 8.024 494.212 6.968 492.078 6.968C490.736 6.968 489.68 7.298 488.624 7.804L488.118 6.418C489.372 5.824 490.582 5.472 492.254 5.472C493.86 5.472 495.092 5.89 495.928 6.726C496.698 7.496 497.094 8.618 497.094 10.048V17H495.466V15.284C494.674 16.318 493.376 17.242 491.352 17.242ZM491.682 15.9C493.794 15.9 495.488 14.624 495.488 12.82V11.72C494.63 11.478 493.552 11.236 492.144 11.236C490.01 11.236 488.822 12.16 488.822 13.59V13.634C488.822 15.064 490.164 15.9 491.682 15.9ZM505.831 17.264C502.487 17.264 500.001 14.558 500.001 11.368V11.324C500.001 8.09 502.487 5.384 505.831 5.384C507.987 5.384 509.307 6.264 510.385 7.408L509.263 8.596C508.361 7.65 507.371 6.88 505.809 6.88C503.499 6.88 501.739 8.816 501.739 11.28V11.324C501.739 13.788 503.543 15.746 505.919 15.746C507.393 15.746 508.493 15.02 509.395 14.052L510.473 15.064C509.329 16.362 507.965 17.264 505.831 17.264ZM513.317 3.14V1.27H515.253V3.14H513.317ZM513.427 17V5.626H515.121V17H513.427ZM524.244 17.264C520.834 17.264 518.348 14.58 518.348 11.368V11.324C518.348 8.09 520.834 5.384 524.288 5.384C527.72 5.384 530.206 8.068 530.206 11.28V11.324C530.206 14.558 527.676 17.264 524.244 17.264ZM524.288 15.746C526.752 15.746 528.468 13.744 528.468 11.368V11.324C528.468 8.882 526.642 6.88 524.244 6.88C521.78 6.88 520.086 8.882 520.086 11.28V11.324C520.086 13.766 521.89 15.746 524.288 15.746ZM533.275 17V5.626H534.969V7.606C535.739 6.374 536.905 5.384 538.863 5.384C541.591 5.384 543.219 7.232 543.219 9.938V17H541.525V10.356C541.525 8.244 540.403 6.924 538.379 6.924C536.421 6.924 534.969 8.354 534.969 10.488V17H533.275ZM551.803 17.264C548.701 17.264 546.127 14.866 546.127 11.346V11.302C546.127 8.024 548.415 5.384 551.583 5.384C554.949 5.384 556.885 8.068 556.885 11.39C556.885 11.632 556.885 11.742 556.863 11.94H547.843C548.085 14.404 549.823 15.79 551.847 15.79C553.431 15.79 554.487 15.152 555.433 14.184L556.489 15.13C555.345 16.428 553.981 17.264 551.803 17.264ZM547.843 10.686H555.169C554.993 8.64 553.827 6.814 551.539 6.814C549.537 6.814 548.085 8.486 547.843 10.686ZM563.613 17.22C561.963 17.22 560.203 16.582 558.905 15.548L559.763 14.338C560.995 15.284 562.359 15.79 563.701 15.79C565.087 15.79 566.055 15.108 566.055 13.986V13.942C566.055 12.82 564.713 12.358 563.217 11.94C561.457 11.412 559.455 10.84 559.455 8.728V8.684C559.455 6.726 561.083 5.428 563.327 5.428C564.735 5.428 566.253 5.912 567.419 6.682L566.649 7.958C565.593 7.276 564.405 6.858 563.283 6.858C561.941 6.858 561.083 7.562 561.083 8.508V8.552C561.083 9.63 562.491 10.048 564.009 10.51C565.769 11.038 567.661 11.72 567.661 13.766V13.81C567.661 15.966 565.879 17.22 563.613 17.22ZM582.596 17.264C579.186 17.264 576.7 14.58 576.7 11.368V11.324C576.7 8.09 579.186 5.384 582.64 5.384C586.072 5.384 588.558 8.068 588.558 11.28V11.324C588.558 14.558 586.028 17.264 582.596 17.264ZM582.64 15.746C585.104 15.746 586.82 13.744 586.82 11.368V11.324C586.82 8.882 584.994 6.88 582.596 6.88C580.132 6.88 578.438 8.882 578.438 11.28V11.324C578.438 13.766 580.242 15.746 582.64 15.746ZM603.348 17.264C600.004 17.264 597.518 14.558 597.518 11.368V11.324C597.518 8.09 600.004 5.384 603.348 5.384C605.504 5.384 606.824 6.264 607.902 7.408L606.78 8.596C605.878 7.65 604.888 6.88 603.326 6.88C601.016 6.88 599.256 8.816 599.256 11.28V11.324C599.256 13.788 601.06 15.746 603.436 15.746C604.91 15.746 606.01 15.02 606.912 14.052L607.99 15.064C606.846 16.362 605.482 17.264 603.348 17.264ZM614.885 17.242C612.157 17.242 610.529 15.394 610.529 12.688V5.626H612.223V12.27C612.223 14.382 613.345 15.702 615.369 15.702C617.305 15.702 618.779 14.272 618.779 12.138V5.626H620.451V17H618.779V15.02C618.009 16.252 616.843 17.242 614.885 17.242ZM627.649 17.242C625.537 17.242 623.403 16.054 623.403 13.7V13.656C623.403 11.28 625.383 9.982 628.265 9.982C629.739 9.982 630.729 10.18 631.763 10.466V10.07C631.763 8.024 630.509 6.968 628.375 6.968C627.033 6.968 625.977 7.298 624.921 7.804L624.415 6.418C625.669 5.824 626.879 5.472 628.551 5.472C630.157 5.472 631.389 5.89 632.225 6.726C632.995 7.496 633.391 8.618 633.391 10.048V17H631.763V15.284C630.971 16.318 629.673 17.242 627.649 17.242ZM627.979 15.9C630.091 15.9 631.785 14.624 631.785 12.82V11.72C630.927 11.478 629.849 11.236 628.441 11.236C626.307 11.236 625.119 12.16 625.119 13.59V13.634C625.119 15.064 626.461 15.9 627.979 15.9ZM637.155 17V0.94H638.849V17H637.155ZM651.911 20.52V14.712C650.965 16.076 649.667 17.242 647.555 17.242C644.827 17.242 642.121 15.086 642.121 11.346V11.302C642.121 7.606 644.827 5.384 647.555 5.384C649.667 5.384 651.031 6.506 651.911 7.804V5.626H653.605V20.52H651.911ZM647.863 15.724C649.975 15.724 651.977 13.942 651.977 11.324V11.28C651.977 8.662 649.975 6.902 647.863 6.902C645.663 6.902 643.859 8.53 643.859 11.28V11.324C643.859 14.03 645.685 15.724 647.863 15.724ZM661.57 17.242C658.842 17.242 657.214 15.394 657.214 12.688V5.626H658.908V12.27C658.908 14.382 660.03 15.702 662.054 15.702C663.99 15.702 665.464 14.272 665.464 12.138V5.626H667.136V17H665.464V15.02C664.694 16.252 663.528 17.242 661.57 17.242ZM670.991 3.14V1.27H672.927V3.14H670.991ZM671.101 17V5.626H672.795V17H671.101ZM681.698 17.264C678.596 17.264 676.022 14.866 676.022 11.346V11.302C676.022 8.024 678.31 5.384 681.478 5.384C684.844 5.384 686.78 8.068 686.78 11.39C686.78 11.632 686.78 11.742 686.758 11.94H677.738C677.98 14.404 679.718 15.79 681.742 15.79C683.326 15.79 684.382 15.152 685.328 14.184L686.384 15.13C685.24 16.428 683.876 17.264 681.698 17.264ZM677.738 10.686H685.064C684.888 8.64 683.722 6.814 681.434 6.814C679.432 6.814 677.98 8.486 677.738 10.686ZM689.746 17V5.626H691.44V8.596C692.276 6.704 693.926 5.362 696.082 5.428V7.254H695.95C693.464 7.254 691.44 9.036 691.44 12.468V17H689.746ZM710.449 17.264C707.039 17.264 704.553 14.58 704.553 11.368V11.324C704.553 8.09 707.039 5.384 710.493 5.384C713.925 5.384 716.411 8.068 716.411 11.28V11.324C716.411 14.558 713.881 17.264 710.449 17.264ZM710.493 15.746C712.957 15.746 714.673 13.744 714.673 11.368V11.324C714.673 8.882 712.847 6.88 710.449 6.88C707.985 6.88 706.291 8.882 706.291 11.28V11.324C706.291 13.766 708.095 15.746 710.493 15.746ZM723.286 17.198C721.438 17.198 720.074 16.296 720.074 13.986V7.122H718.49V5.626H720.074V2.194H721.768V5.626H725.376V7.122H721.768V13.766C721.768 15.174 722.538 15.658 723.682 15.658C724.276 15.658 724.738 15.548 725.332 15.262V16.714C724.738 17.044 724.1 17.198 723.286 17.198ZM728.374 17V5.626H730.068V8.596C730.904 6.704 732.554 5.362 734.71 5.428V7.254H734.578C732.092 7.254 730.068 9.036 730.068 12.468V17H728.374ZM740.12 17.242C738.008 17.242 735.874 16.054 735.874 13.7V13.656C735.874 11.28 737.854 9.982 740.736 9.982C742.21 9.982 743.2 10.18 744.234 10.466V10.07C744.234 8.024 742.98 6.968 740.846 6.968C739.504 6.968 738.448 7.298 737.392 7.804L736.886 6.418C738.14 5.824 739.35 5.472 741.022 5.472C742.628 5.472 743.86 5.89 744.696 6.726C745.466 7.496 745.862 8.618 745.862 10.048V17H744.234V15.284C743.442 16.318 742.144 17.242 740.12 17.242ZM740.45 15.9C742.562 15.9 744.256 14.624 744.256 12.82V11.72C743.398 11.478 742.32 11.236 740.912 11.236C738.778 11.236 737.59 12.16 737.59 13.59V13.634C737.59 15.064 738.932 15.9 740.45 15.9ZM760.842 17.242C758.114 17.242 755.408 15.086 755.408 11.346V11.302C755.408 7.606 758.114 5.384 760.842 5.384C762.954 5.384 764.318 6.506 765.198 7.804V0.94H766.892V17H765.198V14.712C764.252 16.076 762.954 17.242 760.842 17.242ZM761.15 15.724C763.262 15.724 765.264 13.942 765.264 11.324V11.28C765.264 8.662 763.262 6.902 761.15 6.902C758.95 6.902 757.146 8.53 757.146 11.28V11.324C757.146 14.03 758.972 15.724 761.15 15.724ZM774.857 17.242C772.129 17.242 770.501 15.394 770.501 12.688V5.626H772.195V12.27C772.195 14.382 773.317 15.702 775.341 15.702C777.277 15.702 778.751 14.272 778.751 12.138V5.626H780.423V17H778.751V15.02C777.981 16.252 776.815 17.242 774.857 17.242ZM789.008 17.242C786.28 17.242 783.574 15.086 783.574 11.346V11.302C783.574 7.606 786.28 5.384 789.008 5.384C791.12 5.384 792.484 6.506 793.364 7.804V0.94H795.058V17H793.364V14.712C792.418 16.076 791.12 17.242 789.008 17.242ZM789.316 15.724C791.428 15.724 793.43 13.942 793.43 11.324V11.28C793.43 8.662 791.428 6.902 789.316 6.902C787.116 6.902 785.312 8.53 785.312 11.28V11.324C785.312 14.03 787.138 15.724 789.316 15.724ZM802.231 17.242C800.119 17.242 797.985 16.054 797.985 13.7V13.656C797.985 11.28 799.965 9.982 802.847 9.982C804.321 9.982 805.311 10.18 806.345 10.466V10.07C806.345 8.024 805.091 6.968 802.957 6.968C801.615 6.968 800.559 7.298 799.503 7.804L798.997 6.418C800.251 5.824 801.461 5.472 803.133 5.472C804.739 5.472 805.971 5.89 806.807 6.726C807.577 7.496 807.973 8.618 807.973 10.048V17H806.345V15.284C805.553 16.318 804.255 17.242 802.231 17.242ZM802.561 15.9C804.673 15.9 806.367 14.624 806.367 12.82V11.72C805.509 11.478 804.431 11.236 803.023 11.236C800.889 11.236 799.701 12.16 799.701 13.59V13.634C799.701 15.064 801.043 15.9 802.561 15.9ZM810.967 19.684L810.703 18.914C811.825 18.496 812.265 17.946 812.177 17H811.385V14.69H813.409V16.67C813.409 18.452 812.639 19.31 810.967 19.684ZM828.544 17.264C825.442 17.264 822.868 14.866 822.868 11.346V11.302C822.868 8.024 825.156 5.384 828.324 5.384C831.69 5.384 833.626 8.068 833.626 11.39C833.626 11.632 833.626 11.742 833.604 11.94H824.584C824.826 14.404 826.564 15.79 828.588 15.79C830.172 15.79 831.228 15.152 832.174 14.184L833.23 15.13C832.086 16.428 830.722 17.264 828.544 17.264ZM824.584 10.686H831.91C831.734 8.64 830.568 6.814 828.28 6.814C826.278 6.814 824.826 8.486 824.584 10.686ZM840.353 17.22C838.703 17.22 836.943 16.582 835.645 15.548L836.503 14.338C837.735 15.284 839.099 15.79 840.441 15.79C841.827 15.79 842.795 15.108 842.795 13.986V13.942C842.795 12.82 841.453 12.358 839.957 11.94C838.197 11.412 836.195 10.84 836.195 8.728V8.684C836.195 6.726 837.823 5.428 840.067 5.428C841.475 5.428 842.993 5.912 844.159 6.682L843.389 7.958C842.333 7.276 841.145 6.858 840.023 6.858C838.681 6.858 837.823 7.562 837.823 8.508V8.552C837.823 9.63 839.231 10.048 840.749 10.51C842.509 11.038 844.401 11.72 844.401 13.766V13.81C844.401 15.966 842.619 17.22 840.353 17.22ZM852.674 17.264C849.33 17.264 846.844 14.558 846.844 11.368V11.324C846.844 8.09 849.33 5.384 852.674 5.384C854.83 5.384 856.15 6.264 857.228 7.408L856.106 8.596C855.204 7.65 854.214 6.88 852.652 6.88C850.342 6.88 848.582 8.816 848.582 11.28V11.324C848.582 13.788 850.386 15.746 852.762 15.746C854.236 15.746 855.336 15.02 856.238 14.052L857.316 15.064C856.172 16.362 854.808 17.264 852.674 17.264ZM860.117 17V5.626H861.811V8.596C862.647 6.704 864.297 5.362 866.453 5.428V7.254H866.321C863.835 7.254 861.811 9.036 861.811 12.468V17H860.117ZM869.077 3.14V1.27H871.013V3.14H869.077ZM869.187 17V5.626H870.881V17H869.187ZM880.862 17.242C878.75 17.242 877.386 16.12 876.506 14.822V17H874.812V0.94H876.506V7.914C877.452 6.572 878.75 5.384 880.862 5.384C883.59 5.384 886.296 7.54 886.296 11.28V11.324C886.296 15.02 883.612 17.242 880.862 17.242ZM880.554 15.724C882.754 15.724 884.558 14.096 884.558 11.346V11.302C884.558 8.596 882.732 6.902 880.554 6.902C878.442 6.902 876.44 8.706 876.44 11.28V11.324C876.44 13.964 878.442 15.724 880.554 15.724ZM889.465 3.14V1.27H891.401V3.14H889.465ZM889.575 17V5.626H891.269V17H889.575ZM895.201 17V5.626H896.895V7.606C897.665 6.374 898.831 5.384 900.789 5.384C903.517 5.384 905.145 7.232 905.145 9.938V17H903.451V10.356C903.451 8.244 902.329 6.924 900.305 6.924C898.347 6.924 896.895 8.354 896.895 10.488V17H895.201ZM913.949 17.264C910.539 17.264 908.053 14.58 908.053 11.368V11.324C908.053 8.09 910.539 5.384 913.993 5.384C917.425 5.384 919.911 8.068 919.911 11.28V11.324C919.911 14.558 917.381 17.264 913.949 17.264ZM913.993 15.746C916.457 15.746 918.173 13.744 918.173 11.368V11.324C918.173 8.882 916.347 6.88 913.949 6.88C911.485 6.88 909.791 8.882 909.791 11.28V11.324C909.791 13.766 911.595 15.746 913.993 15.746ZM926.742 17.22C925.092 17.22 923.332 16.582 922.034 15.548L922.892 14.338C924.124 15.284 925.488 15.79 926.83 15.79C928.216 15.79 929.184 15.108 929.184 13.986V13.942C929.184 12.82 927.842 12.358 926.346 11.94C924.586 11.412 922.584 10.84 922.584 8.728V8.684C922.584 6.726 924.212 5.428 926.456 5.428C927.864 5.428 929.382 5.912 930.548 6.682L929.778 7.958C928.722 7.276 927.534 6.858 926.412 6.858C925.07 6.858 924.212 7.562 924.212 8.508V8.552C924.212 9.63 925.62 10.048 927.138 10.51C928.898 11.038 930.79 11.72 930.79 13.766V13.81C930.79 15.966 929.008 17.22 926.742 17.22ZM933.717 17V14.69H935.741V17H933.717Z" fill="#364936"/>
</svg>
