<svg width="269" height="35" viewBox="0 0 269 35" fill="none" xmlns="http://www.w3.org/2000/svg">
<path d="M10.24 28V2.92H0.8V-1.90735e-06H22.84V2.92H13.4V28H10.24ZM32.1831 28.48C26.5431 28.48 21.8631 24.12 21.8631 17.72V17.64C21.8631 11.68 26.0231 6.88 31.7831 6.88C37.9031 6.88 41.4231 11.76 41.4231 17.8C41.4231 18.24 41.4231 18.44 41.3831 18.8H24.9831C25.4231 23.28 28.5831 25.8 32.2631 25.8C35.1431 25.8 37.0631 24.64 38.7831 22.88L40.7031 24.6C38.6231 26.96 36.1431 28.48 32.1831 28.48ZM24.9831 16.52H38.3031C37.9831 12.8 35.8631 9.48 31.7031 9.48C28.0631 9.48 25.4231 12.52 24.9831 16.52ZM67.8472 28.48C62.2072 28.48 57.5272 24.12 57.5272 17.72V17.64C57.5272 11.68 61.6872 6.88 67.4472 6.88C73.5672 6.88 77.0872 11.76 77.0872 17.8C77.0872 18.24 77.0872 18.44 77.0472 18.8H60.6472C61.0872 23.28 64.2472 25.8 67.9272 25.8C70.8072 25.8 72.7272 24.64 74.4472 22.88L76.3672 24.6C74.2872 26.96 71.8072 28.48 67.8472 28.48ZM60.6472 16.52H73.9672C73.6472 12.8 71.5272 9.48 67.3672 9.48C63.7272 9.48 61.0872 12.52 60.6472 16.52ZM89.3191 28.4C86.3191 28.4 83.1191 27.24 80.7591 25.36L82.3191 23.16C84.5591 24.88 87.0391 25.8 89.4791 25.8C91.9991 25.8 93.7591 24.56 93.7591 22.52V22.44C93.7591 20.4 91.3191 19.56 88.5991 18.8C85.3991 17.84 81.7591 16.8 81.7591 12.96V12.88C81.7591 9.32 84.7191 6.96 88.7991 6.96C91.3591 6.96 94.1191 7.84 96.2391 9.24L94.8391 11.56C92.9191 10.32 90.7591 9.56 88.7191 9.56C86.2791 9.56 84.7191 10.84 84.7191 12.56V12.64C84.7191 14.6 87.2791 15.36 90.0391 16.2C93.2391 17.16 96.6791 18.4 96.6791 22.12V22.2C96.6791 26.12 93.4391 28.4 89.3191 28.4ZM102.401 34.4V7.32H105.481V11.48C107.201 9.04 109.561 6.88 113.401 6.88C118.361 6.88 123.281 10.8 123.281 17.6V17.68C123.281 24.4 118.401 28.44 113.401 28.44C109.561 28.44 107.081 26.4 105.481 24.04V34.4H102.401ZM112.841 25.68C116.841 25.68 120.121 22.72 120.121 17.72V17.64C120.121 12.72 116.801 9.64 112.841 9.64C109.001 9.64 105.361 12.92 105.361 17.6V17.68C105.361 22.48 109.001 25.68 112.841 25.68ZM138.003 28.48C132.363 28.48 127.683 24.12 127.683 17.72V17.64C127.683 11.68 131.843 6.88 137.603 6.88C143.723 6.88 147.243 11.76 147.243 17.8C147.243 18.24 147.243 18.44 147.203 18.8H130.803C131.243 23.28 134.403 25.8 138.083 25.8C140.963 25.8 142.883 24.64 144.603 22.88L146.523 24.6C144.443 26.96 141.963 28.48 138.003 28.48ZM130.803 16.52H144.123C143.803 12.8 141.683 9.48 137.523 9.48C133.883 9.48 131.243 12.52 130.803 16.52ZM152.635 28V7.32H155.715V12.72C157.235 9.28 160.235 6.84 164.155 6.96V10.28H163.915C159.395 10.28 155.715 13.52 155.715 19.76V28H152.635ZM173.991 28.44C170.151 28.44 166.271 26.28 166.271 22V21.92C166.271 17.6 169.871 15.24 175.111 15.24C177.791 15.24 179.591 15.6 181.471 16.12V15.4C181.471 11.68 179.191 9.76 175.311 9.76C172.871 9.76 170.951 10.36 169.031 11.28L168.111 8.76C170.391 7.68 172.591 7.04 175.631 7.04C178.551 7.04 180.791 7.8 182.311 9.32C183.711 10.72 184.431 12.76 184.431 15.36V28H181.471V24.88C180.031 26.76 177.671 28.44 173.991 28.44ZM174.591 26C178.431 26 181.511 23.68 181.511 20.4V18.4C179.951 17.96 177.991 17.52 175.431 17.52C171.551 17.52 169.391 19.2 169.391 21.8V21.88C169.391 24.48 171.831 26 174.591 26ZM190.995 28V7.32H194.075V10.8C195.475 8.72 197.275 6.88 200.755 6.88C204.115 6.88 206.275 8.64 207.395 11C208.915 8.72 211.035 6.88 214.675 6.88C219.475 6.88 222.355 10.04 222.355 15.2V28H219.275V15.92C219.275 11.92 217.275 9.68 213.915 9.68C210.835 9.68 208.195 12 208.195 16.08V28H205.155V15.84C205.155 11.96 203.155 9.68 199.835 9.68C196.555 9.68 194.075 12.4 194.075 16.2V28H190.995ZM238.364 28.48C232.164 28.48 227.644 23.6 227.644 17.76V17.68C227.644 11.8 232.164 6.88 238.444 6.88C244.684 6.88 249.204 11.76 249.204 17.6V17.68C249.204 23.56 244.604 28.48 238.364 28.48ZM238.444 25.72C242.924 25.72 246.044 22.08 246.044 17.76V17.68C246.044 13.24 242.724 9.6 238.364 9.6C233.884 9.6 230.804 13.24 230.804 17.6V17.68C230.804 22.12 234.084 25.72 238.444 25.72ZM261.624 28.4C258.624 28.4 255.424 27.24 253.064 25.36L254.624 23.16C256.864 24.88 259.344 25.8 261.784 25.8C264.304 25.8 266.064 24.56 266.064 22.52V22.44C266.064 20.4 263.624 19.56 260.904 18.8C257.704 17.84 254.064 16.8 254.064 12.96V12.88C254.064 9.32 257.024 6.96 261.104 6.96C263.664 6.96 266.424 7.84 268.544 9.24L267.144 11.56C265.224 10.32 263.064 9.56 261.024 9.56C258.584 9.56 257.024 10.84 257.024 12.56V12.64C257.024 14.6 259.584 15.36 262.344 16.2C265.544 17.16 268.984 18.4 268.984 22.12V22.2C268.984 26.12 265.744 28.4 261.624 28.4Z" fill="#A58F49"/>
</svg>
