<svg width="492" height="23" viewBox="0 0 492 23" fill="none" xmlns="http://www.w3.org/2000/svg">
<path d="M0.6 19V1.5H6.95C10.8 1.5 13.45 3.475 13.45 6.85V6.9C13.45 10.575 10.275 12.475 6.625 12.475H1.9V19H0.6ZM1.9 11.275H6.7C9.95 11.275 12.15 9.575 12.15 6.975V6.925C12.15 4.15 10 2.7 6.85 2.7H1.9V11.275ZM22.5521 19.3C18.7771 19.3 16.0271 16.25 16.0271 12.675V12.625C16.0271 9.05 18.8021 5.95 22.6021 5.95C26.3771 5.95 29.1271 9 29.1271 12.575V12.625C29.1271 16.2 26.3521 19.3 22.5521 19.3ZM22.6021 18.15C25.6271 18.15 27.8021 15.675 27.8021 12.675V12.625C27.8021 9.55 25.5021 7.1 22.5521 7.1C19.5271 7.1 17.3521 9.575 17.3521 12.575V12.625C17.3521 15.7 19.6521 18.15 22.6021 18.15ZM32.8934 19V6.25H34.1184V9.875C35.1184 7.6 37.2434 5.95 39.7684 6.05V7.4H39.6434C36.6934 7.4 34.1184 9.625 34.1184 13.775V19H32.8934ZM51.1482 19V7.375H49.2982V6.25H51.1482V5C51.1482 3.55 51.5482 2.4 52.2732 1.675C52.9232 1.025 53.8232 0.674999 54.9482 0.674999C55.7232 0.674999 56.2732 0.774999 56.8482 0.975V2.125C56.1232 1.9 55.5982 1.8 54.9482 1.8C53.1982 1.8 52.3732 2.85 52.3732 5.025V6.25H56.8232V7.375H52.3732V19H51.1482ZM62.9646 19.3C60.5896 19.3 58.0396 17.95 58.0396 15.3V15.25C58.0396 12.6 60.3146 11.1 63.6146 11.1C65.3896 11.1 66.6146 11.325 67.8396 11.65V11.1C67.8396 8.525 66.2646 7.2 63.6396 7.2C62.0896 7.2 60.8146 7.625 59.6396 8.225L59.1896 7.15C60.5896 6.5 61.9646 6.05 63.7146 6.05C65.4396 6.05 66.8146 6.525 67.7396 7.45C68.5896 8.3 69.0396 9.475 69.0396 11.05V19H67.8396V16.875C66.9646 18.1 65.3896 19.3 62.9646 19.3ZM63.0396 18.15C65.6396 18.15 67.8646 16.55 67.8646 14.225V12.775C66.7896 12.5 65.3646 12.2 63.5396 12.2C60.8396 12.2 59.3396 13.4 59.3396 15.175V15.225C59.3396 17.075 61.0896 18.15 63.0396 18.15ZM77.3818 19.1L71.6568 6.25H73.0818L77.9068 17.625L82.7818 6.25H84.1568L78.4318 19.1H77.3818ZM92.4008 19.3C88.6258 19.3 85.8758 16.25 85.8758 12.675V12.625C85.8758 9.05 88.6508 5.95 92.4508 5.95C96.2258 5.95 98.9758 9 98.9758 12.575V12.625C98.9758 16.2 96.2008 19.3 92.4008 19.3ZM92.4508 18.15C95.4758 18.15 97.6508 15.675 97.6508 12.675V12.625C97.6508 9.55 95.3508 7.1 92.4008 7.1C89.3758 7.1 87.2008 9.575 87.2008 12.575V12.625C87.2008 15.7 89.5008 18.15 92.4508 18.15ZM102.742 19V6.25H103.967V9.875C104.967 7.6 107.092 5.95 109.617 6.05V7.4H109.492C106.542 7.4 103.967 9.625 103.967 13.775V19H102.742ZM109.806 21.675L109.506 21.05C110.581 20.5 110.981 19.95 110.906 19H110.231V16.875H111.881V18.725C111.881 20.275 111.306 21.1 109.806 21.675ZM128.013 19.225C126.038 19.225 124.438 18.15 124.438 15.725V7.375H122.588V6.25H124.438V2.175H125.663V6.25H130.138V7.375H125.663V15.6C125.663 17.425 126.738 18.075 128.213 18.075C128.838 18.075 129.363 17.95 130.088 17.625V18.775C129.438 19.075 128.813 19.225 128.013 19.225ZM138.781 19.3C135.431 19.3 132.531 16.625 132.531 12.65V12.6C132.531 8.9 135.131 5.95 138.581 5.95C142.156 5.95 144.431 8.85 144.431 12.625C144.431 12.85 144.431 12.925 144.406 13.125H133.831C134.056 16.3 136.331 18.15 138.831 18.15C140.806 18.15 142.156 17.275 143.206 16.15L144.056 16.9C142.756 18.3 141.231 19.3 138.781 19.3ZM133.831 12.025H143.106C142.931 9.45 141.456 7.075 138.531 7.075C136.006 7.075 134.056 9.2 133.831 12.025ZM155.501 23V6.25H156.726V9.1C157.826 7.425 159.451 5.95 161.976 5.95C165.051 5.95 168.176 8.425 168.176 12.575V12.625C168.176 16.775 165.051 19.3 161.976 19.3C159.426 19.3 157.776 17.85 156.726 16.25V23H155.501ZM161.851 18.125C164.626 18.125 166.851 16.1 166.851 12.675V12.625C166.851 9.275 164.526 7.125 161.851 7.125C159.201 7.125 156.651 9.35 156.651 12.6V12.65C156.651 15.925 159.201 18.125 161.851 18.125ZM177.38 19.3C174.03 19.3 171.13 16.625 171.13 12.65V12.6C171.13 8.9 173.73 5.95 177.18 5.95C180.755 5.95 183.03 8.85 183.03 12.625C183.03 12.85 183.03 12.925 183.005 13.125H172.43C172.655 16.3 174.93 18.15 177.43 18.15C179.405 18.15 180.755 17.275 181.805 16.15L182.655 16.9C181.355 18.3 179.83 19.3 177.38 19.3ZM172.43 12.025H181.705C181.53 9.45 180.055 7.075 177.13 7.075C174.605 7.075 172.655 9.2 172.43 12.025ZM191.979 19.3C188.904 19.3 185.779 16.825 185.779 12.675V12.625C185.779 8.475 188.904 5.95 191.979 5.95C194.529 5.95 196.179 7.4 197.229 9V0.75H198.454V19H197.229V16.15C196.129 17.825 194.504 19.3 191.979 19.3ZM192.104 18.125C194.754 18.125 197.304 15.9 197.304 12.65V12.6C197.304 9.325 194.754 7.125 192.104 7.125C189.329 7.125 187.104 9.15 187.104 12.575V12.625C187.104 15.975 189.429 18.125 192.104 18.125ZM203.133 2.925V1.25H204.658V2.925H203.133ZM203.283 19V6.25H204.508V19H203.283ZM209.334 19V6.25H210.559V8.525C211.384 7.2 212.534 5.95 214.809 5.95C217.034 5.95 218.409 7.225 219.109 8.7C219.934 7.275 221.309 5.95 223.709 5.95C226.734 5.95 228.609 8.075 228.609 11.275V19H227.384V11.425C227.384 8.675 225.959 7.075 223.609 7.075C221.459 7.075 219.584 8.725 219.584 11.575V19H218.359V11.35C218.359 8.7 216.909 7.075 214.634 7.075C212.359 7.075 210.559 9.075 210.559 11.65V19H209.334ZM238.763 19.3C234.988 19.3 232.238 16.25 232.238 12.675V12.625C232.238 9.05 235.013 5.95 238.813 5.95C242.588 5.95 245.338 9 245.338 12.575V12.625C245.338 16.2 242.563 19.3 238.763 19.3ZM238.813 18.15C241.838 18.15 244.013 15.675 244.013 12.675V12.625C244.013 9.55 241.713 7.1 238.763 7.1C235.738 7.1 233.563 9.575 233.563 12.575V12.625C233.563 15.7 235.863 18.15 238.813 18.15ZM253.229 19.25C251.379 19.25 249.354 18.5 248.004 17.4L248.729 16.425C250.129 17.5 251.679 18.1 253.304 18.1C255.029 18.1 256.379 17.15 256.379 15.675V15.625C256.379 14.125 254.779 13.575 253.004 13.075C250.929 12.475 248.629 11.85 248.629 9.575V9.525C248.629 7.475 250.354 6 252.829 6C254.354 6 256.079 6.55 257.354 7.4L256.704 8.425C255.529 7.65 254.129 7.15 252.779 7.15C251.029 7.15 249.879 8.1 249.879 9.375V9.425C249.879 10.85 251.604 11.375 253.429 11.9C255.479 12.475 257.629 13.225 257.629 15.475V15.525C257.629 17.8 255.679 19.25 253.229 19.25ZM279.651 23V16.15C278.551 17.825 276.926 19.3 274.401 19.3C271.326 19.3 268.201 16.825 268.201 12.675V12.625C268.201 8.475 271.326 5.95 274.401 5.95C276.951 5.95 278.601 7.4 279.651 9V6.25H280.876V23H279.651ZM274.526 18.125C277.176 18.125 279.726 15.9 279.726 12.65V12.6C279.726 9.325 277.176 7.125 274.526 7.125C271.751 7.125 269.526 9.15 269.526 12.575V12.625C269.526 15.975 271.851 18.125 274.526 18.125ZM290.38 19.3C287.155 19.3 285.28 17.1 285.28 14.05V6.25H286.505V13.825C286.505 16.45 287.98 18.175 290.555 18.175C293.055 18.175 294.98 16.275 294.98 13.625V6.25H296.205V19H294.98V16.625C294.13 18.125 292.705 19.3 290.38 19.3ZM306.237 19.3C302.887 19.3 299.987 16.625 299.987 12.65V12.6C299.987 8.9 302.587 5.95 306.037 5.95C309.612 5.95 311.887 8.85 311.887 12.625C311.887 12.85 311.887 12.925 311.862 13.125H301.287C301.512 16.3 303.787 18.15 306.287 18.15C308.262 18.15 309.612 17.275 310.662 16.15L311.512 16.9C310.212 18.3 308.687 19.3 306.237 19.3ZM301.287 12.025H310.562C310.387 9.45 308.912 7.075 305.987 7.075C303.462 7.075 301.512 9.2 301.287 12.025ZM322.957 19V6.25H324.182V8.625C325.032 7.125 326.457 5.95 328.782 5.95C332.007 5.95 333.882 8.15 333.882 11.2V19H332.657V11.425C332.657 8.8 331.182 7.075 328.607 7.075C326.107 7.075 324.182 8.975 324.182 11.625V19H322.957ZM343.939 19.3C340.164 19.3 337.414 16.25 337.414 12.675V12.625C337.414 9.05 340.189 5.95 343.989 5.95C347.764 5.95 350.514 9 350.514 12.575V12.625C350.514 16.2 347.739 19.3 343.939 19.3ZM343.989 18.15C347.014 18.15 349.189 15.675 349.189 12.675V12.625C349.189 9.55 346.889 7.1 343.939 7.1C340.914 7.1 338.739 9.575 338.739 12.575V12.625C338.739 15.7 341.039 18.15 343.989 18.15ZM358.405 19.25C356.555 19.25 354.53 18.5 353.18 17.4L353.905 16.425C355.305 17.5 356.855 18.1 358.48 18.1C360.205 18.1 361.555 17.15 361.555 15.675V15.625C361.555 14.125 359.955 13.575 358.18 13.075C356.105 12.475 353.805 11.85 353.805 9.575V9.525C353.805 7.475 355.53 6 358.005 6C359.53 6 361.255 6.55 362.53 7.4L361.88 8.425C360.705 7.65 359.305 7.15 357.955 7.15C356.205 7.15 355.055 8.1 355.055 9.375V9.425C355.055 10.85 356.78 11.375 358.605 11.9C360.655 12.475 362.805 13.225 362.805 15.475V15.525C362.805 17.8 360.855 19.25 358.405 19.25ZM379.827 19.3C376.152 19.3 373.327 16.25 373.327 12.675V12.625C373.327 9.05 376.177 5.95 379.827 5.95C382.227 5.95 383.727 7.05 384.927 8.3L384.052 9.2C382.952 8.075 381.702 7.1 379.802 7.1C376.902 7.1 374.652 9.525 374.652 12.575V12.625C374.652 15.7 376.977 18.15 379.902 18.15C381.702 18.15 383.102 17.225 384.177 16.025L385.027 16.775C383.727 18.25 382.177 19.3 379.827 19.3ZM393.768 19.3C389.993 19.3 387.243 16.25 387.243 12.675V12.625C387.243 9.05 390.018 5.95 393.818 5.95C397.593 5.95 400.343 9 400.343 12.575V12.625C400.343 16.2 397.568 19.3 393.768 19.3ZM393.818 18.15C396.843 18.15 399.018 15.675 399.018 12.675V12.625C399.018 9.55 396.718 7.1 393.768 7.1C390.743 7.1 388.568 9.575 388.568 12.575V12.625C388.568 15.7 390.868 18.15 393.818 18.15ZM404.109 19V6.25H405.334V8.625C406.184 7.125 407.609 5.95 409.934 5.95C413.159 5.95 415.034 8.15 415.034 11.2V19H413.809V11.425C413.809 8.8 412.334 7.075 409.759 7.075C407.259 7.075 405.334 8.975 405.334 11.625V19H404.109ZM420.191 19V7.375H418.341V6.25H420.191V5C420.191 3.55 420.591 2.4 421.316 1.675C421.966 1.025 422.866 0.674999 423.991 0.674999C424.766 0.674999 425.316 0.774999 425.891 0.975V2.125C425.166 1.9 424.641 1.8 423.991 1.8C422.241 1.8 421.416 2.85 421.416 5.025V6.25H425.866V7.375H421.416V19H420.191ZM428.666 19V6.25H429.891V19H428.666ZM428.516 2.925V1.25H430.041V2.925H428.516ZM434.724 19V6.25H435.949V9.875C436.949 7.6 439.074 5.95 441.599 6.05V7.4H441.474C438.524 7.4 435.949 9.625 435.949 13.775V19H434.724ZM444.734 19V6.25H445.959V8.525C446.784 7.2 447.934 5.95 450.209 5.95C452.434 5.95 453.809 7.225 454.509 8.7C455.334 7.275 456.709 5.95 459.109 5.95C462.134 5.95 464.009 8.075 464.009 11.275V19H462.784V11.425C462.784 8.675 461.359 7.075 459.009 7.075C456.859 7.075 454.984 8.725 454.984 11.575V19H453.759V11.35C453.759 8.7 452.309 7.075 450.034 7.075C447.759 7.075 445.959 9.075 445.959 11.65V19H444.734ZM473.888 19.3C470.538 19.3 467.638 16.625 467.638 12.65V12.6C467.638 8.9 470.238 5.95 473.688 5.95C477.263 5.95 479.538 8.85 479.538 12.625C479.538 12.85 479.538 12.925 479.513 13.125H468.938C469.163 16.3 471.438 18.15 473.938 18.15C475.913 18.15 477.263 17.275 478.313 16.15L479.163 16.9C477.863 18.3 476.338 19.3 473.888 19.3ZM468.938 12.025H478.213C478.038 9.45 476.563 7.075 473.638 7.075C471.113 7.075 469.163 9.2 468.938 12.025ZM487.238 19.25C485.388 19.25 483.363 18.5 482.013 17.4L482.738 16.425C484.138 17.5 485.688 18.1 487.313 18.1C489.038 18.1 490.388 17.15 490.388 15.675V15.625C490.388 14.125 488.788 13.575 487.013 13.075C484.938 12.475 482.638 11.85 482.638 9.575V9.525C482.638 7.475 484.363 6 486.838 6C488.363 6 490.088 6.55 491.363 7.4L490.713 8.425C489.538 7.65 488.138 7.15 486.788 7.15C485.038 7.15 483.888 8.1 483.888 9.375V9.425C483.888 10.85 485.613 11.375 487.438 11.9C489.488 12.475 491.638 13.225 491.638 15.475V15.525C491.638 17.8 489.688 19.25 487.238 19.25Z" fill="white"/>
</svg>
