<svg width="207" height="18" viewBox="0 0 207 18" fill="none" xmlns="http://www.w3.org/2000/svg">
<path d="M2.59375 1L7.34375 14.4687H7.53125L12.2812 1H14.3125L8.4375 17H6.4375L0.5625 1H2.59375ZM20.4688 17.25C19.3125 17.25 18.3151 16.9948 17.4766 16.4844C16.6432 15.9688 16 15.25 15.5469 14.3281C15.099 13.401 14.875 12.3229 14.875 11.0938C14.875 9.86458 15.099 8.78125 15.5469 7.84375C16 6.90104 16.6302 6.16667 17.4375 5.64062C18.25 5.10937 19.1979 4.84375 20.2812 4.84375C20.9063 4.84375 21.5234 4.94792 22.1328 5.15625C22.7422 5.36458 23.2969 5.70312 23.7969 6.17188C24.2969 6.63542 24.6953 7.25 24.9922 8.01562C25.2891 8.78125 25.4375 9.72396 25.4375 10.8437V11.625H16.1875V10.0312H23.5625C23.5625 9.35417 23.4271 8.75 23.1563 8.21875C22.8906 7.6875 22.5104 7.26823 22.0156 6.96094C21.526 6.65365 20.9479 6.5 20.2812 6.5C19.5469 6.5 18.9115 6.68229 18.375 7.04687C17.8438 7.40625 17.4349 7.875 17.1484 8.45312C16.862 9.03125 16.7188 9.65104 16.7188 10.3125V11.375C16.7188 12.2813 16.875 13.0495 17.1875 13.6797C17.5052 14.3047 17.9453 14.7812 18.5078 15.1094C19.0703 15.4323 19.724 15.5938 20.4688 15.5938C20.9531 15.5938 21.3906 15.526 21.7813 15.3906C22.1771 15.25 22.5182 15.0417 22.8047 14.7656C23.0911 14.4844 23.3125 14.1354 23.4688 13.7187L25.25 14.2188C25.0625 14.8229 24.7474 15.3542 24.3047 15.8125C23.862 16.2656 23.3151 16.6198 22.6641 16.875C22.013 17.125 21.2813 17.25 20.4688 17.25ZM28.2422 17V5H30.0234V6.8125H30.1484C30.3672 6.21875 30.763 5.73698 31.3359 5.36719C31.9089 4.99739 32.5547 4.8125 33.2734 4.8125C33.4089 4.8125 33.5781 4.8151 33.7813 4.82031C33.9844 4.82552 34.138 4.83333 34.2422 4.84375V6.71875C34.1797 6.70312 34.0365 6.67969 33.8125 6.64844C33.5938 6.61198 33.362 6.59375 33.1172 6.59375C32.5339 6.59375 32.013 6.71615 31.5547 6.96094C31.1016 7.20052 30.7422 7.53385 30.4766 7.96094C30.2161 8.38281 30.0859 8.86458 30.0859 9.40625V17H28.2422ZM47.1465 17.25C46.1465 17.25 45.2637 16.9974 44.498 16.4922C43.7324 15.9818 43.1335 15.263 42.7012 14.3359C42.2689 13.4036 42.0527 12.3021 42.0527 11.0313C42.0527 9.77083 42.2689 8.67708 42.7012 7.75C43.1335 6.82292 43.735 6.10677 44.5059 5.60156C45.2767 5.09635 46.1673 4.84375 47.1777 4.84375C47.959 4.84375 48.5762 4.97396 49.0293 5.23438C49.4876 5.48958 49.8366 5.78125 50.0762 6.10937C50.321 6.43229 50.5111 6.69792 50.6465 6.90625H50.8027V1H52.6465V17H50.8652V15.1562H50.6465C50.5111 15.375 50.3184 15.651 50.0684 15.9844C49.8184 16.3125 49.4616 16.6068 48.998 16.8672C48.5345 17.1224 47.9173 17.25 47.1465 17.25ZM47.3965 15.5938C48.1361 15.5938 48.7611 15.401 49.2715 15.0156C49.7819 14.625 50.1699 14.0859 50.4355 13.3984C50.7012 12.7057 50.834 11.9062 50.834 11C50.834 10.1042 50.7038 9.32031 50.4434 8.64844C50.1829 7.97135 49.7975 7.44531 49.2871 7.07031C48.7767 6.6901 48.1465 6.5 47.3965 6.5C46.6152 6.5 45.9642 6.70052 45.4434 7.10156C44.9277 7.4974 44.5397 8.03646 44.2793 8.71875C44.0241 9.39583 43.8965 10.1562 43.8965 11C43.8965 11.8542 44.0267 12.6302 44.2871 13.3281C44.5527 14.0208 44.9434 14.5729 45.459 14.9844C45.9798 15.3906 46.6257 15.5938 47.3965 15.5938ZM59.8105 17.2813C59.0501 17.2813 58.36 17.138 57.7402 16.8516C57.1204 16.5599 56.6283 16.1406 56.2637 15.5938C55.8991 15.0417 55.7168 14.375 55.7168 13.5937C55.7168 12.9062 55.8522 12.349 56.123 11.9219C56.3939 11.4896 56.7559 11.151 57.209 10.9062C57.6621 10.6615 58.1621 10.4792 58.709 10.3594C59.2611 10.2344 59.8158 10.1354 60.373 10.0625C61.1022 9.96875 61.6934 9.89844 62.1465 9.85156C62.6048 9.79948 62.9382 9.71354 63.1465 9.59375C63.36 9.47396 63.4668 9.26562 63.4668 8.96875V8.90625C63.4668 8.13542 63.2559 7.53646 62.834 7.10937C62.4173 6.68229 61.7845 6.46875 60.9355 6.46875C60.0553 6.46875 59.3652 6.66146 58.8652 7.04687C58.3652 7.43229 58.0137 7.84375 57.8105 8.28125L56.0605 7.65625C56.373 6.92708 56.7897 6.35937 57.3105 5.95312C57.8366 5.54167 58.4095 5.25521 59.0293 5.09375C59.6543 4.92708 60.2689 4.84375 60.873 4.84375C61.2585 4.84375 61.7012 4.89062 62.2012 4.98437C62.7064 5.07292 63.1934 5.25781 63.6621 5.53906C64.1361 5.82031 64.5293 6.24479 64.8418 6.8125C65.1543 7.38021 65.3105 8.14062 65.3105 9.09375V17H63.4668V15.375H63.373C63.248 15.6354 63.0397 15.9141 62.748 16.2109C62.4564 16.5078 62.0684 16.7604 61.584 16.9687C61.0996 17.1771 60.5085 17.2813 59.8105 17.2813ZM60.0918 15.625C60.821 15.625 61.4355 15.4818 61.9355 15.1953C62.4408 14.9089 62.821 14.5391 63.0762 14.0859C63.3366 13.6328 63.4668 13.1562 63.4668 12.6562V10.9687C63.3887 11.0625 63.2168 11.1484 62.9512 11.2266C62.6908 11.2995 62.3887 11.3646 62.0449 11.4219C61.7064 11.474 61.3757 11.5208 61.0527 11.5625C60.735 11.599 60.4772 11.6302 60.2793 11.6562C59.8001 11.7187 59.3522 11.8203 58.9355 11.9609C58.5241 12.0964 58.1908 12.3021 57.9355 12.5781C57.6855 12.849 57.5605 13.2187 57.5605 13.6875C57.5605 14.3281 57.7975 14.8125 58.2715 15.1406C58.7507 15.4635 59.3574 15.625 60.0918 15.625ZM73.8945 5V6.5625H67.6758V5H73.8945ZM69.4883 2.125H71.332V13.5625C71.332 14.0833 71.4076 14.474 71.5586 14.7344C71.7148 14.9896 71.9128 15.1615 72.1523 15.25C72.3971 15.3333 72.6549 15.375 72.9258 15.375C73.1289 15.375 73.2956 15.3646 73.4258 15.3437C73.556 15.3177 73.6602 15.2969 73.7383 15.2812L74.1133 16.9375C73.9883 16.9844 73.8138 17.0313 73.5898 17.0781C73.3659 17.1302 73.082 17.1563 72.7383 17.1563C72.2174 17.1563 71.707 17.0443 71.207 16.8203C70.7122 16.5964 70.3008 16.2552 69.9727 15.7969C69.6497 15.3385 69.4883 14.7604 69.4883 14.0625V2.125ZM81.4141 17.25C80.3307 17.25 79.3802 16.9922 78.5625 16.4766C77.75 15.9609 77.1146 15.2396 76.6562 14.3125C76.2031 13.3854 75.9766 12.3021 75.9766 11.0625C75.9766 9.8125 76.2031 8.72135 76.6562 7.78906C77.1146 6.85677 77.75 6.13281 78.5625 5.61719C79.3802 5.10156 80.3307 4.84375 81.4141 4.84375C82.4974 4.84375 83.4453 5.10156 84.2578 5.61719C85.0755 6.13281 85.7109 6.85677 86.1641 7.78906C86.6224 8.72135 86.8516 9.8125 86.8516 11.0625C86.8516 12.3021 86.6224 13.3854 86.1641 14.3125C85.7109 15.2396 85.0755 15.9609 84.2578 16.4766C83.4453 16.9922 82.4974 17.25 81.4141 17.25ZM81.4141 15.5938C82.237 15.5938 82.9141 15.3828 83.4453 14.9609C83.9766 14.5391 84.3698 13.9844 84.625 13.2969C84.8802 12.6094 85.0078 11.8646 85.0078 11.0625C85.0078 10.2604 84.8802 9.51302 84.625 8.82031C84.3698 8.1276 83.9766 7.56771 83.4453 7.14062C82.9141 6.71354 82.237 6.5 81.4141 6.5C80.5911 6.5 79.9141 6.71354 79.3828 7.14062C78.8516 7.56771 78.4583 8.1276 78.2031 8.82031C77.9479 9.51302 77.8203 10.2604 77.8203 11.0625C77.8203 11.8646 77.9479 12.6094 78.2031 13.2969C78.4583 13.9844 78.8516 14.5391 79.3828 14.9609C79.9141 15.3828 80.5911 15.5938 81.4141 15.5938ZM98.166 7.6875L96.5098 8.15625C96.4056 7.88021 96.252 7.61198 96.0488 7.35156C95.8509 7.08594 95.5801 6.86719 95.2363 6.69531C94.8926 6.52344 94.4525 6.4375 93.916 6.4375C93.1816 6.4375 92.5697 6.60677 92.0801 6.94531C91.5957 7.27865 91.3535 7.70312 91.3535 8.21875C91.3535 8.67708 91.5202 9.03906 91.8535 9.30469C92.1868 9.57031 92.7077 9.79167 93.416 9.96875L95.1973 10.4063C96.2702 10.6667 97.0697 11.0651 97.5957 11.6016C98.1217 12.1328 98.3848 12.8177 98.3848 13.6562C98.3848 14.3437 98.1868 14.9583 97.791 15.5C97.4004 16.0417 96.8535 16.4688 96.1504 16.7813C95.4473 17.0938 94.6296 17.25 93.6973 17.25C92.4733 17.25 91.4603 16.9844 90.6582 16.4531C89.8561 15.9219 89.3483 15.1458 89.1348 14.125L90.8848 13.6875C91.0514 14.3333 91.3665 14.8177 91.8301 15.1406C92.2988 15.4635 92.9108 15.625 93.666 15.625C94.5254 15.625 95.2077 15.4427 95.7129 15.0781C96.2233 14.7083 96.4785 14.2656 96.4785 13.75C96.4785 13.3333 96.3327 12.9844 96.041 12.7031C95.7493 12.4167 95.3014 12.2031 94.6973 12.0625L92.6973 11.5937C91.5983 11.3333 90.791 10.9297 90.2754 10.3828C89.765 9.83073 89.5098 9.14062 89.5098 8.3125C89.5098 7.63542 89.6999 7.03646 90.0801 6.51562C90.4655 5.99479 90.9889 5.58594 91.6504 5.28906C92.3171 4.99219 93.0723 4.84375 93.916 4.84375C95.1035 4.84375 96.0358 5.10417 96.7129 5.625C97.3952 6.14583 97.8796 6.83333 98.166 7.6875ZM107.598 17V1H109.441V6.90625H109.598C109.733 6.69792 109.921 6.43229 110.16 6.10937C110.405 5.78125 110.754 5.48958 111.207 5.23438C111.665 4.97396 112.285 4.84375 113.066 4.84375C114.077 4.84375 114.967 5.09635 115.738 5.60156C116.509 6.10677 117.111 6.82292 117.543 7.75C117.975 8.67708 118.191 9.77083 118.191 11.0313C118.191 12.3021 117.975 13.4036 117.543 14.3359C117.111 15.263 116.512 15.9818 115.746 16.4922C114.98 16.9974 114.098 17.25 113.098 17.25C112.327 17.25 111.71 17.1224 111.246 16.8672C110.783 16.6068 110.426 16.3125 110.176 15.9844C109.926 15.651 109.733 15.375 109.598 15.1562H109.379V17H107.598ZM109.41 11C109.41 11.9062 109.543 12.7057 109.809 13.3984C110.074 14.0859 110.462 14.625 110.973 15.0156C111.483 15.401 112.108 15.5938 112.848 15.5938C113.618 15.5938 114.262 15.3906 114.777 14.9844C115.298 14.5729 115.689 14.0208 115.949 13.3281C116.215 12.6302 116.348 11.8542 116.348 11C116.348 10.1562 116.217 9.39583 115.957 8.71875C115.702 8.03646 115.314 7.4974 114.793 7.10156C114.277 6.70052 113.629 6.5 112.848 6.5C112.098 6.5 111.467 6.6901 110.957 7.07031C110.447 7.44531 110.061 7.97135 109.801 8.64844C109.54 9.32031 109.41 10.1042 109.41 11ZM124.543 17.2813C123.783 17.2813 123.092 17.138 122.473 16.8516C121.853 16.5599 121.361 16.1406 120.996 15.5938C120.632 15.0417 120.449 14.375 120.449 13.5937C120.449 12.9062 120.585 12.349 120.855 11.9219C121.126 11.4896 121.488 11.151 121.941 10.9062C122.395 10.6615 122.895 10.4792 123.441 10.3594C123.993 10.2344 124.548 10.1354 125.105 10.0625C125.835 9.96875 126.426 9.89844 126.879 9.85156C127.337 9.79948 127.671 9.71354 127.879 9.59375C128.092 9.47396 128.199 9.26562 128.199 8.96875V8.90625C128.199 8.13542 127.988 7.53646 127.566 7.10937C127.15 6.68229 126.517 6.46875 125.668 6.46875C124.788 6.46875 124.098 6.66146 123.598 7.04687C123.098 7.43229 122.746 7.84375 122.543 8.28125L120.793 7.65625C121.105 6.92708 121.522 6.35937 122.043 5.95312C122.569 5.54167 123.142 5.25521 123.762 5.09375C124.387 4.92708 125.001 4.84375 125.605 4.84375C125.991 4.84375 126.434 4.89062 126.934 4.98437C127.439 5.07292 127.926 5.25781 128.395 5.53906C128.868 5.82031 129.262 6.24479 129.574 6.8125C129.887 7.38021 130.043 8.14062 130.043 9.09375V17H128.199V15.375H128.105C127.98 15.6354 127.772 15.9141 127.48 16.2109C127.189 16.5078 126.801 16.7604 126.316 16.9687C125.832 17.1771 125.241 17.2813 124.543 17.2813ZM124.824 15.625C125.553 15.625 126.168 15.4818 126.668 15.1953C127.173 14.9089 127.553 14.5391 127.809 14.0859C128.069 13.6328 128.199 13.1562 128.199 12.6562V10.9687C128.121 11.0625 127.949 11.1484 127.684 11.2266C127.423 11.2995 127.121 11.3646 126.777 11.4219C126.439 11.474 126.108 11.5208 125.785 11.5625C125.467 11.599 125.21 11.6302 125.012 11.6562C124.533 11.7187 124.085 11.8203 123.668 11.9609C123.257 12.0964 122.923 12.3021 122.668 12.5781C122.418 12.849 122.293 13.2187 122.293 13.6875C122.293 14.3281 122.53 14.8125 123.004 15.1406C123.483 15.4635 124.09 15.625 124.824 15.625ZM135.252 9.78125V17H133.408V5H135.189V6.875H135.346C135.627 6.26563 136.054 5.77604 136.627 5.40625C137.2 5.03125 137.939 4.84375 138.846 4.84375C139.658 4.84375 140.369 5.01042 140.979 5.34375C141.588 5.67188 142.062 6.17188 142.4 6.84375C142.739 7.51042 142.908 8.35417 142.908 9.375V17H141.064V9.5C141.064 8.55729 140.82 7.82292 140.33 7.29687C139.84 6.76562 139.169 6.5 138.314 6.5C137.726 6.5 137.2 6.6276 136.736 6.88281C136.278 7.13802 135.916 7.51042 135.65 8C135.385 8.48958 135.252 9.08333 135.252 9.78125ZM151.152 17.25C150.027 17.25 149.059 16.9844 148.246 16.4531C147.434 15.9219 146.809 15.1901 146.371 14.2578C145.934 13.3255 145.715 12.2604 145.715 11.0625C145.715 9.84375 145.939 8.76823 146.387 7.83594C146.84 6.89844 147.47 6.16667 148.277 5.64062C149.09 5.10937 150.038 4.84375 151.121 4.84375C151.965 4.84375 152.725 5 153.402 5.3125C154.079 5.625 154.634 6.0625 155.066 6.625C155.499 7.1875 155.767 7.84375 155.871 8.59375H154.027C153.887 8.04687 153.574 7.5625 153.09 7.14062C152.611 6.71354 151.965 6.5 151.152 6.5C150.434 6.5 149.803 6.6875 149.262 7.0625C148.725 7.43229 148.306 7.95573 148.004 8.63281C147.707 9.30469 147.559 10.0937 147.559 11C147.559 11.9271 147.704 12.7344 147.996 13.4219C148.293 14.1094 148.71 14.6432 149.246 15.0234C149.788 15.4036 150.423 15.5938 151.152 15.5938C151.632 15.5938 152.066 15.5104 152.457 15.3437C152.848 15.1771 153.178 14.9375 153.449 14.625C153.72 14.3125 153.913 13.9375 154.027 13.5H155.871C155.767 14.2083 155.509 14.8464 155.098 15.4141C154.691 15.9766 154.152 16.4245 153.48 16.7578C152.814 17.0859 152.038 17.25 151.152 17.25ZM162.098 17.2813C161.337 17.2813 160.647 17.138 160.027 16.8516C159.408 16.5599 158.915 16.1406 158.551 15.5938C158.186 15.0417 158.004 14.375 158.004 13.5937C158.004 12.9062 158.139 12.349 158.41 11.9219C158.681 11.4896 159.043 11.151 159.496 10.9062C159.949 10.6615 160.449 10.4792 160.996 10.3594C161.548 10.2344 162.103 10.1354 162.66 10.0625C163.389 9.96875 163.98 9.89844 164.434 9.85156C164.892 9.79948 165.225 9.71354 165.434 9.59375C165.647 9.47396 165.754 9.26562 165.754 8.96875V8.90625C165.754 8.13542 165.543 7.53646 165.121 7.10937C164.704 6.68229 164.072 6.46875 163.223 6.46875C162.342 6.46875 161.652 6.66146 161.152 7.04687C160.652 7.43229 160.301 7.84375 160.098 8.28125L158.348 7.65625C158.66 6.92708 159.077 6.35937 159.598 5.95312C160.124 5.54167 160.697 5.25521 161.316 5.09375C161.941 4.92708 162.556 4.84375 163.16 4.84375C163.546 4.84375 163.988 4.89062 164.488 4.98437C164.993 5.07292 165.48 5.25781 165.949 5.53906C166.423 5.82031 166.816 6.24479 167.129 6.8125C167.441 7.38021 167.598 8.14062 167.598 9.09375V17H165.754V15.375H165.66C165.535 15.6354 165.327 15.9141 165.035 16.2109C164.743 16.5078 164.355 16.7604 163.871 16.9687C163.387 17.1771 162.796 17.2813 162.098 17.2813ZM162.379 15.625C163.108 15.625 163.723 15.4818 164.223 15.1953C164.728 14.9089 165.108 14.5391 165.363 14.0859C165.624 13.6328 165.754 13.1562 165.754 12.6562V10.9687C165.676 11.0625 165.504 11.1484 165.238 11.2266C164.978 11.2995 164.676 11.3646 164.332 11.4219C163.993 11.474 163.663 11.5208 163.34 11.5625C163.022 11.599 162.764 11.6302 162.566 11.6562C162.087 11.7187 161.639 11.8203 161.223 11.9609C160.811 12.0964 160.478 12.3021 160.223 12.5781C159.973 12.849 159.848 13.2187 159.848 13.6875C159.848 14.3281 160.085 14.8125 160.559 15.1406C161.038 15.4635 161.645 15.625 162.379 15.625ZM170.963 17V5H172.744V6.8125H172.869C173.088 6.21875 173.484 5.73698 174.057 5.36719C174.63 4.99739 175.275 4.8125 175.994 4.8125C176.13 4.8125 176.299 4.8151 176.502 4.82031C176.705 4.82552 176.859 4.83333 176.963 4.84375V6.71875C176.9 6.70312 176.757 6.67969 176.533 6.64844C176.314 6.61198 176.083 6.59375 175.838 6.59375C175.255 6.59375 174.734 6.71615 174.275 6.96094C173.822 7.20052 173.463 7.53385 173.197 7.96094C172.937 8.38281 172.807 8.86458 172.807 9.40625V17H170.963ZM179.148 17V5H180.992V17H179.148ZM180.086 3C179.727 3 179.417 2.8776 179.156 2.63281C178.901 2.38802 178.773 2.09375 178.773 1.75C178.773 1.40625 178.901 1.11198 179.156 0.867187C179.417 0.622396 179.727 0.5 180.086 0.5C180.445 0.5 180.753 0.622396 181.008 0.867187C181.268 1.11198 181.398 1.40625 181.398 1.75C181.398 2.09375 181.268 2.38802 181.008 2.63281C180.753 2.8776 180.445 3 180.086 3ZM189.244 17.25C188.161 17.25 187.21 16.9922 186.393 16.4766C185.58 15.9609 184.945 15.2396 184.486 14.3125C184.033 13.3854 183.807 12.3021 183.807 11.0625C183.807 9.8125 184.033 8.72135 184.486 7.78906C184.945 6.85677 185.58 6.13281 186.393 5.61719C187.21 5.10156 188.161 4.84375 189.244 4.84375C190.327 4.84375 191.275 5.10156 192.088 5.61719C192.906 6.13281 193.541 6.85677 193.994 7.78906C194.452 8.72135 194.682 9.8125 194.682 11.0625C194.682 12.3021 194.452 13.3854 193.994 14.3125C193.541 15.2396 192.906 15.9609 192.088 16.4766C191.275 16.9922 190.327 17.25 189.244 17.25ZM189.244 15.5938C190.067 15.5938 190.744 15.3828 191.275 14.9609C191.807 14.5391 192.2 13.9844 192.455 13.2969C192.71 12.6094 192.838 11.8646 192.838 11.0625C192.838 10.2604 192.71 9.51302 192.455 8.82031C192.2 8.1276 191.807 7.56771 191.275 7.14062C190.744 6.71354 190.067 6.5 189.244 6.5C188.421 6.5 187.744 6.71354 187.213 7.14062C186.682 7.56771 186.288 8.1276 186.033 8.82031C185.778 9.51302 185.65 10.2604 185.65 11.0625C185.65 11.8646 185.778 12.6094 186.033 13.2969C186.288 13.9844 186.682 14.5391 187.213 14.9609C187.744 15.3828 188.421 15.5938 189.244 15.5938ZM205.996 7.6875L204.34 8.15625C204.236 7.88021 204.082 7.61198 203.879 7.35156C203.681 7.08594 203.41 6.86719 203.066 6.69531C202.723 6.52344 202.283 6.4375 201.746 6.4375C201.012 6.4375 200.4 6.60677 199.91 6.94531C199.426 7.27865 199.184 7.70312 199.184 8.21875C199.184 8.67708 199.35 9.03906 199.684 9.30469C200.017 9.57031 200.538 9.79167 201.246 9.96875L203.027 10.4063C204.1 10.6667 204.9 11.0651 205.426 11.6016C205.952 12.1328 206.215 12.8177 206.215 13.6562C206.215 14.3437 206.017 14.9583 205.621 15.5C205.23 16.0417 204.684 16.4688 203.98 16.7813C203.277 17.0938 202.46 17.25 201.527 17.25C200.303 17.25 199.29 16.9844 198.488 16.4531C197.686 15.9219 197.178 15.1458 196.965 14.125L198.715 13.6875C198.882 14.3333 199.197 14.8177 199.66 15.1406C200.129 15.4635 200.741 15.625 201.496 15.625C202.355 15.625 203.038 15.4427 203.543 15.0781C204.053 14.7083 204.309 14.2656 204.309 13.75C204.309 13.3333 204.163 12.9844 203.871 12.7031C203.579 12.4167 203.132 12.2031 202.527 12.0625L200.527 11.5937C199.428 11.3333 198.621 10.9297 198.105 10.3828C197.595 9.83073 197.34 9.14062 197.34 8.3125C197.34 7.63542 197.53 7.03646 197.91 6.51562C198.296 5.99479 198.819 5.58594 199.48 5.28906C200.147 4.99219 200.902 4.84375 201.746 4.84375C202.934 4.84375 203.866 5.10417 204.543 5.625C205.225 6.14583 205.71 6.83333 205.996 7.6875Z" fill="white"/>
</svg>
