<svg width="373" height="32" viewBox="0 0 373 32" fill="none" xmlns="http://www.w3.org/2000/svg">
<path d="M10.952 26V16.028L0.152 0.799998H2.492L11.924 14.336L21.392 0.799998H23.624L12.824 15.992V26H10.952ZM54.2105 31.76V21.896C52.6265 24.308 50.2865 26.432 46.6505 26.432C42.2225 26.432 37.7225 22.868 37.7225 16.892V16.82C37.7225 10.844 42.2225 7.208 46.6505 7.208C50.3225 7.208 52.6985 9.296 54.2105 11.6V7.64H55.9745V31.76H54.2105ZM46.8305 24.74C50.6465 24.74 54.3185 21.536 54.3185 16.856V16.784C54.3185 12.068 50.6465 8.9 46.8305 8.9C42.8345 8.9 39.6305 11.816 39.6305 16.748V16.82C39.6305 21.644 42.9785 24.74 46.8305 24.74ZM69.6601 26.432C65.0161 26.432 62.3161 23.264 62.3161 18.872V7.64H64.0801V18.548C64.0801 22.328 66.2041 24.812 69.9121 24.812C73.5121 24.812 76.2841 22.076 76.2841 18.26V7.64H78.0481V26H76.2841V22.58C75.0601 24.74 73.0081 26.432 69.6601 26.432ZM92.4943 26.432C87.6703 26.432 83.4943 22.58 83.4943 16.856V16.784C83.4943 11.456 87.2383 7.208 92.2063 7.208C97.3543 7.208 100.63 11.384 100.63 16.82C100.63 17.144 100.63 17.252 100.594 17.54H85.3663C85.6903 22.112 88.9663 24.776 92.5663 24.776C95.4103 24.776 97.3543 23.516 98.8663 21.896L100.09 22.976C98.2183 24.992 96.0223 26.432 92.4943 26.432ZM85.3663 15.956H98.7223C98.4703 12.248 96.3463 8.828 92.1343 8.828C88.4983 8.828 85.6903 11.888 85.3663 15.956ZM105.778 26V7.64H107.542V12.86C108.982 9.584 112.042 7.208 115.678 7.352V9.296H115.498C111.25 9.296 107.542 12.5 107.542 18.476V26H105.778ZM127.018 26.432C122.194 26.432 118.018 22.58 118.018 16.856V16.784C118.018 11.456 121.762 7.208 126.73 7.208C131.878 7.208 135.154 11.384 135.154 16.82C135.154 17.144 135.154 17.252 135.118 17.54H119.89C120.214 22.112 123.49 24.776 127.09 24.776C129.934 24.776 131.878 23.516 133.39 21.896L134.614 22.976C132.742 24.992 130.546 26.432 127.018 26.432ZM119.89 15.956H133.246C132.994 12.248 130.87 8.828 126.658 8.828C123.022 8.828 120.214 11.888 119.89 15.956ZM140.301 26V7.64H142.065V10.916C143.253 9.008 144.909 7.208 148.185 7.208C151.389 7.208 153.369 9.044 154.377 11.168C155.565 9.116 157.545 7.208 161.001 7.208C165.357 7.208 168.057 10.268 168.057 14.876V26H166.293V15.092C166.293 11.132 164.241 8.828 160.857 8.828C157.761 8.828 155.061 11.204 155.061 15.308V26H153.297V14.984C153.297 11.168 151.209 8.828 147.933 8.828C144.657 8.828 142.065 11.708 142.065 15.416V26H140.301ZM182.679 26.432C177.243 26.432 173.283 22.04 173.283 16.892V16.82C173.283 11.672 177.279 7.208 182.751 7.208C188.187 7.208 192.147 11.6 192.147 16.748V16.82C192.147 21.968 188.151 26.432 182.679 26.432ZM182.751 24.776C187.107 24.776 190.239 21.212 190.239 16.892V16.82C190.239 12.392 186.927 8.864 182.679 8.864C178.323 8.864 175.191 12.428 175.191 16.748V16.82C175.191 21.248 178.503 24.776 182.751 24.776ZM203.511 26.36C200.847 26.36 197.931 25.28 195.987 23.696L197.031 22.292C199.047 23.84 201.279 24.704 203.619 24.704C206.103 24.704 208.047 23.336 208.047 21.212V21.14C208.047 18.98 205.743 18.188 203.187 17.468C200.199 16.604 196.887 15.704 196.887 12.428V12.356C196.887 9.404 199.371 7.28 202.935 7.28C205.131 7.28 207.615 8.072 209.451 9.296L208.515 10.772C206.823 9.656 204.807 8.936 202.863 8.936C200.343 8.936 198.687 10.304 198.687 12.14V12.212C198.687 14.264 201.171 15.02 203.799 15.776C206.751 16.604 209.847 17.684 209.847 20.924V20.996C209.847 24.272 207.039 26.36 203.511 26.36ZM226.294 2.852V0.439999H228.49V2.852H226.294ZM226.51 26V7.64H228.274V26H226.51ZM235.223 26V7.64H236.987V11.06C238.211 8.9 240.263 7.208 243.611 7.208C248.255 7.208 250.955 10.376 250.955 14.768V26H249.191V15.092C249.191 11.312 247.067 8.828 243.359 8.828C239.759 8.828 236.987 11.564 236.987 15.38V26H235.223ZM262.97 26.144L254.726 7.64H256.778L263.726 24.02L270.746 7.64H272.726L264.482 26.144H262.97ZM277.587 2.852V0.439999H279.783V2.852H277.587ZM277.803 26V7.64H279.567V26H277.803ZM292.636 26.324C289.792 26.324 287.488 24.776 287.488 21.284V9.26H284.824V7.64H287.488V1.772H289.252V7.64H295.696V9.26H289.252V21.104C289.252 23.732 290.8 24.668 292.924 24.668C293.824 24.668 294.58 24.488 295.624 24.02V25.676C294.688 26.108 293.788 26.324 292.636 26.324ZM306.51 26.432C303.09 26.432 299.418 24.488 299.418 20.672V20.6C299.418 16.784 302.694 14.624 307.446 14.624C310.002 14.624 311.766 14.948 313.53 15.416V14.624C313.53 10.916 311.262 9.008 307.482 9.008C305.25 9.008 303.414 9.62 301.722 10.484L301.074 8.936C303.09 8 305.07 7.352 307.59 7.352C310.074 7.352 312.054 8.036 313.386 9.368C314.61 10.592 315.258 12.284 315.258 14.552V26H313.53V22.94C312.27 24.704 310.002 26.432 306.51 26.432ZM306.618 24.776C310.362 24.776 313.566 22.472 313.566 19.124V17.036C312.018 16.64 309.966 16.208 307.338 16.208C303.45 16.208 301.29 17.936 301.29 20.492V20.564C301.29 23.228 303.81 24.776 306.618 24.776ZM321.602 26V7.64H323.366V12.86C324.806 9.584 327.866 7.208 331.502 7.352V9.296H331.322C327.074 9.296 323.366 12.5 323.366 18.476V26H321.602ZM342.136 26.324C339.292 26.324 336.988 24.776 336.988 21.284V9.26H334.324V7.64H336.988V1.772H338.752V7.64H345.196V9.26H338.752V21.104C338.752 23.732 340.3 24.668 342.424 24.668C343.324 24.668 344.08 24.488 345.124 24.02V25.676C344.188 26.108 343.288 26.324 342.136 26.324ZM357.643 26.432C352.819 26.432 348.643 22.58 348.643 16.856V16.784C348.643 11.456 352.387 7.208 357.355 7.208C362.503 7.208 365.779 11.384 365.779 16.82C365.779 17.144 365.779 17.252 365.743 17.54H350.515C350.839 22.112 354.115 24.776 357.715 24.776C360.559 24.776 362.503 23.516 364.015 21.896L365.239 22.976C363.367 24.992 361.171 26.432 357.643 26.432ZM350.515 15.956H363.871C363.619 12.248 361.495 8.828 357.283 8.828C353.647 8.828 350.839 11.888 350.515 15.956ZM370.179 26V22.94H372.555V26H370.179Z" fill="white"/>
</svg>
