<svg width="181" height="54" viewBox="0 0 181 54" fill="none" xmlns="http://www.w3.org/2000/svg">
<path d="M14.092 17.67C14.092 18.462 13.804 19.146 13.228 19.722C12.652 20.262 11.968 20.532 11.176 20.532C10.348 20.532 9.646 20.262 9.07 19.722C8.53 19.146 8.26 18.444 8.26 17.616C8.26 16.788 8.548 16.104 9.124 15.564C9.7 14.988 10.402 14.7 11.23 14.7C12.022 14.7 12.688 14.988 13.228 15.564C13.804 16.14 14.092 16.842 14.092 17.67ZM18.628 45.858C18.628 48.054 17.818 49.854 16.198 51.258C14.578 52.662 12.508 53.364 9.988 53.364C7.18 53.364 4.912 52.59 3.184 51.042C1.492 49.494 0.646 47.46 0.646 44.94C0.646 43.068 1.132 41.304 2.104 39.648C2.752 38.532 4.552 36.696 7.504 34.14C10.132 31.872 11.446 29.874 11.446 28.146C11.446 27.606 11.248 26.634 10.852 25.23C10.816 25.086 10.798 24.906 10.798 24.69C10.798 24.402 10.942 24.258 11.23 24.258C11.626 24.258 12.004 24.78 12.364 25.824C12.724 26.868 12.904 27.948 12.904 29.064C12.904 30.54 12.616 31.908 12.04 33.168C11.464 34.392 10.402 35.994 8.854 37.974C6.586 40.854 5.452 43.428 5.452 45.696C5.452 47.64 5.974 49.188 7.018 50.34C8.062 51.492 9.466 52.068 11.23 52.068C12.922 52.068 14.326 51.474 15.442 50.286C16.558 49.134 17.116 47.676 17.116 45.912C17.116 45.516 17.08 45.3 17.008 45.264C16.936 45.3 16.81 45.48 16.63 45.804C16.234 46.524 15.55 46.884 14.578 46.884C12.958 46.884 12.148 46.038 12.148 44.346C12.148 42.654 13.084 41.808 14.956 41.808C17.404 41.808 18.628 43.158 18.628 45.858ZM56.7026 20.316C56.7026 26.652 54.4886 31.584 50.0606 35.112C46.8206 37.704 42.4826 39 37.0466 39C36.9026 39 36.2546 38.982 35.1026 38.946C33.9866 38.91 32.3486 38.892 30.1886 38.892H27.4886L23.2226 38.946C22.9706 38.982 22.7006 39 22.4126 39C21.7286 39 21.3866 38.82 21.3866 38.46C21.3866 38.136 21.9626 37.974 23.1146 37.974C24.5906 37.974 25.5086 37.704 25.8686 37.164C26.0126 36.912 26.0846 36.228 26.0846 35.112V6.006C26.0846 4.242 25.9406 3.216 25.6526 2.928C25.4006 2.64 24.4826 2.496 22.8986 2.496C22.0706 2.496 21.6566 2.298 21.6566 1.902C21.6566 1.614 21.9626 1.47 22.5746 1.47C22.5386 1.47 22.9346 1.488 23.7626 1.524C24.5906 1.56 25.4006 1.578 26.1926 1.578H31.9706C38.4506 1.578 43.0406 2.028 45.7406 2.928C49.0166 4.008 51.6626 6.15 53.6786 9.354C55.6946 12.522 56.7026 16.176 56.7026 20.316ZM50.6546 20.1C50.6546 14.124 49.4846 9.75 47.1446 6.978C44.8046 4.17 41.1506 2.766 36.1826 2.766C33.7706 2.766 32.3126 3.018 31.8086 3.522C31.5926 3.774 31.4846 4.638 31.4846 6.114V34.842C31.4846 35.85 31.5026 36.462 31.5386 36.678C31.6106 36.894 31.7726 37.074 32.0246 37.218C32.8886 37.65 34.7066 37.866 37.4786 37.866C41.3666 37.866 44.4986 36.498 46.8746 33.762C49.3946 30.882 50.6546 26.328 50.6546 20.1ZM78.9409 3.198L74.0269 8.328C71.8669 10.596 70.6069 11.73 70.2469 11.73C70.0309 11.73 69.9229 11.64 69.9229 11.46C69.9229 11.388 69.9589 11.28 70.0309 11.136C70.4269 10.164 71.0209 8.76 71.8129 6.924L73.5409 3.144H75.3229C75.3949 3.144 75.6469 3.144 76.0789 3.144C76.5469 3.18 77.1769 3.198 77.9689 3.198H78.9409ZM83.2609 27.336C83.2609 30.828 82.1989 33.762 80.0749 36.138C77.9509 38.478 75.3049 39.648 72.1369 39.648C68.8609 39.648 66.1249 38.478 63.9289 36.138C61.7329 33.762 60.6349 30.828 60.6349 27.336C60.6349 23.736 61.6969 20.748 63.8209 18.372C65.9809 15.996 68.6629 14.808 71.8669 14.808C75.1069 14.808 77.8069 16.014 79.9669 18.426C82.1629 20.802 83.2609 23.772 83.2609 27.336ZM78.3469 27.282C78.3469 23.322 77.7349 20.244 76.5109 18.048C75.6109 16.428 74.0989 15.618 71.9749 15.618C69.9589 15.618 68.3749 16.662 67.2229 18.75C66.1069 20.802 65.5489 23.664 65.5489 27.336C65.5489 30.972 66.1429 33.816 67.3309 35.868C68.5549 37.884 70.2469 38.892 72.4069 38.892C74.0629 38.892 75.2869 38.262 76.0789 37.002C77.5909 34.626 78.3469 31.386 78.3469 27.282ZM111.096 38.676C111.096 38.964 110.826 39.108 110.286 39.108H109.638C108.99 39.036 108.108 39 106.992 39C103.464 39 101.376 39.036 100.728 39.108H100.35C99.8823 39.108 99.6483 38.982 99.6483 38.73C99.6483 38.55 99.7383 38.442 99.9183 38.406C100.134 38.37 100.836 38.334 102.024 38.298C102.708 38.262 103.104 38.172 103.212 38.028C103.32 37.848 103.374 37.254 103.374 36.246V25.878C103.374 21.954 103.23 19.614 102.942 18.858C102.33 17.238 101.106 16.428 99.2703 16.428C97.4703 16.428 95.9583 17.22 94.7343 18.804C94.3743 19.272 94.1943 19.92 94.1943 20.748L94.2483 37.596C94.2483 38.028 94.6263 38.262 95.3823 38.298L97.0023 38.352C97.3623 38.352 97.5423 38.478 97.5423 38.73C97.5423 38.982 97.3263 39.108 96.8943 39.108H96.0303C95.2383 39.036 93.9783 39 92.2503 39C91.8543 39 90.9903 39.018 89.6583 39.054C88.3623 39.09 87.6063 39.108 87.3903 39.108H87.0663C86.5263 39.108 86.2563 38.982 86.2563 38.73C86.2563 38.478 86.5803 38.316 87.2283 38.244C87.6963 38.244 88.1463 38.244 88.5783 38.244C89.1183 38.244 89.4423 38.118 89.5503 37.866L89.7123 37.056V25.284C89.7123 21.18 89.6763 18.912 89.6043 18.48C89.5323 18.048 89.0823 17.832 88.2543 17.832C88.0023 17.832 87.5703 17.868 86.9583 17.94H86.6882C85.9683 17.94 85.6083 17.814 85.6083 17.562C85.6083 17.238 85.9863 17.076 86.7423 17.076C87.8223 17.04 88.9923 16.842 90.2523 16.482C91.5123 16.122 92.3943 15.708 92.8983 15.24C93.2223 14.952 93.4743 14.808 93.6543 14.808C93.9063 14.808 94.0323 15.15 94.0323 15.834V18.426C95.9043 16.014 98.3163 14.808 101.268 14.808C103.86 14.808 105.732 15.762 106.884 17.67C107.532 18.75 107.856 20.802 107.856 23.826V36.138C107.856 37.29 107.91 37.92 108.018 38.028C108.234 38.244 108.756 38.352 109.584 38.352C109.692 38.352 109.89 38.334 110.178 38.298H110.556C110.916 38.298 111.096 38.424 111.096 38.676ZM137.138 37.92C137.138 38.172 136.886 38.298 136.382 38.298H136.112C135.824 38.298 135.518 38.28 135.194 38.244C134.906 38.244 134.762 38.244 134.762 38.244C132.998 38.244 131.504 38.604 130.28 39.324C129.776 39.612 129.47 39.756 129.362 39.756C129.038 39.756 128.876 39.54 128.876 39.108L128.93 37.434C127.382 38.91 125.546 39.648 123.422 39.648C120.398 39.648 117.896 38.496 115.916 36.192C113.972 33.852 113 30.882 113 27.282C113 23.574 113.972 20.568 115.916 18.264C117.896 15.96 120.47 14.808 123.638 14.808C126.086 14.808 127.922 15.69 129.146 17.454V9.03C129.146 6.294 129.02 4.602 128.768 3.954C128.552 3.414 128.228 3.162 127.796 3.198C126.752 3.306 126.122 3.36 125.906 3.36C125.438 3.36 125.204 3.198 125.204 2.874C125.204 2.55 125.402 2.388 125.798 2.388L127.742 2.442C128.822 2.478 130.478 1.974 132.71 0.929998C132.854 0.857999 132.98 0.821999 133.088 0.821999C133.448 0.821999 133.628 1.254 133.628 2.118C133.628 2.334 133.628 2.712 133.628 3.252C133.592 3.828 133.574 4.332 133.574 4.764V23.394C133.574 31.926 133.664 36.498 133.844 37.11C133.916 37.362 134.762 37.488 136.382 37.488C136.886 37.488 137.138 37.632 137.138 37.92ZM129.146 24.366C129.146 20.91 128.768 18.696 128.012 17.724C127.04 16.5 125.798 15.888 124.286 15.888C122.342 15.888 120.794 16.896 119.642 18.912C118.49 20.928 117.914 23.628 117.914 27.012C117.914 30.252 118.418 33.024 119.426 35.328C119.858 36.3 120.488 37.11 121.316 37.758C122.18 38.37 123.062 38.676 123.962 38.676C125.078 38.676 126.086 38.352 126.986 37.704C127.886 37.02 128.462 36.21 128.714 35.274C129.002 34.338 129.146 30.702 129.146 24.366ZM158.824 33.114C158.824 33.474 158.536 34.122 157.96 35.058C157.42 35.958 156.862 36.696 156.286 37.272C154.738 38.856 152.668 39.648 150.076 39.648C146.836 39.648 144.118 38.478 141.922 36.138C139.762 33.798 138.682 30.9 138.682 27.444C138.682 23.844 139.708 20.838 141.76 18.426C143.848 16.014 146.44 14.808 149.536 14.808C152.092 14.808 154.234 15.564 155.962 17.076C157.69 18.552 158.608 20.46 158.716 22.8C157.564 22.98 156.034 23.052 154.126 23.016L150.346 22.962C150.094 22.962 147.934 23.016 143.866 23.124C143.686 24.312 143.596 25.446 143.596 26.526C143.596 30.162 144.28 32.97 145.648 34.95C147.052 36.894 149.014 37.866 151.534 37.866C152.974 37.866 154.126 37.542 154.99 36.894C155.854 36.246 156.79 35.004 157.798 33.168C157.942 32.88 158.14 32.736 158.392 32.736C158.68 32.736 158.824 32.862 158.824 33.114ZM154.126 22.098C153.982 17.778 152.434 15.618 149.482 15.618C146.566 15.618 144.748 17.778 144.028 22.098H154.126ZM180.461 9.192C180.461 11.136 179.975 12.918 179.003 14.538C178.499 15.366 178.013 16.032 177.545 16.536C177.077 17.004 175.745 18.174 173.549 20.046C170.921 22.314 169.607 24.276 169.607 25.932C169.607 26.508 169.823 27.498 170.255 28.902C170.291 29.01 170.309 29.172 170.309 29.388C170.309 29.712 170.165 29.874 169.877 29.874C169.481 29.874 169.085 29.352 168.689 28.308C168.329 27.264 168.149 26.202 168.149 25.122C168.149 23.682 168.437 22.332 169.013 21.072C169.589 19.776 170.651 18.138 172.199 16.158C174.503 13.206 175.655 10.65 175.655 8.49C175.655 6.51 175.133 4.962 174.089 3.846C173.045 2.694 171.623 2.118 169.823 2.118C168.167 2.118 166.781 2.712 165.665 3.9C164.549 5.052 163.991 6.51 163.991 8.274C163.991 8.67 164.045 8.868 164.153 8.868C164.189 8.796 164.297 8.616 164.477 8.328C164.837 7.644 165.503 7.302 166.475 7.302C168.095 7.302 168.905 8.13 168.905 9.786C168.905 11.514 167.969 12.378 166.097 12.378C164.981 12.378 164.099 12.018 163.451 11.298C162.803 10.542 162.479 9.552 162.479 8.328C162.479 6.132 163.271 4.332 164.855 2.928C166.475 1.524 168.563 0.821999 171.119 0.821999C173.927 0.821999 176.177 1.596 177.869 3.144C179.597 4.656 180.461 6.672 180.461 9.192ZM172.793 36.408C172.793 37.2 172.505 37.884 171.929 38.46C171.389 39.036 170.705 39.324 169.877 39.324C169.085 39.324 168.401 39.036 167.825 38.46C167.249 37.884 166.961 37.2 166.961 36.408C166.961 35.58 167.249 34.896 167.825 34.356C168.401 33.78 169.103 33.492 169.931 33.492C170.723 33.492 171.389 33.78 171.929 34.356C172.505 34.932 172.793 35.616 172.793 36.408Z" fill="#364936"/>
</svg>
