<svg width="245" height="83" viewBox="0 0 245 83" fill="none" xmlns="http://www.w3.org/2000/svg">
<path d="M21.032 26.82C21.032 28.052 20.584 29.116 19.688 30.012C18.792 30.852 17.728 31.272 16.496 31.272C15.208 31.272 14.116 30.852 13.22 30.012C12.38 29.116 11.96 28.024 11.96 26.736C11.96 25.448 12.408 24.384 13.304 23.544C14.2 22.648 15.292 22.2 16.58 22.2C17.812 22.2 18.848 22.648 19.688 23.544C20.584 24.44 21.032 25.532 21.032 26.82ZM28.088 70.668C28.088 74.084 26.828 76.884 24.308 79.068C21.788 81.252 18.568 82.344 14.648 82.344C10.28 82.344 6.752 81.14 4.064 78.732C1.432 76.324 0.116 73.16 0.116 69.24C0.116 66.328 0.872 63.584 2.384 61.008C3.392 59.272 6.192 56.416 10.784 52.44C14.872 48.912 16.916 45.804 16.916 43.116C16.916 42.276 16.608 40.764 15.992 38.58C15.936 38.356 15.908 38.076 15.908 37.74C15.908 37.292 16.132 37.068 16.58 37.068C17.196 37.068 17.784 37.88 18.344 39.504C18.904 41.128 19.184 42.808 19.184 44.544C19.184 46.84 18.736 48.968 17.84 50.928C16.944 52.832 15.292 55.324 12.884 58.404C9.356 62.884 7.592 66.888 7.592 70.416C7.592 73.44 8.404 75.848 10.028 77.64C11.652 79.432 13.836 80.328 16.58 80.328C19.212 80.328 21.396 79.404 23.132 77.556C24.868 75.764 25.736 73.496 25.736 70.752C25.736 70.136 25.68 69.8 25.568 69.744C25.456 69.8 25.26 70.08 24.98 70.584C24.364 71.704 23.3 72.264 21.788 72.264C19.268 72.264 18.008 70.948 18.008 68.316C18.008 65.684 19.464 64.368 22.376 64.368C26.184 64.368 28.088 66.468 28.088 70.668ZM85.6352 2.292C85.6352 2.74 85.1032 2.992 84.0392 3.048C81.5752 3.104 79.9232 3.468 79.0832 4.14C78.2432 4.812 77.3752 6.38 76.4792 8.844L73.6232 16.656C66.7352 35.528 61.8912 50.004 59.0912 60.084C58.9232 60.756 58.6432 61.092 58.2512 61.092C57.8032 61.092 56.8792 58.992 55.4792 54.792C52.9592 47.12 50.9992 41.352 49.5992 37.488C48.0872 33.232 45.8472 26.876 42.8792 18.42L38.8472 7.08C38.2872 5.512 37.6712 4.476 36.9992 3.972C36.3272 3.412 35.2072 3.104 33.6392 3.048C31.7912 2.992 30.6992 2.936 30.3632 2.88C29.9712 2.824 29.7752 2.6 29.7752 2.208C29.7752 1.704 30.3352 1.452 31.4552 1.452H32.2112C33.2192 1.452 34.9552 1.508 37.4192 1.62C39.9392 1.676 41.7312 1.704 42.7952 1.704C43.0752 1.704 44.1392 1.676 45.9872 1.62C47.8912 1.508 50.5792 1.452 54.0512 1.452H55.2272C56.2352 1.452 56.7392 1.732 56.7392 2.292C56.7392 2.908 55.7312 3.244 53.7152 3.3L48.5912 3.468C47.4152 3.524 46.8272 3.888 46.8272 4.56C46.8272 4.672 46.8832 4.896 46.9952 5.232L47.6672 7.416C47.7792 7.864 50.4952 15.76 55.8152 31.104C56.7112 33.736 58.4192 38.748 60.9392 46.14C70.1792 19.988 74.7992 6.24 74.7992 4.896C74.7992 3.552 73.4272 2.936 70.6832 3.048L68.0792 3.132C67.4072 3.132 67.0712 2.908 67.0712 2.45999C67.0712 1.9 67.9112 1.62 69.5912 1.62C69.9272 1.62 70.8792 1.62 72.4472 1.62C74.0152 1.676 75.1632 1.704 75.8912 1.704H78.5792L84.1232 1.62C85.1312 1.62 85.6352 1.844 85.6352 2.292ZM117.791 50.844C117.791 51.404 117.343 52.412 116.447 53.868C115.607 55.268 114.739 56.416 113.843 57.312C111.435 59.776 108.215 61.008 104.183 61.008C99.1435 61.008 94.9155 59.188 91.4995 55.548C88.1395 51.908 86.4595 47.4 86.4595 42.024C86.4595 36.424 88.0555 31.748 91.2475 27.996C94.4955 24.244 98.5275 22.368 103.343 22.368C107.319 22.368 110.651 23.544 113.339 25.896C116.027 28.192 117.455 31.16 117.623 34.8C115.831 35.08 113.451 35.192 110.483 35.136L104.603 35.052C104.211 35.052 100.851 35.136 94.5235 35.304C94.2435 37.152 94.1035 38.916 94.1035 40.596C94.1035 46.252 95.1675 50.62 97.2955 53.7C99.4795 56.724 102.531 58.236 106.451 58.236C108.691 58.236 110.483 57.732 111.827 56.724C113.171 55.716 114.627 53.784 116.195 50.928C116.419 50.48 116.727 50.256 117.119 50.256C117.567 50.256 117.791 50.452 117.791 50.844ZM110.483 33.708C110.259 26.988 107.851 23.628 103.259 23.628C98.7235 23.628 95.8955 26.988 94.7755 33.708H110.483ZM160.689 59.496C160.689 59.944 160.269 60.168 159.429 60.168H158.421C157.413 60.056 156.041 60 154.305 60C148.817 60 145.569 60.056 144.561 60.168H143.973C143.245 60.168 142.881 59.972 142.881 59.58C142.881 59.3 143.021 59.132 143.301 59.076C143.637 59.02 144.729 58.964 146.577 58.908C147.641 58.852 148.257 58.712 148.425 58.488C148.593 58.208 148.677 57.284 148.677 55.716V39.588C148.677 33.484 148.453 29.844 148.005 28.668C147.053 26.148 145.149 24.888 142.293 24.888C139.493 24.888 137.141 26.12 135.237 28.584C134.677 29.312 134.397 30.32 134.397 31.608L134.481 57.816C134.481 58.488 135.069 58.852 136.245 58.908L138.765 58.992C139.325 58.992 139.605 59.188 139.605 59.58C139.605 59.972 139.269 60.168 138.597 60.168H137.253C136.021 60.056 134.061 60 131.373 60C130.757 60 129.413 60.028 127.341 60.084C125.325 60.14 124.149 60.168 123.813 60.168H123.309C122.469 60.168 122.049 59.972 122.049 59.58C122.049 59.188 122.553 58.936 123.561 58.824C124.289 58.824 124.989 58.824 125.661 58.824C126.501 58.824 127.005 58.628 127.173 58.236L127.425 56.976V38.664C127.425 32.28 127.369 28.752 127.257 28.08C127.145 27.408 126.445 27.072 125.157 27.072C124.765 27.072 124.093 27.128 123.141 27.24H122.721C121.601 27.24 121.041 27.044 121.041 26.652C121.041 26.148 121.629 25.896 122.805 25.896C124.485 25.84 126.305 25.532 128.265 24.972C130.225 24.412 131.597 23.768 132.381 23.04C132.885 22.592 133.277 22.368 133.557 22.368C133.949 22.368 134.145 22.9 134.145 23.964V27.996C137.057 24.244 140.809 22.368 145.401 22.368C149.433 22.368 152.345 23.852 154.137 26.82C155.145 28.5 155.649 31.692 155.649 36.396V55.548C155.649 57.34 155.733 58.32 155.901 58.488C156.237 58.824 157.049 58.992 158.337 58.992C158.505 58.992 158.813 58.964 159.261 58.908H159.849C160.409 58.908 160.689 59.104 160.689 59.496ZM182.551 4.308L174.907 12.288C171.547 15.816 169.587 17.58 169.027 17.58C168.691 17.58 168.523 17.44 168.523 17.16C168.523 17.048 168.579 16.88 168.691 16.656C169.307 15.144 170.231 12.96 171.463 10.104L174.151 4.224H176.923C177.035 4.224 177.427 4.224 178.099 4.224C178.827 4.28 179.807 4.308 181.039 4.308H182.551ZM181.375 59.496C181.375 60 180.899 60.252 179.947 60.252C180.003 60.252 179.331 60.196 177.931 60.084C176.251 59.972 174.851 59.916 173.731 59.916L164.995 60.084C164.715 60.14 164.379 60.168 163.987 60.168C163.371 60.168 163.063 59.972 163.063 59.58C163.063 59.02 163.623 58.74 164.743 58.74C166.871 58.684 168.019 58.544 168.187 58.32C168.411 58.04 168.523 56.864 168.523 54.792L168.439 29.34C168.383 27.94 168.299 27.128 168.187 26.904C168.131 26.624 167.795 26.484 167.179 26.484L164.743 26.568C164.519 26.624 164.239 26.652 163.903 26.652C163.287 26.652 162.979 26.428 162.979 25.98C162.979 25.588 163.455 25.364 164.407 25.308C168.159 25.14 171.379 24.244 174.067 22.62L174.907 22.116C175.355 22.956 175.579 24.496 175.579 26.736C175.579 26.624 175.579 26.904 175.579 27.576C175.523 28.248 175.495 29.34 175.495 30.852V53.784C175.495 56.024 175.523 57.34 175.579 57.732C175.691 58.124 175.999 58.376 176.503 58.488C177.343 58.712 178.575 58.824 180.199 58.824C180.983 58.824 181.375 59.048 181.375 59.496ZM210.353 49.332C210.353 52.58 209.149 55.352 206.741 57.648C204.389 59.888 201.561 61.008 198.257 61.008C196.353 61.008 194.029 60.336 191.285 58.992C190.557 58.6 189.913 58.404 189.353 58.404C188.569 58.404 187.981 58.936 187.589 60C187.365 60.672 187.057 61.008 186.665 61.008C186.273 61.008 186.077 60.784 186.077 60.336C186.077 60.056 186.105 59.72 186.161 59.328C186.329 58.208 186.413 56.556 186.413 54.372C186.413 54.204 186.385 53.532 186.329 52.356C186.273 51.18 186.245 50.396 186.245 50.004V49.08C186.245 48.464 186.441 48.156 186.833 48.156C187.281 48.156 187.533 48.464 187.589 49.08C187.925 51.656 188.653 53.672 189.773 55.128C192.013 58.04 195.009 59.496 198.761 59.496C200.777 59.496 202.401 58.908 203.633 57.732C204.865 56.556 205.481 54.988 205.481 53.028C205.481 50.844 204.781 49.108 203.381 47.82C202.597 47.092 201.869 46.588 201.197 46.308C200.581 45.972 198.705 45.216 195.569 44.04C189.353 41.688 186.245 38.16 186.245 33.456C186.245 30.32 187.309 27.688 189.437 25.56C191.565 23.432 194.197 22.368 197.333 22.368C198.453 22.368 200.133 22.704 202.373 23.376C202.933 23.544 203.437 23.628 203.885 23.628C205.061 23.628 205.789 23.068 206.069 21.948C206.237 21.388 206.489 21.108 206.825 21.108C207.217 21.108 207.413 21.332 207.413 21.78C207.413 21.836 207.385 22.004 207.329 22.284L207.245 25.812C207.189 27.156 207.329 29.312 207.665 32.28V32.448C207.665 32.896 207.441 33.12 206.993 33.12C206.657 33.12 206.237 32.28 205.733 30.6C205.117 28.584 204.025 26.96 202.457 25.728C200.945 24.496 199.181 23.88 197.165 23.88C195.261 23.88 193.693 24.468 192.461 25.644C191.229 26.82 190.613 28.304 190.613 30.096C190.613 32.896 192.489 35.024 196.241 36.48C202.065 38.776 205.761 40.68 207.329 42.192C209.345 44.152 210.353 46.532 210.353 49.332ZM244.063 13.632C244.063 16.656 243.307 19.428 241.795 21.948C241.011 23.236 240.255 24.272 239.527 25.056C238.799 25.784 236.727 27.604 233.311 30.516C229.223 34.044 227.179 37.096 227.179 39.672C227.179 40.568 227.515 42.108 228.187 44.292C228.243 44.46 228.271 44.712 228.271 45.048C228.271 45.552 228.047 45.804 227.599 45.804C226.983 45.804 226.367 44.992 225.751 43.368C225.191 41.744 224.91 40.092 224.91 38.412C224.91 36.172 225.359 34.072 226.255 32.112C227.151 30.096 228.803 27.548 231.211 24.468C234.795 19.876 236.587 15.9 236.587 12.54C236.587 9.46 235.775 7.052 234.15 5.316C232.527 3.524 230.315 2.628 227.515 2.628C224.939 2.628 222.783 3.552 221.047 5.4C219.311 7.192 218.443 9.46 218.443 12.204C218.443 12.82 218.527 13.128 218.695 13.128C218.751 13.016 218.919 12.736 219.199 12.288C219.759 11.224 220.795 10.692 222.307 10.692C224.827 10.692 226.087 11.98 226.087 14.556C226.087 17.244 224.631 18.588 221.719 18.588C219.983 18.588 218.611 18.028 217.603 16.908C216.595 15.732 216.091 14.192 216.091 12.288C216.091 8.872 217.323 6.072 219.787 3.888C222.307 1.704 225.555 0.611999 229.531 0.611999C233.899 0.611999 237.399 1.816 240.031 4.224C242.719 6.576 244.063 9.712 244.063 13.632ZM232.135 55.968C232.135 57.2 231.687 58.264 230.791 59.16C229.951 60.056 228.887 60.504 227.599 60.504C226.367 60.504 225.303 60.056 224.407 59.16C223.511 58.264 223.062 57.2 223.062 55.968C223.062 54.68 223.511 53.616 224.407 52.776C225.303 51.88 226.395 51.432 227.683 51.432C228.915 51.432 229.951 51.88 230.791 52.776C231.687 53.672 232.135 54.736 232.135 55.968Z" fill="#A58F49"/>
</svg>
