<svg width="171" height="18" viewBox="0 0 171 18" fill="none" xmlns="http://www.w3.org/2000/svg">
<path d="M16.042 1.199C16.042 1.32167 15.8963 1.39067 15.605 1.406C14.9303 1.42133 14.478 1.521 14.248 1.705C14.018 1.889 13.7803 2.31833 13.535 2.993L12.753 5.132C10.867 10.2993 9.54067 14.263 8.774 17.023C8.728 17.207 8.65133 17.299 8.544 17.299C8.42133 17.299 8.16833 16.724 7.785 15.574C7.095 13.4733 6.55833 11.894 6.175 10.836C5.761 9.67067 5.14767 7.93033 4.335 5.615L3.231 2.51C3.07767 2.08067 2.909 1.797 2.725 1.659C2.541 1.50567 2.23433 1.42133 1.805 1.406C1.299 1.39067 1 1.37533 0.908 1.36C0.800667 1.34467 0.747 1.28333 0.747 1.176C0.747 1.038 0.900333 0.968999 1.207 0.968999H1.414C1.69 0.968999 2.16533 0.984333 2.84 1.015C3.53 1.03033 4.02067 1.038 4.312 1.038C4.38867 1.038 4.68 1.03033 5.186 1.015C5.70733 0.984333 6.44333 0.968999 7.394 0.968999H7.716C7.992 0.968999 8.13 1.04567 8.13 1.199C8.13 1.36767 7.854 1.45967 7.302 1.475L5.899 1.521C5.577 1.53633 5.416 1.636 5.416 1.82C5.416 1.85067 5.43133 1.912 5.462 2.004L5.646 2.602C5.67667 2.72467 6.42033 4.88667 7.877 9.088C8.12233 9.80867 8.59 11.181 9.28 13.205C11.81 6.04433 13.075 2.28 13.075 1.912C13.075 1.544 12.6993 1.37533 11.948 1.406L11.235 1.429C11.051 1.429 10.959 1.36767 10.959 1.245C10.959 1.09167 11.189 1.015 11.649 1.015C11.741 1.015 12.0017 1.015 12.431 1.015C12.8603 1.03033 13.1747 1.038 13.374 1.038H14.11L15.628 1.015C15.904 1.015 16.042 1.07633 16.042 1.199ZM24.8467 14.493C24.8467 14.6463 24.724 14.9223 24.4787 15.321C24.2487 15.7043 24.011 16.0187 23.7657 16.264C23.1064 16.9387 22.2247 17.276 21.1207 17.276C19.7407 17.276 18.583 16.7777 17.6477 15.781C16.7277 14.7843 16.2677 13.55 16.2677 12.078C16.2677 10.5447 16.7047 9.26433 17.5787 8.237C18.468 7.20967 19.572 6.696 20.8907 6.696C21.9794 6.696 22.8917 7.018 23.6277 7.662C24.3637 8.29067 24.7547 9.10333 24.8007 10.1C24.31 10.1767 23.6584 10.2073 22.8457 10.192L21.2357 10.169C21.1284 10.169 20.2084 10.192 18.4757 10.238C18.399 10.744 18.3607 11.227 18.3607 11.687C18.3607 13.2357 18.652 14.4317 19.2347 15.275C19.8327 16.103 20.6684 16.517 21.7417 16.517C22.355 16.517 22.8457 16.379 23.2137 16.103C23.5817 15.827 23.9804 15.298 24.4097 14.516C24.471 14.3933 24.5554 14.332 24.6627 14.332C24.7854 14.332 24.8467 14.3857 24.8467 14.493ZM22.8457 9.801C22.7844 7.961 22.125 7.041 20.8677 7.041C19.6257 7.041 18.8514 7.961 18.5447 9.801H22.8457ZM33.1885 8.26C33.1885 8.61267 33.0812 8.904 32.8665 9.134C32.6518 9.364 32.3758 9.479 32.0385 9.479C31.7625 9.479 31.5325 9.40233 31.3485 9.249C31.1645 9.08033 31.0725 8.87333 31.0725 8.628C31.0725 8.41333 31.1415 8.22933 31.2795 8.076C31.4175 7.92267 31.4865 7.81533 31.4865 7.754C31.4865 7.524 31.3178 7.409 30.9805 7.409C30.5512 7.409 30.1832 7.67733 29.8765 8.214C29.5238 8.84267 29.3475 10.008 29.3475 11.71V16.264C29.3475 16.448 29.4088 16.563 29.5315 16.609C29.6695 16.655 30.0682 16.6857 30.7275 16.701C30.8962 16.7317 30.9805 16.793 30.9805 16.885C30.9805 16.9923 30.8808 17.046 30.6815 17.046C30.3288 17.046 29.9992 17.0383 29.6925 17.023C29.3858 17.0077 28.8032 17 27.9445 17C27.4998 17 27.1778 17.0077 26.9785 17.023C26.7792 17.0383 26.5262 17.046 26.2195 17.046C25.9742 17.046 25.8515 16.9923 25.8515 16.885C25.8515 16.7777 25.9512 16.724 26.1505 16.724H26.4725C26.9938 16.724 27.3005 16.6627 27.3925 16.54C27.4232 16.4787 27.4385 16.195 27.4385 15.689V9.364C27.4385 8.52067 27.3082 8.03767 27.0475 7.915C26.8022 7.777 26.4035 7.70033 25.8515 7.685C25.6675 7.685 25.5755 7.63133 25.5755 7.524C25.5755 7.41667 25.6522 7.363 25.8055 7.363H25.9665C26.1965 7.363 26.4265 7.37833 26.6565 7.409C26.8865 7.42433 26.9862 7.432 26.9555 7.432C27.5228 7.432 28.1515 7.271 28.8415 6.949L29.1405 6.811L29.3245 6.742C29.3858 7.11 29.4165 7.478 29.4165 7.846V8.306C29.9072 7.23267 30.5972 6.696 31.4865 6.696C31.9772 6.696 32.3835 6.84933 32.7055 7.156C33.0275 7.44733 33.1885 7.81533 33.1885 8.26ZM48.4706 16.54C48.4706 16.6473 48.3632 16.701 48.1486 16.701H48.0336C47.9109 16.701 47.7806 16.6933 47.6426 16.678C47.5199 16.678 47.4586 16.678 47.4586 16.678C46.7072 16.678 46.0709 16.8313 45.5496 17.138C45.3349 17.2607 45.2046 17.322 45.1586 17.322C45.0206 17.322 44.9516 17.23 44.9516 17.046L44.9746 16.333C44.3152 16.9617 43.5332 17.276 42.6286 17.276C41.3406 17.276 40.2749 16.7853 39.4316 15.804C38.6036 14.8073 38.1896 13.5423 38.1896 12.009C38.1896 10.4297 38.6036 9.14933 39.4316 8.168C40.2749 7.18667 41.3712 6.696 42.7206 6.696C43.7632 6.696 44.5452 7.07167 45.0666 7.823V4.235C45.0666 3.06967 45.0129 2.349 44.9056 2.073C44.8136 1.843 44.6756 1.73567 44.4916 1.751C44.0469 1.797 43.7786 1.82 43.6866 1.82C43.4872 1.82 43.3876 1.751 43.3876 1.613C43.3876 1.475 43.4719 1.406 43.6406 1.406L44.4686 1.429C44.9286 1.44433 45.6339 1.22967 46.5846 0.784999C46.6459 0.754333 46.6996 0.739 46.7456 0.739C46.8989 0.739 46.9756 0.923 46.9756 1.291C46.9756 1.383 46.9756 1.544 46.9756 1.774C46.9602 2.01933 46.9526 2.234 46.9526 2.418V10.353C46.9526 13.987 46.9909 15.9343 47.0676 16.195C47.0982 16.3023 47.4586 16.356 48.1486 16.356C48.3632 16.356 48.4706 16.4173 48.4706 16.54ZM45.0666 10.767C45.0666 9.295 44.9056 8.352 44.5836 7.938C44.1696 7.41667 43.6406 7.156 42.9966 7.156C42.1686 7.156 41.5092 7.58533 41.0186 8.444C40.5279 9.30267 40.2826 10.4527 40.2826 11.894C40.2826 13.274 40.4972 14.4547 40.9266 15.436C41.1106 15.85 41.3789 16.195 41.7316 16.471C42.0996 16.7317 42.4752 16.862 42.8586 16.862C43.3339 16.862 43.7632 16.724 44.1466 16.448C44.5299 16.1567 44.7752 15.8117 44.8826 15.413C45.0052 15.0143 45.0666 13.4657 45.0666 10.767ZM58.282 15.965C58.282 16.2257 58.006 16.5017 57.454 16.793C56.9174 17.069 56.396 17.207 55.89 17.207C54.832 17.207 54.28 16.6627 54.234 15.574C53.6514 16.7087 52.7467 17.276 51.52 17.276C50.8607 17.276 50.3164 17.0843 49.887 16.701C49.4577 16.3023 49.243 15.7963 49.243 15.183C49.243 13.9257 50.002 12.929 51.52 12.193C52.0414 11.9477 52.946 11.7023 54.234 11.457V10.882C54.234 9.53267 54.165 8.64333 54.027 8.214C53.7817 7.432 53.2297 7.041 52.371 7.041C51.8344 7.041 51.382 7.18667 51.014 7.478C50.6614 7.76933 50.485 8.13733 50.485 8.582C50.485 8.70467 50.577 8.766 50.761 8.766C50.9604 8.766 51.1367 8.858 51.29 9.042C51.4434 9.226 51.52 9.433 51.52 9.663C51.52 10.3377 51.1827 10.675 50.508 10.675C50.1554 10.675 49.864 10.56 49.634 10.33C49.404 10.0847 49.289 9.778 49.289 9.41C49.289 8.68933 49.5727 8.06833 50.14 7.547C50.7687 6.97967 51.6427 6.696 52.762 6.696C54.4487 6.696 55.4837 7.156 55.867 8.076C56.005 8.42867 56.074 9.12633 56.074 10.169V14.47C56.074 15.1753 56.0817 15.5893 56.097 15.712C56.1737 16.264 56.396 16.54 56.764 16.54C57.1934 16.54 57.546 16.3867 57.822 16.08C57.9754 15.9113 58.0904 15.827 58.167 15.827C58.2437 15.827 58.282 15.873 58.282 15.965ZM54.234 13.527V11.848C53.084 12.1087 52.256 12.4537 51.75 12.883C51.2594 13.297 51.014 13.8567 51.014 14.562C51.014 15.0527 51.152 15.459 51.428 15.781C51.7194 16.0877 52.0797 16.241 52.509 16.241C53.1684 16.241 53.6974 15.873 54.096 15.137C54.188 14.9683 54.234 14.4317 54.234 13.527ZM64.5256 15.643C64.5256 15.781 64.334 16.0263 63.9506 16.379C63.2913 16.977 62.5093 17.276 61.6046 17.276C60.7613 17.276 60.125 17.0613 59.6956 16.632C59.4503 16.3867 59.3276 15.666 59.3276 14.47V7.616C59.3123 7.46267 59.228 7.37833 59.0746 7.363H58.2006C57.8633 7.363 57.6946 7.30933 57.6946 7.202C57.6946 7.09467 57.779 7.03333 57.9476 7.018C59.1436 6.91067 60.079 6.328 60.7536 5.27C60.8456 5.132 60.9606 5.063 61.0986 5.063C61.206 5.063 61.2596 5.11667 61.2596 5.224V5.316C61.2443 5.39267 61.2366 5.523 61.2366 5.707C61.2366 6.351 61.2673 6.765 61.3286 6.949C61.4666 6.97967 61.6966 6.995 62.0186 6.995C62.862 6.995 63.4216 6.95667 63.6976 6.88C63.759 6.86467 63.8126 6.857 63.8586 6.857C63.9813 6.857 64.0426 6.926 64.0426 7.064C64.0426 7.294 63.4216 7.409 62.1796 7.409C61.965 7.409 61.6506 7.40133 61.2366 7.386V11.641C61.2366 13.7877 61.2903 15.137 61.3976 15.689C61.505 16.2257 61.8576 16.494 62.4556 16.494C62.9616 16.494 63.529 16.2103 64.1576 15.643C64.219 15.5663 64.288 15.528 64.3646 15.528C64.472 15.528 64.5256 15.5663 64.5256 15.643ZM74.4428 12.032C74.4428 13.5193 73.9904 14.769 73.0858 15.781C72.1811 16.7777 71.0541 17.276 69.7048 17.276C68.3094 17.276 67.1441 16.7777 66.2088 15.781C65.2734 14.769 64.8058 13.5193 64.8058 12.032C64.8058 10.4987 65.2581 9.226 66.1628 8.214C67.0828 7.202 68.2251 6.696 69.5898 6.696C70.9698 6.696 72.1198 7.20967 73.0398 8.237C73.9751 9.249 74.4428 10.514 74.4428 12.032ZM72.3498 12.009C72.3498 10.3223 72.0891 9.01133 71.5678 8.076C71.1844 7.386 70.5404 7.041 69.6358 7.041C68.7771 7.041 68.1024 7.48567 67.6118 8.375C67.1364 9.249 66.8988 10.468 66.8988 12.032C66.8988 13.5807 67.1518 14.792 67.6578 15.666C68.1791 16.5247 68.8998 16.954 69.8198 16.954C70.5251 16.954 71.0464 16.6857 71.3838 16.149C72.0278 15.137 72.3498 13.757 72.3498 12.009ZM82.8716 14.079C82.8716 14.9683 82.5419 15.7273 81.8826 16.356C81.2386 16.9693 80.4642 17.276 79.5596 17.276C79.0382 17.276 78.4019 17.092 77.6506 16.724C77.4512 16.6167 77.2749 16.563 77.1216 16.563C76.9069 16.563 76.7459 16.7087 76.6386 17C76.5772 17.184 76.4929 17.276 76.3856 17.276C76.2782 17.276 76.2246 17.2147 76.2246 17.092C76.2246 17.0153 76.2322 16.9233 76.2476 16.816C76.2936 16.5093 76.3166 16.057 76.3166 15.459C76.3166 15.413 76.3089 15.229 76.2936 14.907C76.2782 14.585 76.2706 14.3703 76.2706 14.263V14.01C76.2706 13.8413 76.3242 13.757 76.4316 13.757C76.5542 13.757 76.6232 13.8413 76.6386 14.01C76.7306 14.7153 76.9299 15.2673 77.2366 15.666C77.8499 16.4633 78.6702 16.862 79.6976 16.862C80.2496 16.862 80.6942 16.701 81.0316 16.379C81.3689 16.057 81.5376 15.6277 81.5376 15.091C81.5376 14.493 81.3459 14.0177 80.9626 13.665C80.7479 13.4657 80.5486 13.3277 80.3646 13.251C80.1959 13.159 79.6822 12.952 78.8236 12.63C77.1216 11.986 76.2706 11.02 76.2706 9.732C76.2706 8.87333 76.5619 8.15267 77.1446 7.57C77.7272 6.98733 78.4479 6.696 79.3066 6.696C79.6132 6.696 80.0732 6.788 80.6866 6.972C80.8399 7.018 80.9779 7.041 81.1006 7.041C81.4226 7.041 81.6219 6.88767 81.6986 6.581C81.7446 6.42767 81.8136 6.351 81.9056 6.351C82.0129 6.351 82.0666 6.41233 82.0666 6.535C82.0666 6.55033 82.0589 6.59633 82.0436 6.673L82.0206 7.639C82.0052 8.007 82.0436 8.59733 82.1356 9.41V9.456C82.1356 9.57867 82.0742 9.64 81.9516 9.64C81.8596 9.64 81.7446 9.41 81.6066 8.95C81.4379 8.398 81.1389 7.95333 80.7096 7.616C80.2956 7.27867 79.8126 7.11 79.2606 7.11C78.7392 7.11 78.3099 7.271 77.9726 7.593C77.6352 7.915 77.4666 8.32133 77.4666 8.812C77.4666 9.57867 77.9802 10.1613 79.0076 10.56C80.6022 11.1887 81.6142 11.71 82.0436 12.124C82.5956 12.6607 82.8716 13.3123 82.8716 14.079ZM98.0941 11.526C98.0941 13.1207 97.6111 14.4777 96.6451 15.597C95.6791 16.7163 94.5138 17.276 93.1491 17.276C92.6738 17.276 92.1755 17.1763 91.6541 16.977C91.1328 16.7777 90.7801 16.678 90.5961 16.678C90.4275 16.678 90.2358 16.7547 90.0211 16.908C89.8065 17.046 89.6455 17.115 89.5381 17.115C89.4155 17.115 89.3541 16.862 89.3541 16.356V4.396C89.3541 2.84733 89.2545 2.01167 89.0551 1.889C88.9785 1.843 88.6795 1.82 88.1581 1.82C87.7901 1.82 87.6061 1.75867 87.6061 1.636C87.6061 1.52867 87.6905 1.475 87.8591 1.475H88.1811C89.0245 1.475 89.8371 1.29867 90.6191 0.946C90.8491 0.838666 91.0101 0.784999 91.1021 0.784999H91.1941V8.007C91.7768 7.133 92.6508 6.696 93.8161 6.696C95.1041 6.696 96.1391 7.14067 96.9211 8.03C97.7031 8.904 98.0941 10.0693 98.0941 11.526ZM96.0011 11.641C96.0011 10.1997 95.7711 9.088 95.3111 8.306C94.8665 7.524 94.2378 7.133 93.4251 7.133C92.9958 7.133 92.5895 7.271 92.2061 7.547C91.8228 7.80767 91.5621 8.13733 91.4241 8.536C91.2861 8.93467 91.2171 10.146 91.2171 12.17C91.2171 14.286 91.2708 15.5433 91.3781 15.942C91.5468 16.586 92.1065 16.908 93.0571 16.908C93.9618 16.908 94.6288 16.563 95.0581 15.873C95.6868 14.8457 96.0011 13.435 96.0011 11.641ZM108.684 15.965C108.684 16.2257 108.408 16.5017 107.856 16.793C107.32 17.069 106.798 17.207 106.292 17.207C105.234 17.207 104.682 16.6627 104.636 15.574C104.054 16.7087 103.149 17.276 101.922 17.276C101.263 17.276 100.719 17.0843 100.289 16.701C99.86 16.3023 99.6454 15.7963 99.6454 15.183C99.6454 13.9257 100.404 12.929 101.922 12.193C102.444 11.9477 103.348 11.7023 104.636 11.457V10.882C104.636 9.53267 104.567 8.64333 104.429 8.214C104.184 7.432 103.632 7.041 102.773 7.041C102.237 7.041 101.784 7.18667 101.416 7.478C101.064 7.76933 100.887 8.13733 100.887 8.582C100.887 8.70467 100.979 8.766 101.163 8.766C101.363 8.766 101.539 8.858 101.692 9.042C101.846 9.226 101.922 9.433 101.922 9.663C101.922 10.3377 101.585 10.675 100.91 10.675C100.558 10.675 100.266 10.56 100.036 10.33C99.8064 10.0847 99.6914 9.778 99.6914 9.41C99.6914 8.68933 99.975 8.06833 100.542 7.547C101.171 6.97967 102.045 6.696 103.164 6.696C104.851 6.696 105.886 7.156 106.269 8.076C106.407 8.42867 106.476 9.12633 106.476 10.169V14.47C106.476 15.1753 106.484 15.5893 106.499 15.712C106.576 16.264 106.798 16.54 107.166 16.54C107.596 16.54 107.948 16.3867 108.224 16.08C108.378 15.9113 108.493 15.827 108.569 15.827C108.646 15.827 108.684 15.873 108.684 15.965ZM104.636 13.527V11.848C103.486 12.1087 102.658 12.4537 102.152 12.883C101.662 13.297 101.416 13.8567 101.416 14.562C101.416 15.0527 101.554 15.459 101.83 15.781C102.122 16.0877 102.482 16.241 102.911 16.241C103.571 16.241 104.1 15.873 104.498 15.137C104.59 14.9683 104.636 14.4317 104.636 13.527ZM119.114 16.862C119.114 16.9847 118.999 17.046 118.769 17.046H118.493C118.217 17.0153 117.841 17 117.366 17C115.863 17 114.974 17.0153 114.698 17.046H114.537C114.338 17.046 114.238 16.9923 114.238 16.885C114.238 16.8083 114.276 16.7623 114.353 16.747C114.445 16.7317 114.744 16.7163 115.25 16.701C115.541 16.6857 115.71 16.6473 115.756 16.586C115.802 16.5093 115.825 16.2563 115.825 15.827V11.411C115.825 9.73967 115.764 8.743 115.641 8.421C115.38 7.731 114.859 7.386 114.077 7.386C113.31 7.386 112.666 7.72333 112.145 8.398C111.992 8.59733 111.915 8.87333 111.915 9.226L111.938 16.402C111.938 16.586 112.099 16.6857 112.421 16.701L113.111 16.724C113.264 16.724 113.341 16.7777 113.341 16.885C113.341 16.9923 113.249 17.046 113.065 17.046H112.697C112.36 17.0153 111.823 17 111.087 17C110.918 17 110.55 17.0077 109.983 17.023C109.431 17.0383 109.109 17.046 109.017 17.046H108.879C108.649 17.046 108.534 16.9923 108.534 16.885C108.534 16.7777 108.672 16.7087 108.948 16.678C109.147 16.678 109.339 16.678 109.523 16.678C109.753 16.678 109.891 16.6243 109.937 16.517L110.006 16.172V11.158C110.006 9.41 109.991 8.444 109.96 8.26C109.929 8.076 109.738 7.984 109.385 7.984C109.278 7.984 109.094 7.99933 108.833 8.03H108.718C108.411 8.03 108.258 7.97633 108.258 7.869C108.258 7.731 108.419 7.662 108.741 7.662C109.201 7.64667 109.699 7.56233 110.236 7.409C110.773 7.25567 111.148 7.07933 111.363 6.88C111.501 6.75733 111.608 6.696 111.685 6.696C111.792 6.696 111.846 6.84167 111.846 7.133V8.237C112.643 7.20967 113.671 6.696 114.928 6.696C116.032 6.696 116.829 7.10233 117.32 7.915C117.596 8.375 117.734 9.249 117.734 10.537V15.781C117.734 16.2717 117.757 16.54 117.803 16.586C117.895 16.678 118.117 16.724 118.47 16.724C118.516 16.724 118.6 16.7163 118.723 16.701H118.884C119.037 16.701 119.114 16.7547 119.114 16.862ZM128.297 9.065C128.297 9.77033 127.952 10.123 127.262 10.123C126.587 10.123 126.25 9.801 126.25 9.157C126.25 8.98833 126.327 8.73533 126.48 8.398C126.526 8.29067 126.549 8.18333 126.549 8.076C126.549 7.76933 126.388 7.51633 126.066 7.317C125.759 7.11767 125.368 7.018 124.893 7.018C123.973 7.018 123.26 7.41667 122.754 8.214C122.248 9.01133 121.995 10.1307 121.995 11.572C121.995 13.1973 122.256 14.4547 122.777 15.344C123.298 16.218 124.034 16.655 124.985 16.655C125.629 16.655 126.204 16.4557 126.71 16.057C126.94 15.873 127.239 15.5203 127.607 14.999C127.684 14.9223 127.753 14.884 127.814 14.884C127.967 14.884 128.044 14.9453 128.044 15.068C128.044 15.2673 127.776 15.643 127.239 16.195C126.549 16.9157 125.667 17.276 124.594 17.276C123.245 17.276 122.125 16.793 121.236 15.827C120.362 14.861 119.925 13.642 119.925 12.17C119.925 10.5907 120.393 9.28733 121.328 8.26C122.263 7.21733 123.436 6.696 124.847 6.696C125.752 6.696 126.549 6.93367 127.239 7.409C127.944 7.88433 128.297 8.43633 128.297 9.065ZM138.49 15.965C138.49 16.2257 138.214 16.5017 137.662 16.793C137.125 17.069 136.604 17.207 136.098 17.207C135.04 17.207 134.488 16.6627 134.442 15.574C133.859 16.7087 132.955 17.276 131.728 17.276C131.069 17.276 130.524 17.0843 130.095 16.701C129.666 16.3023 129.451 15.7963 129.451 15.183C129.451 13.9257 130.21 12.929 131.728 12.193C132.249 11.9477 133.154 11.7023 134.442 11.457V10.882C134.442 9.53267 134.373 8.64333 134.235 8.214C133.99 7.432 133.438 7.041 132.579 7.041C132.042 7.041 131.59 7.18667 131.222 7.478C130.869 7.76933 130.693 8.13733 130.693 8.582C130.693 8.70467 130.785 8.766 130.969 8.766C131.168 8.766 131.345 8.858 131.498 9.042C131.651 9.226 131.728 9.433 131.728 9.663C131.728 10.3377 131.391 10.675 130.716 10.675C130.363 10.675 130.072 10.56 129.842 10.33C129.612 10.0847 129.497 9.778 129.497 9.41C129.497 8.68933 129.781 8.06833 130.348 7.547C130.977 6.97967 131.851 6.696 132.97 6.696C134.657 6.696 135.692 7.156 136.075 8.076C136.213 8.42867 136.282 9.12633 136.282 10.169V14.47C136.282 15.1753 136.29 15.5893 136.305 15.712C136.382 16.264 136.604 16.54 136.972 16.54C137.401 16.54 137.754 16.3867 138.03 16.08C138.183 15.9113 138.298 15.827 138.375 15.827C138.452 15.827 138.49 15.873 138.49 15.965ZM134.442 13.527V11.848C133.292 12.1087 132.464 12.4537 131.958 12.883C131.467 13.297 131.222 13.8567 131.222 14.562C131.222 15.0527 131.36 15.459 131.636 15.781C131.927 16.0877 132.288 16.241 132.717 16.241C133.376 16.241 133.905 15.873 134.304 15.137C134.396 14.9683 134.442 14.4317 134.442 13.527ZM145.516 8.26C145.516 8.61267 145.408 8.904 145.194 9.134C144.979 9.364 144.703 9.479 144.366 9.479C144.09 9.479 143.86 9.40233 143.676 9.249C143.492 9.08033 143.4 8.87333 143.4 8.628C143.4 8.41333 143.469 8.22933 143.607 8.076C143.745 7.92267 143.814 7.81533 143.814 7.754C143.814 7.524 143.645 7.409 143.308 7.409C142.878 7.409 142.51 7.67733 142.204 8.214C141.851 8.84267 141.675 10.008 141.675 11.71V16.264C141.675 16.448 141.736 16.563 141.859 16.609C141.997 16.655 142.395 16.6857 143.055 16.701C143.223 16.7317 143.308 16.793 143.308 16.885C143.308 16.9923 143.208 17.046 143.009 17.046C142.656 17.046 142.326 17.0383 142.02 17.023C141.713 17.0077 141.13 17 140.272 17C139.827 17 139.505 17.0077 139.306 17.023C139.106 17.0383 138.853 17.046 138.547 17.046C138.301 17.046 138.179 16.9923 138.179 16.885C138.179 16.7777 138.278 16.724 138.478 16.724H138.8C139.321 16.724 139.628 16.6627 139.72 16.54C139.75 16.4787 139.766 16.195 139.766 15.689V9.364C139.766 8.52067 139.635 8.03767 139.375 7.915C139.129 7.777 138.731 7.70033 138.179 7.685C137.995 7.685 137.903 7.63133 137.903 7.524C137.903 7.41667 137.979 7.363 138.133 7.363H138.294C138.524 7.363 138.754 7.37833 138.984 7.409C139.214 7.42433 139.313 7.432 139.283 7.432C139.85 7.432 140.479 7.271 141.169 6.949L141.468 6.811L141.652 6.742C141.713 7.11 141.744 7.478 141.744 7.846V8.306C142.234 7.23267 142.924 6.696 143.814 6.696C144.304 6.696 144.711 6.84933 145.033 7.156C145.355 7.44733 145.516 7.81533 145.516 8.26ZM149.377 2.533C149.377 3.223 149.032 3.568 148.342 3.568C148.051 3.568 147.805 3.476 147.606 3.292C147.407 3.09267 147.307 2.855 147.307 2.579C147.307 1.85833 147.652 1.498 148.342 1.498C149.032 1.498 149.377 1.843 149.377 2.533ZM151.102 16.862C151.102 17 150.972 17.069 150.711 17.069C150.726 17.069 150.542 17.0537 150.159 17.023C149.699 16.9923 149.316 16.977 149.009 16.977L146.617 17.023C146.54 17.0383 146.448 17.046 146.341 17.046C146.172 17.046 146.088 16.9923 146.088 16.885C146.088 16.7317 146.241 16.655 146.548 16.655C147.131 16.6397 147.445 16.6013 147.491 16.54C147.552 16.4633 147.583 16.1413 147.583 15.574L147.56 8.605C147.545 8.22167 147.522 7.99933 147.491 7.938C147.476 7.86133 147.384 7.823 147.215 7.823L146.548 7.846C146.487 7.86133 146.41 7.869 146.318 7.869C146.149 7.869 146.065 7.80767 146.065 7.685C146.065 7.57767 146.195 7.51633 146.456 7.501C147.483 7.455 148.365 7.20967 149.101 6.765L149.331 6.627C149.454 6.857 149.515 7.27867 149.515 7.892C149.515 7.86133 149.515 7.938 149.515 8.122C149.5 8.306 149.492 8.605 149.492 9.019V15.298C149.492 15.9113 149.5 16.2717 149.515 16.379C149.546 16.4863 149.63 16.5553 149.768 16.586C149.998 16.6473 150.335 16.678 150.78 16.678C150.995 16.678 151.102 16.7393 151.102 16.862ZM161.659 12.032C161.659 13.5193 161.206 14.769 160.302 15.781C159.397 16.7777 158.27 17.276 156.921 17.276C155.525 17.276 154.36 16.7777 153.425 15.781C152.489 14.769 152.022 13.5193 152.022 12.032C152.022 10.4987 152.474 9.226 153.379 8.214C154.299 7.202 155.441 6.696 156.806 6.696C158.186 6.696 159.336 7.20967 160.256 8.237C161.191 9.249 161.659 10.514 161.659 12.032ZM159.566 12.009C159.566 10.3223 159.305 9.01133 158.784 8.076C158.4 7.386 157.756 7.041 156.852 7.041C155.993 7.041 155.318 7.48567 154.828 8.375C154.352 9.249 154.115 10.468 154.115 12.032C154.115 13.5807 154.368 14.792 154.874 15.666C155.395 16.5247 156.116 16.954 157.036 16.954C157.741 16.954 158.262 16.6857 158.6 16.149C159.244 15.137 159.566 13.757 159.566 12.009ZM170.087 14.079C170.087 14.9683 169.758 15.7273 169.098 16.356C168.454 16.9693 167.68 17.276 166.775 17.276C166.254 17.276 165.618 17.092 164.866 16.724C164.667 16.6167 164.491 16.563 164.337 16.563C164.123 16.563 163.962 16.7087 163.854 17C163.793 17.184 163.709 17.276 163.601 17.276C163.494 17.276 163.44 17.2147 163.44 17.092C163.44 17.0153 163.448 16.9233 163.463 16.816C163.509 16.5093 163.532 16.057 163.532 15.459C163.532 15.413 163.525 15.229 163.509 14.907C163.494 14.585 163.486 14.3703 163.486 14.263V14.01C163.486 13.8413 163.54 13.757 163.647 13.757C163.77 13.757 163.839 13.8413 163.854 14.01C163.946 14.7153 164.146 15.2673 164.452 15.666C165.066 16.4633 165.886 16.862 166.913 16.862C167.465 16.862 167.91 16.701 168.247 16.379C168.585 16.057 168.753 15.6277 168.753 15.091C168.753 14.493 168.562 14.0177 168.178 13.665C167.964 13.4657 167.764 13.3277 167.58 13.251C167.412 13.159 166.898 12.952 166.039 12.63C164.337 11.986 163.486 11.02 163.486 9.732C163.486 8.87333 163.778 8.15267 164.36 7.57C164.943 6.98733 165.664 6.696 166.522 6.696C166.829 6.696 167.289 6.788 167.902 6.972C168.056 7.018 168.194 7.041 168.316 7.041C168.638 7.041 168.838 6.88767 168.914 6.581C168.96 6.42767 169.029 6.351 169.121 6.351C169.229 6.351 169.282 6.41233 169.282 6.535C169.282 6.55033 169.275 6.59633 169.259 6.673L169.236 7.639C169.221 8.007 169.259 8.59733 169.351 9.41V9.456C169.351 9.57867 169.29 9.64 169.167 9.64C169.075 9.64 168.96 9.41 168.822 8.95C168.654 8.398 168.355 7.95333 167.925 7.616C167.511 7.27867 167.028 7.11 166.476 7.11C165.955 7.11 165.526 7.271 165.188 7.593C164.851 7.915 164.682 8.32133 164.682 8.812C164.682 9.57867 165.196 10.1613 166.223 10.56C167.818 11.1887 168.83 11.71 169.259 12.124C169.811 12.6607 170.087 13.3123 170.087 14.079Z" fill="white"/>
</svg>
