<svg width="155" height="35" viewBox="0 0 155 35" fill="none" xmlns="http://www.w3.org/2000/svg">
<rect width="155" height="35" rx="17.5" fill="#364936"/>
<path d="M35.624 23.816C35.624 23.9387 35.532 24 35.348 24H35.118C35.026 23.954 33.9833 23.931 31.99 23.931C31.6067 23.931 31.2233 23.9463 30.84 23.977C30.6407 23.9923 30.334 24 29.92 24C29.7207 24 29.621 23.931 29.621 23.793C29.621 23.6703 29.8203 23.6013 30.219 23.586C30.8323 23.5707 31.1927 23.5017 31.3 23.379C31.4073 23.241 31.461 22.7963 31.461 22.045V9.947C31.461 9.19567 31.4227 8.774 31.346 8.682C31.254 8.52867 30.8323 8.43667 30.081 8.406C29.7897 8.39067 29.644 8.32933 29.644 8.222C29.644 8.084 29.736 8.015 29.92 8.015L33.025 8.061C33.255 8.061 33.6997 8.05333 34.359 8.038L35.233 8.015C35.4783 8.015 35.601 8.084 35.601 8.222C35.601 8.34467 35.2637 8.42133 34.589 8.452C34.2057 8.46733 33.968 8.53633 33.876 8.659C33.7993 8.78167 33.761 9.10367 33.761 9.625V21.907C33.761 22.781 33.7993 23.2563 33.876 23.333C34.0447 23.5017 34.543 23.6013 35.371 23.632C35.5397 23.632 35.624 23.6933 35.624 23.816ZM43.9834 15.26C43.9834 15.6127 43.8761 15.904 43.6614 16.134C43.4468 16.364 43.1708 16.479 42.8334 16.479C42.5574 16.479 42.3274 16.4023 42.1434 16.249C41.9594 16.0803 41.8674 15.8733 41.8674 15.628C41.8674 15.4133 41.9364 15.2293 42.0744 15.076C42.2124 14.9227 42.2814 14.8153 42.2814 14.754C42.2814 14.524 42.1128 14.409 41.7754 14.409C41.3461 14.409 40.9781 14.6773 40.6714 15.214C40.3188 15.8427 40.1424 17.008 40.1424 18.71V23.264C40.1424 23.448 40.2038 23.563 40.3264 23.609C40.4644 23.655 40.8631 23.6857 41.5224 23.701C41.6911 23.7317 41.7754 23.793 41.7754 23.885C41.7754 23.9923 41.6758 24.046 41.4764 24.046C41.1238 24.046 40.7941 24.0383 40.4874 24.023C40.1808 24.0077 39.5981 24 38.7394 24C38.2948 24 37.9728 24.0077 37.7734 24.023C37.5741 24.0383 37.3211 24.046 37.0144 24.046C36.7691 24.046 36.6464 23.9923 36.6464 23.885C36.6464 23.7777 36.7461 23.724 36.9454 23.724H37.2674C37.7888 23.724 38.0954 23.6627 38.1874 23.54C38.2181 23.4787 38.2334 23.195 38.2334 22.689V16.364C38.2334 15.5207 38.1031 15.0377 37.8424 14.915C37.5971 14.777 37.1984 14.7003 36.6464 14.685C36.4624 14.685 36.3704 14.6313 36.3704 14.524C36.3704 14.4167 36.4471 14.363 36.6004 14.363H36.7614C36.9914 14.363 37.2214 14.3783 37.4514 14.409C37.6814 14.4243 37.7811 14.432 37.7504 14.432C38.3178 14.432 38.9464 14.271 39.6364 13.949L39.9354 13.811L40.1194 13.742C40.1808 14.11 40.2114 14.478 40.2114 14.846V15.306C40.7021 14.2327 41.3921 13.696 42.2814 13.696C42.7721 13.696 43.1784 13.8493 43.5004 14.156C43.8224 14.4473 43.9834 14.8153 43.9834 15.26ZM58.1385 22.965C58.1385 23.2257 57.8625 23.5017 57.3105 23.793C56.7738 24.069 56.2525 24.207 55.7465 24.207C54.6885 24.207 54.1365 23.6627 54.0905 22.574C53.5078 23.7087 52.6032 24.276 51.3765 24.276C50.7172 24.276 50.1728 24.0843 49.7435 23.701C49.3142 23.3023 49.0995 22.7963 49.0995 22.183C49.0995 20.9257 49.8585 19.929 51.3765 19.193C51.8978 18.9477 52.8025 18.7023 54.0905 18.457V17.882C54.0905 16.5327 54.0215 15.6433 53.8835 15.214C53.6382 14.432 53.0862 14.041 52.2275 14.041C51.6908 14.041 51.2385 14.1867 50.8705 14.478C50.5178 14.7693 50.3415 15.1373 50.3415 15.582C50.3415 15.7047 50.4335 15.766 50.6175 15.766C50.8168 15.766 50.9932 15.858 51.1465 16.042C51.2998 16.226 51.3765 16.433 51.3765 16.663C51.3765 17.3377 51.0392 17.675 50.3645 17.675C50.0118 17.675 49.7205 17.56 49.4905 17.33C49.2605 17.0847 49.1455 16.778 49.1455 16.41C49.1455 15.6893 49.4292 15.0683 49.9965 14.547C50.6252 13.9797 51.4992 13.696 52.6185 13.696C54.3052 13.696 55.3402 14.156 55.7235 15.076C55.8615 15.4287 55.9305 16.1263 55.9305 17.169V21.47C55.9305 22.1753 55.9382 22.5893 55.9535 22.712C56.0302 23.264 56.2525 23.54 56.6205 23.54C57.0498 23.54 57.4025 23.3867 57.6785 23.08C57.8318 22.9113 57.9468 22.827 58.0235 22.827C58.1002 22.827 58.1385 22.873 58.1385 22.965ZM54.0905 20.527V18.848C52.9405 19.1087 52.1125 19.4537 51.6065 19.883C51.1158 20.297 50.8705 20.8567 50.8705 21.562C50.8705 22.0527 51.0085 22.459 51.2845 22.781C51.5758 23.0877 51.9362 23.241 52.3655 23.241C53.0248 23.241 53.5538 22.873 53.9525 22.137C54.0445 21.9683 54.0905 21.4317 54.0905 20.527ZM72.4677 19.515C72.4677 20.8337 71.9617 21.9607 70.9497 22.896C69.953 23.816 68.7493 24.276 67.3387 24.276C66.5107 24.276 65.5217 24.023 64.3717 23.517C64.065 23.379 63.835 23.31 63.6817 23.31C63.4977 23.31 63.3827 23.5323 63.3367 23.977C63.3213 24.207 63.2217 24.322 63.0377 24.322C62.8843 24.322 62.8077 24.23 62.8077 24.046C62.8077 23.9233 62.8153 23.8313 62.8307 23.77C62.9533 22.8347 63.0147 21.9683 63.0147 21.171C63.0147 21.0177 62.9993 20.5883 62.9687 19.883C62.9533 19.791 62.9457 19.6683 62.9457 19.515C62.9457 19.285 63.0377 19.17 63.2217 19.17C63.375 19.17 63.4823 19.354 63.5437 19.722C63.9423 22.4513 65.238 23.816 67.4307 23.816C68.366 23.816 69.0867 23.5553 69.5927 23.034C70.114 22.4973 70.3747 21.746 70.3747 20.78C70.3747 19.9213 70.1217 19.193 69.6157 18.595C69.125 17.9817 68.274 17.376 67.0627 16.778C65.606 16.0573 64.594 15.3597 64.0267 14.685C63.4593 14.0103 63.1757 13.1747 63.1757 12.178C63.1757 10.9053 63.582 9.855 64.3947 9.027C65.2227 8.199 66.2653 7.785 67.5227 7.785C68.044 7.785 68.7647 7.96133 69.6847 8.314C70.0067 8.43667 70.2443 8.498 70.3977 8.498C70.5663 8.498 70.6737 8.46733 70.7197 8.406C70.781 8.34467 70.8347 8.18367 70.8807 7.923C70.9113 7.76967 70.9957 7.693 71.1337 7.693C71.287 7.693 71.3637 7.785 71.3637 7.969C71.3637 8.09167 71.356 8.18367 71.3407 8.245C71.2947 8.613 71.2717 9.05767 71.2717 9.579C71.2717 10.315 71.31 10.8977 71.3867 11.327L71.4097 11.695C71.425 11.8637 71.356 11.948 71.2027 11.948C71.034 11.948 70.919 11.7717 70.8577 11.419C70.689 10.5143 70.2903 9.763 69.6617 9.165C69.033 8.55167 68.3277 8.245 67.5457 8.245C66.779 8.245 66.1657 8.49033 65.7057 8.981C65.261 9.47167 65.0387 10.1387 65.0387 10.982C65.0387 11.9633 65.3683 12.753 66.0277 13.351C66.3957 13.6883 67.193 14.1637 68.4197 14.777C69.861 15.4977 70.896 16.2337 71.5247 16.985C72.1533 17.721 72.4677 18.5643 72.4677 19.515ZM83.6697 18.894C83.6697 20.4273 83.2327 21.7077 82.3587 22.735C81.5001 23.7623 80.4267 24.276 79.1387 24.276C78.1267 24.276 77.3447 23.908 76.7927 23.172V28.531C76.7927 28.8683 76.8004 29.0677 76.8157 29.129C76.8464 29.1903 76.9231 29.244 77.0457 29.29C77.2757 29.336 77.7204 29.359 78.3797 29.359C78.5637 29.359 78.6557 29.428 78.6557 29.566C78.6557 29.6733 78.5561 29.727 78.3567 29.727H77.9197C77.8124 29.727 77.6361 29.727 77.3907 29.727C77.1607 29.7117 76.9614 29.704 76.7927 29.704C76.7007 29.704 76.4477 29.7117 76.0337 29.727C75.6044 29.727 75.2824 29.727 75.0677 29.727H73.8487C73.4041 29.727 73.1817 29.6733 73.1817 29.566C73.1817 29.428 73.2737 29.359 73.4577 29.359H74.1477C74.5924 29.359 74.8301 29.2593 74.8607 29.06C74.8761 28.968 74.8837 28.2627 74.8837 26.944V15.49C74.8837 15.0607 74.6767 14.8613 74.2627 14.892C73.6494 14.8613 73.3274 14.846 73.2967 14.846C73.1587 14.846 73.0897 14.7923 73.0897 14.685C73.0897 14.547 73.2584 14.478 73.5957 14.478C74.4391 14.4933 75.2057 14.294 75.8957 13.88C76.0951 13.7573 76.2484 13.696 76.3557 13.696C76.4784 13.696 76.5551 13.7573 76.5857 13.88C76.6317 13.9873 76.6624 14.3323 76.6777 14.915C77.2451 14.1023 78.0577 13.696 79.1157 13.696C80.4497 13.696 81.5384 14.1867 82.3817 15.168C83.2404 16.134 83.6697 17.376 83.6697 18.894ZM81.6227 18.917C81.6227 17.721 81.4387 16.7013 81.0707 15.858C80.5801 14.6927 79.8211 14.11 78.7937 14.11C78.2571 14.11 77.7971 14.3017 77.4137 14.685C77.0304 15.053 76.8234 15.5053 76.7927 16.042C76.7621 16.7167 76.7697 18.135 76.8157 20.297C76.8311 21.3857 76.8541 22.045 76.8847 22.275C76.9154 22.4897 77.0151 22.712 77.1837 22.942C77.6284 23.5707 78.2034 23.885 78.9087 23.885C79.7061 23.885 80.3041 23.5477 80.7027 22.873C81.3161 21.8457 81.6227 20.527 81.6227 18.917ZM94.7387 19.032C94.7387 20.5193 94.2863 21.769 93.3817 22.781C92.477 23.7777 91.35 24.276 90.0007 24.276C88.6053 24.276 87.44 23.7777 86.5047 22.781C85.5693 21.769 85.1017 20.5193 85.1017 19.032C85.1017 17.4987 85.554 16.226 86.4587 15.214C87.3787 14.202 88.521 13.696 89.8857 13.696C91.2657 13.696 92.4157 14.2097 93.3357 15.237C94.271 16.249 94.7387 17.514 94.7387 19.032ZM92.6457 19.009C92.6457 17.3223 92.385 16.0113 91.8637 15.076C91.4803 14.386 90.8363 14.041 89.9317 14.041C89.073 14.041 88.3983 14.4857 87.9077 15.375C87.4323 16.249 87.1947 17.468 87.1947 19.032C87.1947 20.5807 87.4477 21.792 87.9537 22.666C88.475 23.5247 89.1957 23.954 90.1157 23.954C90.821 23.954 91.3423 23.6857 91.6797 23.149C92.3237 22.137 92.6457 20.757 92.6457 19.009ZM102.408 22.643C102.408 22.781 102.217 23.0263 101.833 23.379C101.174 23.977 100.392 24.276 99.4875 24.276C98.6441 24.276 98.0078 24.0613 97.5785 23.632C97.3331 23.3867 97.2105 22.666 97.2105 21.47V14.616C97.1951 14.4627 97.1108 14.3783 96.9575 14.363H96.0835C95.7461 14.363 95.5775 14.3093 95.5775 14.202C95.5775 14.0947 95.6618 14.0333 95.8305 14.018C97.0265 13.9107 97.9618 13.328 98.6365 12.27C98.7285 12.132 98.8435 12.063 98.9815 12.063C99.0888 12.063 99.1425 12.1167 99.1425 12.224V12.316C99.1271 12.3927 99.1195 12.523 99.1195 12.707C99.1195 13.351 99.1501 13.765 99.2115 13.949C99.3495 13.9797 99.5795 13.995 99.9015 13.995C100.745 13.995 101.304 13.9567 101.58 13.88C101.642 13.8647 101.695 13.857 101.741 13.857C101.864 13.857 101.925 13.926 101.925 14.064C101.925 14.294 101.304 14.409 100.062 14.409C99.8478 14.409 99.5335 14.4013 99.1195 14.386V18.641C99.1195 20.7877 99.1731 22.137 99.2805 22.689C99.3878 23.2257 99.7405 23.494 100.338 23.494C100.844 23.494 101.412 23.2103 102.04 22.643C102.102 22.5663 102.171 22.528 102.247 22.528C102.355 22.528 102.408 22.5663 102.408 22.643ZM105.817 9.533C105.817 10.223 105.472 10.568 104.782 10.568C104.49 10.568 104.245 10.476 104.046 10.292C103.846 10.0927 103.747 9.855 103.747 9.579C103.747 8.85833 104.092 8.498 104.782 8.498C105.472 8.498 105.817 8.843 105.817 9.533ZM107.542 23.862C107.542 24 107.411 24.069 107.151 24.069C107.166 24.069 106.982 24.0537 106.599 24.023C106.139 23.9923 105.755 23.977 105.449 23.977L103.057 24.023C102.98 24.0383 102.888 24.046 102.781 24.046C102.612 24.046 102.528 23.9923 102.528 23.885C102.528 23.7317 102.681 23.655 102.988 23.655C103.57 23.6397 103.885 23.6013 103.931 23.54C103.992 23.4633 104.023 23.1413 104.023 22.574L104 15.605C103.984 15.2217 103.961 14.9993 103.931 14.938C103.915 14.8613 103.823 14.823 103.655 14.823L102.988 14.846C102.926 14.8613 102.85 14.869 102.758 14.869C102.589 14.869 102.505 14.8077 102.505 14.685C102.505 14.5777 102.635 14.5163 102.896 14.501C103.923 14.455 104.805 14.2097 105.541 13.765L105.771 13.627C105.893 13.857 105.955 14.2787 105.955 14.892C105.955 14.8613 105.955 14.938 105.955 15.122C105.939 15.306 105.932 15.605 105.932 16.019V22.298C105.932 22.9113 105.939 23.2717 105.955 23.379C105.985 23.4863 106.07 23.5553 106.208 23.586C106.438 23.6473 106.775 23.678 107.22 23.678C107.434 23.678 107.542 23.7393 107.542 23.862ZM116.051 9.533C116.051 9.855 115.951 10.1233 115.752 10.338C115.568 10.5373 115.323 10.637 115.016 10.637C114.725 10.637 114.479 10.545 114.28 10.361C114.081 10.177 113.981 9.947 113.981 9.671C113.981 9.441 114.081 9.17267 114.28 8.866C114.326 8.78933 114.349 8.72033 114.349 8.659C114.349 8.30633 114.096 8.13 113.59 8.13C112.731 8.13 112.164 8.682 111.888 9.786C111.75 10.3687 111.681 11.3883 111.681 12.845V13.972H113.199C113.506 13.972 113.659 14.041 113.659 14.179C113.659 14.317 113.46 14.386 113.061 14.386H111.681V23.379C111.681 23.5937 111.896 23.701 112.325 23.701C112.984 23.6857 113.345 23.7163 113.406 23.793C113.421 23.8083 113.429 23.839 113.429 23.885C113.429 23.9923 113.337 24.046 113.153 24.046C113.061 24.046 112.984 24.0383 112.923 24.023L111.037 24L108.53 24.046C108.254 24.046 108.116 23.9923 108.116 23.885C108.116 23.7623 108.223 23.701 108.438 23.701C109.205 23.701 109.626 23.655 109.703 23.563C109.734 23.5323 109.749 23.4863 109.749 23.425L109.772 23.126V14.386C109.205 14.386 108.875 14.3783 108.783 14.363C108.691 14.3477 108.645 14.2863 108.645 14.179C108.645 14.041 108.783 13.972 109.059 13.972H109.795C109.856 12.0247 110.117 10.6217 110.577 9.763C111.282 8.44433 112.34 7.785 113.751 7.785C114.426 7.785 114.978 7.946 115.407 8.268C115.836 8.59 116.051 9.01167 116.051 9.533ZM123.565 14.133C123.565 14.2403 123.381 14.3017 123.013 14.317C122.645 14.3323 122.407 14.363 122.3 14.409C122.208 14.455 122.123 14.5853 122.047 14.8L121.886 15.214L121.702 15.789C121.487 16.4943 121.165 17.5447 120.736 18.94C119.524 22.8347 118.52 25.8553 117.723 28.002C117.232 29.3053 116.557 29.957 115.699 29.957C115.331 29.957 115.024 29.8497 114.779 29.635C114.549 29.4203 114.434 29.1443 114.434 28.807C114.434 28.5157 114.526 28.278 114.71 28.094C114.909 27.91 115.162 27.818 115.469 27.818C115.883 27.818 116.182 27.9867 116.366 28.324C116.504 28.5847 116.619 28.715 116.711 28.715C116.849 28.715 117.063 28.3393 117.355 27.588C117.784 26.4687 118.121 25.4643 118.367 24.575C117.232 21.6003 116.266 19.0013 115.469 16.778C114.917 15.26 114.61 14.4933 114.549 14.478C114.457 14.4013 114.211 14.363 113.812 14.363C113.398 14.363 113.191 14.2863 113.191 14.133C113.191 14.0103 113.291 13.949 113.49 13.949C113.659 13.949 113.92 13.9643 114.273 13.995C114.625 14.0103 114.894 14.018 115.078 14.018C115.139 14.018 115.277 14.018 115.492 14.018C115.814 14.0027 116.258 13.9873 116.826 13.972L117.999 13.949C118.167 13.949 118.252 14.0103 118.252 14.133C118.252 14.2403 117.968 14.3017 117.401 14.317C116.925 14.3323 116.688 14.409 116.688 14.547C116.688 14.6697 116.841 15.145 117.148 15.973C117.27 16.3257 117.401 16.6937 117.539 17.077L117.93 18.227C118.037 18.5643 118.321 19.331 118.781 20.527C118.934 20.895 119.103 21.3397 119.287 21.861C120.759 17.2457 121.495 14.823 121.495 14.593C121.495 14.455 121.433 14.3707 121.311 14.34C121.203 14.3093 120.881 14.294 120.345 14.294C120.191 14.294 120.115 14.2327 120.115 14.11C120.115 14.0027 120.207 13.949 120.391 13.949C120.467 13.949 120.529 13.9567 120.574 13.972C121.096 14.0027 121.525 14.018 121.863 14.018H122.507C122.783 14.018 122.959 14.0103 123.036 13.995C123.128 13.9797 123.235 13.972 123.358 13.972C123.496 13.972 123.565 14.0257 123.565 14.133Z" fill="white"/>
</svg>
