<svg width="117" height="44" viewBox="0 0 117 44" fill="none" xmlns="http://www.w3.org/2000/svg">
<path d="M0.479606 16V0.819999H11.1286V2.545H2.31961V7.444H9.17361V9.169H2.31961V14.275H11.4736V16H0.479606ZM16.9866 14.275H25.6806V16H15.1466V0.819999H16.9866V14.275ZM28.8927 16V0.819999H39.5417V2.545H30.7327V7.444H37.5867V9.169H30.7327V14.275H39.8867V16H28.8927ZM49.3408 16.23C47.8994 16.23 46.6498 15.9157 45.5918 15.287C44.5491 14.643 43.7364 13.7383 43.1538 12.573C42.5864 11.4077 42.3028 10.02 42.3028 8.41C42.3028 6.8 42.6018 5.41233 43.1998 4.247C43.8131 3.08167 44.6641 2.18467 45.7528 1.556C46.8414 0.912 48.0911 0.59 49.5018 0.59C51.0044 0.59 52.2234 0.873666 53.1588 1.441C54.1094 2.00833 54.8761 2.88233 55.4588 4.063L53.7798 4.983C53.4424 4.109 52.9058 3.44967 52.1698 3.005C51.4491 2.545 50.5598 2.315 49.5018 2.315C48.4744 2.315 47.5621 2.56033 46.7648 3.051C45.9828 3.52633 45.3618 4.224 44.9018 5.144C44.4571 6.04867 44.2348 7.13733 44.2348 8.41C44.2348 9.68267 44.4264 10.779 44.8098 11.699C45.2084 12.6037 45.7911 13.3013 46.5578 13.792C47.3398 14.2673 48.2904 14.505 49.4098 14.505C50.0384 14.505 50.6211 14.4283 51.1578 14.275C51.7098 14.1063 52.1851 13.861 52.5838 13.539C52.9978 13.217 53.3198 12.8107 53.5498 12.32C53.7798 11.8293 53.8948 11.2543 53.8948 10.595V10.066H49.0648V8.341H55.5738V16H54.1248L54.0328 13.171L54.4238 13.24C54.0251 14.1907 53.3964 14.9267 52.5378 15.448C51.6791 15.9693 50.6134 16.23 49.3408 16.23ZM71.9643 16H70.0093L68.3993 11.791H61.5223L59.9123 16H57.9803L63.8913 0.819999H66.0763L71.9643 16ZM62.1893 10.066H67.7323L64.9493 2.591L62.1893 10.066ZM86.9639 0.819999V16H84.6869L78.3389 5.834L76.7289 2.982H76.7059L76.7979 5.282V16H75.0499V0.819999H77.3269L83.6519 10.94L85.2849 13.861H85.3079L85.2159 11.538V0.819999H86.9639ZM102.613 0.819999V2.545H97.3225V16H95.4825V2.545H90.1925V0.819999H102.613ZM105.821 16V0.819999H116.47V2.545H107.661V7.444H114.515V9.169H107.661V14.275H116.815V16H105.821ZM28.0075 27.59C29.3415 27.59 30.4915 27.866 31.4575 28.418C32.4235 28.9547 33.2285 29.752 33.8725 30.81L32.3315 32.006C31.7641 31.0247 31.1201 30.3347 30.3995 29.936C29.6941 29.522 28.8355 29.315 27.8235 29.315C27.0108 29.315 26.3361 29.43 25.7995 29.66C25.2781 29.89 24.8948 30.1967 24.6495 30.58C24.4041 30.948 24.2815 31.3697 24.2815 31.845C24.2815 32.3817 24.4501 32.857 24.7875 33.271C25.1248 33.6697 25.7995 33.984 26.8115 34.214L30.1005 34.95C31.5571 35.272 32.5691 35.7627 33.1365 36.422C33.7191 37.066 34.0105 37.871 34.0105 38.837C34.0105 39.6957 33.7651 40.4623 33.2745 41.137C32.7991 41.7963 32.1245 42.31 31.2505 42.678C30.3765 43.046 29.3491 43.23 28.1685 43.23C27.0645 43.23 26.0908 43.0843 25.2475 42.793C24.4195 42.4863 23.7065 42.08 23.1085 41.574C22.5105 41.068 22.0198 40.5007 21.6365 39.872L23.2465 38.561C23.5378 39.1437 23.9135 39.6573 24.3735 40.102C24.8335 40.5467 25.3855 40.8917 26.0295 41.137C26.6888 41.3823 27.4401 41.505 28.2835 41.505C29.0655 41.505 29.7401 41.413 30.3075 41.229C30.8901 41.0297 31.3348 40.746 31.6415 40.378C31.9481 39.9947 32.1015 39.5347 32.1015 38.998C32.1015 38.5073 31.9405 38.0703 31.6185 37.687C31.2965 37.2883 30.6908 36.9893 29.8015 36.79L26.2365 35.985C25.3011 35.7703 24.5421 35.479 23.9595 35.111C23.3921 34.7277 22.9781 34.283 22.7175 33.777C22.4721 33.2557 22.3495 32.696 22.3495 32.098C22.3495 31.2853 22.5718 30.5417 23.0165 29.867C23.4765 29.177 24.1281 28.625 24.9715 28.211C25.8301 27.797 26.8421 27.59 28.0075 27.59ZM43.2248 27.82C44.2522 27.82 45.1415 28.0117 45.8928 28.395C46.6595 28.763 47.2575 29.292 47.6868 29.982C48.1162 30.672 48.3308 31.4923 48.3308 32.443C48.3308 33.3937 48.1162 34.214 47.6868 34.904C47.2575 35.594 46.6595 36.1307 45.8928 36.514C45.1415 36.882 44.2522 37.066 43.2248 37.066H39.7058V43H37.8658V27.82H43.2248ZM42.9488 35.341C44.1448 35.341 45.0188 35.0957 45.5708 34.605C46.1228 34.099 46.3988 33.3783 46.3988 32.443C46.3988 31.4923 46.1228 30.7717 45.5708 30.281C45.0188 29.7903 44.1448 29.545 42.9488 29.545H39.7058V35.341H42.9488ZM58.0219 27.59C59.4633 27.59 60.7053 27.912 61.7479 28.556C62.8059 29.1847 63.6186 30.0817 64.1859 31.247C64.7686 32.4123 65.0599 33.8 65.0599 35.41C65.0599 37.02 64.7686 38.4077 64.1859 39.573C63.6186 40.7383 62.8059 41.643 61.7479 42.287C60.7053 42.9157 59.4633 43.23 58.0219 43.23C56.5806 43.23 55.3309 42.9157 54.2729 42.287C53.2303 41.643 52.4176 40.7383 51.8349 39.573C51.2676 38.4077 50.9839 37.02 50.9839 35.41C50.9839 33.8 51.2676 32.4123 51.8349 31.247C52.4176 30.0817 53.2303 29.1847 54.2729 28.556C55.3309 27.912 56.5806 27.59 58.0219 27.59ZM58.0219 29.315C56.9793 29.315 56.0746 29.5603 55.3079 30.051C54.5413 30.5263 53.9509 31.224 53.5369 32.144C53.1229 33.0487 52.9159 34.1373 52.9159 35.41C52.9159 36.6827 53.1229 37.779 53.5369 38.699C53.9509 39.6037 54.5413 40.3013 55.3079 40.792C56.0746 41.2673 56.9793 41.505 58.0219 41.505C59.0799 41.505 59.9846 41.2673 60.7359 40.792C61.5026 40.3013 62.0929 39.6037 62.5069 38.699C62.9209 37.779 63.1279 36.6827 63.1279 35.41C63.1279 34.1373 62.9209 33.0487 62.5069 32.144C62.0929 31.224 61.5026 30.5263 60.7359 30.051C59.9846 29.5603 59.0799 29.315 58.0219 29.315ZM74.859 27.82C76.4077 27.82 77.6497 28.2187 78.585 29.016C79.5203 29.8133 79.988 30.8943 79.988 32.259C79.988 33.6237 79.5127 34.6893 78.562 35.456C77.6267 36.2073 76.3847 36.583 74.836 36.583L74.675 36.698H70.949V43H69.109V27.82H74.859ZM74.836 34.973C75.9247 34.973 76.7297 34.7507 77.251 34.306C77.7877 33.846 78.056 33.1637 78.056 32.259C78.056 31.3543 77.7877 30.6797 77.251 30.235C76.7297 29.775 75.9247 29.545 74.836 29.545H70.949V34.973H74.836ZM75.894 35.341L80.908 43H78.723L74.353 36.353L75.894 35.341ZM94.6277 27.82V29.545H89.3377V43H87.4977V29.545H82.2077V27.82H94.6277Z" fill="white"/>
</svg>
