<svg width="828" height="24" viewBox="0 0 828 24" fill="none" xmlns="http://www.w3.org/2000/svg">
<path d="M10.2813 6C10.1875 5.20833 9.80729 4.59375 9.14063 4.15625C8.47396 3.71875 7.65625 3.5 6.6875 3.5C5.97917 3.5 5.35938 3.61458 4.82813 3.84375C4.30208 4.07292 3.89063 4.38802 3.59375 4.78906C3.30208 5.1901 3.15625 5.64583 3.15625 6.15625C3.15625 6.58333 3.25781 6.95052 3.46094 7.25781C3.66927 7.5599 3.9349 7.8125 4.25781 8.01562C4.58073 8.21354 4.91927 8.3776 5.27344 8.50781C5.6276 8.63281 5.95312 8.73437 6.25 8.8125L7.875 9.25C8.29167 9.35937 8.75521 9.51042 9.26563 9.70312C9.78125 9.89583 10.2734 10.1589 10.7422 10.4922C11.2161 10.8203 11.6068 11.2422 11.9141 11.7578C12.2214 12.2734 12.375 12.9062 12.375 13.6562C12.375 14.5208 12.1484 15.3021 11.6953 16C11.2474 16.6979 10.5911 17.2526 9.72656 17.6641C8.86719 18.0755 7.82292 18.2813 6.59375 18.2813C5.44792 18.2813 4.45573 18.0964 3.61719 17.7266C2.78385 17.3568 2.1276 16.8411 1.64844 16.1797C1.17448 15.5182 0.90625 14.75 0.84375 13.875H2.84375C2.89583 14.4792 3.09896 14.9792 3.45313 15.375C3.8125 15.7656 4.26563 16.0573 4.8125 16.25C5.36458 16.4375 5.95833 16.5312 6.59375 16.5312C7.33333 16.5312 7.9974 16.4115 8.58594 16.1719C9.17448 15.9271 9.64063 15.5885 9.98438 15.1562C10.3281 14.7187 10.5 14.2083 10.5 13.625C10.5 13.0937 10.3516 12.6615 10.0547 12.3281C9.75781 11.9948 9.36719 11.724 8.88281 11.5156C8.39844 11.3073 7.875 11.125 7.3125 10.9687L5.34375 10.4062C4.09375 10.0469 3.10417 9.53385 2.375 8.86719C1.64583 8.20052 1.28125 7.32812 1.28125 6.25C1.28125 5.35417 1.52344 4.57292 2.00781 3.90625C2.4974 3.23437 3.15365 2.71354 3.97656 2.34375C4.80469 1.96875 5.72917 1.78125 6.75 1.78125C7.78125 1.78125 8.69792 1.96615 9.5 2.33594C10.3021 2.70052 10.9375 3.20052 11.4062 3.83594C11.8802 4.47135 12.1302 5.19271 12.1563 6H10.2813ZM15.3105 18V6H17.1543V18H15.3105ZM16.248 4C15.8887 4 15.5788 3.8776 15.3184 3.63281C15.0632 3.38802 14.9355 3.09375 14.9355 2.75C14.9355 2.40625 15.0632 2.11198 15.3184 1.86719C15.5788 1.6224 15.8887 1.5 16.248 1.5C16.6074 1.5 16.9147 1.6224 17.1699 1.86719C17.4303 2.11198 17.5605 2.40625 17.5605 2.75C17.5605 3.09375 17.4303 3.38802 17.1699 3.63281C16.9147 3.8776 16.6074 4 16.248 4ZM28.5625 10.7812V18H26.7188V6H28.5V7.875H28.6563C28.9375 7.26563 29.3646 6.77604 29.9375 6.40625C30.5104 6.03125 31.25 5.84375 32.1563 5.84375C32.9688 5.84375 33.6797 6.01042 34.2891 6.34375C34.8984 6.67188 35.3724 7.17188 35.7109 7.84375C36.0495 8.51042 36.2188 9.35417 36.2188 10.375V18H34.375V10.5C34.375 9.55729 34.1302 8.82292 33.6406 8.29687C33.151 7.76562 32.4792 7.5 31.625 7.5C31.0365 7.5 30.5104 7.6276 30.0469 7.88281C29.5885 8.13802 29.2266 8.51042 28.9609 9C28.6953 9.48958 28.5625 10.0833 28.5625 10.7812ZM44.6191 18.25C43.4629 18.25 42.4655 17.9948 41.627 17.4844C40.7936 16.9688 40.1504 16.25 39.6973 15.3281C39.2493 14.401 39.0254 13.3229 39.0254 12.0938C39.0254 10.8646 39.2493 9.78125 39.6973 8.84375C40.1504 7.90104 40.7806 7.16667 41.5879 6.64062C42.4004 6.10937 43.3483 5.84375 44.4316 5.84375C45.0566 5.84375 45.6738 5.94792 46.2832 6.15625C46.8926 6.36458 47.4473 6.70312 47.9473 7.17188C48.4473 7.63542 48.8457 8.25 49.1426 9.01562C49.4395 9.78125 49.5879 10.724 49.5879 11.8437V12.625H40.3379V11.0312H47.7129C47.7129 10.3542 47.5775 9.75 47.3066 9.21875C47.041 8.6875 46.6608 8.26823 46.166 7.96094C45.6764 7.65365 45.0983 7.5 44.4316 7.5C43.6973 7.5 43.0618 7.68229 42.5254 8.04687C41.9941 8.40625 41.5853 8.875 41.2988 9.45312C41.0124 10.0312 40.8691 10.651 40.8691 11.3125V12.375C40.8691 13.2813 41.0254 14.0495 41.3379 14.6797C41.6556 15.3047 42.0957 15.7812 42.6582 16.1094C43.2207 16.4323 43.8743 16.5938 44.6191 16.5938C45.1035 16.5938 45.541 16.526 45.9316 16.3906C46.3275 16.25 46.6686 16.0417 46.9551 15.7656C47.2415 15.4844 47.4629 15.1354 47.6191 14.7187L49.4004 15.2188C49.2129 15.8229 48.8978 16.3542 48.4551 16.8125C48.0124 17.2656 47.4655 17.6198 46.8145 17.875C46.1634 18.125 45.4316 18.25 44.6191 18.25ZM57.2676 18.25C56.1426 18.25 55.1738 17.9844 54.3613 17.4531C53.5488 16.9219 52.9238 16.1901 52.4863 15.2578C52.0488 14.3255 51.8301 13.2604 51.8301 12.0625C51.8301 10.8437 52.054 9.76823 52.502 8.83594C52.9551 7.89844 53.5853 7.16667 54.3926 6.64062C55.2051 6.10937 56.153 5.84375 57.2363 5.84375C58.0801 5.84375 58.8405 6 59.5176 6.3125C60.1947 6.625 60.7493 7.0625 61.1816 7.625C61.6139 8.1875 61.8822 8.84375 61.9863 9.59375H60.1426C60.002 9.04687 59.6895 8.5625 59.2051 8.14062C58.7259 7.71354 58.0801 7.5 57.2676 7.5C56.5488 7.5 55.9186 7.6875 55.377 8.0625C54.8405 8.43229 54.4212 8.95573 54.1191 9.63281C53.8223 10.3047 53.6738 11.0937 53.6738 12C53.6738 12.9271 53.8197 13.7344 54.1113 14.4219C54.4082 15.1094 54.8249 15.6432 55.3613 16.0234C55.903 16.4036 56.5384 16.5938 57.2676 16.5938C57.7467 16.5938 58.1816 16.5104 58.5723 16.3437C58.9629 16.1771 59.2936 15.9375 59.5645 15.625C59.8353 15.3125 60.028 14.9375 60.1426 14.5H61.9863C61.8822 15.2083 61.6243 15.8464 61.2129 16.4141C60.8066 16.9766 60.2676 17.4245 59.5957 17.7578C58.929 18.0859 58.153 18.25 57.2676 18.25ZM69.7129 18.25C68.5566 18.25 67.5592 17.9948 66.7207 17.4844C65.8874 16.9688 65.2441 16.25 64.791 15.3281C64.3431 14.401 64.1191 13.3229 64.1191 12.0938C64.1191 10.8646 64.3431 9.78125 64.791 8.84375C65.2441 7.90104 65.8743 7.16667 66.6816 6.64062C67.4941 6.10937 68.4421 5.84375 69.5254 5.84375C70.1504 5.84375 70.7676 5.94792 71.377 6.15625C71.9863 6.36458 72.541 6.70312 73.041 7.17188C73.541 7.63542 73.9395 8.25 74.2363 9.01562C74.5332 9.78125 74.6816 10.724 74.6816 11.8437V12.625H65.4316V11.0312H72.8066C72.8066 10.3542 72.6712 9.75 72.4004 9.21875C72.1348 8.6875 71.7546 8.26823 71.2598 7.96094C70.7702 7.65365 70.1921 7.5 69.5254 7.5C68.791 7.5 68.1556 7.68229 67.6191 8.04687C67.0879 8.40625 66.679 8.875 66.3926 9.45312C66.1061 10.0312 65.9629 10.651 65.9629 11.3125V12.375C65.9629 13.2813 66.1191 14.0495 66.4316 14.6797C66.7493 15.3047 67.1895 15.7812 67.752 16.1094C68.3145 16.4323 68.9681 16.5938 69.7129 16.5938C70.1973 16.5938 70.6348 16.526 71.0254 16.3906C71.4212 16.25 71.7624 16.0417 72.0488 15.7656C72.3353 15.4844 72.5566 15.1354 72.7129 14.7187L74.4941 15.2188C74.3066 15.8229 73.9915 16.3542 73.5488 16.8125C73.1061 17.2656 72.5592 17.6198 71.9082 17.875C71.2572 18.125 70.5254 18.25 69.7129 18.25ZM85.9863 8.6875L84.3301 9.15625C84.2259 8.88021 84.0723 8.61198 83.8691 8.35156C83.6712 8.08594 83.4004 7.86719 83.0566 7.69531C82.7129 7.52344 82.2728 7.4375 81.7363 7.4375C81.002 7.4375 80.39 7.60677 79.9004 7.94531C79.416 8.27865 79.1738 8.70312 79.1738 9.21875C79.1738 9.67708 79.3405 10.0391 79.6738 10.3047C80.0072 10.5703 80.528 10.7917 81.2363 10.9687L83.0176 11.4063C84.0905 11.6667 84.89 12.0651 85.416 12.6016C85.9421 13.1328 86.2051 13.8177 86.2051 14.6562C86.2051 15.3437 86.0072 15.9583 85.6113 16.5C85.2207 17.0417 84.6738 17.4688 83.9707 17.7813C83.2676 18.0938 82.4499 18.25 81.5176 18.25C80.2936 18.25 79.2806 17.9844 78.4785 17.4531C77.6764 16.9219 77.1686 16.1458 76.9551 15.125L78.7051 14.6875C78.8717 15.3333 79.1868 15.8177 79.6504 16.1406C80.1191 16.4635 80.7311 16.625 81.4863 16.625C82.3457 16.625 83.028 16.4427 83.5332 16.0781C84.0436 15.7083 84.2988 15.2656 84.2988 14.75C84.2988 14.3333 84.153 13.9844 83.8613 13.7031C83.5697 13.4167 83.1217 13.2031 82.5176 13.0625L80.5176 12.5937C79.4186 12.3333 78.6113 11.9297 78.0957 11.3828C77.5853 10.8307 77.3301 10.1406 77.3301 9.3125C77.3301 8.63542 77.5202 8.03646 77.9004 7.51562C78.2858 6.99479 78.8092 6.58594 79.4707 6.28906C80.1374 5.99219 80.8926 5.84375 81.7363 5.84375C82.9238 5.84375 83.8561 6.10417 84.5332 6.625C85.2155 7.14583 85.6999 7.83333 85.9863 8.6875ZM88.9805 18V6H90.8242V18H88.9805ZM89.918 4C89.5586 4 89.2487 3.8776 88.9883 3.63281C88.7331 3.38802 88.6055 3.09375 88.6055 2.75C88.6055 2.40625 88.7331 2.11198 88.9883 1.86719C89.2487 1.6224 89.5586 1.5 89.918 1.5C90.2773 1.5 90.5846 1.6224 90.8398 1.86719C91.1003 2.11198 91.2305 2.40625 91.2305 2.75C91.2305 3.09375 91.1003 3.38802 90.8398 3.63281C90.5846 3.8776 90.2773 4 89.918 4ZM99.4199 6V7.5625H93.2012V6H99.4199ZM95.0137 3.125H96.8574V14.5625C96.8574 15.0833 96.9329 15.474 97.084 15.7344C97.2402 15.9896 97.4382 16.1615 97.6777 16.25C97.9225 16.3333 98.1803 16.375 98.4512 16.375C98.6543 16.375 98.821 16.3646 98.9512 16.3437C99.0814 16.3177 99.1855 16.2969 99.2637 16.2812L99.6387 17.9375C99.5137 17.9844 99.3392 18.0313 99.1152 18.0781C98.8913 18.1302 98.6074 18.1563 98.2637 18.1563C97.7428 18.1563 97.2324 18.0443 96.7324 17.8203C96.2376 17.5964 95.8262 17.2552 95.498 16.7969C95.1751 16.3385 95.0137 15.7604 95.0137 15.0625V3.125ZM105.725 18.2813C104.964 18.2813 104.274 18.138 103.654 17.8516C103.035 17.5599 102.542 17.1406 102.178 16.5938C101.813 16.0417 101.631 15.375 101.631 14.5937C101.631 13.9062 101.766 13.349 102.037 12.9219C102.308 12.4896 102.67 12.151 103.123 11.9062C103.576 11.6615 104.076 11.4792 104.623 11.3594C105.175 11.2344 105.73 11.1354 106.287 11.0625C107.016 10.9687 107.607 10.8984 108.061 10.8516C108.519 10.7995 108.852 10.7135 109.061 10.5937C109.274 10.474 109.381 10.2656 109.381 9.96875V9.90625C109.381 9.13542 109.17 8.53646 108.748 8.10937C108.331 7.68229 107.699 7.46875 106.85 7.46875C105.969 7.46875 105.279 7.66146 104.779 8.04687C104.279 8.43229 103.928 8.84375 103.725 9.28125L101.975 8.65625C102.287 7.92708 102.704 7.35937 103.225 6.95312C103.751 6.54167 104.324 6.25521 104.943 6.09375C105.568 5.92708 106.183 5.84375 106.787 5.84375C107.173 5.84375 107.615 5.89062 108.115 5.98437C108.62 6.07292 109.107 6.25781 109.576 6.53906C110.05 6.82031 110.443 7.24479 110.756 7.8125C111.068 8.38021 111.225 9.14062 111.225 10.0938V18H109.381V16.375H109.287C109.162 16.6354 108.954 16.9141 108.662 17.2109C108.37 17.5078 107.982 17.7604 107.498 17.9687C107.014 18.1771 106.423 18.2813 105.725 18.2813ZM106.006 16.625C106.735 16.625 107.35 16.4818 107.85 16.1953C108.355 15.9089 108.735 15.5391 108.99 15.0859C109.251 14.6328 109.381 14.1562 109.381 13.6562V11.9687C109.303 12.0625 109.131 12.1484 108.865 12.2266C108.605 12.2995 108.303 12.3646 107.959 12.4219C107.62 12.474 107.29 12.5208 106.967 12.5625C106.649 12.599 106.391 12.6302 106.193 12.6562C105.714 12.7187 105.266 12.8203 104.85 12.9609C104.438 13.0964 104.105 13.3021 103.85 13.5781C103.6 13.849 103.475 14.2187 103.475 14.6875C103.475 15.3281 103.712 15.8125 104.186 16.1406C104.665 16.4635 105.271 16.625 106.006 16.625ZM123.09 8.6875L121.434 9.15625C121.329 8.88021 121.176 8.61198 120.973 8.35156C120.775 8.08594 120.504 7.86719 120.16 7.69531C119.816 7.52344 119.376 7.4375 118.84 7.4375C118.105 7.4375 117.493 7.60677 117.004 7.94531C116.52 8.27865 116.277 8.70312 116.277 9.21875C116.277 9.67708 116.444 10.0391 116.777 10.3047C117.111 10.5703 117.632 10.7917 118.34 10.9687L120.121 11.4063C121.194 11.6667 121.993 12.0651 122.52 12.6016C123.046 13.1328 123.309 13.8177 123.309 14.6562C123.309 15.3437 123.111 15.9583 122.715 16.5C122.324 17.0417 121.777 17.4688 121.074 17.7813C120.371 18.0938 119.553 18.25 118.621 18.25C117.397 18.25 116.384 17.9844 115.582 17.4531C114.78 16.9219 114.272 16.1458 114.059 15.125L115.809 14.6875C115.975 15.3333 116.29 15.8177 116.754 16.1406C117.223 16.4635 117.835 16.625 118.59 16.625C119.449 16.625 120.132 16.4427 120.637 16.0781C121.147 15.7083 121.402 15.2656 121.402 14.75C121.402 14.3333 121.257 13.9844 120.965 13.7031C120.673 13.4167 120.225 13.2031 119.621 13.0625L117.621 12.5937C116.522 12.3333 115.715 11.9297 115.199 11.3828C114.689 10.8307 114.434 10.1406 114.434 9.3125C114.434 8.63542 114.624 8.03646 115.004 7.51562C115.389 6.99479 115.913 6.58594 116.574 6.28906C117.241 5.99219 117.996 5.84375 118.84 5.84375C120.027 5.84375 120.96 6.10417 121.637 6.625C122.319 7.14583 122.803 7.83333 123.09 8.6875ZM132.271 18V6H134.053V7.875H134.209C134.459 7.23437 134.863 6.73698 135.42 6.38281C135.977 6.02344 136.646 5.84375 137.428 5.84375C138.219 5.84375 138.878 6.02344 139.404 6.38281C139.936 6.73698 140.35 7.23437 140.646 7.875H140.771C141.079 7.25521 141.54 6.76302 142.154 6.39844C142.769 6.02865 143.506 5.84375 144.365 5.84375C145.438 5.84375 146.316 6.17969 146.998 6.85156C147.68 7.51823 148.021 8.55729 148.021 9.96875V18H146.178V9.96875C146.178 9.08333 145.936 8.45052 145.451 8.07031C144.967 7.6901 144.396 7.5 143.74 7.5C142.896 7.5 142.243 7.75521 141.779 8.26562C141.316 8.77083 141.084 9.41146 141.084 10.1875V18H139.209V9.78125C139.209 9.09896 138.988 8.54948 138.545 8.13281C138.102 7.71094 137.532 7.5 136.834 7.5C136.355 7.5 135.907 7.6276 135.49 7.88281C135.079 8.13802 134.745 8.49219 134.49 8.94531C134.24 9.39323 134.115 9.91146 134.115 10.5V18H132.271ZM154.924 18.2813C154.163 18.2813 153.473 18.138 152.854 17.8516C152.234 17.5599 151.742 17.1406 151.377 16.5938C151.012 16.0417 150.83 15.375 150.83 14.5937C150.83 13.9062 150.965 13.349 151.236 12.9219C151.507 12.4896 151.869 12.151 152.322 11.9062C152.775 11.6615 153.275 11.4792 153.822 11.3594C154.374 11.2344 154.929 11.1354 155.486 11.0625C156.215 10.9687 156.807 10.8984 157.26 10.8516C157.718 10.7995 158.051 10.7135 158.26 10.5937C158.473 10.474 158.58 10.2656 158.58 9.96875V9.90625C158.58 9.13542 158.369 8.53646 157.947 8.10937C157.531 7.68229 156.898 7.46875 156.049 7.46875C155.169 7.46875 154.479 7.66146 153.979 8.04687C153.479 8.43229 153.127 8.84375 152.924 9.28125L151.174 8.65625C151.486 7.92708 151.903 7.35937 152.424 6.95312C152.95 6.54167 153.523 6.25521 154.143 6.09375C154.768 5.92708 155.382 5.84375 155.986 5.84375C156.372 5.84375 156.814 5.89062 157.314 5.98437C157.82 6.07292 158.307 6.25781 158.775 6.53906C159.249 6.82031 159.643 7.24479 159.955 7.8125C160.268 8.38021 160.424 9.14062 160.424 10.0938V18H158.58V16.375H158.486C158.361 16.6354 158.153 16.9141 157.861 17.2109C157.57 17.5078 157.182 17.7604 156.697 17.9687C156.213 18.1771 155.622 18.2813 154.924 18.2813ZM155.205 16.625C155.934 16.625 156.549 16.4818 157.049 16.1953C157.554 15.9089 157.934 15.5391 158.189 15.0859C158.45 14.6328 158.58 14.1562 158.58 13.6562V11.9687C158.502 12.0625 158.33 12.1484 158.064 12.2266C157.804 12.2995 157.502 12.3646 157.158 12.4219C156.82 12.474 156.489 12.5208 156.166 12.5625C155.848 12.599 155.59 12.6302 155.393 12.6562C154.913 12.7187 154.465 12.8203 154.049 12.9609C153.637 13.0964 153.304 13.3021 153.049 13.5781C152.799 13.849 152.674 14.2187 152.674 14.6875C152.674 15.3281 152.911 15.8125 153.385 16.1406C153.864 16.4635 154.471 16.625 155.205 16.625ZM155.268 4.375L157.174 0.749999H159.33L156.893 4.375H155.268ZM172.289 8.6875L170.633 9.15625C170.529 8.88021 170.375 8.61198 170.172 8.35156C169.974 8.08594 169.703 7.86719 169.359 7.69531C169.016 7.52344 168.576 7.4375 168.039 7.4375C167.305 7.4375 166.693 7.60677 166.203 7.94531C165.719 8.27865 165.477 8.70312 165.477 9.21875C165.477 9.67708 165.643 10.0391 165.977 10.3047C166.31 10.5703 166.831 10.7917 167.539 10.9687L169.32 11.4063C170.393 11.6667 171.193 12.0651 171.719 12.6016C172.245 13.1328 172.508 13.8177 172.508 14.6562C172.508 15.3437 172.31 15.9583 171.914 16.5C171.523 17.0417 170.977 17.4688 170.273 17.7813C169.57 18.0938 168.753 18.25 167.82 18.25C166.596 18.25 165.583 17.9844 164.781 17.4531C163.979 16.9219 163.471 16.1458 163.258 15.125L165.008 14.6875C165.174 15.3333 165.49 15.8177 165.953 16.1406C166.422 16.4635 167.034 16.625 167.789 16.625C168.648 16.625 169.331 16.4427 169.836 16.0781C170.346 15.7083 170.602 15.2656 170.602 14.75C170.602 14.3333 170.456 13.9844 170.164 13.7031C169.872 13.4167 169.424 13.2031 168.82 13.0625L166.82 12.5937C165.721 12.3333 164.914 11.9297 164.398 11.3828C163.888 10.8307 163.633 10.1406 163.633 9.3125C163.633 8.63542 163.823 8.03646 164.203 7.51562C164.589 6.99479 165.112 6.58594 165.773 6.28906C166.44 5.99219 167.195 5.84375 168.039 5.84375C169.227 5.84375 170.159 6.10417 170.836 6.625C171.518 7.14583 172.003 7.83333 172.289 8.6875ZM181.471 18V6H183.314V18H181.471ZM182.408 4C182.049 4 181.739 3.8776 181.479 3.63281C181.223 3.38802 181.096 3.09375 181.096 2.75C181.096 2.40625 181.223 2.11198 181.479 1.86719C181.739 1.6224 182.049 1.5 182.408 1.5C182.768 1.5 183.075 1.6224 183.33 1.86719C183.59 2.11198 183.721 2.40625 183.721 2.75C183.721 3.09375 183.59 3.38802 183.33 3.63281C183.075 3.8776 182.768 4 182.408 4ZM188.535 10.7812V18H186.691V6H188.473V7.875H188.629C188.91 7.26563 189.337 6.77604 189.91 6.40625C190.483 6.03125 191.223 5.84375 192.129 5.84375C192.941 5.84375 193.652 6.01042 194.262 6.34375C194.871 6.67188 195.345 7.17188 195.684 7.84375C196.022 8.51042 196.191 9.35417 196.191 10.375V18H194.348V10.5C194.348 9.55729 194.103 8.82292 193.613 8.29687C193.124 7.76562 192.452 7.5 191.598 7.5C191.009 7.5 190.483 7.6276 190.02 7.88281C189.561 8.13802 189.199 8.51042 188.934 9C188.668 9.48958 188.535 10.0833 188.535 10.7812ZM204.904 6V7.5625H198.436V6H204.904ZM200.373 18V4.34375C200.373 3.65625 200.535 3.08333 200.857 2.625C201.18 2.16667 201.6 1.82292 202.115 1.59375C202.631 1.36458 203.175 1.25 203.748 1.25C204.201 1.25 204.571 1.28646 204.857 1.35937C205.144 1.43229 205.357 1.5 205.498 1.5625L204.967 3.15625C204.873 3.125 204.743 3.08594 204.576 3.03906C204.415 2.99219 204.201 2.96875 203.936 2.96875C203.326 2.96875 202.886 3.1224 202.615 3.42969C202.35 3.73698 202.217 4.1875 202.217 4.78125V18H200.373ZM211.869 18.25C210.786 18.25 209.835 17.9922 209.018 17.4766C208.205 16.9609 207.57 16.2396 207.111 15.3125C206.658 14.3854 206.432 13.3021 206.432 12.0625C206.432 10.8125 206.658 9.72135 207.111 8.78906C207.57 7.85677 208.205 7.13281 209.018 6.61719C209.835 6.10156 210.786 5.84375 211.869 5.84375C212.952 5.84375 213.9 6.10156 214.713 6.61719C215.531 7.13281 216.166 7.85677 216.619 8.78906C217.077 9.72135 217.307 10.8125 217.307 12.0625C217.307 13.3021 217.077 14.3854 216.619 15.3125C216.166 16.2396 215.531 16.9609 214.713 17.4766C213.9 17.9922 212.952 18.25 211.869 18.25ZM211.869 16.5938C212.692 16.5938 213.369 16.3828 213.9 15.9609C214.432 15.5391 214.825 14.9844 215.08 14.2969C215.335 13.6094 215.463 12.8646 215.463 12.0625C215.463 11.2604 215.335 10.513 215.08 9.82031C214.825 9.1276 214.432 8.56771 213.9 8.14062C213.369 7.71354 212.692 7.5 211.869 7.5C211.046 7.5 210.369 7.71354 209.838 8.14062C209.307 8.56771 208.913 9.1276 208.658 9.82031C208.403 10.513 208.275 11.2604 208.275 12.0625C208.275 12.8646 208.403 13.6094 208.658 14.2969C208.913 14.9844 209.307 15.5391 209.838 15.9609C210.369 16.3828 211.046 16.5938 211.869 16.5938ZM220.121 18V6H221.902V7.8125H222.027C222.246 7.21875 222.642 6.73698 223.215 6.36719C223.788 5.99739 224.434 5.8125 225.152 5.8125C225.288 5.8125 225.457 5.8151 225.66 5.82031C225.863 5.82552 226.017 5.83333 226.121 5.84375V7.71875C226.059 7.70312 225.915 7.67969 225.691 7.64844C225.473 7.61198 225.241 7.59375 224.996 7.59375C224.413 7.59375 223.892 7.71615 223.434 7.96094C222.98 8.20052 222.621 8.53385 222.355 8.96094C222.095 9.38281 221.965 9.86458 221.965 10.4062V18H220.121ZM228.307 18V6H230.088V7.875H230.244C230.494 7.23437 230.898 6.73698 231.455 6.38281C232.012 6.02344 232.682 5.84375 233.463 5.84375C234.255 5.84375 234.913 6.02344 235.439 6.38281C235.971 6.73698 236.385 7.23437 236.682 7.875H236.807C237.114 7.25521 237.575 6.76302 238.189 6.39844C238.804 6.02865 239.541 5.84375 240.4 5.84375C241.473 5.84375 242.351 6.17969 243.033 6.85156C243.715 7.51823 244.057 8.55729 244.057 9.96875V18H242.213V9.96875C242.213 9.08333 241.971 8.45052 241.486 8.07031C241.002 7.6901 240.432 7.5 239.775 7.5C238.932 7.5 238.278 7.75521 237.814 8.26562C237.351 8.77083 237.119 9.41146 237.119 10.1875V18H235.244V9.78125C235.244 9.09896 235.023 8.54948 234.58 8.13281C234.137 7.71094 233.567 7.5 232.869 7.5C232.39 7.5 231.942 7.6276 231.525 7.88281C231.114 8.13802 230.781 8.49219 230.525 8.94531C230.275 9.39323 230.15 9.91146 230.15 10.5V18H228.307ZM250.959 18.2813C250.199 18.2813 249.508 18.138 248.889 17.8516C248.269 17.5599 247.777 17.1406 247.412 16.5938C247.048 16.0417 246.865 15.375 246.865 14.5937C246.865 13.9062 247.001 13.349 247.271 12.9219C247.542 12.4896 247.904 12.151 248.357 11.9062C248.811 11.6615 249.311 11.4792 249.857 11.3594C250.41 11.2344 250.964 11.1354 251.521 11.0625C252.251 10.9687 252.842 10.8984 253.295 10.8516C253.753 10.7995 254.087 10.7135 254.295 10.5937C254.508 10.474 254.615 10.2656 254.615 9.96875V9.90625C254.615 9.13542 254.404 8.53646 253.982 8.10937C253.566 7.68229 252.933 7.46875 252.084 7.46875C251.204 7.46875 250.514 7.66146 250.014 8.04687C249.514 8.43229 249.162 8.84375 248.959 9.28125L247.209 8.65625C247.521 7.92708 247.938 7.35937 248.459 6.95312C248.985 6.54167 249.558 6.25521 250.178 6.09375C250.803 5.92708 251.417 5.84375 252.021 5.84375C252.407 5.84375 252.85 5.89062 253.35 5.98437C253.855 6.07292 254.342 6.25781 254.811 6.53906C255.285 6.82031 255.678 7.24479 255.99 7.8125C256.303 8.38021 256.459 9.14062 256.459 10.0938V18H254.615V16.375H254.521C254.396 16.6354 254.188 16.9141 253.896 17.2109C253.605 17.5078 253.217 17.7604 252.732 17.9687C252.248 18.1771 251.657 18.2813 250.959 18.2813ZM251.24 16.625C251.969 16.625 252.584 16.4818 253.084 16.1953C253.589 15.9089 253.969 15.5391 254.225 15.0859C254.485 14.6328 254.615 14.1562 254.615 13.6562V11.9687C254.537 12.0625 254.365 12.1484 254.1 12.2266C253.839 12.2995 253.537 12.3646 253.193 12.4219C252.855 12.474 252.524 12.5208 252.201 12.5625C251.883 12.599 251.626 12.6302 251.428 12.6562C250.949 12.7187 250.501 12.8203 250.084 12.9609C249.673 13.0964 249.339 13.3021 249.084 13.5781C248.834 13.849 248.709 14.2187 248.709 14.6875C248.709 15.3281 248.946 15.8125 249.42 16.1406C249.899 16.4635 250.506 16.625 251.24 16.625ZM264.699 18.25C263.574 18.25 262.605 17.9844 261.793 17.4531C260.98 16.9219 260.355 16.1901 259.918 15.2578C259.48 14.3255 259.262 13.2604 259.262 12.0625C259.262 10.8437 259.486 9.76823 259.934 8.83594C260.387 7.89844 261.017 7.16667 261.824 6.64062C262.637 6.10937 263.585 5.84375 264.668 5.84375C265.512 5.84375 266.272 6 266.949 6.3125C267.626 6.625 268.181 7.0625 268.613 7.625C269.046 8.1875 269.314 8.84375 269.418 9.59375H267.574C267.434 9.04687 267.121 8.5625 266.637 8.14062C266.158 7.71354 265.512 7.5 264.699 7.5C263.98 7.5 263.35 7.6875 262.809 8.0625C262.272 8.43229 261.853 8.95573 261.551 9.63281C261.254 10.3047 261.105 11.0937 261.105 12C261.105 12.9271 261.251 13.7344 261.543 14.4219C261.84 15.1094 262.257 15.6432 262.793 16.0234C263.335 16.4036 263.97 16.5938 264.699 16.5938C265.178 16.5938 265.613 16.5104 266.004 16.3437C266.395 16.1771 266.725 15.9375 266.996 15.625C267.267 15.3125 267.46 14.9375 267.574 14.5H269.418C269.314 15.2083 269.056 15.8464 268.645 16.4141C268.238 16.9766 267.699 17.4245 267.027 17.7578C266.361 18.0859 265.585 18.25 264.699 18.25ZM272.113 18V6H273.957V18H272.113ZM273.051 4C272.691 4 272.382 3.8776 272.121 3.63281C271.866 3.38802 271.738 3.09375 271.738 2.75C271.738 2.40625 271.866 2.11198 272.121 1.86719C272.382 1.6224 272.691 1.5 273.051 1.5C273.41 1.5 273.717 1.6224 273.973 1.86719C274.233 2.11198 274.363 2.40625 274.363 2.75C274.363 3.09375 274.233 3.38802 273.973 3.63281C273.717 3.8776 273.41 4 273.051 4ZM282.209 18.25C281.126 18.25 280.175 17.9922 279.357 17.4766C278.545 16.9609 277.91 16.2396 277.451 15.3125C276.998 14.3854 276.771 13.3021 276.771 12.0625C276.771 10.8125 276.998 9.72135 277.451 8.78906C277.91 7.85677 278.545 7.13281 279.357 6.61719C280.175 6.10156 281.126 5.84375 282.209 5.84375C283.292 5.84375 284.24 6.10156 285.053 6.61719C285.87 7.13281 286.506 7.85677 286.959 8.78906C287.417 9.72135 287.646 10.8125 287.646 12.0625C287.646 13.3021 287.417 14.3854 286.959 15.3125C286.506 16.2396 285.87 16.9609 285.053 17.4766C284.24 17.9922 283.292 18.25 282.209 18.25ZM282.209 16.5938C283.032 16.5938 283.709 16.3828 284.24 15.9609C284.771 15.5391 285.165 14.9844 285.42 14.2969C285.675 13.6094 285.803 12.8646 285.803 12.0625C285.803 11.2604 285.675 10.513 285.42 9.82031C285.165 9.1276 284.771 8.56771 284.24 8.14062C283.709 7.71354 283.032 7.5 282.209 7.5C281.386 7.5 280.709 7.71354 280.178 8.14062C279.646 8.56771 279.253 9.1276 278.998 9.82031C278.743 10.513 278.615 11.2604 278.615 12.0625C278.615 12.8646 278.743 13.6094 278.998 14.2969C279.253 14.9844 279.646 15.5391 280.178 15.9609C280.709 16.3828 281.386 16.5938 282.209 16.5938ZM281.365 4.375L283.271 0.749999H285.428L282.99 4.375H281.365ZM292.305 10.7812V18H290.461V6H292.242V7.875H292.398C292.68 7.26563 293.107 6.77604 293.68 6.40625C294.253 6.03125 294.992 5.84375 295.898 5.84375C296.711 5.84375 297.422 6.01042 298.031 6.34375C298.641 6.67188 299.115 7.17188 299.453 7.84375C299.792 8.51042 299.961 9.35417 299.961 10.375V18H298.117V10.5C298.117 9.55729 297.872 8.82292 297.383 8.29687C296.893 7.76562 296.221 7.5 295.367 7.5C294.779 7.5 294.253 7.6276 293.789 7.88281C293.331 8.13802 292.969 8.51042 292.703 9C292.438 9.48958 292.305 10.0833 292.305 10.7812ZM306.08 15.8125L305.955 16.6562C305.867 17.25 305.731 17.8854 305.549 18.5625C305.372 19.2396 305.187 19.8776 304.994 20.4766C304.801 21.0755 304.643 21.5521 304.518 21.9063H303.111C303.179 21.5729 303.268 21.1328 303.377 20.5859C303.486 20.0391 303.596 19.4271 303.705 18.75C303.82 18.0781 303.913 17.3906 303.986 16.6875L304.08 15.8125H306.08ZM470.791 18.125C470.406 18.125 470.075 17.987 469.799 17.7109C469.523 17.4349 469.385 17.1042 469.385 16.7187C469.385 16.3333 469.523 16.0026 469.799 15.7266C470.075 15.4505 470.406 15.3125 470.791 15.3125C471.176 15.3125 471.507 15.4505 471.783 15.7266C472.059 16.0026 472.197 16.3333 472.197 16.7187C472.197 16.974 472.132 17.2083 472.002 17.4219C471.877 17.6354 471.708 17.8073 471.494 17.9375C471.286 18.0625 471.051 18.125 470.791 18.125ZM495.443 10C495.443 11.6875 495.139 13.1458 494.529 14.375C493.92 15.6042 493.084 16.5521 492.021 17.2188C490.959 17.8854 489.745 18.2187 488.381 18.2187C487.016 18.2187 485.803 17.8854 484.74 17.2188C483.678 16.5521 482.842 15.6042 482.232 14.375C481.623 13.1458 481.318 11.6875 481.318 10C481.318 8.3125 481.623 6.85417 482.232 5.625C482.842 4.39583 483.678 3.44792 484.74 2.78125C485.803 2.11458 487.016 1.78125 488.381 1.78125C489.745 1.78125 490.959 2.11458 492.021 2.78125C493.084 3.44792 493.92 4.39583 494.529 5.625C495.139 6.85417 495.443 8.3125 495.443 10ZM493.568 10C493.568 8.61458 493.337 7.44531 492.873 6.49219C492.415 5.53906 491.792 4.81771 491.006 4.32812C490.225 3.83854 489.35 3.59375 488.381 3.59375C487.412 3.59375 486.535 3.83854 485.748 4.32812C484.967 4.81771 484.344 5.53906 483.881 6.49219C483.423 7.44531 483.193 8.61458 483.193 10C483.193 11.3854 483.423 12.5547 483.881 13.5078C484.344 14.4609 484.967 15.1823 485.748 15.6719C486.535 16.1615 487.412 16.4062 488.381 16.4062C489.35 16.4062 490.225 16.1615 491.006 15.6719C491.792 15.1823 492.415 14.4609 492.873 13.5078C493.337 12.5547 493.568 11.3854 493.568 10ZM509.514 18.25C508.389 18.25 507.42 17.9844 506.607 17.4531C505.795 16.9219 505.17 16.1901 504.732 15.2578C504.295 14.3255 504.076 13.2604 504.076 12.0625C504.076 10.8437 504.3 9.76823 504.748 8.83594C505.201 7.89844 505.831 7.16667 506.639 6.64062C507.451 6.10937 508.399 5.84375 509.482 5.84375C510.326 5.84375 511.087 6 511.764 6.3125C512.441 6.625 512.995 7.0625 513.428 7.625C513.86 8.1875 514.128 8.84375 514.232 9.59375H512.389C512.248 9.04687 511.936 8.5625 511.451 8.14062C510.972 7.71354 510.326 7.5 509.514 7.5C508.795 7.5 508.165 7.6875 507.623 8.0625C507.087 8.43229 506.667 8.95573 506.365 9.63281C506.068 10.3047 505.92 11.0937 505.92 12C505.92 12.9271 506.066 13.7344 506.357 14.4219C506.654 15.1094 507.071 15.6432 507.607 16.0234C508.149 16.4036 508.785 16.5938 509.514 16.5938C509.993 16.5938 510.428 16.5104 510.818 16.3437C511.209 16.1771 511.54 15.9375 511.811 15.625C512.081 15.3125 512.274 14.9375 512.389 14.5H514.232C514.128 15.2083 513.87 15.8464 513.459 16.4141C513.053 16.9766 512.514 17.4245 511.842 17.7578C511.175 18.0859 510.399 18.25 509.514 18.25ZM524.49 13.0937V6H526.334V18H524.49V15.9687H524.365C524.084 16.5781 523.646 17.0964 523.053 17.5234C522.459 17.9453 521.709 18.1563 520.803 18.1563C520.053 18.1563 519.386 17.9922 518.803 17.6641C518.219 17.3307 517.761 16.8307 517.428 16.1641C517.094 15.4922 516.928 14.6458 516.928 13.625V6H518.771V13.5C518.771 14.375 519.016 15.0729 519.506 15.5938C520.001 16.1146 520.631 16.375 521.396 16.375C521.855 16.375 522.321 16.2578 522.795 16.0234C523.274 15.7891 523.675 15.4297 523.998 14.9453C524.326 14.4609 524.49 13.8437 524.49 13.0937ZM533.242 18.2813C532.482 18.2813 531.792 18.138 531.172 17.8516C530.552 17.5599 530.06 17.1406 529.695 16.5938C529.331 16.0417 529.148 15.375 529.148 14.5937C529.148 13.9062 529.284 13.349 529.555 12.9219C529.826 12.4896 530.188 12.151 530.641 11.9062C531.094 11.6615 531.594 11.4792 532.141 11.3594C532.693 11.2344 533.247 11.1354 533.805 11.0625C534.534 10.9687 535.125 10.8984 535.578 10.8516C536.036 10.7995 536.37 10.7135 536.578 10.5937C536.792 10.474 536.898 10.2656 536.898 9.96875V9.90625C536.898 9.13542 536.688 8.53646 536.266 8.10937C535.849 7.68229 535.216 7.46875 534.367 7.46875C533.487 7.46875 532.797 7.66146 532.297 8.04687C531.797 8.43229 531.445 8.84375 531.242 9.28125L529.492 8.65625C529.805 7.92708 530.221 7.35937 530.742 6.95312C531.268 6.54167 531.841 6.25521 532.461 6.09375C533.086 5.92708 533.701 5.84375 534.305 5.84375C534.69 5.84375 535.133 5.89062 535.633 5.98437C536.138 6.07292 536.625 6.25781 537.094 6.53906C537.568 6.82031 537.961 7.24479 538.273 7.8125C538.586 8.38021 538.742 9.14062 538.742 10.0938V18H536.898V16.375H536.805C536.68 16.6354 536.471 16.9141 536.18 17.2109C535.888 17.5078 535.5 17.7604 535.016 17.9687C534.531 18.1771 533.94 18.2813 533.242 18.2813ZM533.523 16.625C534.253 16.625 534.867 16.4818 535.367 16.1953C535.872 15.9089 536.253 15.5391 536.508 15.0859C536.768 14.6328 536.898 14.1562 536.898 13.6562V11.9687C536.82 12.0625 536.648 12.1484 536.383 12.2266C536.122 12.2995 535.82 12.3646 535.477 12.4219C535.138 12.474 534.807 12.5208 534.484 12.5625C534.167 12.599 533.909 12.6302 533.711 12.6562C533.232 12.7187 532.784 12.8203 532.367 12.9609C531.956 13.0964 531.622 13.3021 531.367 13.5781C531.117 13.849 530.992 14.2187 530.992 14.6875C530.992 15.3281 531.229 15.8125 531.703 16.1406C532.182 16.4635 532.789 16.625 533.523 16.625ZM543.951 2V18H542.107V2H543.951ZM555.516 22.5V16.1562H555.359C555.224 16.375 555.031 16.651 554.781 16.9844C554.531 17.3125 554.174 17.6068 553.711 17.8672C553.247 18.1224 552.63 18.25 551.859 18.25C550.859 18.25 549.977 17.9974 549.211 17.4922C548.445 16.9818 547.846 16.263 547.414 15.3359C546.982 14.4036 546.766 13.3021 546.766 12.0313C546.766 10.7708 546.982 9.67708 547.414 8.75C547.846 7.82292 548.448 7.10677 549.219 6.60156C549.99 6.09635 550.88 5.84375 551.891 5.84375C552.672 5.84375 553.289 5.97396 553.742 6.23438C554.201 6.48958 554.549 6.78125 554.789 7.10937C555.034 7.43229 555.224 7.69792 555.359 7.90625H555.578V6H557.359V22.5H555.516ZM552.109 16.5938C552.849 16.5938 553.474 16.401 553.984 16.0156C554.495 15.625 554.883 15.0859 555.148 14.3984C555.414 13.7057 555.547 12.9062 555.547 12C555.547 11.1042 555.417 10.3203 555.156 9.64844C554.896 8.97135 554.51 8.44531 554 8.07031C553.49 7.6901 552.859 7.5 552.109 7.5C551.328 7.5 550.677 7.70052 550.156 8.10156C549.641 8.4974 549.253 9.03646 548.992 9.71875C548.737 10.3958 548.609 11.1562 548.609 12C548.609 12.8542 548.74 13.6302 549 14.3281C549.266 15.0208 549.656 15.5729 550.172 15.9844C550.693 16.3906 551.339 16.5938 552.109 16.5938ZM568.297 13.0937V6H570.141V18H568.297V15.9687H568.172C567.891 16.5781 567.453 17.0964 566.859 17.5234C566.266 17.9453 565.516 18.1563 564.609 18.1563C563.859 18.1563 563.193 17.9922 562.609 17.6641C562.026 17.3307 561.568 16.8307 561.234 16.1641C560.901 15.4922 560.734 14.6458 560.734 13.625V6H562.578V13.5C562.578 14.375 562.823 15.0729 563.313 15.5938C563.807 16.1146 564.438 16.375 565.203 16.375C565.661 16.375 566.128 16.2578 566.602 16.0234C567.081 15.7891 567.482 15.4297 567.805 14.9453C568.133 14.4609 568.297 13.8437 568.297 13.0937ZM573.518 18V6H575.361V18H573.518ZM574.455 4C574.096 4 573.786 3.8776 573.525 3.63281C573.27 3.38802 573.143 3.09375 573.143 2.75C573.143 2.40625 573.27 2.11198 573.525 1.86719C573.786 1.6224 574.096 1.5 574.455 1.5C574.814 1.5 575.122 1.6224 575.377 1.86719C575.637 2.11198 575.768 2.40625 575.768 2.75C575.768 3.09375 575.637 3.38802 575.377 3.63281C575.122 3.8776 574.814 4 574.455 4ZM583.77 18.25C582.613 18.25 581.616 17.9948 580.777 17.4844C579.944 16.9688 579.301 16.25 578.848 15.3281C578.4 14.401 578.176 13.3229 578.176 12.0938C578.176 10.8646 578.4 9.78125 578.848 8.84375C579.301 7.90104 579.931 7.16667 580.738 6.64062C581.551 6.10937 582.499 5.84375 583.582 5.84375C584.207 5.84375 584.824 5.94792 585.434 6.15625C586.043 6.36458 586.598 6.70312 587.098 7.17188C587.598 7.63542 587.996 8.25 588.293 9.01562C588.59 9.78125 588.738 10.724 588.738 11.8437V12.625H579.488V11.0312H586.863C586.863 10.3542 586.728 9.75 586.457 9.21875C586.191 8.6875 585.811 8.26823 585.316 7.96094C584.827 7.65365 584.249 7.5 583.582 7.5C582.848 7.5 582.212 7.68229 581.676 8.04687C581.145 8.40625 580.736 8.875 580.449 9.45312C580.163 10.0312 580.02 10.651 580.02 11.3125V12.375C580.02 13.2813 580.176 14.0495 580.488 14.6797C580.806 15.3047 581.246 15.7812 581.809 16.1094C582.371 16.4323 583.025 16.5938 583.77 16.5938C584.254 16.5938 584.691 16.526 585.082 16.3906C585.478 16.25 585.819 16.0417 586.105 15.7656C586.392 15.4844 586.613 15.1354 586.77 14.7187L588.551 15.2188C588.363 15.8229 588.048 16.3542 587.605 16.8125C587.163 17.2656 586.616 17.6198 585.965 17.875C585.314 18.125 584.582 18.25 583.77 18.25ZM591.543 18V6H593.324V7.8125H593.449C593.668 7.21875 594.064 6.73698 594.637 6.36719C595.21 5.99739 595.855 5.8125 596.574 5.8125C596.71 5.8125 596.879 5.8151 597.082 5.82031C597.285 5.82552 597.439 5.83333 597.543 5.84375V7.71875C597.48 7.70312 597.337 7.67969 597.113 7.64844C596.895 7.61198 596.663 7.59375 596.418 7.59375C595.835 7.59375 595.314 7.71615 594.855 7.96094C594.402 8.20052 594.043 8.53385 593.777 8.96094C593.517 9.38281 593.387 9.86458 593.387 10.4062V18H591.543ZM610.791 18.25C609.708 18.25 608.757 17.9922 607.939 17.4766C607.127 16.9609 606.492 16.2396 606.033 15.3125C605.58 14.3854 605.354 13.3021 605.354 12.0625C605.354 10.8125 605.58 9.72135 606.033 8.78906C606.492 7.85677 607.127 7.13281 607.939 6.61719C608.757 6.10156 609.708 5.84375 610.791 5.84375C611.874 5.84375 612.822 6.10156 613.635 6.61719C614.452 7.13281 615.088 7.85677 615.541 8.78906C615.999 9.72135 616.229 10.8125 616.229 12.0625C616.229 13.3021 615.999 14.3854 615.541 15.3125C615.088 16.2396 614.452 16.9609 613.635 17.4766C612.822 17.9922 611.874 18.25 610.791 18.25ZM610.791 16.5938C611.614 16.5938 612.291 16.3828 612.822 15.9609C613.354 15.5391 613.747 14.9844 614.002 14.2969C614.257 13.6094 614.385 12.8646 614.385 12.0625C614.385 11.2604 614.257 10.513 614.002 9.82031C613.747 9.1276 613.354 8.56771 612.822 8.14062C612.291 7.71354 611.614 7.5 610.791 7.5C609.968 7.5 609.291 7.71354 608.76 8.14062C608.229 8.56771 607.835 9.1276 607.58 9.82031C607.325 10.513 607.197 11.2604 607.197 12.0625C607.197 12.8646 607.325 13.6094 607.58 14.2969C607.835 14.9844 608.229 15.5391 608.76 15.9609C609.291 16.3828 609.968 16.5938 610.791 16.5938ZM624.262 6V7.5625H618.043V6H624.262ZM619.855 3.125H621.699V14.5625C621.699 15.0833 621.775 15.474 621.926 15.7344C622.082 15.9896 622.28 16.1615 622.52 16.25C622.764 16.3333 623.022 16.375 623.293 16.375C623.496 16.375 623.663 16.3646 623.793 16.3437C623.923 16.3177 624.027 16.2969 624.105 16.2812L624.48 17.9375C624.355 17.9844 624.181 18.0313 623.957 18.0781C623.733 18.1302 623.449 18.1563 623.105 18.1563C622.585 18.1563 622.074 18.0443 621.574 17.8203C621.079 17.5964 620.668 17.2552 620.34 16.7969C620.017 16.3385 619.855 15.7604 619.855 15.0625V3.125ZM627.035 18V6H628.816V7.8125H628.941C629.16 7.21875 629.556 6.73698 630.129 6.36719C630.702 5.99739 631.348 5.8125 632.066 5.8125C632.202 5.8125 632.371 5.8151 632.574 5.82031C632.777 5.82552 632.931 5.83333 633.035 5.84375V7.71875C632.973 7.70312 632.829 7.67969 632.605 7.64844C632.387 7.61198 632.155 7.59375 631.91 7.59375C631.327 7.59375 630.806 7.71615 630.348 7.96094C629.895 8.20052 629.535 8.53385 629.27 8.96094C629.009 9.38281 628.879 9.86458 628.879 10.4062V18H627.035ZM638.752 18.2813C637.992 18.2813 637.301 18.138 636.682 17.8516C636.062 17.5599 635.57 17.1406 635.205 16.5938C634.84 16.0417 634.658 15.375 634.658 14.5937C634.658 13.9062 634.794 13.349 635.064 12.9219C635.335 12.4896 635.697 12.151 636.15 11.9062C636.604 11.6615 637.104 11.4792 637.65 11.3594C638.202 11.2344 638.757 11.1354 639.314 11.0625C640.044 10.9687 640.635 10.8984 641.088 10.8516C641.546 10.7995 641.88 10.7135 642.088 10.5937C642.301 10.474 642.408 10.2656 642.408 9.96875V9.90625C642.408 9.13542 642.197 8.53646 641.775 8.10937C641.359 7.68229 640.726 7.46875 639.877 7.46875C638.997 7.46875 638.307 7.66146 637.807 8.04687C637.307 8.43229 636.955 8.84375 636.752 9.28125L635.002 8.65625C635.314 7.92708 635.731 7.35937 636.252 6.95312C636.778 6.54167 637.351 6.25521 637.971 6.09375C638.596 5.92708 639.21 5.84375 639.814 5.84375C640.2 5.84375 640.643 5.89062 641.143 5.98437C641.648 6.07292 642.135 6.25781 642.604 6.53906C643.077 6.82031 643.471 7.24479 643.783 7.8125C644.096 8.38021 644.252 9.14062 644.252 10.0938V18H642.408V16.375H642.314C642.189 16.6354 641.981 16.9141 641.689 17.2109C641.398 17.5078 641.01 17.7604 640.525 17.9687C640.041 18.1771 639.45 18.2813 638.752 18.2813ZM639.033 16.625C639.762 16.625 640.377 16.4818 640.877 16.1953C641.382 15.9089 641.762 15.5391 642.018 15.0859C642.278 14.6328 642.408 14.1562 642.408 13.6562V11.9687C642.33 12.0625 642.158 12.1484 641.893 12.2266C641.632 12.2995 641.33 12.3646 640.986 12.4219C640.648 12.474 640.317 12.5208 639.994 12.5625C639.676 12.599 639.419 12.6302 639.221 12.6562C638.742 12.7187 638.294 12.8203 637.877 12.9609C637.465 13.0964 637.132 13.3021 636.877 13.5781C636.627 13.849 636.502 14.2187 636.502 14.6875C636.502 15.3281 636.739 15.8125 637.213 16.1406C637.692 16.4635 638.299 16.625 639.033 16.625ZM658.336 18.25C657.336 18.25 656.453 17.9974 655.688 17.4922C654.922 16.9818 654.323 16.263 653.891 15.3359C653.458 14.4036 653.242 13.3021 653.242 12.0313C653.242 10.7708 653.458 9.67708 653.891 8.75C654.323 7.82292 654.924 7.10677 655.695 6.60156C656.466 6.09635 657.357 5.84375 658.367 5.84375C659.148 5.84375 659.766 5.97396 660.219 6.23438C660.677 6.48958 661.026 6.78125 661.266 7.10937C661.51 7.43229 661.701 7.69792 661.836 7.90625H661.992V2H663.836V18H662.055V16.1562H661.836C661.701 16.375 661.508 16.651 661.258 16.9844C661.008 17.3125 660.651 17.6068 660.188 17.8672C659.724 18.1224 659.107 18.25 658.336 18.25ZM658.586 16.5938C659.326 16.5938 659.951 16.401 660.461 16.0156C660.971 15.625 661.359 15.0859 661.625 14.3984C661.891 13.7057 662.023 12.9062 662.023 12C662.023 11.1042 661.893 10.3203 661.633 9.64844C661.372 8.97135 660.987 8.44531 660.477 8.07031C659.966 7.6901 659.336 7.5 658.586 7.5C657.805 7.5 657.154 7.70052 656.633 8.10156C656.117 8.4974 655.729 9.03646 655.469 9.71875C655.214 10.3958 655.086 11.1562 655.086 12C655.086 12.8542 655.216 13.6302 655.477 14.3281C655.742 15.0208 656.133 15.5729 656.648 15.9844C657.169 16.3906 657.815 16.5938 658.586 16.5938ZM675.031 13.0937V6H676.875V18H675.031V15.9687H674.906C674.625 16.5781 674.188 17.0964 673.594 17.5234C673 17.9453 672.25 18.1563 671.344 18.1563C670.594 18.1563 669.927 17.9922 669.344 17.6641C668.76 17.3307 668.302 16.8307 667.969 16.1641C667.635 15.4922 667.469 14.6458 667.469 13.625V6H669.313V13.5C669.313 14.375 669.557 15.0729 670.047 15.5938C670.542 16.1146 671.172 16.375 671.938 16.375C672.396 16.375 672.862 16.2578 673.336 16.0234C673.815 15.7891 674.216 15.4297 674.539 14.9453C674.867 14.4609 675.031 13.8437 675.031 13.0937ZM684.783 18.25C683.783 18.25 682.9 17.9974 682.135 17.4922C681.369 16.9818 680.77 16.263 680.338 15.3359C679.906 14.4036 679.689 13.3021 679.689 12.0313C679.689 10.7708 679.906 9.67708 680.338 8.75C680.77 7.82292 681.372 7.10677 682.143 6.60156C682.913 6.09635 683.804 5.84375 684.814 5.84375C685.596 5.84375 686.213 5.97396 686.666 6.23438C687.124 6.48958 687.473 6.78125 687.713 7.10937C687.958 7.43229 688.148 7.69792 688.283 7.90625H688.439V2H690.283V18H688.502V16.1562H688.283C688.148 16.375 687.955 16.651 687.705 16.9844C687.455 17.3125 687.098 17.6068 686.635 17.8672C686.171 18.1224 685.554 18.25 684.783 18.25ZM685.033 16.5938C685.773 16.5938 686.398 16.401 686.908 16.0156C687.419 15.625 687.807 15.0859 688.072 14.3984C688.338 13.7057 688.471 12.9062 688.471 12C688.471 11.1042 688.34 10.3203 688.08 9.64844C687.82 8.97135 687.434 8.44531 686.924 8.07031C686.413 7.6901 685.783 7.5 685.033 7.5C684.252 7.5 683.601 7.70052 683.08 8.10156C682.564 8.4974 682.176 9.03646 681.916 9.71875C681.661 10.3958 681.533 11.1562 681.533 12C681.533 12.8542 681.663 13.6302 681.924 14.3281C682.189 15.0208 682.58 15.5729 683.096 15.9844C683.617 16.3906 684.262 16.5938 685.033 16.5938ZM697.447 18.2813C696.687 18.2813 695.997 18.138 695.377 17.8516C694.757 17.5599 694.265 17.1406 693.9 16.5938C693.536 16.0417 693.354 15.375 693.354 14.5937C693.354 13.9062 693.489 13.349 693.76 12.9219C694.031 12.4896 694.393 12.151 694.846 11.9062C695.299 11.6615 695.799 11.4792 696.346 11.3594C696.898 11.2344 697.452 11.1354 698.01 11.0625C698.739 10.9687 699.33 10.8984 699.783 10.8516C700.242 10.7995 700.575 10.7135 700.783 10.5937C700.997 10.474 701.104 10.2656 701.104 9.96875V9.90625C701.104 9.13542 700.893 8.53646 700.471 8.10937C700.054 7.68229 699.421 7.46875 698.572 7.46875C697.692 7.46875 697.002 7.66146 696.502 8.04687C696.002 8.43229 695.65 8.84375 695.447 9.28125L693.697 8.65625C694.01 7.92708 694.426 7.35937 694.947 6.95312C695.473 6.54167 696.046 6.25521 696.666 6.09375C697.291 5.92708 697.906 5.84375 698.51 5.84375C698.895 5.84375 699.338 5.89062 699.838 5.98437C700.343 6.07292 700.83 6.25781 701.299 6.53906C701.773 6.82031 702.166 7.24479 702.479 7.8125C702.791 8.38021 702.947 9.14062 702.947 10.0938V18H701.104V16.375H701.01C700.885 16.6354 700.676 16.9141 700.385 17.2109C700.093 17.5078 699.705 17.7604 699.221 17.9687C698.736 18.1771 698.145 18.2813 697.447 18.2813ZM697.729 16.625C698.458 16.625 699.072 16.4818 699.572 16.1953C700.077 15.9089 700.458 15.5391 700.713 15.0859C700.973 14.6328 701.104 14.1562 701.104 13.6562V11.9687C701.025 12.0625 700.854 12.1484 700.588 12.2266C700.327 12.2995 700.025 12.3646 699.682 12.4219C699.343 12.474 699.012 12.5208 698.689 12.5625C698.372 12.599 698.114 12.6302 697.916 12.6562C697.437 12.7187 696.989 12.8203 696.572 12.9609C696.161 13.0964 695.827 13.3021 695.572 13.5781C695.322 13.849 695.197 14.2187 695.197 14.6875C695.197 15.3281 695.434 15.8125 695.908 16.1406C696.387 16.4635 696.994 16.625 697.729 16.625ZM709.063 15.8125L708.938 16.6562C708.849 17.25 708.714 17.8854 708.531 18.5625C708.354 19.2396 708.169 19.8776 707.977 20.4766C707.784 21.0755 707.625 21.5521 707.5 21.9063H706.094C706.161 21.5729 706.25 21.1328 706.359 20.5859C706.469 20.0391 706.578 19.4271 706.688 18.75C706.802 18.0781 706.896 17.3906 706.969 16.6875L707.063 15.8125H709.063ZM723.697 18.25C722.541 18.25 721.544 17.9948 720.705 17.4844C719.872 16.9688 719.229 16.25 718.775 15.3281C718.327 14.401 718.104 13.3229 718.104 12.0938C718.104 10.8646 718.327 9.78125 718.775 8.84375C719.229 7.90104 719.859 7.16667 720.666 6.64062C721.479 6.10937 722.426 5.84375 723.51 5.84375C724.135 5.84375 724.752 5.94792 725.361 6.15625C725.971 6.36458 726.525 6.70312 727.025 7.17188C727.525 7.63542 727.924 8.25 728.221 9.01562C728.518 9.78125 728.666 10.724 728.666 11.8437V12.625H719.416V11.0312H726.791C726.791 10.3542 726.656 9.75 726.385 9.21875C726.119 8.6875 725.739 8.26823 725.244 7.96094C724.755 7.65365 724.176 7.5 723.51 7.5C722.775 7.5 722.14 7.68229 721.604 8.04687C721.072 8.40625 720.663 8.875 720.377 9.45312C720.09 10.0312 719.947 10.651 719.947 11.3125V12.375C719.947 13.2813 720.104 14.0495 720.416 14.6797C720.734 15.3047 721.174 15.7812 721.736 16.1094C722.299 16.4323 722.952 16.5938 723.697 16.5938C724.182 16.5938 724.619 16.526 725.01 16.3906C725.406 16.25 725.747 16.0417 726.033 15.7656C726.32 15.4844 726.541 15.1354 726.697 14.7187L728.479 15.2188C728.291 15.8229 727.976 16.3542 727.533 16.8125C727.09 17.2656 726.544 17.6198 725.893 17.875C725.242 18.125 724.51 18.25 723.697 18.25ZM739.971 8.6875L738.314 9.15625C738.21 8.88021 738.057 8.61198 737.854 8.35156C737.656 8.08594 737.385 7.86719 737.041 7.69531C736.697 7.52344 736.257 7.4375 735.721 7.4375C734.986 7.4375 734.374 7.60677 733.885 7.94531C733.4 8.27865 733.158 8.70312 733.158 9.21875C733.158 9.67708 733.325 10.0391 733.658 10.3047C733.992 10.5703 734.512 10.7917 735.221 10.9687L737.002 11.4063C738.075 11.6667 738.874 12.0651 739.4 12.6016C739.926 13.1328 740.189 13.8177 740.189 14.6562C740.189 15.3437 739.992 15.9583 739.596 16.5C739.205 17.0417 738.658 17.4688 737.955 17.7813C737.252 18.0938 736.434 18.25 735.502 18.25C734.278 18.25 733.265 17.9844 732.463 17.4531C731.661 16.9219 731.153 16.1458 730.939 15.125L732.689 14.6875C732.856 15.3333 733.171 15.8177 733.635 16.1406C734.104 16.4635 734.715 16.625 735.471 16.625C736.33 16.625 737.012 16.4427 737.518 16.0781C738.028 15.7083 738.283 15.2656 738.283 14.75C738.283 14.3333 738.137 13.9844 737.846 13.7031C737.554 13.4167 737.106 13.2031 736.502 13.0625L734.502 12.5937C733.403 12.3333 732.596 11.9297 732.08 11.3828C731.57 10.8307 731.314 10.1406 731.314 9.3125C731.314 8.63542 731.505 8.03646 731.885 7.51562C732.27 6.99479 732.794 6.58594 733.455 6.28906C734.122 5.99219 734.877 5.84375 735.721 5.84375C736.908 5.84375 737.84 6.10417 738.518 6.625C739.2 7.14583 739.684 7.83333 739.971 8.6875ZM747.84 18.25C746.715 18.25 745.746 17.9844 744.934 17.4531C744.121 16.9219 743.496 16.1901 743.059 15.2578C742.621 14.3255 742.402 13.2604 742.402 12.0625C742.402 10.8437 742.626 9.76823 743.074 8.83594C743.527 7.89844 744.158 7.16667 744.965 6.64062C745.777 6.10937 746.725 5.84375 747.809 5.84375C748.652 5.84375 749.413 6 750.09 6.3125C750.767 6.625 751.322 7.0625 751.754 7.625C752.186 8.1875 752.454 8.84375 752.559 9.59375H750.715C750.574 9.04687 750.262 8.5625 749.777 8.14062C749.298 7.71354 748.652 7.5 747.84 7.5C747.121 7.5 746.491 7.6875 745.949 8.0625C745.413 8.43229 744.993 8.95573 744.691 9.63281C744.395 10.3047 744.246 11.0937 744.246 12C744.246 12.9271 744.392 13.7344 744.684 14.4219C744.98 15.1094 745.397 15.6432 745.934 16.0234C746.475 16.4036 747.111 16.5938 747.84 16.5938C748.319 16.5938 748.754 16.5104 749.145 16.3437C749.535 16.1771 749.866 15.9375 750.137 15.625C750.408 15.3125 750.6 14.9375 750.715 14.5H752.559C752.454 15.2083 752.197 15.8464 751.785 16.4141C751.379 16.9766 750.84 17.4245 750.168 17.7578C749.501 18.0859 748.725 18.25 747.84 18.25ZM755.254 18V6H757.035V7.8125H757.16C757.379 7.21875 757.775 6.73698 758.348 6.36719C758.921 5.99739 759.566 5.8125 760.285 5.8125C760.421 5.8125 760.59 5.8151 760.793 5.82031C760.996 5.82552 761.15 5.83333 761.254 5.84375V7.71875C761.191 7.70312 761.048 7.67969 760.824 7.64844C760.605 7.61198 760.374 7.59375 760.129 7.59375C759.546 7.59375 759.025 7.71615 758.566 7.96094C758.113 8.20052 757.754 8.53385 757.488 8.96094C757.228 9.38281 757.098 9.86458 757.098 10.4062V18H755.254ZM763.439 18V6H765.283V18H763.439ZM764.377 4C764.018 4 763.708 3.8776 763.447 3.63281C763.192 3.38802 763.064 3.09375 763.064 2.75C763.064 2.40625 763.192 2.11198 763.447 1.86719C763.708 1.6224 764.018 1.5 764.377 1.5C764.736 1.5 765.044 1.6224 765.299 1.86719C765.559 2.11198 765.689 2.40625 765.689 2.75C765.689 3.09375 765.559 3.38802 765.299 3.63281C765.044 3.8776 764.736 4 764.377 4ZM768.91 18V2H770.754V7.90625H770.91C771.046 7.69792 771.233 7.43229 771.473 7.10937C771.717 6.78125 772.066 6.48958 772.52 6.23438C772.978 5.97396 773.598 5.84375 774.379 5.84375C775.389 5.84375 776.28 6.09635 777.051 6.60156C777.822 7.10677 778.423 7.82292 778.855 8.75C779.288 9.67708 779.504 10.7708 779.504 12.0313C779.504 13.3021 779.288 14.4036 778.855 15.3359C778.423 16.263 777.824 16.9818 777.059 17.4922C776.293 17.9974 775.41 18.25 774.41 18.25C773.639 18.25 773.022 18.1224 772.559 17.8672C772.095 17.6068 771.738 17.3125 771.488 16.9844C771.238 16.651 771.046 16.375 770.91 16.1562H770.691V18H768.91ZM770.723 12C770.723 12.9062 770.855 13.7057 771.121 14.3984C771.387 15.0859 771.775 15.625 772.285 16.0156C772.796 16.401 773.421 16.5938 774.16 16.5938C774.931 16.5938 775.574 16.3906 776.09 15.9844C776.611 15.5729 777.001 15.0208 777.262 14.3281C777.527 13.6302 777.66 12.8542 777.66 12C777.66 11.1562 777.53 10.3958 777.27 9.71875C777.014 9.03646 776.626 8.4974 776.105 8.10156C775.59 7.70052 774.941 7.5 774.16 7.5C773.41 7.5 772.78 7.6901 772.27 8.07031C771.759 8.44531 771.374 8.97135 771.113 9.64844C770.853 10.3203 770.723 11.1042 770.723 12ZM782.324 18V6H784.168V18H782.324ZM783.262 4C782.902 4 782.592 3.8776 782.332 3.63281C782.077 3.38802 781.949 3.09375 781.949 2.75C781.949 2.40625 782.077 2.11198 782.332 1.86719C782.592 1.6224 782.902 1.5 783.262 1.5C783.621 1.5 783.928 1.6224 784.184 1.86719C784.444 2.11198 784.574 2.40625 784.574 2.75C784.574 3.09375 784.444 3.38802 784.184 3.63281C783.928 3.8776 783.621 4 783.262 4ZM789.389 10.7812V18H787.545V6H789.326V7.875H789.482C789.764 7.26563 790.191 6.77604 790.764 6.40625C791.337 6.03125 792.076 5.84375 792.982 5.84375C793.795 5.84375 794.506 6.01042 795.115 6.34375C795.725 6.67188 796.199 7.17188 796.537 7.84375C796.876 8.51042 797.045 9.35417 797.045 10.375V18H795.201V10.5C795.201 9.55729 794.956 8.82292 794.467 8.29687C793.977 7.76562 793.305 7.5 792.451 7.5C791.863 7.5 791.337 7.6276 790.873 7.88281C790.415 8.13802 790.053 8.51042 789.787 9C789.521 9.48958 789.389 10.0833 789.389 10.7812ZM805.289 18.25C804.206 18.25 803.255 17.9922 802.438 17.4766C801.625 16.9609 800.99 16.2396 800.531 15.3125C800.078 14.3854 799.852 13.3021 799.852 12.0625C799.852 10.8125 800.078 9.72135 800.531 8.78906C800.99 7.85677 801.625 7.13281 802.438 6.61719C803.255 6.10156 804.206 5.84375 805.289 5.84375C806.372 5.84375 807.32 6.10156 808.133 6.61719C808.951 7.13281 809.586 7.85677 810.039 8.78906C810.497 9.72135 810.727 10.8125 810.727 12.0625C810.727 13.3021 810.497 14.3854 810.039 15.3125C809.586 16.2396 808.951 16.9609 808.133 17.4766C807.32 17.9922 806.372 18.25 805.289 18.25ZM805.289 16.5938C806.112 16.5938 806.789 16.3828 807.32 15.9609C807.852 15.5391 808.245 14.9844 808.5 14.2969C808.755 13.6094 808.883 12.8646 808.883 12.0625C808.883 11.2604 808.755 10.513 808.5 9.82031C808.245 9.1276 807.852 8.56771 807.32 8.14062C806.789 7.71354 806.112 7.5 805.289 7.5C804.466 7.5 803.789 7.71354 803.258 8.14062C802.727 8.56771 802.333 9.1276 802.078 9.82031C801.823 10.513 801.695 11.2604 801.695 12.0625C801.695 12.8646 801.823 13.6094 802.078 14.2969C802.333 14.9844 802.727 15.5391 803.258 15.9609C803.789 16.3828 804.466 16.5938 805.289 16.5938ZM822.041 8.6875L820.385 9.15625C820.281 8.88021 820.127 8.61198 819.924 8.35156C819.726 8.08594 819.455 7.86719 819.111 7.69531C818.768 7.52344 818.327 7.4375 817.791 7.4375C817.057 7.4375 816.445 7.60677 815.955 7.94531C815.471 8.27865 815.229 8.70312 815.229 9.21875C815.229 9.67708 815.395 10.0391 815.729 10.3047C816.062 10.5703 816.583 10.7917 817.291 10.9687L819.072 11.4063C820.145 11.6667 820.945 12.0651 821.471 12.6016C821.997 13.1328 822.26 13.8177 822.26 14.6562C822.26 15.3437 822.062 15.9583 821.666 16.5C821.275 17.0417 820.729 17.4688 820.025 17.7813C819.322 18.0938 818.505 18.25 817.572 18.25C816.348 18.25 815.335 17.9844 814.533 17.4531C813.731 16.9219 813.223 16.1458 813.01 15.125L814.76 14.6875C814.926 15.3333 815.242 15.8177 815.705 16.1406C816.174 16.4635 816.786 16.625 817.541 16.625C818.4 16.625 819.083 16.4427 819.588 16.0781C820.098 15.7083 820.354 15.2656 820.354 14.75C820.354 14.3333 820.208 13.9844 819.916 13.7031C819.624 13.4167 819.176 13.2031 818.572 13.0625L816.572 12.5937C815.473 12.3333 814.666 11.9297 814.15 11.3828C813.64 10.8307 813.385 10.1406 813.385 9.3125C813.385 8.63542 813.575 8.03646 813.955 7.51562C814.34 6.99479 814.864 6.58594 815.525 6.28906C816.192 5.99219 816.947 5.84375 817.791 5.84375C818.979 5.84375 819.911 6.10417 820.588 6.625C821.27 7.14583 821.755 7.83333 822.041 8.6875ZM826.379 18.125C825.993 18.125 825.663 17.987 825.387 17.7109C825.111 17.4349 824.973 17.1042 824.973 16.7187C824.973 16.3333 825.111 16.0026 825.387 15.7266C825.663 15.4505 825.993 15.3125 826.379 15.3125C826.764 15.3125 827.095 15.4505 827.371 15.7266C827.647 16.0026 827.785 16.3333 827.785 16.7187C827.785 16.974 827.72 17.2083 827.59 17.4219C827.465 17.6354 827.296 17.8073 827.082 17.9375C826.874 18.0625 826.639 18.125 826.379 18.125Z" fill="#364936"/>
<path d="M320.902 6V7.5625H314.684V6H320.902ZM316.496 3.125H318.34V14.5625C318.34 15.0833 318.415 15.474 318.566 15.7344C318.723 15.9896 318.921 16.1615 319.16 16.25C319.405 16.3333 319.663 16.375 319.934 16.375C320.137 16.375 320.303 16.3646 320.434 16.3437C320.564 16.3177 320.668 16.2969 320.746 16.2812L321.121 17.9375C320.996 17.9844 320.822 18.0313 320.598 18.0781C320.374 18.1302 320.09 18.1563 319.746 18.1563C319.225 18.1563 318.715 18.0443 318.215 17.8203C317.72 17.5964 317.309 17.2552 316.98 16.7969C316.658 16.3385 316.496 15.7604 316.496 15.0625V3.125ZM328.422 18.25C327.339 18.25 326.388 17.9922 325.57 17.4766C324.758 16.9609 324.122 16.2396 323.664 15.3125C323.211 14.3854 322.984 13.3021 322.984 12.0625C322.984 10.8125 323.211 9.72135 323.664 8.78906C324.122 7.85677 324.758 7.13281 325.57 6.61719C326.388 6.10156 327.339 5.84375 328.422 5.84375C329.505 5.84375 330.453 6.10156 331.266 6.61719C332.083 7.13281 332.719 7.85677 333.172 8.78906C333.63 9.72135 333.859 10.8125 333.859 12.0625C333.859 13.3021 333.63 14.3854 333.172 15.3125C332.719 16.2396 332.083 16.9609 331.266 17.4766C330.453 17.9922 329.505 18.25 328.422 18.25ZM328.422 16.5938C329.245 16.5938 329.922 16.3828 330.453 15.9609C330.984 15.5391 331.378 14.9844 331.633 14.2969C331.888 13.6094 332.016 12.8646 332.016 12.0625C332.016 11.2604 331.888 10.513 331.633 9.82031C331.378 9.1276 330.984 8.56771 330.453 8.14062C329.922 7.71354 329.245 7.5 328.422 7.5C327.599 7.5 326.922 7.71354 326.391 8.14062C325.859 8.56771 325.466 9.1276 325.211 9.82031C324.956 10.513 324.828 11.2604 324.828 12.0625C324.828 12.8646 324.956 13.6094 325.211 14.2969C325.466 14.9844 325.859 15.5391 326.391 15.9609C326.922 16.3828 327.599 16.5938 328.422 16.5938ZM341.549 18.25C340.424 18.25 339.455 17.9844 338.643 17.4531C337.83 16.9219 337.205 16.1901 336.768 15.2578C336.33 14.3255 336.111 13.2604 336.111 12.0625C336.111 10.8437 336.335 9.76823 336.783 8.83594C337.236 7.89844 337.867 7.16667 338.674 6.64062C339.486 6.10937 340.434 5.84375 341.518 5.84375C342.361 5.84375 343.122 6 343.799 6.3125C344.476 6.625 345.031 7.0625 345.463 7.625C345.895 8.1875 346.163 8.84375 346.268 9.59375H344.424C344.283 9.04687 343.971 8.5625 343.486 8.14062C343.007 7.71354 342.361 7.5 341.549 7.5C340.83 7.5 340.2 7.6875 339.658 8.0625C339.122 8.43229 338.702 8.95573 338.4 9.63281C338.104 10.3047 337.955 11.0937 337.955 12C337.955 12.9271 338.101 13.7344 338.393 14.4219C338.689 15.1094 339.106 15.6432 339.643 16.0234C340.184 16.4036 340.82 16.5938 341.549 16.5938C342.028 16.5938 342.463 16.5104 342.854 16.3437C343.244 16.1771 343.575 15.9375 343.846 15.625C344.117 15.3125 344.309 14.9375 344.424 14.5H346.268C346.163 15.2083 345.906 15.8464 345.494 16.4141C345.088 16.9766 344.549 17.4245 343.877 17.7578C343.21 18.0859 342.434 18.25 341.549 18.25ZM352.494 18.2813C351.734 18.2813 351.044 18.138 350.424 17.8516C349.804 17.5599 349.312 17.1406 348.947 16.5938C348.583 16.0417 348.4 15.375 348.4 14.5937C348.4 13.9062 348.536 13.349 348.807 12.9219C349.077 12.4896 349.439 12.151 349.893 11.9062C350.346 11.6615 350.846 11.4792 351.393 11.3594C351.945 11.2344 352.499 11.1354 353.057 11.0625C353.786 10.9687 354.377 10.8984 354.83 10.8516C355.288 10.7995 355.622 10.7135 355.83 10.5937C356.044 10.474 356.15 10.2656 356.15 9.96875V9.90625C356.15 9.13542 355.939 8.53646 355.518 8.10937C355.101 7.68229 354.468 7.46875 353.619 7.46875C352.739 7.46875 352.049 7.66146 351.549 8.04687C351.049 8.43229 350.697 8.84375 350.494 9.28125L348.744 8.65625C349.057 7.92708 349.473 7.35937 349.994 6.95312C350.52 6.54167 351.093 6.25521 351.713 6.09375C352.338 5.92708 352.952 5.84375 353.557 5.84375C353.942 5.84375 354.385 5.89062 354.885 5.98437C355.39 6.07292 355.877 6.25781 356.346 6.53906C356.82 6.82031 357.213 7.24479 357.525 7.8125C357.838 8.38021 357.994 9.14062 357.994 10.0938V18H356.15V16.375H356.057C355.932 16.6354 355.723 16.9141 355.432 17.2109C355.14 17.5078 354.752 17.7604 354.268 17.9687C353.783 18.1771 353.192 18.2813 352.494 18.2813ZM352.775 16.625C353.505 16.625 354.119 16.4818 354.619 16.1953C355.124 15.9089 355.505 15.5391 355.76 15.0859C356.02 14.6328 356.15 14.1562 356.15 13.6562V11.9687C356.072 12.0625 355.9 12.1484 355.635 12.2266C355.374 12.2995 355.072 12.3646 354.729 12.4219C354.39 12.474 354.059 12.5208 353.736 12.5625C353.419 12.599 353.161 12.6302 352.963 12.6562C352.484 12.7187 352.036 12.8203 351.619 12.9609C351.208 13.0964 350.874 13.3021 350.619 13.5781C350.369 13.849 350.244 14.2187 350.244 14.6875C350.244 15.3281 350.481 15.8125 350.955 16.1406C351.434 16.4635 352.041 16.625 352.775 16.625ZM371.078 18.2813C370.318 18.2813 369.628 18.138 369.008 17.8516C368.388 17.5599 367.896 17.1406 367.531 16.5938C367.167 16.0417 366.984 15.375 366.984 14.5937C366.984 13.9062 367.12 13.349 367.391 12.9219C367.661 12.4896 368.023 12.151 368.477 11.9062C368.93 11.6615 369.43 11.4792 369.977 11.3594C370.529 11.2344 371.083 11.1354 371.641 11.0625C372.37 10.9687 372.961 10.8984 373.414 10.8516C373.872 10.7995 374.206 10.7135 374.414 10.5937C374.628 10.474 374.734 10.2656 374.734 9.96875V9.90625C374.734 9.13542 374.523 8.53646 374.102 8.10937C373.685 7.68229 373.052 7.46875 372.203 7.46875C371.323 7.46875 370.633 7.66146 370.133 8.04687C369.633 8.43229 369.281 8.84375 369.078 9.28125L367.328 8.65625C367.641 7.92708 368.057 7.35937 368.578 6.95312C369.104 6.54167 369.677 6.25521 370.297 6.09375C370.922 5.92708 371.536 5.84375 372.141 5.84375C372.526 5.84375 372.969 5.89062 373.469 5.98437C373.974 6.07292 374.461 6.25781 374.93 6.53906C375.404 6.82031 375.797 7.24479 376.109 7.8125C376.422 8.38021 376.578 9.14062 376.578 10.0938V18H374.734V16.375H374.641C374.516 16.6354 374.307 16.9141 374.016 17.2109C373.724 17.5078 373.336 17.7604 372.852 17.9687C372.367 18.1771 371.776 18.2813 371.078 18.2813ZM371.359 16.625C372.089 16.625 372.703 16.4818 373.203 16.1953C373.708 15.9089 374.089 15.5391 374.344 15.0859C374.604 14.6328 374.734 14.1562 374.734 13.6562V11.9687C374.656 12.0625 374.484 12.1484 374.219 12.2266C373.958 12.2995 373.656 12.3646 373.312 12.4219C372.974 12.474 372.643 12.5208 372.32 12.5625C372.003 12.599 371.745 12.6302 371.547 12.6562C371.068 12.7187 370.62 12.8203 370.203 12.9609C369.792 13.0964 369.458 13.3021 369.203 13.5781C368.953 13.849 368.828 14.2187 368.828 14.6875C368.828 15.3281 369.065 15.8125 369.539 16.1406C370.018 16.4635 370.625 16.625 371.359 16.625ZM384.818 18.25C383.693 18.25 382.725 17.9844 381.912 17.4531C381.1 16.9219 380.475 16.1901 380.037 15.2578C379.6 14.3255 379.381 13.2604 379.381 12.0625C379.381 10.8437 379.605 9.76823 380.053 8.83594C380.506 7.89844 381.136 7.16667 381.943 6.64062C382.756 6.10937 383.704 5.84375 384.787 5.84375C385.631 5.84375 386.391 6 387.068 6.3125C387.745 6.625 388.3 7.0625 388.732 7.625C389.165 8.1875 389.433 8.84375 389.537 9.59375H387.693C387.553 9.04687 387.24 8.5625 386.756 8.14062C386.277 7.71354 385.631 7.5 384.818 7.5C384.1 7.5 383.469 7.6875 382.928 8.0625C382.391 8.43229 381.972 8.95573 381.67 9.63281C381.373 10.3047 381.225 11.0937 381.225 12C381.225 12.9271 381.37 13.7344 381.662 14.4219C381.959 15.1094 382.376 15.6432 382.912 16.0234C383.454 16.4036 384.089 16.5938 384.818 16.5938C385.298 16.5938 385.732 16.5104 386.123 16.3437C386.514 16.1771 386.844 15.9375 387.115 15.625C387.386 15.3125 387.579 14.9375 387.693 14.5H389.537C389.433 15.2083 389.175 15.8464 388.764 16.4141C388.357 16.9766 387.818 17.4245 387.146 17.7578C386.48 18.0859 385.704 18.25 384.818 18.25ZM395.764 18.2813C395.003 18.2813 394.313 18.138 393.693 17.8516C393.074 17.5599 392.581 17.1406 392.217 16.5938C391.852 16.0417 391.67 15.375 391.67 14.5937C391.67 13.9062 391.805 13.349 392.076 12.9219C392.347 12.4896 392.709 12.151 393.162 11.9062C393.615 11.6615 394.115 11.4792 394.662 11.3594C395.214 11.2344 395.769 11.1354 396.326 11.0625C397.055 10.9687 397.646 10.8984 398.1 10.8516C398.558 10.7995 398.891 10.7135 399.1 10.5937C399.313 10.474 399.42 10.2656 399.42 9.96875V9.90625C399.42 9.13542 399.209 8.53646 398.787 8.10937C398.37 7.68229 397.738 7.46875 396.889 7.46875C396.008 7.46875 395.318 7.66146 394.818 8.04687C394.318 8.43229 393.967 8.84375 393.764 9.28125L392.014 8.65625C392.326 7.92708 392.743 7.35937 393.264 6.95312C393.79 6.54167 394.363 6.25521 394.982 6.09375C395.607 5.92708 396.222 5.84375 396.826 5.84375C397.212 5.84375 397.654 5.89062 398.154 5.98437C398.66 6.07292 399.146 6.25781 399.615 6.53906C400.089 6.82031 400.482 7.24479 400.795 7.8125C401.107 8.38021 401.264 9.14062 401.264 10.0938V18H399.42V16.375H399.326C399.201 16.6354 398.993 16.9141 398.701 17.2109C398.41 17.5078 398.021 17.7604 397.537 17.9687C397.053 18.1771 396.462 18.2813 395.764 18.2813ZM396.045 16.625C396.774 16.625 397.389 16.4818 397.889 16.1953C398.394 15.9089 398.774 15.5391 399.029 15.0859C399.29 14.6328 399.42 14.1562 399.42 13.6562V11.9687C399.342 12.0625 399.17 12.1484 398.904 12.2266C398.644 12.2995 398.342 12.3646 397.998 12.4219C397.66 12.474 397.329 12.5208 397.006 12.5625C396.688 12.599 396.43 12.6302 396.232 12.6562C395.753 12.7187 395.305 12.8203 394.889 12.9609C394.477 13.0964 394.144 13.3021 393.889 13.5781C393.639 13.849 393.514 14.2187 393.514 14.6875C393.514 15.3281 393.751 15.8125 394.225 16.1406C394.704 16.4635 395.311 16.625 396.045 16.625ZM396.107 4.375L398.014 0.749999H400.17L397.732 4.375H396.107ZM411.473 10C411.473 8.03125 411.728 6.22135 412.238 4.57031C412.754 2.91406 413.488 1.39062 414.441 -1.19209e-06H416.066C415.691 0.515625 415.34 1.15104 415.012 1.90625C414.689 2.65625 414.405 3.48177 414.16 4.38281C413.915 5.27865 413.723 6.20573 413.582 7.16406C413.447 8.1224 413.379 9.06771 413.379 10C413.379 11.2396 413.499 12.4974 413.738 13.7734C413.978 15.0495 414.301 16.2344 414.707 17.3281C415.113 18.4219 415.566 19.3125 416.066 20H414.441C413.488 18.6094 412.754 17.0885 412.238 15.4375C411.728 13.7812 411.473 11.9687 411.473 10ZM419.037 18V2H424.443C425.699 2 426.725 2.22656 427.521 2.67969C428.324 3.1276 428.917 3.73438 429.303 4.5C429.688 5.26562 429.881 6.11979 429.881 7.0625C429.881 8.00521 429.688 8.86198 429.303 9.63281C428.923 10.4036 428.334 11.0182 427.537 11.4766C426.74 11.9297 425.719 12.1562 424.475 12.1562H420.6V10.4375H424.412C425.271 10.4375 425.962 10.2891 426.482 9.99219C427.003 9.69531 427.381 9.29427 427.615 8.78906C427.855 8.27865 427.975 7.70312 427.975 7.0625C427.975 6.42188 427.855 5.84896 427.615 5.34375C427.381 4.83854 427.001 4.44271 426.475 4.15625C425.949 3.86458 425.251 3.71875 424.381 3.71875H420.975V18H419.037ZM437.939 18H433.002V2H438.158C439.71 2 441.038 2.32031 442.143 2.96094C443.247 3.59635 444.093 4.51042 444.682 5.70312C445.27 6.89062 445.564 8.3125 445.564 9.96875C445.564 11.6354 445.268 13.0703 444.674 14.2734C444.08 15.4714 443.215 16.3932 442.08 17.0391C440.945 17.6797 439.564 18 437.939 18ZM434.939 16.2812H437.814C439.137 16.2812 440.234 16.026 441.104 15.5156C441.973 15.0052 442.622 14.2786 443.049 13.3359C443.476 12.3932 443.689 11.2708 443.689 9.96875C443.689 8.67708 443.479 7.5651 443.057 6.63281C442.635 5.69531 442.005 4.97656 441.166 4.47656C440.327 3.97135 439.283 3.71875 438.033 3.71875H434.939V16.2812ZM448.814 18V2H458.408V3.71875H450.752V9.125H457.689V10.8437H450.752V18H448.814ZM465.414 10C465.414 11.9687 465.156 13.7812 464.641 15.4375C464.13 17.0885 463.398 18.6094 462.445 20H460.82C461.195 19.4844 461.544 18.849 461.867 18.0938C462.195 17.3438 462.482 16.5208 462.727 15.625C462.971 14.724 463.161 13.7943 463.297 12.8359C463.438 11.8724 463.508 10.9271 463.508 10C463.508 8.76042 463.388 7.5026 463.148 6.22656C462.909 4.95052 462.586 3.76562 462.18 2.67187C461.773 1.57812 461.32 0.6875 460.82 -1.19209e-06H462.445C463.398 1.39062 464.13 2.91406 464.641 4.57031C465.156 6.22135 465.414 8.03125 465.414 10Z" fill="#364936"/>
<path d="M313.996 22.375H467.76V23.875H313.996V22.375Z" fill="#364936"/>
</svg>
