<svg width="55" height="18" viewBox="0 0 55 18" fill="none" xmlns="http://www.w3.org/2000/svg">
<path d="M0.9375 17V1H6.34375C7.59375 1 8.61979 1.21354 9.42188 1.64062C10.224 2.0625 10.8177 2.64323 11.2031 3.38281C11.5885 4.1224 11.7813 4.96354 11.7813 5.90625C11.7813 6.84896 11.5885 7.6849 11.2031 8.41406C10.8177 9.14323 10.2266 9.71615 9.42969 10.1328C8.63281 10.5443 7.61458 10.75 6.375 10.75H2V9H6.3125C7.16667 9 7.85417 8.875 8.375 8.625C8.90104 8.375 9.28125 8.02083 9.51563 7.5625C9.75521 7.09896 9.875 6.54687 9.875 5.90625C9.875 5.26562 9.75521 4.70573 9.51563 4.22656C9.27604 3.7474 8.89323 3.3776 8.36719 3.11719C7.84115 2.85156 7.14583 2.71875 6.28125 2.71875H2.875V17H0.9375ZM8.46875 9.8125L12.4062 17H10.1563L6.28125 9.8125H8.46875ZM23.7598 5C23.666 4.20833 23.2858 3.59375 22.6191 3.15625C21.9525 2.71875 21.1348 2.5 20.166 2.5C19.4577 2.5 18.8379 2.61458 18.3066 2.84375C17.7806 3.07292 17.3691 3.38802 17.0723 3.78906C16.7806 4.1901 16.6348 4.64583 16.6348 5.15625C16.6348 5.58333 16.7363 5.95052 16.9395 6.25781C17.1478 6.5599 17.4134 6.8125 17.7363 7.01562C18.0592 7.21354 18.3978 7.3776 18.752 7.50781C19.1061 7.63281 19.4316 7.73437 19.7285 7.8125L21.3535 8.25C21.7702 8.35937 22.2337 8.51042 22.7441 8.70312C23.2598 8.89583 23.752 9.15885 24.2207 9.49219C24.6947 9.82031 25.0853 10.2422 25.3926 10.7578C25.6999 11.2734 25.8535 11.9062 25.8535 12.6562C25.8535 13.5208 25.627 14.3021 25.1738 15C24.7259 15.6979 24.0697 16.2526 23.2051 16.6641C22.3457 17.0755 21.3014 17.2813 20.0723 17.2813C18.9264 17.2813 17.9342 17.0964 17.0957 16.7266C16.2624 16.3568 15.6061 15.8411 15.127 15.1797C14.653 14.5182 14.3848 13.75 14.3223 12.875H16.3223C16.3743 13.4792 16.5775 13.9792 16.9316 14.375C17.291 14.7656 17.7441 15.0573 18.291 15.25C18.8431 15.4375 19.4368 15.5312 20.0723 15.5312C20.8118 15.5312 21.4759 15.4115 22.0645 15.1719C22.653 14.9271 23.1191 14.5885 23.4629 14.1562C23.8066 13.7187 23.9785 13.2083 23.9785 12.625C23.9785 12.0937 23.8301 11.6615 23.5332 11.3281C23.2363 10.9948 22.8457 10.724 22.3613 10.5156C21.877 10.3073 21.3535 10.125 20.791 9.96875L18.8223 9.40625C17.5723 9.04687 16.5827 8.53385 15.8535 7.86719C15.1243 7.20052 14.7598 6.32812 14.7598 5.25C14.7598 4.35417 15.002 3.57292 15.4863 2.90625C15.9759 2.23437 16.6322 1.71354 17.4551 1.34375C18.2832 0.968749 19.2077 0.781249 20.2285 0.781249C21.2598 0.781249 22.1764 0.966145 22.9785 1.33594C23.7806 1.70052 24.416 2.20052 24.8848 2.83594C25.3587 3.47135 25.6087 4.19271 25.6348 5H23.7598ZM29.6953 1L34.4453 14.4687H34.6328L39.3828 1H41.4141L35.5391 17H33.5391L27.6641 1H29.6953ZM43.9063 17V1H49.3125C50.5677 1 51.5938 1.22656 52.3906 1.67969C53.1927 2.1276 53.7865 2.73438 54.1719 3.5C54.5573 4.26562 54.75 5.11979 54.75 6.0625C54.75 7.00521 54.5573 7.86198 54.1719 8.63281C53.7917 9.40365 53.2031 10.0182 52.4063 10.4766C51.6094 10.9297 50.5885 11.1562 49.3438 11.1562H45.4687V9.4375H49.2813C50.1406 9.4375 50.8307 9.28906 51.3516 8.99219C51.8724 8.69531 52.25 8.29427 52.4844 7.78906C52.724 7.27865 52.8438 6.70312 52.8438 6.0625C52.8438 5.42188 52.724 4.84896 52.4844 4.34375C52.25 3.83854 51.8698 3.44271 51.3438 3.15625C50.8177 2.86458 50.1198 2.71875 49.25 2.71875H45.8438V17H43.9063Z" fill="white"/>
</svg>
