<svg width="415" height="37" viewBox="0 0 415 37" fill="none" xmlns="http://www.w3.org/2000/svg">
<path d="M12.6 30.2L0.56 2H4.08L14.04 26.12L24.04 2H27.44L15.4 30.2H12.6ZM31.7388 4.8V1.4H35.2588V4.8H31.7388ZM31.9388 30V9.32H35.0188V30H31.9388ZM42.4466 30V0.799999H45.5266V30H42.4466ZM52.9544 30V0.799999H56.0344V30H52.9544ZM69.3422 30.44C65.5022 30.44 61.6222 28.28 61.6222 24V23.92C61.6222 19.6 65.2222 17.24 70.4622 17.24C73.1422 17.24 74.9422 17.6 76.8222 18.12V17.4C76.8222 13.68 74.5422 11.76 70.6622 11.76C68.2222 11.76 66.3022 12.36 64.3822 13.28L63.4622 10.76C65.7422 9.68 67.9422 9.04 70.9822 9.04C73.9022 9.04 76.1422 9.8 77.6622 11.32C79.0622 12.72 79.7822 14.76 79.7822 17.36V30H76.8222V26.88C75.3822 28.76 73.0222 30.44 69.3422 30.44ZM69.9422 28C73.7822 28 76.8622 25.68 76.8622 22.4V20.4C75.3022 19.96 73.3422 19.52 70.7822 19.52C66.9022 19.52 64.7422 21.2 64.7422 23.8V23.88C64.7422 26.48 67.1822 28 69.9422 28ZM95.5063 36.48C92.0263 36.48 88.8663 35.52 86.1063 33.6L87.5063 31.2C89.9063 32.92 92.4663 33.84 95.4663 33.84C100.066 33.84 102.986 31.32 102.986 26.48V24.04C101.186 26.44 98.6663 28.4 94.8663 28.4C89.9063 28.4 85.1463 24.64 85.1463 18.72V18.64C85.1463 12.6 89.9063 8.88 94.8663 8.88C98.7463 8.88 101.226 10.8 102.946 13.04V9.32H106.026V26.4C106.026 29.6 105.106 32 103.386 33.72C101.506 35.6 98.8263 36.48 95.5063 36.48ZM95.4663 25.68C99.3863 25.68 103.066 22.84 103.066 18.68V18.6C103.066 14.36 99.3863 11.6 95.4663 11.6C91.5063 11.6 88.3063 14.32 88.3063 18.56V18.64C88.3063 22.8 91.6263 25.68 95.4663 25.68ZM121.949 30.48C116.309 30.48 111.629 26.12 111.629 19.72V19.64C111.629 13.68 115.789 8.88 121.549 8.88C127.669 8.88 131.189 13.76 131.189 19.8C131.189 20.24 131.189 20.44 131.149 20.8H114.749C115.189 25.28 118.349 27.8 122.029 27.8C124.909 27.8 126.829 26.64 128.549 24.88L130.469 26.6C128.389 28.96 125.909 30.48 121.949 30.48ZM114.749 18.52H128.069C127.749 14.8 125.629 11.48 121.469 11.48C117.829 11.48 115.189 14.52 114.749 18.52ZM149.093 30V2H159.573C165.893 2 170.053 5.36 170.053 10.88V10.96C170.053 17 165.013 20.12 159.053 20.12H152.253V30H149.093ZM152.253 17.24H159.173C163.813 17.24 166.853 14.76 166.853 11.08V11C166.853 7 163.853 4.92 159.333 4.92H152.253V17.24ZM175.292 30V9.32H178.372V14.72C179.892 11.28 182.892 8.84 186.812 8.96V12.28H186.572C182.052 12.28 178.372 15.52 178.372 21.76V30H175.292ZM196.647 30.44C192.807 30.44 188.927 28.28 188.927 24V23.92C188.927 19.6 192.527 17.24 197.767 17.24C200.447 17.24 202.247 17.6 204.127 18.12V17.4C204.127 13.68 201.847 11.76 197.967 11.76C195.527 11.76 193.607 12.36 191.687 13.28L190.767 10.76C193.047 9.68 195.247 9.04 198.287 9.04C201.207 9.04 203.447 9.8 204.967 11.32C206.367 12.72 207.087 14.76 207.087 17.36V30H204.127V26.88C202.687 28.76 200.327 30.44 196.647 30.44ZM197.247 28C201.087 28 204.167 25.68 204.167 22.4V20.4C202.607 19.96 200.647 19.52 198.087 19.52C194.207 19.52 192.047 21.2 192.047 23.8V23.88C192.047 26.48 194.487 28 197.247 28ZM213.731 4.8V1.4H217.251V4.8H213.731ZM213.931 30V9.32H217.011V30H213.931ZM230.319 30.44C226.479 30.44 222.599 28.28 222.599 24V23.92C222.599 19.6 226.199 17.24 231.439 17.24C234.119 17.24 235.919 17.6 237.799 18.12V17.4C237.799 13.68 235.519 11.76 231.639 11.76C229.199 11.76 227.279 12.36 225.359 13.28L224.439 10.76C226.719 9.68 228.919 9.04 231.959 9.04C234.879 9.04 237.119 9.8 238.639 11.32C240.039 12.72 240.759 14.76 240.759 17.36V30H237.799V26.88C236.359 28.76 233.999 30.44 230.319 30.44ZM230.919 28C234.759 28 237.839 25.68 237.839 22.4V20.4C236.279 19.96 234.319 19.52 231.759 19.52C227.879 19.52 225.719 21.2 225.719 23.8V23.88C225.719 26.48 228.159 28 230.919 28ZM267.995 30.44C263.035 30.44 258.115 26.52 258.115 19.72V19.64C258.115 12.92 263.035 8.88 267.995 8.88C271.835 8.88 274.315 10.92 275.915 13.28V0.799999H278.995V30H275.915V25.84C274.195 28.32 271.835 30.44 267.995 30.44ZM268.555 27.68C272.395 27.68 276.035 24.44 276.035 19.68V19.6C276.035 14.84 272.395 11.64 268.555 11.64C264.555 11.64 261.275 14.6 261.275 19.6V19.68C261.275 24.6 264.595 27.68 268.555 27.68ZM295.318 30.48C289.118 30.48 284.598 25.6 284.598 19.76V19.68C284.598 13.8 289.118 8.88 295.398 8.88C301.638 8.88 306.158 13.76 306.158 19.6V19.68C306.158 25.56 301.558 30.48 295.318 30.48ZM295.398 27.72C299.878 27.72 302.997 24.08 302.997 19.76V19.68C302.997 15.24 299.678 11.6 295.318 11.6C290.838 11.6 287.758 15.24 287.758 19.6V19.68C287.758 24.12 291.038 27.72 295.398 27.72ZM324.249 30V2H336.289C339.769 2 342.489 3.04 344.249 4.8C345.649 6.2 346.409 8.08 346.409 10.32V10.4C346.409 15.04 343.209 17.8 338.809 18.56L347.409 30H343.529L335.409 19.12H327.409V30H324.249ZM327.409 16.28H336.009C340.169 16.28 343.209 14.12 343.209 10.52V10.44C343.209 6.96 340.569 4.92 336.049 4.92H327.409V16.28ZM361.685 30.48C355.485 30.48 350.965 25.6 350.965 19.76V19.68C350.965 13.8 355.485 8.88 361.765 8.88C368.005 8.88 372.525 13.76 372.525 19.6V19.68C372.525 25.56 367.925 30.48 361.685 30.48ZM361.765 27.72C366.245 27.72 369.365 24.08 369.365 19.76V19.68C369.365 15.24 366.045 11.6 361.685 11.6C357.205 11.6 354.125 15.24 354.125 19.6V19.68C354.125 24.12 357.405 27.72 361.765 27.72ZM384.944 30.4C381.944 30.4 378.744 29.24 376.384 27.36L377.944 25.16C380.184 26.88 382.664 27.8 385.104 27.8C387.624 27.8 389.384 26.56 389.384 24.52V24.44C389.384 22.4 386.944 21.56 384.224 20.8C381.024 19.84 377.384 18.8 377.384 14.96V14.88C377.384 11.32 380.344 8.96 384.424 8.96C386.984 8.96 389.744 9.84 391.864 11.24L390.464 13.56C388.544 12.32 386.384 11.56 384.344 11.56C381.904 11.56 380.344 12.84 380.344 14.56V14.64C380.344 16.6 382.904 17.36 385.664 18.2C388.864 19.16 392.304 20.4 392.304 24.12V24.2C392.304 28.12 389.064 30.4 384.944 30.4ZM404.186 30.44C400.346 30.44 396.466 28.28 396.466 24V23.92C396.466 19.6 400.066 17.24 405.306 17.24C407.986 17.24 409.786 17.6 411.666 18.12V17.4C411.666 13.68 409.386 11.76 405.506 11.76C403.066 11.76 401.146 12.36 399.226 13.28L398.306 10.76C400.586 9.68 402.786 9.04 405.826 9.04C408.746 9.04 410.986 9.8 412.506 11.32C413.906 12.72 414.626 14.76 414.626 17.36V30H411.666V26.88C410.226 28.76 407.866 30.44 404.186 30.44ZM404.786 28C408.626 28 411.706 25.68 411.706 22.4V20.4C410.146 19.96 408.186 19.52 405.626 19.52C401.746 19.52 399.586 21.2 399.586 23.8V23.88C399.586 26.48 402.026 28 404.786 28Z" fill="#364936"/>
</svg>
